<svg width="55" height="55" viewBox="0 0 55 55" fill="none" xmlns="http://www.w3.org/2000/svg">
<rect x="9" y="9" width="38" height="38" fill="#CFD8DC"/>
<circle cx="12.5" cy="12.5" r="1.5" fill="#90A4AE"/>
<circle cx="16.5" cy="12.5" r="1.5" fill="#90A4AE"/>
<rect x="11" y="17" width="34" height="28" fill="black"/>
<path d="M22.1234 27.9297C22.2276 27.8776 22.324 27.8516 22.4125 27.8516C22.5844 27.8516 22.7276 27.9635 22.8422 28.1875C22.9047 28.3125 22.9359 28.4219 22.9359 28.5156C22.9359 28.6875 22.8292 28.8255 22.6156 28.9297L17.3656 31.4453L22.6156 33.9609C22.8292 34.0651 22.9359 34.2031 22.9359 34.375C22.9359 34.4688 22.9047 34.5781 22.8422 34.7031C22.7276 34.9271 22.5844 35.0391 22.4125 35.0391C22.324 35.0391 22.2276 35.013 22.1234 34.9609L16.0531 31.9844C15.9229 31.9219 15.8292 31.849 15.7719 31.7656C15.7146 31.6823 15.6859 31.5755 15.6859 31.4453C15.6859 31.3151 15.7146 31.2083 15.7719 31.125C15.8292 31.0417 15.9229 30.9688 16.0531 30.9062L22.1234 27.9297ZM30.0312 25.1094C30.2396 25.1094 30.4115 25.1484 30.5469 25.2266C30.6823 25.3047 30.75 25.4036 30.75 25.5234C30.75 25.5651 30.7422 25.6094 30.7266 25.6562L25.4766 38.4922C25.4401 38.5755 25.375 38.6432 25.2812 38.6953C25.1927 38.7474 25.0885 38.7734 24.9688 38.7734C24.7604 38.7734 24.5885 38.7344 24.4531 38.6562C24.3177 38.5781 24.25 38.4792 24.25 38.3594C24.25 38.3177 24.2578 38.2734 24.2734 38.2266L29.5234 25.3906C29.5599 25.3073 29.6224 25.2396 29.7109 25.1875C29.8047 25.1354 29.9115 25.1094 30.0312 25.1094ZM38.9469 30.9062C39.0771 30.9688 39.1708 31.0417 39.2281 31.125C39.2854 31.2083 39.3141 31.3151 39.3141 31.4453C39.3141 31.5755 39.2854 31.6823 39.2281 31.7656C39.1708 31.849 39.0771 31.9219 38.9469 31.9844L32.8766 34.9609C32.7724 35.013 32.676 35.0391 32.5875 35.0391C32.4156 35.0391 32.2724 34.9271 32.1578 34.7031C32.0953 34.5781 32.0641 34.4688 32.0641 34.375C32.0641 34.2031 32.1708 34.0651 32.3844 33.9609L37.6344 31.4453L32.3844 28.9297C32.1708 28.8255 32.0641 28.6875 32.0641 28.5156C32.0641 28.4219 32.0953 28.3125 32.1578 28.1875C32.2724 27.9635 32.4156 27.8516 32.5875 27.8516C32.676 27.8516 32.7724 27.8776 32.8766 27.9297L38.9469 30.9062Z" fill="#00731E"/>
</svg>
