<svg width="38" height="38" viewBox="0 0 38 38" fill="none" xmlns="http://www.w3.org/2000/svg">
<rect width="38" height="38" fill="#CFD8DC"/>
<circle cx="3.5" cy="3.5" r="1.5" fill="#90A4AE"/>
<circle cx="7.5" cy="3.5" r="1.5" fill="#90A4AE"/>
<rect x="2" y="8" width="34" height="28" fill="black"/>
<path d="M13.1234 18.9297C13.2276 18.8776 13.324 18.8516 13.4125 18.8516C13.5844 18.8516 13.7276 18.9635 13.8422 19.1875C13.9047 19.3125 13.9359 19.4219 13.9359 19.5156C13.9359 19.6875 13.8292 19.8255 13.6156 19.9297L8.36563 22.4453L13.6156 24.9609C13.8292 25.0651 13.9359 25.2031 13.9359 25.375C13.9359 25.4688 13.9047 25.5781 13.8422 25.7031C13.7276 25.9271 13.5844 26.0391 13.4125 26.0391C13.324 26.0391 13.2276 26.013 13.1234 25.9609L7.05313 22.9844C6.92292 22.9219 6.82917 22.849 6.77188 22.7656C6.71458 22.6823 6.68594 22.5755 6.68594 22.4453C6.68594 22.3151 6.71458 22.2083 6.77188 22.125C6.82917 22.0417 6.92292 21.9688 7.05313 21.9062L13.1234 18.9297ZM21.0312 16.1094C21.2396 16.1094 21.4115 16.1484 21.5469 16.2266C21.6823 16.3047 21.75 16.4036 21.75 16.5234C21.75 16.5651 21.7422 16.6094 21.7266 16.6562L16.4766 29.4922C16.4401 29.5755 16.375 29.6432 16.2812 29.6953C16.1927 29.7474 16.0885 29.7734 15.9688 29.7734C15.7604 29.7734 15.5885 29.7344 15.4531 29.6562C15.3177 29.5781 15.25 29.4792 15.25 29.3594C15.25 29.3177 15.2578 29.2734 15.2734 29.2266L20.5234 16.3906C20.5599 16.3073 20.6224 16.2396 20.7109 16.1875C20.8047 16.1354 20.9115 16.1094 21.0312 16.1094ZM29.9469 21.9062C30.0771 21.9688 30.1708 22.0417 30.2281 22.125C30.2854 22.2083 30.3141 22.3151 30.3141 22.4453C30.3141 22.5755 30.2854 22.6823 30.2281 22.7656C30.1708 22.849 30.0771 22.9219 29.9469 22.9844L23.8766 25.9609C23.7724 26.013 23.676 26.0391 23.5875 26.0391C23.4156 26.0391 23.2724 25.9271 23.1578 25.7031C23.0953 25.5781 23.0641 25.4688 23.0641 25.375C23.0641 25.2031 23.1708 25.0651 23.3844 24.9609L28.6344 22.4453L23.3844 19.9297C23.1708 19.8255 23.0641 19.6875 23.0641 19.5156C23.0641 19.4219 23.0953 19.3125 23.1578 19.1875C23.2724 18.9635 23.4156 18.8516 23.5875 18.8516C23.676 18.8516 23.7724 18.8776 23.8766 18.9297L29.9469 21.9062Z" fill="#00731E"/>
</svg>
