<svg width="55" height="55" viewBox="0 0 55 55" fill="none" xmlns="http://www.w3.org/2000/svg">
<rect x="19.0117" y="8" width="40.2947" height="12" transform="rotate(45 19.0117 8)" fill="#00731E"/>
<rect x="20.3945" y="15.8184" width="2" height="4.53543" transform="rotate(-135 20.3945 15.8184)" fill="#003D10"/>
<rect x="25.2539" y="20.3379" width="2" height="4.29857" transform="rotate(-135 25.2539 20.3379)" fill="#003D10"/>
<rect x="21.4551" y="19.332" width="2" height="6.27281" transform="rotate(-135 21.4551 19.332)" fill="#003D10"/>
<rect x="35.4551" y="31.1367" width="2" height="4.72463" transform="rotate(-135 35.4551 31.1367)" fill="#003D10"/>
<rect x="40.3145" y="35.6562" width="2" height="4.48571" transform="rotate(-135 40.3145 35.6562)" fill="#003D10"/>
<rect x="36.5156" y="34.6504" width="2" height="6.45304" transform="rotate(-135 36.5156 34.6504)" fill="#003D10"/>
<path d="M13.7266 36.7002L39.4969 10.9299C40.2779 10.1489 41.5442 10.1489 42.3253 10.9299L45.1537 13.7583C45.9348 14.5394 45.9348 15.8057 45.1537 16.5868L19.3834 42.357L13.7266 36.7002Z" fill="black"/>
<path d="M39.5174 10.9279C40.2985 10.1468 41.5648 10.1468 42.3459 10.9279L45.1664 13.7484C45.9474 14.5294 45.9474 15.7958 45.1664 16.5768L43.7412 18.002L38.0923 12.353L39.5174 10.9279Z" fill="#00731E"/>
<path d="M38.0898 12.334L43.7539 17.998L41.6572 20.0947L35.9932 14.4307L38.0898 12.334Z" fill="#CFD8DC"/>
<path d="M11.2595 44.8054L13.7396 36.6789L19.3861 42.3254L11.2595 44.8054Z" fill="#CFD8DC"/>
<path d="M11.2632 44.8052L12.6892 40.1206L15.9478 43.3792L11.2632 44.8052Z" fill="#657280" fill-opacity="0.85"/>
</svg>
