<svg width="40" height="41" viewBox="0 0 40 41" fill="none" xmlns="http://www.w3.org/2000/svg">
<rect x="11.0117" width="40.2947" height="12" transform="rotate(45 11.0117 0)" fill="#00731E"/>
<rect x="12.3945" y="7.81836" width="2" height="4.53543" transform="rotate(-135 12.3945 7.81836)" fill="#003D10"/>
<rect x="17.2539" y="12.3379" width="2" height="4.29857" transform="rotate(-135 17.2539 12.3379)" fill="#003D10"/>
<rect x="13.4551" y="11.332" width="2" height="6.27281" transform="rotate(-135 13.4551 11.332)" fill="#003D10"/>
<rect x="27.4551" y="23.1367" width="2" height="4.72463" transform="rotate(-135 27.4551 23.1367)" fill="#003D10"/>
<rect x="32.3145" y="27.6562" width="2" height="4.48571" transform="rotate(-135 32.3145 27.6562)" fill="#003D10"/>
<rect x="28.5156" y="26.6504" width="2" height="6.45304" transform="rotate(-135 28.5156 26.6504)" fill="#003D10"/>
<path d="M5.72656 28.7002L31.4969 2.9299C32.2779 2.14885 33.5442 2.14885 34.3253 2.9299L37.1537 5.75833C37.9348 6.53938 37.9348 7.80571 37.1537 8.58676L11.3834 34.357L5.72656 28.7002Z" fill="black"/>
<path d="M31.5174 2.92788C32.2985 2.14684 33.5648 2.14684 34.3459 2.92789L37.1664 5.74838C37.9474 6.52943 37.9474 7.79576 37.1664 8.57681L35.7412 10.002L30.0923 4.35303L31.5174 2.92788Z" fill="#00731E"/>
<path d="M30.0898 4.33398L35.7539 9.99805L33.6572 12.0947L27.9932 6.43066L30.0898 4.33398Z" fill="#CFD8DC"/>
<path d="M3.25952 36.8054L5.73957 28.6789L11.3861 34.3254L3.25952 36.8054Z" fill="#CFD8DC"/>
<path d="M3.26318 36.8052L4.68919 32.1206L7.94778 35.3792L3.26318 36.8052Z" fill="#657280" fill-opacity="0.85"/>
</svg>
