<svg width="527" height="704" viewBox="0 0 527 704" fill="none" xmlns="http://www.w3.org/2000/svg">
<path d="M387.366 249.327H385.196V189.923C385.196 180.805 381.569 172.06 375.114 165.612C368.659 159.164 359.904 155.542 350.775 155.542H224.778C215.648 155.542 206.893 159.164 200.438 165.612C193.983 172.06 190.356 180.805 190.356 189.923V515.818C190.356 524.937 193.983 533.682 200.438 540.13C206.893 546.578 215.648 550.2 224.778 550.2H350.777C359.906 550.2 368.661 546.578 375.116 540.13C381.571 533.682 385.198 524.937 385.198 515.818V291.612H387.366V249.327Z" fill="#3F3D56"/>
<path d="M378.18 187.623V518.121C378.179 525.034 375.429 531.664 370.536 536.554C365.642 541.443 359.005 544.191 352.084 544.193H223.495C216.571 544.194 209.93 541.447 205.033 536.557C200.136 531.667 197.384 525.034 197.382 518.118V187.623C197.384 180.707 200.137 174.075 205.034 169.186C209.931 164.296 216.571 161.55 223.495 161.551H239.093C238.327 163.432 238.036 165.473 238.244 167.493C238.453 169.513 239.155 171.451 240.289 173.137C241.423 174.823 242.954 176.204 244.748 177.16C246.542 178.117 248.544 178.618 250.577 178.62H323.886C325.919 178.618 327.921 178.116 329.715 177.16C331.509 176.203 333.04 174.821 334.174 173.135C335.307 171.449 336.009 169.511 336.217 167.491C336.426 165.47 336.134 163.43 335.367 161.549H352.076C358.997 161.55 365.635 164.296 370.529 169.184C375.424 174.072 378.175 180.702 378.178 187.615L378.18 187.623Z" fill="#E6E6E6"/>
<path d="M364.479 526.941H211.083C209.774 526.94 208.519 526.419 207.593 525.495C206.667 524.57 206.146 523.316 206.145 522.008V199.897C206.146 198.59 206.667 197.336 207.593 196.411C208.519 195.486 209.774 194.966 211.083 194.964H364.479C365.788 194.966 367.044 195.486 367.97 196.411C368.896 197.336 369.416 198.59 369.418 199.897V522.008C369.416 523.316 368.896 524.57 367.97 525.495C367.044 526.419 365.788 526.94 364.479 526.941Z" fill="white"/>
<path d="M287.2 303.716C310.541 303.716 329.463 284.816 329.463 261.502C329.463 238.187 310.541 219.287 287.2 219.287C263.859 219.287 244.937 238.187 244.937 261.502C244.937 284.816 263.859 303.716 287.2 303.716Z" fill="#E6E6E6"/>
<path d="M286.619 298.001C306.8 298.001 323.16 281.66 323.16 261.502C323.16 241.344 306.8 225.002 286.619 225.002C266.438 225.002 250.078 241.344 250.078 261.502C250.078 281.66 266.438 298.001 286.619 298.001Z" fill="white"/>
<path d="M287.433 240.8C283.312 240.8 279.284 242.02 275.858 244.307C272.432 246.594 269.761 249.844 268.185 253.646C266.608 257.449 266.195 261.633 266.999 265.67C267.803 269.706 269.787 273.414 272.701 276.325C275.614 279.235 279.327 281.217 283.368 282.02C287.409 282.823 291.598 282.411 295.405 280.836C299.212 279.261 302.466 276.594 304.755 273.171C307.045 269.749 308.266 265.726 308.266 261.61C308.266 256.091 306.071 250.798 302.164 246.895C298.257 242.992 292.958 240.8 287.433 240.8ZM287.433 247.043C288.669 247.043 289.877 247.409 290.905 248.095C291.933 248.781 292.734 249.756 293.207 250.897C293.68 252.038 293.804 253.293 293.563 254.504C293.322 255.715 292.726 256.828 291.852 257.701C290.978 258.574 289.864 259.168 288.652 259.409C287.439 259.65 286.183 259.527 285.041 259.054C283.899 258.581 282.922 257.781 282.236 256.755C281.549 255.728 281.182 254.521 281.182 253.286C281.182 252.466 281.344 251.654 281.658 250.897C281.972 250.139 282.433 249.451 283.013 248.872C283.593 248.292 284.282 247.832 285.041 247.518C285.799 247.204 286.612 247.043 287.433 247.043ZM287.433 277.097C284.963 277.086 282.534 276.473 280.356 275.312C278.178 274.151 276.316 272.477 274.932 270.434C275.032 266.272 283.265 263.981 287.433 263.981C291.6 263.981 299.833 266.272 299.933 270.434C298.548 272.475 296.686 274.149 294.508 275.31C292.33 276.472 289.901 277.085 287.433 277.099V277.097Z" fill="#00731E"/>
<path d="M322.079 317.903H248.962V323.392H322.079V317.903Z" fill="#E6E6E6"/>
<path d="M331.197 332.167H239.179V337.656H331.197V332.167Z" fill="#E6E6E6"/>
<path d="M352.595 373.139H222.967V502.618H352.595V373.139Z" fill="#E6E6E6"/>
<path d="M349.171 375.878H225.028V499.879H349.171V375.878Z" fill="white"/>
<path d="M298.919 387.848H250.594V391.476H298.919V387.848Z" fill="#E6E6E6"/>
<path d="M325.217 398.499H250.594V402.127H325.217V398.499Z" fill="#00731E"/>
<path d="M312.186 408.643H251.37V412.271H312.186V408.643Z" fill="#E6E6E6"/>
<path d="M286.098 419.772H250.594V423.4H286.098V419.772Z" fill="#E6E6E6"/>
<path d="M304.178 430.643H250.594V434.271H304.178V430.643Z" fill="#00731E"/>
<path d="M298.919 441.582H250.594V445.21H298.919V441.582Z" fill="#E6E6E6"/>
<path d="M325.217 452.233H250.594V455.861H325.217V452.233Z" fill="#00731E"/>
<path d="M312.186 462.376H251.37V466.004H312.186V462.376Z" fill="#E6E6E6"/>
<path d="M286.098 473.506H250.594V477.134H286.098V473.506Z" fill="#E6E6E6"/>
<path d="M304.178 484.377H250.594V488.005H304.178V484.377Z" fill="#E6E6E6"/>
<path d="M467.529 437.041C467.183 437.645 466.722 438.175 466.171 438.601C465.62 439.027 464.99 439.34 464.318 439.523C463.646 439.706 462.944 439.755 462.253 439.667C461.562 439.579 460.895 439.356 460.29 439.01C459.686 438.665 459.155 438.204 458.729 437.654C458.302 437.104 457.988 436.475 457.805 435.803C457.622 435.132 457.573 434.431 457.661 433.741C457.749 433.051 457.973 432.384 458.318 431.78C458.33 431.76 458.342 431.739 458.354 431.719C458.503 431.47 458.67 431.233 458.854 431.01L454.391 399.241L454.258 398.289L453.351 391.806L453.218 390.871L453.712 390.895L462.358 391.289L464.676 391.394L464.967 397.308L466.611 430.558C467.47 431.379 468.028 432.464 468.194 433.64C468.361 434.816 468.126 436.014 467.529 437.041Z" fill="#FFB8B8"/>
<path d="M454.283 398.576L465.262 397.571C465.832 397.517 466.357 397.24 466.723 396.801C467.089 396.362 467.267 395.797 467.217 395.228L465.183 372.423C465.086 371.336 464.775 370.278 464.269 369.31C463.762 368.343 463.07 367.484 462.231 366.784C461.393 366.084 460.424 365.555 459.381 365.229C458.338 364.902 457.241 364.784 456.152 364.881C455.063 364.978 454.004 365.289 453.035 365.795C452.067 366.3 451.207 366.992 450.506 367.83C449.805 368.667 449.276 369.635 448.949 370.677C448.622 371.719 448.504 372.815 448.601 373.902C448.615 374.059 448.634 374.216 448.657 374.372L451.949 396.74C452.024 397.252 452.282 397.72 452.674 398.059C453.066 398.398 453.567 398.585 454.086 398.586C454.152 398.587 454.218 398.584 454.283 398.576Z" fill="#00731E"/>
<path d="M462.605 380.154C463.716 377.012 463.767 373.594 462.752 370.42C461.736 367.246 459.71 364.491 456.981 362.575C452.841 359.746 447.176 358.73 441.075 365.985C428.873 380.494 425.677 396.455 425.677 396.455L450.662 400.517C450.662 400.517 459.159 390.143 462.605 380.154Z" fill="#00731E"/>
<path d="M422.195 543.592H415.072L411.683 516.147H422.197L422.195 543.592Z" fill="#FFB8B8"/>
<path d="M401.335 550.198H423.723V541.558H409.985C407.691 541.558 405.491 542.468 403.869 544.089C402.247 545.709 401.335 547.907 401.335 550.198Z" fill="#2F2E41"/>
<path d="M480.761 537.386L473.998 539.619L462.156 514.623L472.138 511.327L480.761 537.386Z" fill="#FFB8B8"/>
<path d="M463.029 550.198L484.286 543.18L481.572 534.977L468.528 539.283C467.449 539.639 466.451 540.204 465.591 540.945C464.731 541.686 464.026 542.59 463.515 543.603C463.005 544.617 462.699 545.721 462.616 546.852C462.532 547.984 462.673 549.121 463.029 550.198Z" fill="#2F2E41"/>
<path d="M446.921 355.379C454.803 355.379 461.192 348.997 461.192 341.124C461.192 333.252 454.803 326.87 446.921 326.87C439.039 326.87 432.65 333.252 432.65 341.124C432.65 348.997 439.039 355.379 446.921 355.379Z" fill="#FFB8B8"/>
<path d="M434.426 535.952L441.041 492.34C441.112 491.874 441.342 491.448 441.692 491.133C442.043 490.819 442.492 490.635 442.963 490.615C443.434 490.594 443.897 490.738 444.274 491.02C444.65 491.303 444.917 491.708 445.028 492.166L455.102 533.728C455.261 534.364 455.652 534.919 456.199 535.282C456.746 535.646 457.409 535.792 458.059 535.692L485.847 531.232C486.215 531.172 486.567 531.035 486.878 530.829C487.189 530.623 487.452 530.353 487.65 530.037C487.848 529.721 487.976 529.366 488.025 528.996C488.074 528.627 488.043 528.251 487.935 527.894L451.7 408.568C451.597 408.229 451.585 407.869 451.665 407.524L452.871 402.3C453.003 401.734 452.942 401.14 452.697 400.612C452.452 400.085 452.037 399.655 451.519 399.39C446.585 396.875 434.088 391.647 424.657 397.374C424.35 397.561 424.086 397.807 423.878 398.099C423.67 398.391 423.524 398.723 423.449 399.073L395.142 531.962C395.065 532.324 395.066 532.697 395.144 533.058C395.223 533.419 395.377 533.76 395.596 534.057C395.816 534.354 396.096 534.602 396.419 534.783C396.741 534.964 397.098 535.074 397.467 535.107L431.607 538.161C431.685 538.168 431.762 538.172 431.84 538.172C432.465 538.171 433.069 537.946 433.543 537.539C434.017 537.132 434.329 536.569 434.424 535.952L434.426 535.952Z" fill="#2F2E41"/>
<path d="M456.384 331.053C455.308 330.407 454.353 329.578 453.563 328.604C453.173 328.112 452.916 327.527 452.817 326.907C452.718 326.287 452.781 325.652 452.999 325.063C453.72 323.474 455.863 322.974 457.523 323.513C459.184 324.052 460.466 325.354 461.679 326.608C462.748 327.711 463.847 328.867 464.352 330.318C464.857 331.768 464.599 333.607 463.338 334.488C462.1 335.351 460.321 334.998 459.131 334.07C457.941 333.143 457.204 331.766 456.502 330.431L456.384 331.053Z" fill="#2F2E41"/>
<path d="M461.218 326.991C461.297 322.975 465.88 320.095 469.839 320.807C473.797 321.519 476.84 324.89 478.363 328.608C481.58 336.463 479.165 345.427 476.065 353.332C472.964 361.237 469.127 369.257 469.58 377.733C469.886 382.314 471.425 386.727 474.034 390.507C476.644 394.287 480.227 397.293 484.405 399.207C479.938 401.229 474.598 399.14 470.844 395.987C462.507 388.985 459.289 376.517 463.197 366.362C465.124 361.353 468.521 357.067 471.173 352.4C473.825 347.734 475.771 342.233 474.401 337.044C473.032 331.855 467.205 327.654 462.224 329.662L461.218 326.991Z" fill="#2F2E41"/>
<path d="M446.065 347.45C447.309 345.35 448.564 342.593 446.291 340.757C445.796 340.376 445.23 340.098 444.627 339.939C444.023 339.779 443.394 339.742 442.775 339.829C440.212 340.138 437.42 340.265 434.938 339.334C434.007 339.014 433.151 338.511 432.418 337.854C431.686 337.197 431.094 336.399 430.676 335.509C429.398 332.477 430.999 328.793 433.677 326.876C435.316 325.747 437.252 325.125 439.242 325.09C441.233 325.055 443.19 325.607 444.867 326.679C448.336 325.148 452.544 325.829 455.696 327.936C458.848 330.042 461.004 333.416 462.175 337.019C463.254 340.119 463.44 343.461 462.712 346.662C462.125 348.889 461.01 350.941 459.461 352.647C457.912 354.352 455.974 355.659 453.812 356.458C452.97 356.79 452.055 356.895 451.16 356.762C450.264 356.63 449.419 356.265 448.709 355.703C448.709 355.703 446.743 353.988 446.127 351.923C445.654 350.334 445.401 348.572 446.065 347.45Z" fill="#2F2E41"/>
<path d="M403.729 360.169C403.8 360.483 403.847 360.801 403.868 361.121L428.828 375.504L434.895 372.016L441.362 380.473L431.223 387.692C430.404 388.275 429.417 388.577 428.411 388.553C427.406 388.528 426.435 388.178 425.645 387.556L399.905 367.274C398.743 367.704 397.477 367.77 396.277 367.464C395.076 367.158 393.997 366.494 393.184 365.561C392.37 364.627 391.861 363.468 391.723 362.238C391.585 361.008 391.825 359.766 392.411 358.675C392.997 357.585 393.902 356.699 395.005 356.135C396.108 355.571 397.357 355.356 398.585 355.518C399.813 355.68 400.963 356.212 401.882 357.043C402.8 357.874 403.443 358.964 403.726 360.169H403.729Z" fill="#FFB8B8"/>
<path d="M429.663 376.186L437.73 386.629C437.96 386.926 438.25 387.17 438.583 387.344C438.915 387.519 439.281 387.62 439.656 387.64C440.031 387.661 440.406 387.6 440.755 387.463C441.105 387.326 441.421 387.115 441.681 386.845L450.813 377.373C452.359 376.224 453.384 374.509 453.663 372.606C453.943 370.702 453.454 368.765 452.304 367.222C451.154 365.678 449.437 364.654 447.531 364.375C445.625 364.096 443.686 364.584 442.141 365.733C442.062 365.792 441.984 365.852 441.908 365.914L430.454 372.311C430.126 372.494 429.842 372.746 429.62 373.049C429.398 373.352 429.245 373.699 429.169 374.067C429.094 374.435 429.099 374.814 429.184 375.18C429.269 375.545 429.432 375.888 429.661 376.186L429.663 376.186Z" fill="#00731E"/>
<path d="M136.876 401.075C136.591 401.205 136.317 401.358 136.056 401.532L109.995 390.422L109.065 383.564L98.6519 383.501L99.2672 399.229L133.665 408.316C133.737 408.555 133.824 408.789 133.925 409.018C134.423 410.078 135.222 410.967 136.224 411.575C137.226 412.182 138.385 412.48 139.556 412.432C140.727 412.383 141.858 411.99 142.806 411.302C143.754 410.614 144.478 409.661 144.885 408.564C145.293 407.467 145.367 406.273 145.099 405.134C144.83 403.994 144.23 402.96 143.374 402.16C142.518 401.36 141.445 400.83 140.289 400.638C139.133 400.445 137.946 400.598 136.876 401.077L136.876 401.075Z" fill="#A0616A"/>
<path d="M94.8649 543.592H101.989L105.377 516.147H94.8638L94.8649 543.592Z" fill="#A0616A"/>
<path d="M107.077 541.559H93.3384V550.197H115.727C115.727 547.905 114.815 545.707 113.193 544.087C111.571 542.467 109.371 541.557 107.077 541.557V541.559Z" fill="#2F2E41"/>
<path d="M67.1606 541.582L74.2494 542.278L80.3161 515.298L69.8532 514.271L67.1606 541.582Z" fill="#A0616A"/>
<path d="M79.5172 540.756L65.8477 539.411L65 548.008L87.2757 550.2C87.387 549.071 87.2746 547.931 86.9449 546.845C86.6153 545.76 86.0747 544.75 85.3542 543.873C84.6338 542.996 83.7474 542.269 82.7458 541.734C81.7442 541.2 80.6475 540.867 79.5172 540.756Z" fill="#2F2E41"/>
<path d="M92.8814 354.455C100.763 354.455 107.152 348.073 107.152 340.2C107.152 332.328 100.763 325.946 92.8814 325.946C84.9997 325.946 78.6104 332.328 78.6104 340.2C78.6104 348.073 84.9997 354.455 92.8814 354.455Z" fill="#A0616A"/>
<path d="M103.58 538.042C104.193 538.044 104.786 537.829 105.255 537.436C105.725 537.043 106.04 536.497 106.146 535.895C109.83 515.455 121.885 448.606 122.173 446.753C122.18 446.71 122.183 446.667 122.182 446.624V441.64C122.183 441.458 122.126 441.281 122.02 441.134L120.428 438.906C120.353 438.799 120.253 438.71 120.138 438.648C120.023 438.585 119.895 438.549 119.764 438.543C110.687 438.118 80.9592 436.872 79.5228 438.665C78.0807 440.464 78.5932 445.923 78.7094 446.999L78.7035 447.111L65.3483 532.427C65.2436 533.107 65.4115 533.801 65.8155 534.359C66.2195 534.917 66.8271 535.293 67.5068 535.407L75.8483 536.779C76.4695 536.879 77.106 536.753 77.6418 536.423C78.1776 536.094 78.5773 535.583 78.7681 534.984C81.3479 526.75 89.999 499.048 92.9972 488.329C93.0164 488.262 93.0594 488.204 93.1183 488.165C93.1772 488.127 93.2479 488.111 93.3175 488.121C93.387 488.131 93.4506 488.166 93.4966 488.219C93.5425 488.272 93.5676 488.34 93.5672 488.41C93.4173 498.628 93.0553 524.697 92.9281 533.701L92.9147 534.671C92.9092 535.327 93.1504 535.962 93.5908 536.45C94.0311 536.937 94.6385 537.242 95.2929 537.304L103.336 538.031C103.417 538.039 103.499 538.043 103.58 538.042Z" fill="#2F2E41"/>
<path d="M101.939 360.06C104.429 361.539 105.92 364.256 106.775 367.025C108.358 372.144 109.311 377.438 109.613 382.787L110.517 398.806L121.705 441.272C112.008 449.468 106.415 447.605 93.3609 440.901C80.3072 434.198 78.8162 443.136 78.8162 443.136L76.2062 407.003L72.4771 367.519C73.3143 366.512 74.2619 365.602 75.3021 364.806C78.749 362.128 82.7594 360.267 87.0311 359.362C91.3028 358.457 95.7245 358.533 99.9628 359.583L101.939 360.06Z" fill="#E6E6E6"/>
<path d="M105.573 409.651C105.272 409.764 104.981 409.9 104.701 410.058L78.9319 397.173L78.5042 390.194L67.8746 389.462L67.3052 405.372L101.741 416.747C102.022 417.953 102.664 419.044 103.581 419.876C104.498 420.708 105.647 421.242 106.875 421.405C108.103 421.569 109.352 421.356 110.456 420.793C111.56 420.231 112.466 419.346 113.054 418.257C113.641 417.167 113.883 415.925 113.747 414.695C113.611 413.465 113.103 412.305 112.29 411.371C111.478 410.436 110.4 409.771 109.2 409.463C108 409.155 106.735 409.22 105.572 409.648L105.573 409.651Z" fill="#A0616A"/>
<path d="M72.6632 367.696C66.3234 369.931 65.2061 394.147 65.2061 394.147C72.6649 390.049 81.6153 396.754 81.6153 396.754C81.6153 396.754 83.4799 390.421 85.7175 382.226C86.3932 379.921 86.474 377.483 85.9524 375.138C85.4308 372.793 84.3238 370.618 82.7344 368.816C82.7344 368.816 79.0036 365.46 72.6632 367.696Z" fill="#E6E6E6"/>
<path d="M80.0883 343.97C81.8662 342.55 84.2921 345.131 84.2921 345.131L85.7145 332.345C85.7145 332.345 94.6045 333.409 100.295 331.99C105.986 330.571 106.874 337.141 106.874 337.141C107.168 334.487 107.227 331.812 107.052 329.148C106.697 325.951 102.074 322.754 93.8944 320.623C85.7151 318.492 81.4479 327.727 81.4479 327.727C75.7549 330.568 78.308 345.391 80.0883 343.97Z" fill="#2F2E41"/>
</svg>
