<svg width="85" height="81" viewBox="0 0 85 81" fill="none" xmlns="http://www.w3.org/2000/svg">
<path d="M63.0048 71.2681C74.7356 71.2681 84.3511 61.6526 84.3511 49.9218C84.3511 40.3064 78.0049 32.0371 69.1587 29.5371C67.4279 19.3447 58.774 11.6523 48.197 11.6523C37.62 11.6523 28.9661 19.3447 27.2354 29.3448C18.3892 32.0371 12.043 40.114 12.043 49.7295C12.043 61.4603 21.6584 71.0758 33.3892 71.0758C35.3123 71.2681 59.7356 71.2681 63.0048 71.2681Z" fill="#00731E"/>
<path d="M40.5039 18.3848V78.0005" stroke="black" stroke-width="6" stroke-miterlimit="10" stroke-linecap="round"/>
<path d="M24.1523 31.8477L40.4986 48.1939" stroke="black" stroke-width="6" stroke-miterlimit="10" stroke-linecap="round"/>
<path d="M56.8502 39.5381L40.5039 55.8843" stroke="black" stroke-width="6" stroke-miterlimit="10" stroke-linecap="round"/>
<path d="M24.154 10.3057C21.4616 13.3826 19.5386 17.0365 18.7693 21.2673C9.73081 23.9596 3 32.4212 3 42.4212C3 54.729 12.8077 64.5368 25.1155 64.5368C27.2309 64.5368 36.4617 64.5368 40.5002 64.5368" stroke="black" stroke-width="6" stroke-miterlimit="10" stroke-linecap="round" stroke-linejoin="round"/>
<path d="M50.1188 64.5388C58.0034 64.5388 52.6188 64.5388 55.888 64.5388C68.1958 64.5388 78.0035 54.7311 78.0035 42.4233C78.0035 32.4233 71.2727 23.9617 62.2342 21.2693C60.3111 10.8847 51.4649 3 40.5033 3C39.1572 3 37.811 3.19231 36.4648 3.38462" stroke="black" stroke-width="6" stroke-miterlimit="10" stroke-linecap="round" stroke-linejoin="round"/>
</svg>
