<svg id="visual" viewBox="0 0 900 100" width="900" height="100" xmlns="http://www.w3.org/2000/svg" xmlns:xlink="http://www.w3.org/1999/xlink" version="1.1"><path d="M0 44L21.5 48.7C43 53.3 86 62.7 128.8 65.2C171.7 67.7 214.3 63.3 257.2 55.3C300 47.3 343 35.7 385.8 33C428.7 30.3 471.3 36.7 514.2 43C557 49.3 600 55.7 642.8 61C685.7 66.3 728.3 70.7 771.2 67.5C814 64.3 857 53.7 878.5 48.3L900 43L900 101L878.5 101C857 101 814 101 771.2 101C728.3 101 685.7 101 642.8 101C600 101 557 101 514.2 101C471.3 101 428.7 101 385.8 101C343 101 300 101 257.2 101C214.3 101 171.7 101 128.8 101C86 101 43 101 21.5 101L0 101Z" fill="#003d10" stroke-linecap="round" stroke-linejoin="miter"></path></svg>