<svg id="visual" viewBox="0 0 675 200" width="675" height="200" xmlns="http://www.w3.org/2000/svg" xmlns:xlink="http://www.w3.org/1999/xlink" version="1.1"><path d="M0 98L18.8 103C37.7 108 75.3 118 112.8 113.8C150.3 109.7 187.7 91.3 225.2 94.8C262.7 98.3 300.3 123.7 337.8 134.2C375.3 144.7 412.7 140.3 450.2 130C487.7 119.7 525.3 103.3 562.8 92.3C600.3 81.3 637.7 75.7 656.3 72.8L675 70L675 201L656.3 201C637.7 201 600.3 201 562.8 201C525.3 201 487.7 201 450.2 201C412.7 201 375.3 201 337.8 201C300.3 201 262.7 201 225.2 201C187.7 201 150.3 201 112.8 201C75.3 201 37.7 201 18.8 201L0 201Z" fill="#003d10" stroke-linecap="round" stroke-linejoin="miter"></path></svg>