<svg id="visual" viewBox="0 0 900 100" width="900" height="100" xmlns="http://www.w3.org/2000/svg" xmlns:xlink="http://www.w3.org/1999/xlink" version="1.1"><path d="M0 16L25 27.8C50 39.7 100 63.3 150 65C200 66.7 250 46.3 300 33.5C350 20.7 400 15.3 450 12.7C500 10 550 10 600 21.7C650 33.3 700 56.7 750 59.5C800 62.3 850 44.7 875 35.8L900 27L900 101L875 101C850 101 800 101 750 101C700 101 650 101 600 101C550 101 500 101 450 101C400 101 350 101 300 101C250 101 200 101 150 101C100 101 50 101 25 101L0 101Z" fill="#003d10" stroke-linecap="round" stroke-linejoin="miter"></path></svg>