<svg width="34" height="52" viewBox="0 0 34 52" fill="none" xmlns="http://www.w3.org/2000/svg">
<path d="M9.7026 34.1307C9.31464 33.7376 9.31878 33.1045 9.71185 32.7165C10.1049 32.3286 10.7381 32.3327 11.126 32.7258L14.6384 36.2844C15.0263 36.6774 15.0222 37.3106 14.6291 37.6986C14.236 38.0865 13.6029 38.0824 13.2149 37.6893L9.7026 34.1307Z" fill="black"/>
<path d="M12.9935 29C12.9971 28.4477 13.4477 28.0029 14 28.0065C14.5523 28.0102 14.997 28.4608 14.9934 29.0131L14.9411 37.0129C14.9374 37.5652 14.4868 38.0099 13.9345 38.0063C13.3823 38.0027 12.9375 37.5521 12.9411 36.9998L12.9935 29Z" fill="black"/>
<rect x="19" y="29.4277" width="2" height="7" rx="1" transform="rotate(-45 19 29.4277)" fill="black"/>
<path d="M3 40.0137H31C31.5523 40.0137 32 40.4614 32 41.0137V49.0137C32 49.566 31.5523 50.0137 31 50.0137H3C2.44772 50.0137 2 49.566 2 49.0137V41.0137C2 40.4614 2.44772 40.0137 3 40.0137Z" stroke="black" stroke-width="2"/>
<path d="M15 45.0137C15 44.1852 15.6716 43.5137 16.5 43.5137H27.5C28.3284 43.5137 29 44.1852 29 45.0137C29 45.8421 28.3284 46.5137 27.5 46.5137H16.5C15.6716 46.5137 15 45.8421 15 45.0137Z" fill="black"/>
<path d="M9 45.0137C9 45.8421 8.32843 46.5137 7.5 46.5137C6.67157 46.5137 6 45.8421 6 45.0137C6 44.1852 6.67157 43.5137 7.5 43.5137C8.32843 43.5137 9 44.1852 9 45.0137Z" fill="black"/>
<path d="M19 29.0137C19 28.4614 19.4477 28.0137 20 28.0137C20.5523 28.0137 21 28.4614 21 29.0137V37.0137C21 37.566 20.5523 38.0137 20 38.0137C19.4477 38.0137 19 37.566 19 37.0137V29.0137Z" fill="black"/>
<path d="M26.1641 10.4189C24.5592 7.27047 21.0587 5.08594 17 5.08594C11.7884 5.08594 7.49594 8.69453 6.96469 13.3203H6.375C3.15084 13.3203 0.53125 15.7083 0.53125 18.6484C0.53125 21.5934 3.15084 23.9766 6.375 23.9766H26.0312C30.1378 23.9766 33.4688 20.9395 33.4688 17.1953C33.4688 13.4898 30.2122 10.4867 26.1641 10.4189Z" fill="#00731E"/>
<path d="M33.4688 19.1328C33.4688 22.8819 30.1378 25.9141 26.0312 25.9141H6.375C3.15084 25.9141 0.53125 23.5309 0.53125 20.5859V18.6484C0.53125 21.5934 3.15084 23.9766 6.375 23.9766H26.0312C30.1378 23.9766 33.4688 20.9395 33.4688 17.1953V19.1328Z" fill="#003D10"/>
</svg>
