<svg width="55" height="56" viewBox="0 0 55 56" fill="none" xmlns="http://www.w3.org/2000/svg">
<path d="M20.7026 34.1307C20.3146 33.7376 20.3188 33.1045 20.7119 32.7165C21.1049 32.3286 21.7381 32.3327 22.126 32.7258L25.6384 36.2844C26.0263 36.6774 26.0222 37.3106 25.6291 37.6986C25.236 38.0865 24.6029 38.0824 24.2149 37.6893L20.7026 34.1307Z" fill="black"/>
<path d="M23.9935 29C23.9971 28.4477 24.4477 28.0029 25 28.0065C25.5523 28.0102 25.997 28.4608 25.9934 29.0131L25.9411 37.0129C25.9374 37.5652 25.4868 38.0099 24.9345 38.0063C24.3823 38.0027 23.9375 37.5521 23.9411 36.9998L23.9935 29Z" fill="black"/>
<rect x="30" y="29.4277" width="2" height="7" rx="1" transform="rotate(-45 30 29.4277)" fill="black"/>
<path d="M14 40.0137H42C42.5523 40.0137 43 40.4614 43 41.0137V49.0137C43 49.566 42.5523 50.0137 42 50.0137H14C13.4477 50.0137 13 49.566 13 49.0137V41.0137C13 40.4614 13.4477 40.0137 14 40.0137Z" stroke="black" stroke-width="2"/>
<path d="M26 45.0137C26 44.1852 26.6716 43.5137 27.5 43.5137H38.5C39.3284 43.5137 40 44.1852 40 45.0137C40 45.8421 39.3284 46.5137 38.5 46.5137H27.5C26.6716 46.5137 26 45.8421 26 45.0137Z" fill="black"/>
<path d="M20 45.0137C20 45.8421 19.3284 46.5137 18.5 46.5137C17.6716 46.5137 17 45.8421 17 45.0137C17 44.1852 17.6716 43.5137 18.5 43.5137C19.3284 43.5137 20 44.1852 20 45.0137Z" fill="black"/>
<path d="M30 29.0137C30 28.4614 30.4477 28.0137 31 28.0137C31.5523 28.0137 32 28.4614 32 29.0137V37.0137C32 37.566 31.5523 38.0137 31 38.0137C30.4477 38.0137 30 37.566 30 37.0137V29.0137Z" fill="black"/>
<path d="M37.1641 10.4189C35.5592 7.27047 32.0587 5.08594 28 5.08594C22.7884 5.08594 18.4959 8.69453 17.9647 13.3203H17.375C14.1508 13.3203 11.5312 15.7083 11.5312 18.6484C11.5312 21.5934 14.1508 23.9766 17.375 23.9766H37.0312C41.1378 23.9766 44.4688 20.9395 44.4688 17.1953C44.4688 13.4898 41.2122 10.4867 37.1641 10.4189Z" fill="#00731E"/>
<path d="M44.4688 19.1328C44.4688 22.8819 41.1378 25.9141 37.0312 25.9141H17.375C14.1508 25.9141 11.5312 23.5309 11.5312 20.5859V18.6484C11.5312 21.5934 14.1508 23.9766 17.375 23.9766H37.0312C41.1378 23.9766 44.4688 20.9395 44.4688 17.1953V19.1328Z" fill="#003D10"/>
</svg>
