<svg width="198" height="198" viewBox="0 0 198 198" fill="none" xmlns="http://www.w3.org/2000/svg">
<rect width="197.018" height="197.018" fill="white"/>
<path d="M114.681 124.391C124.198 124.391 132 116.59 132 107.072C132 99.27 126.851 92.5607 119.674 90.5323C118.269 82.2626 111.248 76.0214 102.666 76.0214C94.0844 76.0214 87.063 82.2626 85.6588 90.3762C78.4813 92.5607 73.3323 99.114 73.3323 106.916C73.3323 116.433 81.1338 124.235 90.6518 124.235C92.2121 124.391 112.028 124.391 114.681 124.391Z" fill="#00731E"/>
<path d="M96.4269 81.4822V129.852" stroke="black" stroke-width="6" stroke-miterlimit="10" stroke-linecap="round"/>
<path d="M83.1639 92.4045L96.4266 105.667" stroke="black" stroke-width="6" stroke-miterlimit="10" stroke-linecap="round"/>
<path d="M109.69 98.6451L96.4269 111.908" stroke="black" stroke-width="6" stroke-miterlimit="10" stroke-linecap="round"/>
<path d="M83.1634 74.9286C80.979 77.4251 79.4187 80.3897 78.7946 83.8224C71.4611 86.0068 66 92.8722 66 100.986C66 110.972 73.9576 118.929 83.9436 118.929C85.6599 118.929 93.1495 118.929 96.4261 118.929" stroke="black" stroke-width="6" stroke-miterlimit="10" stroke-linecap="round" stroke-linejoin="round"/>
<path d="M104.228 118.93C110.625 118.93 106.256 118.93 108.909 118.93C118.895 118.93 126.852 110.972 126.852 100.986C126.852 92.8728 121.391 86.0074 114.058 83.823C112.498 75.3973 105.32 69 96.4263 69C95.3341 69 94.2419 69.156 93.1497 69.3121" stroke="black" stroke-width="6" stroke-miterlimit="10" stroke-linecap="round" stroke-linejoin="round"/>
</svg>
