<svg width="390" height="844" viewBox="0 0 390 844" fill="none" xmlns="http://www.w3.org/2000/svg">
<g clip-path="url(#clip0_381_163)">
<rect width="390" height="844" fill="white"/>
<path d="M543 0C505.95 60.5533 468.799 121.107 452.935 188.683C437.071 256.103 442.392 330.546 418.295 375.337C394.097 420.127 340.379 435.266 310.257 482.241C280.235 529.217 273.809 608.186 250.013 673.109C226.217 738.032 185.15 789.065 140.57 815.284C95.9889 841.503 47.9945 842.751 0 844V0H543Z" fill="#DEE2FB"/>
<circle cx="288.5" cy="38.5" r="14.5" fill="#006FAD"/>
<rect x="319.5" y="18.5" width="50" height="35" rx="7.5" stroke="#BBBBBB"/>
<rect x="330" y="27" width="30" height="3" rx="1.5" fill="black"/>
<rect x="330" y="27" width="30" height="3" rx="1.5" stroke="black"/>
<rect x="330" y="35" width="30" height="3" rx="1.5" fill="black"/>
<rect x="330" y="35" width="30" height="3" rx="1.5" stroke="black"/>
<rect x="330" y="43" width="30" height="3" rx="1.5" fill="black"/>
<rect x="330" y="43" width="30" height="3" rx="1.5" stroke="black"/>
<path d="M57.1562 261.797C57.1562 262.26 57.0677 262.698 56.8906 263.109C56.7188 263.516 56.4792 263.872 56.1719 264.18C55.8698 264.482 55.513 264.721 55.1016 264.898C54.6953 265.07 54.2604 265.156 53.7969 265.156C53.3802 265.156 52.9792 265.083 52.5938 264.938C52.2135 264.792 51.8698 264.578 51.5625 264.297C51.2552 264.578 50.9089 264.792 50.5234 264.938C50.138 265.083 49.737 265.156 49.3203 265.156C48.8568 265.156 48.4193 265.07 48.0078 264.898C47.6016 264.721 47.2448 264.482 46.9375 264.18C46.6354 263.872 46.3958 263.516 46.2188 263.109C46.0469 262.698 45.9609 262.26 45.9609 261.797V253.797H48.2031V261.797C48.2031 261.953 48.2318 262.102 48.2891 262.242C48.3464 262.378 48.4245 262.497 48.5234 262.602C48.6276 262.701 48.7474 262.779 48.8828 262.836C49.0182 262.893 49.1641 262.922 49.3203 262.922C49.4766 262.922 49.6224 262.893 49.7578 262.836C49.8932 262.779 50.0104 262.701 50.1094 262.602C50.2135 262.497 50.2943 262.378 50.3516 262.242C50.4089 262.102 50.4375 261.953 50.4375 261.797V253.797H52.6797V261.797C52.6797 261.953 52.7083 262.102 52.7656 262.242C52.8229 262.378 52.901 262.497 53 262.602C53.1042 262.701 53.224 262.779 53.3594 262.836C53.4948 262.893 53.6406 262.922 53.7969 262.922C53.9531 262.922 54.099 262.893 54.2344 262.836C54.3698 262.779 54.487 262.701 54.5859 262.602C54.6901 262.497 54.7708 262.378 54.8281 262.242C54.8906 262.102 54.9219 261.953 54.9219 261.797V253.797H57.1562V261.797ZM61.4531 254.359C61.4531 254.557 61.4141 254.742 61.3359 254.914C61.263 255.086 61.1615 255.237 61.0312 255.367C60.901 255.492 60.7474 255.594 60.5703 255.672C60.3984 255.745 60.2135 255.781 60.0156 255.781C59.8177 255.781 59.6302 255.745 59.4531 255.672C59.2812 255.594 59.1302 255.492 59 255.367C58.875 255.237 58.7734 255.086 58.6953 254.914C58.6224 254.742 58.5859 254.557 58.5859 254.359C58.5859 254.167 58.6224 253.984 58.6953 253.812C58.7734 253.635 58.875 253.484 59 253.359C59.1302 253.229 59.2812 253.128 59.4531 253.055C59.6302 252.977 59.8177 252.938 60.0156 252.938C60.2135 252.938 60.3984 252.977 60.5703 253.055C60.7474 253.128 60.901 253.229 61.0312 253.359C61.1615 253.484 61.263 253.635 61.3359 253.812C61.4141 253.984 61.4531 254.167 61.4531 254.359ZM61.0859 265H58.9375V256.633H61.0859V265ZM64.8672 265H62.7188V253.305H64.8672V265ZM68.6484 265H66.5V253.305H68.6484V265ZM72.4297 265H70.2812V253.305H72.4297V260.68L75.6094 256.648H78.0625L75.2891 260.133L78.0625 265H75.6094L73.9141 261.961L72.4297 263.93V265ZM86.7266 260.742C86.7266 261.367 86.6146 261.951 86.3906 262.492C86.1667 263.029 85.862 263.495 85.4766 263.891C85.0911 264.281 84.638 264.591 84.1172 264.82C83.6016 265.044 83.0469 265.156 82.4531 265.156C81.8646 265.156 81.3099 265.044 80.7891 264.82C80.2734 264.591 79.8203 264.281 79.4297 263.891C79.0443 263.495 78.7396 263.029 78.5156 262.492C78.2917 261.951 78.1797 261.367 78.1797 260.742C78.1797 260.107 78.2917 259.518 78.5156 258.977C78.7396 258.435 79.0443 257.969 79.4297 257.578C79.8203 257.182 80.2734 256.872 80.7891 256.648C81.3099 256.424 81.8646 256.312 82.4531 256.312C83.0469 256.312 83.6016 256.419 84.1172 256.633C84.638 256.841 85.0911 257.141 85.4766 257.531C85.862 257.917 86.1667 258.383 86.3906 258.93C86.6146 259.471 86.7266 260.076 86.7266 260.742ZM84.5781 260.742C84.5781 260.398 84.5208 260.089 84.4062 259.812C84.2969 259.531 84.1458 259.292 83.9531 259.094C83.7604 258.891 83.5339 258.737 83.2734 258.633C83.0182 258.523 82.7448 258.469 82.4531 258.469C82.1615 258.469 81.8854 258.523 81.625 258.633C81.3698 258.737 81.1458 258.891 80.9531 259.094C80.7656 259.292 80.6172 259.531 80.5078 259.812C80.3984 260.089 80.3438 260.398 80.3438 260.742C80.3438 261.065 80.3984 261.365 80.5078 261.641C80.6172 261.917 80.7656 262.156 80.9531 262.359C81.1458 262.562 81.3698 262.724 81.625 262.844C81.8854 262.958 82.1615 263.016 82.4531 263.016C82.7448 263.016 83.0182 262.961 83.2734 262.852C83.5339 262.742 83.7604 262.589 83.9531 262.391C84.1458 262.193 84.2969 261.953 84.4062 261.672C84.5208 261.391 84.5781 261.081 84.5781 260.742ZM98.5469 265H96.4219V259.688C96.4219 259.542 96.3932 259.404 96.3359 259.273C96.2839 259.143 96.2083 259.029 96.1094 258.93C96.0104 258.831 95.8958 258.755 95.7656 258.703C95.6354 258.646 95.4974 258.617 95.3516 258.617C95.2057 258.617 95.0677 258.646 94.9375 258.703C94.8125 258.755 94.7005 258.831 94.6016 258.93C94.5078 259.029 94.4323 259.143 94.375 259.273C94.3229 259.404 94.2969 259.542 94.2969 259.688V265H92.1641V259.688C92.1641 259.542 92.1354 259.404 92.0781 259.273C92.026 259.143 91.9505 259.029 91.8516 258.93C91.7526 258.831 91.638 258.755 91.5078 258.703C91.3776 258.646 91.2396 258.617 91.0938 258.617C90.9479 258.617 90.8099 258.646 90.6797 258.703C90.5547 258.755 90.4427 258.831 90.3438 258.93C90.25 259.029 90.1745 259.143 90.1172 259.273C90.0651 259.404 90.0391 259.542 90.0391 259.688V265H87.9062V256.633H88.4219L89 257.273C89.2969 257.023 89.6224 256.831 89.9766 256.695C90.3359 256.555 90.7083 256.484 91.0938 256.484C91.4844 256.484 91.8646 256.557 92.2344 256.703C92.6094 256.849 92.9375 257.102 93.2188 257.461C93.349 257.284 93.4974 257.133 93.6641 257.008C93.8307 256.883 94.0052 256.781 94.1875 256.703C94.375 256.625 94.5677 256.57 94.7656 256.539C94.9635 256.503 95.1589 256.484 95.3516 256.484C95.7943 256.484 96.2083 256.568 96.5938 256.734C96.9844 256.901 97.3229 257.13 97.6094 257.422C97.901 257.708 98.1302 258.047 98.2969 258.438C98.4635 258.828 98.5469 259.245 98.5469 259.688V265ZM110.75 265H108.625V259.688C108.625 259.542 108.596 259.404 108.539 259.273C108.487 259.143 108.411 259.029 108.312 258.93C108.214 258.831 108.099 258.755 107.969 258.703C107.839 258.646 107.701 258.617 107.555 258.617C107.409 258.617 107.271 258.646 107.141 258.703C107.016 258.755 106.904 258.831 106.805 258.93C106.711 259.029 106.635 259.143 106.578 259.273C106.526 259.404 106.5 259.542 106.5 259.688V265H104.367V259.688C104.367 259.542 104.339 259.404 104.281 259.273C104.229 259.143 104.154 259.029 104.055 258.93C103.956 258.831 103.841 258.755 103.711 258.703C103.581 258.646 103.443 258.617 103.297 258.617C103.151 258.617 103.013 258.646 102.883 258.703C102.758 258.755 102.646 258.831 102.547 258.93C102.453 259.029 102.378 259.143 102.32 259.273C102.268 259.404 102.242 259.542 102.242 259.688V265H100.109V256.633H100.625L101.203 257.273C101.5 257.023 101.826 256.831 102.18 256.695C102.539 256.555 102.911 256.484 103.297 256.484C103.688 256.484 104.068 256.557 104.438 256.703C104.812 256.849 105.141 257.102 105.422 257.461C105.552 257.284 105.701 257.133 105.867 257.008C106.034 256.883 106.208 256.781 106.391 256.703C106.578 256.625 106.771 256.57 106.969 256.539C107.167 256.503 107.362 256.484 107.555 256.484C107.997 256.484 108.411 256.568 108.797 256.734C109.188 256.901 109.526 257.13 109.812 257.422C110.104 257.708 110.333 258.047 110.5 258.438C110.667 258.828 110.75 259.245 110.75 259.688V265ZM115.641 262.953C115.724 262.979 115.807 262.997 115.891 263.008C115.974 263.013 116.057 263.016 116.141 263.016C116.349 263.016 116.549 262.987 116.742 262.93C116.935 262.872 117.115 262.792 117.281 262.688C117.453 262.578 117.604 262.448 117.734 262.297C117.87 262.141 117.979 261.969 118.062 261.781L119.625 263.352C119.427 263.633 119.198 263.885 118.938 264.109C118.682 264.333 118.404 264.523 118.102 264.68C117.805 264.836 117.49 264.953 117.156 265.031C116.828 265.115 116.49 265.156 116.141 265.156C115.552 265.156 114.997 265.047 114.477 264.828C113.961 264.609 113.508 264.305 113.117 263.914C112.732 263.523 112.427 263.06 112.203 262.523C111.979 261.982 111.867 261.388 111.867 260.742C111.867 260.081 111.979 259.477 112.203 258.93C112.427 258.383 112.732 257.917 113.117 257.531C113.508 257.146 113.961 256.846 114.477 256.633C114.997 256.419 115.552 256.312 116.141 256.312C116.49 256.312 116.831 256.354 117.164 256.438C117.497 256.521 117.812 256.641 118.109 256.797C118.411 256.953 118.693 257.146 118.953 257.375C119.214 257.599 119.443 257.852 119.641 258.133L115.641 262.953ZM116.734 258.555C116.635 258.518 116.536 258.495 116.438 258.484C116.344 258.474 116.245 258.469 116.141 258.469C115.849 258.469 115.573 258.523 115.312 258.633C115.057 258.737 114.833 258.888 114.641 259.086C114.453 259.284 114.305 259.523 114.195 259.805C114.086 260.081 114.031 260.393 114.031 260.742C114.031 260.82 114.034 260.909 114.039 261.008C114.049 261.107 114.062 261.208 114.078 261.312C114.099 261.411 114.122 261.508 114.148 261.602C114.174 261.695 114.208 261.779 114.25 261.852L116.734 258.555ZM122.852 265H120.719V256.633H121.234L121.938 257.445C122.281 257.133 122.669 256.893 123.102 256.727C123.539 256.555 123.995 256.469 124.469 256.469C124.979 256.469 125.461 256.568 125.914 256.766C126.367 256.958 126.763 257.227 127.102 257.57C127.44 257.909 127.706 258.307 127.898 258.766C128.096 259.219 128.195 259.703 128.195 260.219V265H126.062V260.219C126.062 260 126.021 259.794 125.938 259.602C125.854 259.404 125.74 259.232 125.594 259.086C125.448 258.94 125.279 258.826 125.086 258.742C124.893 258.659 124.688 258.617 124.469 258.617C124.245 258.617 124.034 258.659 123.836 258.742C123.638 258.826 123.466 258.94 123.32 259.086C123.174 259.232 123.06 259.404 122.977 259.602C122.893 259.794 122.852 260 122.852 260.219V265ZM140.734 265H133.758L137.281 258.773H133.758V256.648H140.734L137.211 262.875H140.734V265ZM148.008 264.023C147.836 264.18 147.651 264.328 147.453 264.469C147.26 264.604 147.057 264.724 146.844 264.828C146.63 264.927 146.409 265.005 146.18 265.062C145.956 265.125 145.727 265.156 145.492 265.156C144.977 265.156 144.492 265.065 144.039 264.883C143.586 264.701 143.188 264.443 142.844 264.109C142.505 263.771 142.237 263.362 142.039 262.883C141.846 262.398 141.75 261.857 141.75 261.258V256.633H143.875V261.258C143.875 261.539 143.917 261.792 144 262.016C144.089 262.234 144.206 262.419 144.352 262.57C144.497 262.721 144.667 262.836 144.859 262.914C145.057 262.992 145.268 263.031 145.492 263.031C145.711 263.031 145.917 262.982 146.109 262.883C146.307 262.779 146.479 262.643 146.625 262.477C146.771 262.31 146.885 262.122 146.969 261.914C147.052 261.701 147.094 261.482 147.094 261.258V256.633H149.227V265H148.711L148.008 264.023ZM157.812 256.039V260.523H160.055C160.362 260.523 160.651 260.466 160.922 260.352C161.193 260.232 161.43 260.07 161.633 259.867C161.836 259.664 161.995 259.427 162.109 259.156C162.229 258.88 162.289 258.589 162.289 258.281C162.289 257.974 162.229 257.685 162.109 257.414C161.995 257.138 161.836 256.898 161.633 256.695C161.43 256.492 161.193 256.333 160.922 256.219C160.651 256.099 160.362 256.039 160.055 256.039H157.812ZM157.812 265H155.57V253.797H160.055C160.466 253.797 160.862 253.852 161.242 253.961C161.622 254.065 161.977 254.216 162.305 254.414C162.638 254.607 162.94 254.841 163.211 255.117C163.487 255.388 163.721 255.69 163.914 256.023C164.112 256.357 164.263 256.714 164.367 257.094C164.477 257.474 164.531 257.87 164.531 258.281C164.531 258.896 164.414 259.477 164.18 260.023C163.945 260.565 163.625 261.039 163.219 261.445C162.812 261.852 162.336 262.172 161.789 262.406C161.247 262.641 160.669 262.758 160.055 262.758H157.812V265ZM172.445 260.523V258.281C172.445 257.974 172.385 257.685 172.266 257.414C172.151 257.138 171.992 256.898 171.789 256.695C171.586 256.492 171.346 256.333 171.07 256.219C170.799 256.099 170.51 256.039 170.203 256.039C169.896 256.039 169.604 256.099 169.328 256.219C169.057 256.333 168.82 256.492 168.617 256.695C168.414 256.898 168.253 257.138 168.133 257.414C168.018 257.685 167.961 257.974 167.961 258.281V260.523H172.445ZM174.688 265H172.445V262.758H167.961V265H165.727V258.281C165.727 257.661 165.844 257.081 166.078 256.539C166.312 255.992 166.63 255.516 167.031 255.109C167.438 254.703 167.911 254.383 168.453 254.148C169 253.914 169.583 253.797 170.203 253.797C170.823 253.797 171.404 253.914 171.945 254.148C172.492 254.383 172.969 254.703 173.375 255.109C173.781 255.516 174.102 255.992 174.336 256.539C174.57 257.081 174.688 257.661 174.688 258.281V265ZM180.992 265H178.758V256.039H175.391V253.797H184.352V256.039H180.992V265ZM198.969 263.852C198.448 264.299 197.865 264.643 197.219 264.883C196.573 265.122 195.904 265.242 195.211 265.242C194.68 265.242 194.167 265.172 193.672 265.031C193.182 264.896 192.721 264.703 192.289 264.453C191.862 264.198 191.471 263.893 191.117 263.539C190.763 263.185 190.458 262.794 190.203 262.367C189.953 261.935 189.758 261.474 189.617 260.984C189.482 260.49 189.414 259.977 189.414 259.445C189.414 258.914 189.482 258.401 189.617 257.906C189.758 257.411 189.953 256.951 190.203 256.523C190.458 256.091 190.763 255.698 191.117 255.344C191.471 254.99 191.862 254.688 192.289 254.438C192.721 254.182 193.182 253.987 193.672 253.852C194.167 253.711 194.68 253.641 195.211 253.641C195.904 253.641 196.573 253.76 197.219 254C197.865 254.234 198.448 254.578 198.969 255.031L197.781 256.984C197.453 256.63 197.065 256.359 196.617 256.172C196.169 255.979 195.701 255.883 195.211 255.883C194.716 255.883 194.253 255.977 193.82 256.164C193.388 256.352 193.01 256.607 192.688 256.93C192.365 257.247 192.109 257.625 191.922 258.062C191.734 258.495 191.641 258.956 191.641 259.445C191.641 259.935 191.734 260.396 191.922 260.828C192.109 261.255 192.365 261.63 192.688 261.953C193.01 262.276 193.388 262.531 193.82 262.719C194.253 262.906 194.716 263 195.211 263C195.701 263 196.169 262.906 196.617 262.719C197.065 262.526 197.453 262.253 197.781 261.898L198.969 263.852ZM202.195 265H200.047V253.305H202.195V265ZM211.914 260.742C211.914 261.367 211.802 261.951 211.578 262.492C211.354 263.029 211.049 263.495 210.664 263.891C210.279 264.281 209.826 264.591 209.305 264.82C208.789 265.044 208.234 265.156 207.641 265.156C207.052 265.156 206.497 265.044 205.977 264.82C205.461 264.591 205.008 264.281 204.617 263.891C204.232 263.495 203.927 263.029 203.703 262.492C203.479 261.951 203.367 261.367 203.367 260.742C203.367 260.107 203.479 259.518 203.703 258.977C203.927 258.435 204.232 257.969 204.617 257.578C205.008 257.182 205.461 256.872 205.977 256.648C206.497 256.424 207.052 256.312 207.641 256.312C208.234 256.312 208.789 256.419 209.305 256.633C209.826 256.841 210.279 257.141 210.664 257.531C211.049 257.917 211.354 258.383 211.578 258.93C211.802 259.471 211.914 260.076 211.914 260.742ZM209.766 260.742C209.766 260.398 209.708 260.089 209.594 259.812C209.484 259.531 209.333 259.292 209.141 259.094C208.948 258.891 208.721 258.737 208.461 258.633C208.206 258.523 207.932 258.469 207.641 258.469C207.349 258.469 207.073 258.523 206.812 258.633C206.557 258.737 206.333 258.891 206.141 259.094C205.953 259.292 205.805 259.531 205.695 259.812C205.586 260.089 205.531 260.398 205.531 260.742C205.531 261.065 205.586 261.365 205.695 261.641C205.805 261.917 205.953 262.156 206.141 262.359C206.333 262.562 206.557 262.724 206.812 262.844C207.073 262.958 207.349 263.016 207.641 263.016C207.932 263.016 208.206 262.961 208.461 262.852C208.721 262.742 208.948 262.589 209.141 262.391C209.333 262.193 209.484 261.953 209.594 261.672C209.708 261.391 209.766 261.081 209.766 260.742ZM219.242 264.023C219.07 264.18 218.885 264.328 218.688 264.469C218.495 264.604 218.292 264.724 218.078 264.828C217.865 264.927 217.643 265.005 217.414 265.062C217.19 265.125 216.961 265.156 216.727 265.156C216.211 265.156 215.727 265.065 215.273 264.883C214.82 264.701 214.422 264.443 214.078 264.109C213.74 263.771 213.471 263.362 213.273 262.883C213.081 262.398 212.984 261.857 212.984 261.258V256.633H215.109V261.258C215.109 261.539 215.151 261.792 215.234 262.016C215.323 262.234 215.44 262.419 215.586 262.57C215.732 262.721 215.901 262.836 216.094 262.914C216.292 262.992 216.503 263.031 216.727 263.031C216.945 263.031 217.151 262.982 217.344 262.883C217.542 262.779 217.714 262.643 217.859 262.477C218.005 262.31 218.12 262.122 218.203 261.914C218.286 261.701 218.328 261.482 218.328 261.258V256.633H220.461V265H219.945L219.242 264.023ZM230.18 265H229.664L228.836 263.852C228.633 264.034 228.417 264.206 228.188 264.367C227.964 264.523 227.727 264.661 227.477 264.781C227.227 264.896 226.969 264.987 226.703 265.055C226.443 265.122 226.177 265.156 225.906 265.156C225.318 265.156 224.763 265.047 224.242 264.828C223.727 264.604 223.273 264.297 222.883 263.906C222.497 263.51 222.193 263.044 221.969 262.508C221.745 261.966 221.633 261.378 221.633 260.742C221.633 260.112 221.745 259.526 221.969 258.984C222.193 258.443 222.497 257.974 222.883 257.578C223.273 257.182 223.727 256.872 224.242 256.648C224.763 256.424 225.318 256.312 225.906 256.312C226.094 256.312 226.286 256.328 226.484 256.359C226.688 256.391 226.883 256.443 227.07 256.516C227.263 256.583 227.443 256.674 227.609 256.789C227.776 256.904 227.917 257.044 228.031 257.211V253.305H230.18V265ZM228.031 260.742C228.031 260.451 227.974 260.169 227.859 259.898C227.75 259.622 227.599 259.38 227.406 259.172C227.214 258.958 226.987 258.789 226.727 258.664C226.471 258.534 226.198 258.469 225.906 258.469C225.615 258.469 225.339 258.521 225.078 258.625C224.823 258.729 224.599 258.88 224.406 259.078C224.219 259.271 224.07 259.508 223.961 259.789C223.852 260.07 223.797 260.388 223.797 260.742C223.797 261.049 223.852 261.341 223.961 261.617C224.07 261.893 224.219 262.135 224.406 262.344C224.599 262.552 224.823 262.716 225.078 262.836C225.339 262.956 225.615 263.016 225.906 263.016C226.198 263.016 226.471 262.953 226.727 262.828C226.987 262.698 227.214 262.529 227.406 262.32C227.599 262.107 227.75 261.865 227.859 261.594C227.974 261.318 228.031 261.034 228.031 260.742ZM235.867 257.156C235.867 256.693 235.956 256.258 236.133 255.852C236.31 255.445 236.549 255.091 236.852 254.789C237.159 254.482 237.516 254.24 237.922 254.062C238.328 253.885 238.763 253.797 239.227 253.797H244.367V256.039H239.227C239.07 256.039 238.924 256.068 238.789 256.125C238.654 256.182 238.534 256.263 238.43 256.367C238.331 256.466 238.253 256.583 238.195 256.719C238.138 256.854 238.109 257 238.109 257.156C238.109 257.312 238.138 257.461 238.195 257.602C238.253 257.737 238.331 257.857 238.43 257.961C238.534 258.06 238.654 258.138 238.789 258.195C238.924 258.253 239.07 258.281 239.227 258.281H241.469C241.932 258.281 242.367 258.37 242.773 258.547C243.185 258.719 243.542 258.958 243.844 259.266C244.151 259.568 244.391 259.924 244.562 260.336C244.74 260.742 244.828 261.177 244.828 261.641C244.828 262.104 244.74 262.539 244.562 262.945C244.391 263.352 244.151 263.708 243.844 264.016C243.542 264.318 243.185 264.557 242.773 264.734C242.367 264.911 241.932 265 241.469 265H236.492V262.758H241.469C241.625 262.758 241.771 262.729 241.906 262.672C242.042 262.615 242.159 262.536 242.258 262.438C242.362 262.333 242.443 262.214 242.5 262.078C242.557 261.943 242.586 261.797 242.586 261.641C242.586 261.484 242.557 261.339 242.5 261.203C242.443 261.068 242.362 260.951 242.258 260.852C242.159 260.747 242.042 260.667 241.906 260.609C241.771 260.552 241.625 260.523 241.469 260.523H239.227C238.763 260.523 238.328 260.435 237.922 260.258C237.516 260.081 237.159 259.841 236.852 259.539C236.549 259.232 236.31 258.875 236.133 258.469C235.956 258.057 235.867 257.62 235.867 257.156ZM254.164 260.742C254.164 261.367 254.052 261.951 253.828 262.492C253.604 263.029 253.299 263.495 252.914 263.891C252.529 264.281 252.076 264.591 251.555 264.82C251.039 265.044 250.484 265.156 249.891 265.156C249.302 265.156 248.747 265.044 248.227 264.82C247.711 264.591 247.258 264.281 246.867 263.891C246.482 263.495 246.177 263.029 245.953 262.492C245.729 261.951 245.617 261.367 245.617 260.742C245.617 260.107 245.729 259.518 245.953 258.977C246.177 258.435 246.482 257.969 246.867 257.578C247.258 257.182 247.711 256.872 248.227 256.648C248.747 256.424 249.302 256.312 249.891 256.312C250.484 256.312 251.039 256.419 251.555 256.633C252.076 256.841 252.529 257.141 252.914 257.531C253.299 257.917 253.604 258.383 253.828 258.93C254.052 259.471 254.164 260.076 254.164 260.742ZM252.016 260.742C252.016 260.398 251.958 260.089 251.844 259.812C251.734 259.531 251.583 259.292 251.391 259.094C251.198 258.891 250.971 258.737 250.711 258.633C250.456 258.523 250.182 258.469 249.891 258.469C249.599 258.469 249.323 258.523 249.062 258.633C248.807 258.737 248.583 258.891 248.391 259.094C248.203 259.292 248.055 259.531 247.945 259.812C247.836 260.089 247.781 260.398 247.781 260.742C247.781 261.065 247.836 261.365 247.945 261.641C248.055 261.917 248.203 262.156 248.391 262.359C248.583 262.562 248.807 262.724 249.062 262.844C249.323 262.958 249.599 263.016 249.891 263.016C250.182 263.016 250.456 262.961 250.711 262.852C250.971 262.742 251.198 262.589 251.391 262.391C251.583 262.193 251.734 261.953 251.844 261.672C251.958 261.391 252.016 261.081 252.016 260.742ZM257.492 265H255.344V253.305H257.492V265ZM265.273 264.023C265.102 264.18 264.917 264.328 264.719 264.469C264.526 264.604 264.323 264.724 264.109 264.828C263.896 264.927 263.674 265.005 263.445 265.062C263.221 265.125 262.992 265.156 262.758 265.156C262.242 265.156 261.758 265.065 261.305 264.883C260.852 264.701 260.453 264.443 260.109 264.109C259.771 263.771 259.503 263.362 259.305 262.883C259.112 262.398 259.016 261.857 259.016 261.258V256.633H261.141V261.258C261.141 261.539 261.182 261.792 261.266 262.016C261.354 262.234 261.471 262.419 261.617 262.57C261.763 262.721 261.932 262.836 262.125 262.914C262.323 262.992 262.534 263.031 262.758 263.031C262.977 263.031 263.182 262.982 263.375 262.883C263.573 262.779 263.745 262.643 263.891 262.477C264.036 262.31 264.151 262.122 264.234 261.914C264.318 261.701 264.359 261.482 264.359 261.258V256.633H266.492V265H265.977L265.273 264.023ZM272.32 265C271.805 265 271.32 264.904 270.867 264.711C270.414 264.513 270.016 264.245 269.672 263.906C269.333 263.562 269.065 263.164 268.867 262.711C268.674 262.258 268.578 261.773 268.578 261.258V258.773H267.539V256.648H268.578V253.305H270.703V256.648H273.938V258.773H270.703V261.258C270.703 261.482 270.745 261.693 270.828 261.891C270.911 262.083 271.026 262.253 271.172 262.398C271.318 262.544 271.49 262.661 271.688 262.75C271.885 262.833 272.096 262.875 272.32 262.875H273.938V265H272.32ZM277.656 254.359C277.656 254.557 277.617 254.742 277.539 254.914C277.466 255.086 277.365 255.237 277.234 255.367C277.104 255.492 276.951 255.594 276.773 255.672C276.602 255.745 276.417 255.781 276.219 255.781C276.021 255.781 275.833 255.745 275.656 255.672C275.484 255.594 275.333 255.492 275.203 255.367C275.078 255.237 274.977 255.086 274.898 254.914C274.826 254.742 274.789 254.557 274.789 254.359C274.789 254.167 274.826 253.984 274.898 253.812C274.977 253.635 275.078 253.484 275.203 253.359C275.333 253.229 275.484 253.128 275.656 253.055C275.833 252.977 276.021 252.938 276.219 252.938C276.417 252.938 276.602 252.977 276.773 253.055C276.951 253.128 277.104 253.229 277.234 253.359C277.365 253.484 277.466 253.635 277.539 253.812C277.617 253.984 277.656 254.167 277.656 254.359ZM277.289 265H275.141V256.633H277.289V265ZM287.008 260.742C287.008 261.367 286.896 261.951 286.672 262.492C286.448 263.029 286.143 263.495 285.758 263.891C285.372 264.281 284.919 264.591 284.398 264.82C283.883 265.044 283.328 265.156 282.734 265.156C282.146 265.156 281.591 265.044 281.07 264.82C280.555 264.591 280.102 264.281 279.711 263.891C279.326 263.495 279.021 263.029 278.797 262.492C278.573 261.951 278.461 261.367 278.461 260.742C278.461 260.107 278.573 259.518 278.797 258.977C279.021 258.435 279.326 257.969 279.711 257.578C280.102 257.182 280.555 256.872 281.07 256.648C281.591 256.424 282.146 256.312 282.734 256.312C283.328 256.312 283.883 256.419 284.398 256.633C284.919 256.841 285.372 257.141 285.758 257.531C286.143 257.917 286.448 258.383 286.672 258.93C286.896 259.471 287.008 260.076 287.008 260.742ZM284.859 260.742C284.859 260.398 284.802 260.089 284.688 259.812C284.578 259.531 284.427 259.292 284.234 259.094C284.042 258.891 283.815 258.737 283.555 258.633C283.299 258.523 283.026 258.469 282.734 258.469C282.443 258.469 282.167 258.523 281.906 258.633C281.651 258.737 281.427 258.891 281.234 259.094C281.047 259.292 280.898 259.531 280.789 259.812C280.68 260.089 280.625 260.398 280.625 260.742C280.625 261.065 280.68 261.365 280.789 261.641C280.898 261.917 281.047 262.156 281.234 262.359C281.427 262.562 281.651 262.724 281.906 262.844C282.167 262.958 282.443 263.016 282.734 263.016C283.026 263.016 283.299 262.961 283.555 262.852C283.815 262.742 284.042 262.589 284.234 262.391C284.427 262.193 284.578 261.953 284.688 261.672C284.802 261.391 284.859 261.081 284.859 260.742ZM290.32 265H288.188V256.633H288.703L289.406 257.445C289.75 257.133 290.138 256.893 290.57 256.727C291.008 256.555 291.464 256.469 291.938 256.469C292.448 256.469 292.93 256.568 293.383 256.766C293.836 256.958 294.232 257.227 294.57 257.57C294.909 257.909 295.174 258.307 295.367 258.766C295.565 259.219 295.664 259.703 295.664 260.219V265H293.531V260.219C293.531 260 293.49 259.794 293.406 259.602C293.323 259.404 293.208 259.232 293.062 259.086C292.917 258.94 292.747 258.826 292.555 258.742C292.362 258.659 292.156 258.617 291.938 258.617C291.714 258.617 291.503 258.659 291.305 258.742C291.107 258.826 290.935 258.94 290.789 259.086C290.643 259.232 290.529 259.404 290.445 259.602C290.362 259.794 290.32 260 290.32 260.219V265ZM301.781 265H296.906V262.875H301.781C301.927 262.875 302.052 262.823 302.156 262.719C302.26 262.615 302.312 262.49 302.312 262.344C302.312 262.193 302.26 262.094 302.156 262.047C302.052 262 301.927 261.977 301.781 261.977H299.562C299.193 261.977 298.846 261.906 298.523 261.766C298.201 261.625 297.919 261.435 297.68 261.195C297.44 260.951 297.25 260.667 297.109 260.344C296.974 260.021 296.906 259.674 296.906 259.305C296.906 258.935 296.974 258.589 297.109 258.266C297.25 257.943 297.44 257.661 297.68 257.422C297.919 257.182 298.201 256.995 298.523 256.859C298.846 256.719 299.193 256.648 299.562 256.648H303.883V258.773H299.562C299.417 258.773 299.292 258.826 299.188 258.93C299.083 259.034 299.031 259.159 299.031 259.305C299.031 259.456 299.083 259.586 299.188 259.695C299.292 259.799 299.417 259.852 299.562 259.852H301.781C302.146 259.852 302.49 259.914 302.812 260.039C303.135 260.159 303.417 260.328 303.656 260.547C303.896 260.766 304.086 261.029 304.227 261.336C304.367 261.643 304.438 261.979 304.438 262.344C304.438 262.714 304.367 263.06 304.227 263.383C304.086 263.701 303.896 263.982 303.656 264.227C303.417 264.466 303.135 264.656 302.812 264.797C302.49 264.932 302.146 265 301.781 265Z" fill="#006FAD"/>
<rect x="23.5" y="245.5" width="303" height="26" rx="5.5" stroke="#00507E"/>
<path d="M51.5371 314.808C51.5371 316.069 51.3701 317.288 51.0361 318.463C50.7145 319.626 50.2568 320.72 49.6631 321.747C49.0693 322.761 48.3519 323.689 47.5107 324.53C46.6696 325.371 45.7419 326.095 44.7275 326.701C43.7132 327.295 42.6185 327.753 41.4434 328.074C40.2682 328.408 39.0498 328.575 37.7881 328.575C36.5264 328.575 35.3079 328.408 34.1328 328.074C32.9701 327.753 31.8753 327.295 30.8486 326.701C29.8343 326.095 28.9066 325.371 28.0654 324.53C27.2243 323.689 26.5007 322.761 25.8945 321.747C25.3008 320.72 24.8369 319.626 24.5029 318.463C24.1813 317.288 24.0205 316.069 24.0205 314.808C24.0205 313.546 24.1813 312.327 24.5029 311.152C24.8369 309.977 25.3008 308.882 25.8945 307.868C26.5007 306.854 27.2243 305.926 28.0654 305.085C28.9066 304.244 29.8343 303.526 30.8486 302.933C31.8753 302.339 32.9701 301.881 34.1328 301.56C35.3079 301.226 36.5264 301.059 37.7881 301.059C39.0498 301.059 40.2682 301.226 41.4434 301.56C42.6185 301.881 43.7132 302.339 44.7275 302.933C45.7419 303.526 46.6696 304.244 47.5107 305.085C48.3519 305.926 49.0693 306.854 49.6631 307.868C50.2568 308.882 50.7145 309.977 51.0361 311.152C51.3701 312.327 51.5371 313.546 51.5371 314.808ZM46.249 314.808C46.249 313.645 46.0264 312.55 45.5811 311.523C45.1357 310.484 44.5296 309.588 43.7627 308.833C43.0081 308.066 42.1113 307.46 41.0723 307.015C40.0456 306.569 38.9508 306.347 37.7881 306.347C36.613 306.347 35.512 306.569 34.4854 307.015C33.4587 307.46 32.5618 308.066 31.7949 308.833C31.028 309.588 30.4219 310.484 29.9766 311.523C29.5312 312.55 29.3086 313.645 29.3086 314.808C29.3086 315.97 29.5312 317.065 29.9766 318.092C30.4219 319.106 31.028 319.997 31.7949 320.764C32.5618 321.531 33.4587 322.137 34.4854 322.582C35.512 323.027 36.613 323.25 37.7881 323.25C38.9508 323.25 40.0456 323.027 41.0723 322.582C42.1113 322.137 43.0081 321.531 43.7627 320.764C44.5296 319.997 45.1357 319.106 45.5811 318.092C46.0264 317.065 46.249 315.97 46.249 314.808ZM69.1084 325.681C68.7002 326.052 68.2611 326.404 67.791 326.738C67.3333 327.06 66.8509 327.344 66.3438 327.592C65.8366 327.827 65.3109 328.012 64.7666 328.148C64.2347 328.297 63.6904 328.371 63.1338 328.371C61.9092 328.371 60.7588 328.155 59.6826 327.722C58.6064 327.289 57.6602 326.676 56.8438 325.885C56.0397 325.081 55.4027 324.11 54.9326 322.972C54.4749 321.821 54.2461 320.535 54.2461 319.112V308.128H59.293V319.112C59.293 319.78 59.3919 320.38 59.5898 320.912C59.8001 321.432 60.0785 321.871 60.4248 322.229C60.7712 322.588 61.1732 322.86 61.6309 323.046C62.1009 323.231 62.6019 323.324 63.1338 323.324C63.6533 323.324 64.1419 323.207 64.5996 322.972C65.0697 322.724 65.4779 322.403 65.8242 322.007C66.1706 321.611 66.4427 321.166 66.6406 320.671C66.8385 320.164 66.9375 319.644 66.9375 319.112V308.128H72.0029V328H70.7783L69.1084 325.681ZM80.9463 328H75.8809V308.128H77.1055L78.7754 310.484C79.5918 309.742 80.5195 309.173 81.5586 308.777C82.5977 308.369 83.6738 308.165 84.7871 308.165H89.2588V313.212H84.7871C84.2552 313.212 83.7542 313.311 83.2842 313.509C82.8141 313.707 82.4059 313.979 82.0596 314.325C81.7132 314.672 81.4411 315.08 81.2432 315.55C81.0452 316.02 80.9463 316.521 80.9463 317.053V328ZM107.368 335.57H102.266V308.128H103.49L105.513 310.521C105.97 310.089 106.471 309.68 107.016 309.297C107.56 308.913 108.123 308.586 108.704 308.313C109.298 308.029 109.91 307.806 110.541 307.646C111.172 307.485 111.809 307.404 112.452 307.404C113.85 307.404 115.161 307.658 116.386 308.165C117.623 308.66 118.699 309.365 119.614 310.28C120.542 311.196 121.272 312.303 121.804 313.602C122.336 314.888 122.602 316.317 122.602 317.888C122.602 319.521 122.336 320.993 121.804 322.304C121.272 323.603 120.542 324.71 119.614 325.625C118.699 326.528 117.623 327.221 116.386 327.703C115.161 328.186 113.85 328.427 112.452 328.427C112.007 328.427 111.562 328.377 111.116 328.278C110.683 328.179 110.25 328.049 109.817 327.889C109.397 327.715 108.976 327.524 108.556 327.313C108.147 327.103 107.752 326.887 107.368 326.664V335.57ZM117.518 317.888C117.518 317.047 117.382 316.292 117.109 315.624C116.85 314.956 116.491 314.393 116.033 313.936C115.576 313.465 115.037 313.107 114.419 312.859C113.8 312.612 113.145 312.488 112.452 312.488C111.759 312.488 111.104 312.612 110.485 312.859C109.879 313.107 109.347 313.465 108.89 313.936C108.432 314.393 108.067 314.956 107.795 315.624C107.535 316.292 107.405 317.047 107.405 317.888C107.405 318.692 107.535 319.428 107.795 320.096C108.067 320.764 108.432 321.333 108.89 321.803C109.347 322.273 109.879 322.638 110.485 322.897C111.104 323.157 111.759 323.287 112.452 323.287C113.145 323.287 113.8 323.157 114.419 322.897C115.037 322.638 115.576 322.273 116.033 321.803C116.491 321.333 116.85 320.764 117.109 320.096C117.382 319.428 117.518 318.692 117.518 317.888ZM144.663 328H143.438L141.472 325.272C140.989 325.705 140.476 326.114 139.932 326.497C139.4 326.868 138.837 327.196 138.243 327.48C137.649 327.753 137.037 327.969 136.406 328.13C135.788 328.291 135.157 328.371 134.514 328.371C133.116 328.371 131.799 328.136 130.562 327.666C129.337 327.196 128.261 326.516 127.333 325.625C126.418 324.722 125.694 323.621 125.162 322.322C124.63 321.023 124.364 319.545 124.364 317.888C124.364 316.341 124.63 314.925 125.162 313.639C125.694 312.34 126.418 311.227 127.333 310.299C128.261 309.371 129.337 308.654 130.562 308.146C131.799 307.627 133.116 307.367 134.514 307.367C135.157 307.367 135.794 307.448 136.425 307.608C137.056 307.769 137.668 307.992 138.262 308.276C138.855 308.561 139.418 308.895 139.95 309.278C140.494 309.662 141.002 310.076 141.472 310.521L143.438 308.165H144.663V328ZM139.561 317.888C139.561 317.195 139.424 316.527 139.152 315.884C138.893 315.228 138.534 314.653 138.076 314.158C137.618 313.651 137.08 313.249 136.462 312.952C135.856 312.643 135.206 312.488 134.514 312.488C133.821 312.488 133.165 312.606 132.547 312.841C131.941 313.076 131.409 313.422 130.951 313.88C130.506 314.338 130.153 314.907 129.894 315.587C129.634 316.255 129.504 317.022 129.504 317.888C129.504 318.754 129.634 319.527 129.894 320.207C130.153 320.875 130.506 321.438 130.951 321.896C131.409 322.353 131.941 322.7 132.547 322.935C133.165 323.17 133.821 323.287 134.514 323.287C135.206 323.287 135.856 323.139 136.462 322.842C137.08 322.533 137.618 322.131 138.076 321.636C138.534 321.129 138.893 320.553 139.152 319.91C139.424 319.255 139.561 318.58 139.561 317.888ZM159.451 328H147.873V322.953H159.451C159.798 322.953 160.094 322.829 160.342 322.582C160.589 322.335 160.713 322.038 160.713 321.691C160.713 321.333 160.589 321.098 160.342 320.986C160.094 320.875 159.798 320.819 159.451 320.819H154.182C153.303 320.819 152.481 320.652 151.714 320.318C150.947 319.984 150.279 319.533 149.71 318.964C149.141 318.382 148.689 317.708 148.355 316.941C148.034 316.174 147.873 315.352 147.873 314.474C147.873 313.595 148.034 312.773 148.355 312.006C148.689 311.239 149.141 310.571 149.71 310.002C150.279 309.433 150.947 308.988 151.714 308.666C152.481 308.332 153.303 308.165 154.182 308.165H164.442V313.212H154.182C153.835 313.212 153.538 313.336 153.291 313.583C153.044 313.83 152.92 314.127 152.92 314.474C152.92 314.832 153.044 315.142 153.291 315.401C153.538 315.649 153.835 315.772 154.182 315.772H159.451C160.317 315.772 161.133 315.921 161.9 316.218C162.667 316.502 163.335 316.904 163.904 317.424C164.473 317.943 164.925 318.568 165.259 319.298C165.593 320.028 165.76 320.826 165.76 321.691C165.76 322.57 165.593 323.392 165.259 324.159C164.925 324.914 164.473 325.582 163.904 326.163C163.335 326.732 162.667 327.184 161.9 327.518C161.133 327.839 160.317 328 159.451 328ZM179.379 328H167.801V322.953H179.379C179.725 322.953 180.022 322.829 180.27 322.582C180.517 322.335 180.641 322.038 180.641 321.691C180.641 321.333 180.517 321.098 180.27 320.986C180.022 320.875 179.725 320.819 179.379 320.819H174.109C173.231 320.819 172.409 320.652 171.642 320.318C170.875 319.984 170.207 319.533 169.638 318.964C169.069 318.382 168.617 317.708 168.283 316.941C167.962 316.174 167.801 315.352 167.801 314.474C167.801 313.595 167.962 312.773 168.283 312.006C168.617 311.239 169.069 310.571 169.638 310.002C170.207 309.433 170.875 308.988 171.642 308.666C172.409 308.332 173.231 308.165 174.109 308.165H184.37V313.212H174.109C173.763 313.212 173.466 313.336 173.219 313.583C172.971 313.83 172.848 314.127 172.848 314.474C172.848 314.832 172.971 315.142 173.219 315.401C173.466 315.649 173.763 315.772 174.109 315.772H179.379C180.245 315.772 181.061 315.921 181.828 316.218C182.595 316.502 183.263 316.904 183.832 317.424C184.401 317.943 184.853 318.568 185.187 319.298C185.521 320.028 185.688 320.826 185.688 321.691C185.688 322.57 185.521 323.392 185.187 324.159C184.853 324.914 184.401 325.582 183.832 326.163C183.263 326.732 182.595 327.184 181.828 327.518C181.061 327.839 180.245 328 179.379 328ZM194.371 302.729C194.371 303.199 194.278 303.638 194.093 304.046C193.92 304.454 193.678 304.813 193.369 305.122C193.06 305.419 192.695 305.66 192.274 305.846C191.866 306.019 191.427 306.105 190.957 306.105C190.487 306.105 190.042 306.019 189.621 305.846C189.213 305.66 188.854 305.419 188.545 305.122C188.248 304.813 188.007 304.454 187.821 304.046C187.648 303.638 187.562 303.199 187.562 302.729C187.562 302.271 187.648 301.838 187.821 301.43C188.007 301.009 188.248 300.65 188.545 300.354C188.854 300.044 189.213 299.803 189.621 299.63C190.042 299.444 190.487 299.352 190.957 299.352C191.427 299.352 191.866 299.444 192.274 299.63C192.695 299.803 193.06 300.044 193.369 300.354C193.678 300.65 193.92 301.009 194.093 301.43C194.278 301.838 194.371 302.271 194.371 302.729ZM193.499 328H188.396V308.128H193.499V328ZM216.581 317.888C216.581 319.372 216.315 320.757 215.783 322.044C215.251 323.318 214.528 324.425 213.612 325.365C212.697 326.293 211.621 327.029 210.384 327.573C209.159 328.105 207.842 328.371 206.432 328.371C205.034 328.371 203.716 328.105 202.479 327.573C201.255 327.029 200.179 326.293 199.251 325.365C198.336 324.425 197.612 323.318 197.08 322.044C196.548 320.757 196.282 319.372 196.282 317.888C196.282 316.379 196.548 314.981 197.08 313.694C197.612 312.408 198.336 311.301 199.251 310.373C200.179 309.433 201.255 308.697 202.479 308.165C203.716 307.633 205.034 307.367 206.432 307.367C207.842 307.367 209.159 307.621 210.384 308.128C211.621 308.623 212.697 309.334 213.612 310.262C214.528 311.177 215.251 312.284 215.783 313.583C216.315 314.869 216.581 316.304 216.581 317.888ZM211.479 317.888C211.479 317.071 211.342 316.335 211.07 315.68C210.811 315.012 210.452 314.443 209.994 313.973C209.536 313.49 208.998 313.125 208.38 312.878C207.774 312.618 207.124 312.488 206.432 312.488C205.739 312.488 205.083 312.618 204.465 312.878C203.859 313.125 203.327 313.49 202.869 313.973C202.424 314.443 202.071 315.012 201.812 315.68C201.552 316.335 201.422 317.071 201.422 317.888C201.422 318.655 201.552 319.366 201.812 320.021C202.071 320.677 202.424 321.246 202.869 321.729C203.327 322.211 203.859 322.594 204.465 322.879C205.083 323.151 205.739 323.287 206.432 323.287C207.124 323.287 207.774 323.157 208.38 322.897C208.998 322.638 209.536 322.273 209.994 321.803C210.452 321.333 210.811 320.764 211.07 320.096C211.342 319.428 211.479 318.692 211.479 317.888ZM224.448 328H219.383V308.128H220.607L222.277 310.058C223.094 309.315 224.015 308.746 225.042 308.351C226.081 307.942 227.163 307.738 228.289 307.738C229.501 307.738 230.646 307.973 231.722 308.443C232.798 308.901 233.738 309.538 234.542 310.354C235.346 311.159 235.977 312.105 236.435 313.193C236.905 314.27 237.14 315.42 237.14 316.645V328H232.074V316.645C232.074 316.125 231.975 315.636 231.777 315.179C231.579 314.709 231.307 314.3 230.961 313.954C230.615 313.608 230.213 313.336 229.755 313.138C229.297 312.94 228.809 312.841 228.289 312.841C227.757 312.841 227.256 312.94 226.786 313.138C226.316 313.336 225.908 313.608 225.562 313.954C225.215 314.3 224.943 314.709 224.745 315.179C224.547 315.636 224.448 316.125 224.448 316.645V328ZM246.992 326.107C246.992 326.553 246.912 326.973 246.751 327.369C246.59 327.753 246.368 328.087 246.083 328.371C245.799 328.656 245.465 328.878 245.081 329.039C244.698 329.212 244.283 329.299 243.838 329.299C243.405 329.299 242.991 329.212 242.595 329.039C242.211 328.878 241.871 328.656 241.574 328.371C241.29 328.087 241.061 327.753 240.888 327.369C240.727 326.973 240.646 326.553 240.646 326.107C240.646 325.674 240.727 325.266 240.888 324.883C241.061 324.499 241.29 324.165 241.574 323.881C241.871 323.596 242.211 323.374 242.595 323.213C242.991 323.04 243.405 322.953 243.838 322.953C244.283 322.953 244.698 323.04 245.081 323.213C245.465 323.374 245.799 323.596 246.083 323.881C246.368 324.165 246.59 324.499 246.751 324.883C246.912 325.266 246.992 325.674 246.992 326.107ZM37.4355 375H32.1289V366.669C30.9538 366.372 29.8714 365.896 28.8818 365.24C27.9046 364.585 27.0635 363.805 26.3584 362.902C25.6533 361.987 25.1029 360.979 24.707 359.878C24.3236 358.765 24.1318 357.596 24.1318 356.371V348.393H29.457V356.371C29.457 357.101 29.5931 357.794 29.8652 358.449C30.1497 359.092 30.5332 359.655 31.0156 360.138C31.498 360.62 32.0609 361.004 32.7041 361.288C33.3597 361.56 34.0524 361.696 34.7822 361.696C35.512 361.696 36.1986 361.56 36.8418 361.288C37.4974 361.004 38.0664 360.62 38.5488 360.138C39.0312 359.655 39.4085 359.092 39.6807 358.449C39.9652 357.794 40.1074 357.101 40.1074 356.371V348.393H45.4141V356.371C45.4141 357.596 45.2161 358.765 44.8203 359.878C44.4368 360.979 43.8926 361.987 43.1875 362.902C42.4824 363.805 41.6413 364.585 40.6641 365.24C39.6868 365.896 38.6107 366.372 37.4355 366.669V375ZM66.9189 364.888C66.9189 366.372 66.653 367.757 66.1211 369.044C65.5892 370.318 64.8656 371.425 63.9502 372.365C63.0348 373.293 61.9587 374.029 60.7217 374.573C59.4971 375.105 58.1797 375.371 56.7695 375.371C55.3717 375.371 54.0544 375.105 52.8174 374.573C51.5928 374.029 50.5166 373.293 49.5889 372.365C48.6735 371.425 47.9499 370.318 47.418 369.044C46.8861 367.757 46.6201 366.372 46.6201 364.888C46.6201 363.379 46.8861 361.981 47.418 360.694C47.9499 359.408 48.6735 358.301 49.5889 357.373C50.5166 356.433 51.5928 355.697 52.8174 355.165C54.0544 354.633 55.3717 354.367 56.7695 354.367C58.1797 354.367 59.4971 354.621 60.7217 355.128C61.9587 355.623 63.0348 356.334 63.9502 357.262C64.8656 358.177 65.5892 359.284 66.1211 360.583C66.653 361.869 66.9189 363.304 66.9189 364.888ZM61.8164 364.888C61.8164 364.071 61.6803 363.335 61.4082 362.68C61.1484 362.012 60.7897 361.443 60.332 360.973C59.8743 360.49 59.3363 360.125 58.7178 359.878C58.1117 359.618 57.4622 359.488 56.7695 359.488C56.0768 359.488 55.4212 359.618 54.8027 359.878C54.1966 360.125 53.6647 360.49 53.207 360.973C52.7617 361.443 52.4092 362.012 52.1494 362.68C51.8896 363.335 51.7598 364.071 51.7598 364.888C51.7598 365.655 51.8896 366.366 52.1494 367.021C52.4092 367.677 52.7617 368.246 53.207 368.729C53.6647 369.211 54.1966 369.594 54.8027 369.879C55.4212 370.151 56.0768 370.287 56.7695 370.287C57.4622 370.287 58.1117 370.157 58.7178 369.897C59.3363 369.638 59.8743 369.273 60.332 368.803C60.7897 368.333 61.1484 367.764 61.4082 367.096C61.6803 366.428 61.8164 365.692 61.8164 364.888ZM84.3232 372.681C83.915 373.052 83.4759 373.404 83.0059 373.738C82.5482 374.06 82.0658 374.344 81.5586 374.592C81.0514 374.827 80.5257 375.012 79.9814 375.148C79.4495 375.297 78.9053 375.371 78.3486 375.371C77.124 375.371 75.9736 375.155 74.8975 374.722C73.8213 374.289 72.875 373.676 72.0586 372.885C71.2546 372.081 70.6175 371.11 70.1475 369.972C69.6898 368.821 69.4609 367.535 69.4609 366.112V355.128H74.5078V366.112C74.5078 366.78 74.6068 367.38 74.8047 367.912C75.015 368.432 75.2933 368.871 75.6396 369.229C75.986 369.588 76.388 369.86 76.8457 370.046C77.3158 370.231 77.8167 370.324 78.3486 370.324C78.8682 370.324 79.3568 370.207 79.8145 369.972C80.2845 369.724 80.6927 369.403 81.0391 369.007C81.3854 368.611 81.6576 368.166 81.8555 367.671C82.0534 367.164 82.1523 366.644 82.1523 366.112V355.128H87.2178V375H85.9932L84.3232 372.681ZM96.1611 375H91.0957V355.128H92.3203L93.9902 357.484C94.8066 356.742 95.7344 356.173 96.7734 355.777C97.8125 355.369 98.8887 355.165 100.002 355.165H104.474V360.212H100.002C99.4701 360.212 98.9691 360.311 98.499 360.509C98.029 360.707 97.6208 360.979 97.2744 361.325C96.9281 361.672 96.6559 362.08 96.458 362.55C96.2601 363.02 96.1611 363.521 96.1611 364.053V375ZM128.391 375H116.812V369.953H128.391C128.737 369.953 129.034 369.829 129.281 369.582C129.529 369.335 129.652 369.038 129.652 368.691C129.652 368.333 129.529 368.098 129.281 367.986C129.034 367.875 128.737 367.819 128.391 367.819H123.121C122.243 367.819 121.42 367.652 120.653 367.318C119.886 366.984 119.218 366.533 118.649 365.964C118.08 365.382 117.629 364.708 117.295 363.941C116.973 363.174 116.812 362.352 116.812 361.474C116.812 360.595 116.973 359.773 117.295 359.006C117.629 358.239 118.08 357.571 118.649 357.002C119.218 356.433 119.886 355.988 120.653 355.666C121.42 355.332 122.243 355.165 123.121 355.165H133.382V360.212H123.121C122.775 360.212 122.478 360.336 122.23 360.583C121.983 360.83 121.859 361.127 121.859 361.474C121.859 361.832 121.983 362.142 122.23 362.401C122.478 362.649 122.775 362.772 123.121 362.772H128.391C129.257 362.772 130.073 362.921 130.84 363.218C131.607 363.502 132.275 363.904 132.844 364.424C133.413 364.943 133.864 365.568 134.198 366.298C134.532 367.028 134.699 367.826 134.699 368.691C134.699 369.57 134.532 370.392 134.198 371.159C133.864 371.914 133.413 372.582 132.844 373.163C132.275 373.732 131.607 374.184 130.84 374.518C130.073 374.839 129.257 375 128.391 375ZM152.011 372.681C151.603 373.052 151.163 373.404 150.693 373.738C150.236 374.06 149.753 374.344 149.246 374.592C148.739 374.827 148.213 375.012 147.669 375.148C147.137 375.297 146.593 375.371 146.036 375.371C144.812 375.371 143.661 375.155 142.585 374.722C141.509 374.289 140.562 373.676 139.746 372.885C138.942 372.081 138.305 371.11 137.835 369.972C137.377 368.821 137.148 367.535 137.148 366.112V355.128H142.195V366.112C142.195 366.78 142.294 367.38 142.492 367.912C142.702 368.432 142.981 368.871 143.327 369.229C143.674 369.588 144.076 369.86 144.533 370.046C145.003 370.231 145.504 370.324 146.036 370.324C146.556 370.324 147.044 370.207 147.502 369.972C147.972 369.724 148.38 369.403 148.727 369.007C149.073 368.611 149.345 368.166 149.543 367.671C149.741 367.164 149.84 366.644 149.84 366.112V355.128H154.905V375H153.681L152.011 372.681ZM176.15 359.08L172.439 362.81C172.254 362.29 172 361.826 171.679 361.418C171.357 360.997 170.992 360.645 170.584 360.36C170.188 360.076 169.755 359.859 169.285 359.711C168.815 359.562 168.333 359.488 167.838 359.488C167.145 359.488 166.49 359.631 165.871 359.915C165.265 360.2 164.733 360.602 164.275 361.121C163.83 361.628 163.478 362.234 163.218 362.939C162.958 363.645 162.828 364.424 162.828 365.277C162.828 365.97 162.958 366.619 163.218 367.226C163.478 367.832 163.83 368.364 164.275 368.821C164.733 369.279 165.265 369.638 165.871 369.897C166.49 370.157 167.145 370.287 167.838 370.287C168.333 370.287 168.809 370.219 169.267 370.083C169.724 369.947 170.151 369.755 170.547 369.508C170.955 369.248 171.314 368.939 171.623 368.58C171.945 368.209 172.204 367.801 172.402 367.355L176.113 371.085C175.643 371.753 175.099 372.353 174.48 372.885C173.874 373.417 173.213 373.868 172.495 374.239C171.79 374.61 171.042 374.889 170.25 375.074C169.471 375.272 168.667 375.371 167.838 375.371C166.44 375.371 165.123 375.111 163.886 374.592C162.661 374.06 161.585 373.336 160.657 372.421C159.742 371.506 159.018 370.436 158.486 369.211C157.954 367.986 157.688 366.675 157.688 365.277C157.688 363.756 157.954 362.333 158.486 361.01C159.018 359.686 159.742 358.536 160.657 357.559C161.585 356.569 162.661 355.79 163.886 355.221C165.123 354.652 166.44 354.367 167.838 354.367C168.667 354.367 169.477 354.472 170.269 354.683C171.073 354.893 171.833 355.202 172.551 355.61C173.281 356.006 173.949 356.495 174.555 357.076C175.173 357.658 175.705 358.326 176.15 359.08ZM195.707 359.08L191.996 362.81C191.811 362.29 191.557 361.826 191.235 361.418C190.914 360.997 190.549 360.645 190.141 360.36C189.745 360.076 189.312 359.859 188.842 359.711C188.372 359.562 187.889 359.488 187.395 359.488C186.702 359.488 186.046 359.631 185.428 359.915C184.822 360.2 184.29 360.602 183.832 361.121C183.387 361.628 183.034 362.234 182.774 362.939C182.515 363.645 182.385 364.424 182.385 365.277C182.385 365.97 182.515 366.619 182.774 367.226C183.034 367.832 183.387 368.364 183.832 368.821C184.29 369.279 184.822 369.638 185.428 369.897C186.046 370.157 186.702 370.287 187.395 370.287C187.889 370.287 188.366 370.219 188.823 370.083C189.281 369.947 189.708 369.755 190.104 369.508C190.512 369.248 190.87 368.939 191.18 368.58C191.501 368.209 191.761 367.801 191.959 367.355L195.67 371.085C195.2 371.753 194.656 372.353 194.037 372.885C193.431 373.417 192.769 373.868 192.052 374.239C191.347 374.61 190.598 374.889 189.807 375.074C189.027 375.272 188.223 375.371 187.395 375.371C185.997 375.371 184.679 375.111 183.442 374.592C182.218 374.06 181.142 373.336 180.214 372.421C179.299 371.506 178.575 370.436 178.043 369.211C177.511 367.986 177.245 366.675 177.245 365.277C177.245 363.756 177.511 362.333 178.043 361.01C178.575 359.686 179.299 358.536 180.214 357.559C181.142 356.569 182.218 355.79 183.442 355.221C184.679 354.652 185.997 354.367 187.395 354.367C188.223 354.367 189.034 354.472 189.825 354.683C190.629 354.893 191.39 355.202 192.107 355.61C192.837 356.006 193.505 356.495 194.111 357.076C194.73 357.658 195.262 358.326 195.707 359.08ZM205.801 370.139C205.999 370.201 206.197 370.244 206.395 370.269C206.592 370.281 206.79 370.287 206.988 370.287C207.483 370.287 207.959 370.219 208.417 370.083C208.875 369.947 209.301 369.755 209.697 369.508C210.105 369.248 210.464 368.939 210.773 368.58C211.095 368.209 211.355 367.801 211.553 367.355L215.264 371.085C214.794 371.753 214.249 372.353 213.631 372.885C213.025 373.417 212.363 373.868 211.646 374.239C210.94 374.61 210.192 374.889 209.4 375.074C208.621 375.272 207.817 375.371 206.988 375.371C205.59 375.371 204.273 375.111 203.036 374.592C201.812 374.072 200.735 373.349 199.808 372.421C198.892 371.493 198.169 370.392 197.637 369.118C197.105 367.832 196.839 366.422 196.839 364.888C196.839 363.317 197.105 361.882 197.637 360.583C198.169 359.284 198.892 358.177 199.808 357.262C200.735 356.346 201.812 355.635 203.036 355.128C204.273 354.621 205.59 354.367 206.988 354.367C207.817 354.367 208.627 354.466 209.419 354.664C210.211 354.862 210.959 355.146 211.664 355.518C212.382 355.889 213.049 356.346 213.668 356.891C214.286 357.423 214.831 358.022 215.301 358.69L205.801 370.139ZM208.398 359.692C208.163 359.606 207.928 359.55 207.693 359.525C207.471 359.501 207.236 359.488 206.988 359.488C206.296 359.488 205.64 359.618 205.021 359.878C204.415 360.125 203.883 360.484 203.426 360.954C202.98 361.424 202.628 361.993 202.368 362.661C202.108 363.317 201.979 364.059 201.979 364.888C201.979 365.073 201.985 365.284 201.997 365.519C202.022 365.754 202.053 365.995 202.09 366.242C202.139 366.477 202.195 366.706 202.257 366.929C202.319 367.151 202.399 367.349 202.498 367.522L208.398 359.692ZM228.771 375H217.193V369.953H228.771C229.118 369.953 229.415 369.829 229.662 369.582C229.91 369.335 230.033 369.038 230.033 368.691C230.033 368.333 229.91 368.098 229.662 367.986C229.415 367.875 229.118 367.819 228.771 367.819H223.502C222.624 367.819 221.801 367.652 221.034 367.318C220.267 366.984 219.599 366.533 219.03 365.964C218.461 365.382 218.01 364.708 217.676 363.941C217.354 363.174 217.193 362.352 217.193 361.474C217.193 360.595 217.354 359.773 217.676 359.006C218.01 358.239 218.461 357.571 219.03 357.002C219.599 356.433 220.267 355.988 221.034 355.666C221.801 355.332 222.624 355.165 223.502 355.165H233.763V360.212H223.502C223.156 360.212 222.859 360.336 222.611 360.583C222.364 360.83 222.24 361.127 222.24 361.474C222.24 361.832 222.364 362.142 222.611 362.401C222.859 362.649 223.156 362.772 223.502 362.772H228.771C229.637 362.772 230.454 362.921 231.221 363.218C231.988 363.502 232.656 363.904 233.225 364.424C233.794 364.943 234.245 365.568 234.579 366.298C234.913 367.028 235.08 367.826 235.08 368.691C235.08 369.57 234.913 370.392 234.579 371.159C234.245 371.914 233.794 372.582 233.225 373.163C232.656 373.732 231.988 374.184 231.221 374.518C230.454 374.839 229.637 375 228.771 375ZM248.699 375H237.121V369.953H248.699C249.046 369.953 249.342 369.829 249.59 369.582C249.837 369.335 249.961 369.038 249.961 368.691C249.961 368.333 249.837 368.098 249.59 367.986C249.342 367.875 249.046 367.819 248.699 367.819H243.43C242.551 367.819 241.729 367.652 240.962 367.318C240.195 366.984 239.527 366.533 238.958 365.964C238.389 365.382 237.938 364.708 237.604 363.941C237.282 363.174 237.121 362.352 237.121 361.474C237.121 360.595 237.282 359.773 237.604 359.006C237.938 358.239 238.389 357.571 238.958 357.002C239.527 356.433 240.195 355.988 240.962 355.666C241.729 355.332 242.551 355.165 243.43 355.165H253.69V360.212H243.43C243.083 360.212 242.786 360.336 242.539 360.583C242.292 360.83 242.168 361.127 242.168 361.474C242.168 361.832 242.292 362.142 242.539 362.401C242.786 362.649 243.083 362.772 243.43 362.772H248.699C249.565 362.772 250.382 362.921 251.148 363.218C251.915 363.502 252.583 363.904 253.152 364.424C253.721 364.943 254.173 365.568 254.507 366.298C254.841 367.028 255.008 367.826 255.008 368.691C255.008 369.57 254.841 370.392 254.507 371.159C254.173 371.914 253.721 372.582 253.152 373.163C252.583 373.732 251.915 374.184 251.148 374.518C250.382 374.839 249.565 375 248.699 375ZM263.079 368.432H258.941L257.81 348.393H264.229L263.079 368.432ZM264.192 373.107C264.192 373.553 264.106 373.973 263.933 374.369C263.772 374.753 263.549 375.087 263.265 375.371C262.98 375.656 262.646 375.878 262.263 376.039C261.879 376.212 261.471 376.299 261.038 376.299C260.593 376.299 260.178 376.212 259.795 376.039C259.411 375.878 259.071 375.656 258.774 375.371C258.49 375.087 258.261 374.753 258.088 374.369C257.927 373.973 257.847 373.553 257.847 373.107C257.847 372.674 257.927 372.266 258.088 371.883C258.261 371.499 258.49 371.165 258.774 370.881C259.071 370.596 259.411 370.374 259.795 370.213C260.178 370.04 260.593 369.953 261.038 369.953C261.471 369.953 261.879 370.04 262.263 370.213C262.646 370.374 262.98 370.596 263.265 370.881C263.549 371.165 263.772 371.499 263.933 371.883C264.106 372.266 264.192 372.674 264.192 373.107Z" fill="black"/>
<rect x="23" y="404" width="163" height="64" rx="11" fill="#006FAD"/>
<path d="M65.4785 433.195C65.4785 432.616 65.5892 432.072 65.8105 431.564C66.0319 431.057 66.3314 430.614 66.709 430.236C67.0931 429.852 67.5391 429.549 68.0469 429.328C68.5547 429.107 69.0983 428.996 69.6777 428.996H76.1035V431.799H69.6777C69.4824 431.799 69.3001 431.835 69.1309 431.906C68.9616 431.978 68.8118 432.079 68.6816 432.209C68.5579 432.333 68.4603 432.479 68.3887 432.648C68.3171 432.818 68.2812 433 68.2812 433.195C68.2812 433.391 68.3171 433.576 68.3887 433.752C68.4603 433.921 68.5579 434.071 68.6816 434.201C68.8118 434.325 68.9616 434.423 69.1309 434.494C69.3001 434.566 69.4824 434.602 69.6777 434.602H72.4805C73.0599 434.602 73.6035 434.712 74.1113 434.934C74.6257 435.148 75.0716 435.448 75.4492 435.832C75.8333 436.21 76.1328 436.656 76.3477 437.17C76.569 437.678 76.6797 438.221 76.6797 438.801C76.6797 439.38 76.569 439.924 76.3477 440.432C76.1328 440.939 75.8333 441.385 75.4492 441.77C75.0716 442.147 74.6257 442.447 74.1113 442.668C73.6035 442.889 73.0599 443 72.4805 443H66.2598V440.197H72.4805C72.6758 440.197 72.8581 440.161 73.0273 440.09C73.1966 440.018 73.3431 439.921 73.4668 439.797C73.597 439.667 73.6979 439.517 73.7695 439.348C73.8411 439.178 73.877 438.996 73.877 438.801C73.877 438.605 73.8411 438.423 73.7695 438.254C73.6979 438.085 73.597 437.938 73.4668 437.814C73.3431 437.684 73.1966 437.583 73.0273 437.512C72.8581 437.44 72.6758 437.404 72.4805 437.404H69.6777C69.0983 437.404 68.5547 437.294 68.0469 437.072C67.5391 436.851 67.0931 436.551 66.709 436.174C66.3314 435.79 66.0319 435.344 65.8105 434.836C65.5892 434.322 65.4785 433.775 65.4785 433.195ZM82.4023 440.441C82.5065 440.474 82.6107 440.497 82.7148 440.51C82.819 440.516 82.9232 440.52 83.0273 440.52C83.2878 440.52 83.5384 440.484 83.7793 440.412C84.0202 440.34 84.2448 440.24 84.4531 440.109C84.668 439.973 84.8568 439.81 85.0195 439.621C85.1888 439.426 85.3255 439.211 85.4297 438.977L87.3828 440.939C87.1354 441.291 86.849 441.607 86.5234 441.887C86.2044 442.167 85.8561 442.404 85.4785 442.6C85.1074 442.795 84.7135 442.941 84.2969 443.039C83.8867 443.143 83.4635 443.195 83.0273 443.195C82.2917 443.195 81.5983 443.059 80.9473 442.785C80.3027 442.512 79.7363 442.131 79.248 441.643C78.7663 441.154 78.3854 440.575 78.1055 439.904C77.8255 439.227 77.6855 438.485 77.6855 437.678C77.6855 436.851 77.8255 436.096 78.1055 435.412C78.3854 434.729 78.7663 434.146 79.248 433.664C79.7363 433.182 80.3027 432.808 80.9473 432.541C81.5983 432.274 82.2917 432.141 83.0273 432.141C83.4635 432.141 83.89 432.193 84.3066 432.297C84.7233 432.401 85.1172 432.551 85.4883 432.746C85.8659 432.941 86.2174 433.182 86.543 433.469C86.8685 433.749 87.1549 434.064 87.4023 434.416L82.4023 440.441ZM83.7695 434.943C83.6458 434.898 83.5221 434.868 83.3984 434.855C83.2812 434.842 83.1576 434.836 83.0273 434.836C82.6628 434.836 82.3177 434.904 81.9922 435.041C81.6732 435.171 81.3932 435.36 81.1523 435.607C80.918 435.855 80.7324 436.154 80.5957 436.506C80.459 436.851 80.3906 437.242 80.3906 437.678C80.3906 437.775 80.3939 437.886 80.4004 438.01C80.4134 438.133 80.4297 438.26 80.4492 438.391C80.4753 438.514 80.5046 438.635 80.5371 438.752C80.5697 438.869 80.612 438.973 80.6641 439.064L83.7695 434.943ZM91.416 443H88.75V432.541H89.3945L90.2734 433.781C90.7031 433.391 91.1914 433.091 91.7383 432.883C92.2852 432.668 92.8516 432.561 93.4375 432.561H95.791V435.217H93.4375C93.1576 435.217 92.8939 435.269 92.6465 435.373C92.3991 435.477 92.1842 435.62 92.002 435.803C91.8197 435.985 91.6764 436.2 91.5723 436.447C91.4681 436.695 91.416 436.958 91.416 437.238V443ZM100 443L96.0156 432.541H99.0527L101.338 439.064L103.613 432.541H106.66L102.676 443H100ZM110.82 429.699C110.82 429.947 110.771 430.178 110.674 430.393C110.583 430.607 110.456 430.796 110.293 430.959C110.13 431.115 109.938 431.242 109.717 431.34C109.502 431.431 109.271 431.477 109.023 431.477C108.776 431.477 108.542 431.431 108.32 431.34C108.105 431.242 107.917 431.115 107.754 430.959C107.598 430.796 107.471 430.607 107.373 430.393C107.282 430.178 107.236 429.947 107.236 429.699C107.236 429.458 107.282 429.23 107.373 429.016C107.471 428.794 107.598 428.605 107.754 428.449C107.917 428.286 108.105 428.16 108.32 428.068C108.542 427.971 108.776 427.922 109.023 427.922C109.271 427.922 109.502 427.971 109.717 428.068C109.938 428.16 110.13 428.286 110.293 428.449C110.456 428.605 110.583 428.794 110.674 429.016C110.771 429.23 110.82 429.458 110.82 429.699ZM110.361 443H107.676V432.541H110.361V443ZM121.543 434.621L119.59 436.584C119.492 436.311 119.359 436.066 119.189 435.852C119.02 435.63 118.828 435.445 118.613 435.295C118.405 435.145 118.177 435.031 117.93 434.953C117.682 434.875 117.428 434.836 117.168 434.836C116.803 434.836 116.458 434.911 116.133 435.061C115.814 435.21 115.534 435.422 115.293 435.695C115.059 435.962 114.873 436.281 114.736 436.652C114.6 437.023 114.531 437.434 114.531 437.883C114.531 438.247 114.6 438.589 114.736 438.908C114.873 439.227 115.059 439.507 115.293 439.748C115.534 439.989 115.814 440.178 116.133 440.314C116.458 440.451 116.803 440.52 117.168 440.52C117.428 440.52 117.679 440.484 117.92 440.412C118.161 440.34 118.385 440.24 118.594 440.109C118.809 439.973 118.997 439.81 119.16 439.621C119.329 439.426 119.466 439.211 119.57 438.977L121.523 440.939C121.276 441.291 120.99 441.607 120.664 441.887C120.345 442.167 119.997 442.404 119.619 442.6C119.248 442.795 118.854 442.941 118.438 443.039C118.027 443.143 117.604 443.195 117.168 443.195C116.432 443.195 115.739 443.059 115.088 442.785C114.443 442.505 113.877 442.124 113.389 441.643C112.907 441.161 112.526 440.598 112.246 439.953C111.966 439.309 111.826 438.618 111.826 437.883C111.826 437.082 111.966 436.333 112.246 435.637C112.526 434.94 112.907 434.335 113.389 433.82C113.877 433.299 114.443 432.889 115.088 432.59C115.739 432.29 116.432 432.141 117.168 432.141C117.604 432.141 118.031 432.196 118.447 432.307C118.87 432.417 119.271 432.58 119.648 432.795C120.033 433.003 120.384 433.26 120.703 433.566C121.029 433.872 121.309 434.224 121.543 434.621ZM126.855 440.441C126.96 440.474 127.064 440.497 127.168 440.51C127.272 440.516 127.376 440.52 127.48 440.52C127.741 440.52 127.992 440.484 128.232 440.412C128.473 440.34 128.698 440.24 128.906 440.109C129.121 439.973 129.31 439.81 129.473 439.621C129.642 439.426 129.779 439.211 129.883 438.977L131.836 440.939C131.589 441.291 131.302 441.607 130.977 441.887C130.658 442.167 130.309 442.404 129.932 442.6C129.561 442.795 129.167 442.941 128.75 443.039C128.34 443.143 127.917 443.195 127.48 443.195C126.745 443.195 126.051 443.059 125.4 442.785C124.756 442.512 124.189 442.131 123.701 441.643C123.219 441.154 122.839 440.575 122.559 439.904C122.279 439.227 122.139 438.485 122.139 437.678C122.139 436.851 122.279 436.096 122.559 435.412C122.839 434.729 123.219 434.146 123.701 433.664C124.189 433.182 124.756 432.808 125.4 432.541C126.051 432.274 126.745 432.141 127.48 432.141C127.917 432.141 128.343 432.193 128.76 432.297C129.176 432.401 129.57 432.551 129.941 432.746C130.319 432.941 130.671 433.182 130.996 433.469C131.322 433.749 131.608 434.064 131.855 434.416L126.855 440.441ZM128.223 434.943C128.099 434.898 127.975 434.868 127.852 434.855C127.734 434.842 127.611 434.836 127.48 434.836C127.116 434.836 126.771 434.904 126.445 435.041C126.126 435.171 125.846 435.36 125.605 435.607C125.371 435.855 125.186 436.154 125.049 436.506C124.912 436.851 124.844 437.242 124.844 437.678C124.844 437.775 124.847 437.886 124.854 438.01C124.867 438.133 124.883 438.26 124.902 438.391C124.928 438.514 124.958 438.635 124.99 438.752C125.023 438.869 125.065 438.973 125.117 439.064L128.223 434.943ZM138.945 443H132.852V440.344H138.945C139.128 440.344 139.284 440.279 139.414 440.148C139.544 440.018 139.609 439.862 139.609 439.68C139.609 439.491 139.544 439.367 139.414 439.309C139.284 439.25 139.128 439.221 138.945 439.221H136.172C135.71 439.221 135.277 439.133 134.873 438.957C134.469 438.781 134.118 438.544 133.818 438.244C133.519 437.938 133.281 437.583 133.105 437.18C132.936 436.776 132.852 436.343 132.852 435.881C132.852 435.419 132.936 434.986 133.105 434.582C133.281 434.178 133.519 433.827 133.818 433.527C134.118 433.228 134.469 432.993 134.873 432.824C135.277 432.648 135.71 432.561 136.172 432.561H141.572V435.217H136.172C135.99 435.217 135.833 435.282 135.703 435.412C135.573 435.542 135.508 435.699 135.508 435.881C135.508 436.07 135.573 436.232 135.703 436.369C135.833 436.499 135.99 436.564 136.172 436.564H138.945C139.401 436.564 139.831 436.643 140.234 436.799C140.638 436.949 140.99 437.16 141.289 437.434C141.589 437.707 141.826 438.036 142.002 438.42C142.178 438.804 142.266 439.224 142.266 439.68C142.266 440.142 142.178 440.575 142.002 440.979C141.826 441.376 141.589 441.727 141.289 442.033C140.99 442.333 140.638 442.57 140.234 442.746C139.831 442.915 139.401 443 138.945 443Z" fill="white"/>
<path d="M252.719 44H245.039V32.7969H252.719V35.0391H247.281V37.2812H250.961V39.5234H247.281V41.7578H252.719V44ZM263.25 44H260.852L256.531 36.625V44H254.289V32.7969H256.688L261.008 40.1797V32.7969H263.25V44Z" fill="black"/>
<path d="M287.766 38.3984C287.766 38.9141 287.698 39.4115 287.562 39.8906C287.432 40.3646 287.245 40.8099 287 41.2266C286.755 41.638 286.464 42.0156 286.125 42.3594C285.786 42.6979 285.409 42.9896 284.992 43.2344C284.576 43.4792 284.128 43.6693 283.648 43.8047C283.174 43.9349 282.68 44 282.164 44H278.789V32.7969H282.164C282.68 32.7969 283.174 32.8646 283.648 33C284.128 33.1302 284.576 33.3177 284.992 33.5625C285.409 33.8073 285.786 34.1016 286.125 34.4453C286.464 34.7839 286.755 35.1615 287 35.5781C287.245 35.9896 287.432 36.4349 287.562 36.9141C287.698 37.388 287.766 37.8828 287.766 38.3984ZM285.523 38.3984C285.523 37.9349 285.435 37.5 285.258 37.0938C285.086 36.6875 284.846 36.3333 284.539 36.0312C284.237 35.724 283.88 35.4818 283.469 35.3047C283.062 35.1276 282.628 35.0391 282.164 35.0391H281.047V41.7578H282.164C282.628 41.7578 283.062 41.6719 283.469 41.5C283.88 41.3229 284.237 41.0833 284.539 40.7812C284.846 40.474 285.086 40.1172 285.258 39.7109C285.435 39.2995 285.523 38.862 285.523 38.3984ZM296.938 44H289.258V32.7969H296.938V35.0391H291.5V37.2812H295.18V39.5234H291.5V41.7578H296.938V44Z" fill="white"/>
</g>
<path d="M325.305 167.643C322.248 152.848 307.681 143.081 292.431 145.77C281.642 147.672 273.792 155.406 270.705 165.618C269.696 165.628 267.927 165.637 266.933 165.812C259.971 167.04 254.386 172.126 252.527 178.735C243.103 180.834 236.87 189.893 238.533 199.322C240.243 209.022 249.674 215.495 259.552 213.753L323.542 202.47C333.419 200.728 340.068 191.42 338.357 181.72C337.153 174.89 332.016 169.434 325.305 167.643ZM322.656 197.444L258.665 208.727C251.609 209.971 244.874 205.347 243.652 198.419C242.43 191.491 247.178 184.842 254.234 183.598C254.393 183.57 254.549 183.555 254.707 183.538L256.916 183.283L257.237 181.379C258.147 176.031 262.401 171.793 267.82 170.838C269.066 170.618 270.342 170.58 271.605 170.725L273.959 170.991L274.46 168.711C276.486 159.49 283.885 152.459 293.317 150.796C306.02 148.556 318.142 156.881 320.341 169.35L320.696 171.99L322.577 172.288C328.015 173.148 332.3 177.303 333.238 182.623C334.46 189.551 329.712 196.2 322.656 197.444Z" fill="#D5D8F4"/>
<path d="M34.3965 28.958V38.4873H39.1611C39.8141 38.4873 40.4284 38.3656 41.0039 38.1221C41.5794 37.8675 42.083 37.5244 42.5146 37.0928C42.9463 36.6611 43.2839 36.1576 43.5273 35.582C43.7819 34.9954 43.9092 34.3757 43.9092 33.7227C43.9092 33.0697 43.7819 32.4554 43.5273 31.8799C43.2839 31.2933 42.9463 30.7842 42.5146 30.3525C42.083 29.9209 41.5794 29.5833 41.0039 29.3398C40.4284 29.0853 39.8141 28.958 39.1611 28.958H34.3965ZM34.3965 48H29.6318V24.1934H39.1611C40.0355 24.1934 40.8766 24.3096 41.6846 24.542C42.4925 24.7633 43.2451 25.0843 43.9424 25.5049C44.6507 25.9144 45.2926 26.4124 45.8682 26.999C46.4548 27.5745 46.9528 28.2165 47.3623 28.9248C47.7829 29.6331 48.1038 30.3913 48.3252 31.1992C48.5576 32.0072 48.6738 32.8483 48.6738 33.7227C48.6738 35.0286 48.4248 36.2627 47.9268 37.4248C47.4287 38.5758 46.748 39.583 45.8848 40.4463C45.0215 41.3096 44.0088 41.9902 42.8467 42.4883C41.6956 42.9863 40.4671 43.2354 39.1611 43.2354H34.3965V48ZM65.4912 38.4873V33.7227C65.4912 33.0697 65.3639 32.4554 65.1094 31.8799C64.8659 31.2933 64.5283 30.7842 64.0967 30.3525C63.665 29.9209 63.1559 29.5833 62.5693 29.3398C61.9938 29.0853 61.3796 28.958 60.7266 28.958C60.0736 28.958 59.4538 29.0853 58.8672 29.3398C58.2917 29.5833 57.7881 29.9209 57.3564 30.3525C56.9248 30.7842 56.5817 31.2933 56.3271 31.8799C56.0837 32.4554 55.9619 33.0697 55.9619 33.7227V38.4873H65.4912ZM70.2559 48H65.4912V43.2354H55.9619V48H51.2139V33.7227C51.2139 32.4056 51.4629 31.1715 51.9609 30.0205C52.459 28.8584 53.1341 27.8457 53.9863 26.9824C54.8496 26.1191 55.8568 25.4385 57.0078 24.9404C58.1699 24.4424 59.4095 24.1934 60.7266 24.1934C62.0436 24.1934 63.2777 24.4424 64.4287 24.9404C65.5908 25.4385 66.6035 26.1191 67.4668 26.9824C68.3301 27.8457 69.0107 28.8584 69.5088 30.0205C70.0068 31.1715 70.2559 32.4056 70.2559 33.7227V48ZM83.6533 48H78.9053V28.958H71.75V24.1934H90.792V28.958H83.6533V48ZM121.854 45.5596C120.747 46.5114 119.507 47.2419 118.135 47.751C116.762 48.2601 115.34 48.5146 113.868 48.5146C112.739 48.5146 111.649 48.3652 110.598 48.0664C109.557 47.7786 108.578 47.3691 107.659 46.8379C106.752 46.2956 105.922 45.6481 105.169 44.8955C104.416 44.1429 103.769 43.3128 103.227 42.4053C102.695 41.4867 102.28 40.5072 101.981 39.4668C101.694 38.4154 101.55 37.3252 101.55 36.1963C101.55 35.0674 101.694 33.9772 101.981 32.9258C102.28 31.8743 102.695 30.8949 103.227 29.9873C103.769 29.0687 104.416 28.2331 105.169 27.4805C105.922 26.7279 106.752 26.0859 107.659 25.5547C108.578 25.0124 109.557 24.5973 110.598 24.3096C111.649 24.0107 112.739 23.8613 113.868 23.8613C115.34 23.8613 116.762 24.1159 118.135 24.625C119.507 25.123 120.747 25.8535 121.854 26.8164L119.33 30.9668C118.633 30.2142 117.808 29.6387 116.856 29.2402C115.905 28.8307 114.909 28.626 113.868 28.626C112.817 28.626 111.832 28.8252 110.913 29.2236C109.994 29.6221 109.192 30.1644 108.506 30.8506C107.82 31.5257 107.277 32.3281 106.879 33.2578C106.48 34.1764 106.281 35.1559 106.281 36.1963C106.281 37.2367 106.48 38.2161 106.879 39.1348C107.277 40.0423 107.82 40.8392 108.506 41.5254C109.192 42.2116 109.994 42.7539 110.913 43.1523C111.832 43.5508 112.817 43.75 113.868 43.75C114.909 43.75 115.905 43.5508 116.856 43.1523C117.808 42.7428 118.633 42.1618 119.33 41.4092L121.854 45.5596ZM141.294 48H124.626V24.1934H129.391V43.2354H141.294V48ZM166.279 36.1963C166.279 37.3252 166.13 38.4154 165.831 39.4668C165.543 40.5072 165.134 41.4867 164.603 42.4053C164.071 43.3128 163.429 44.1429 162.677 44.8955C161.924 45.6481 161.094 46.2956 160.187 46.8379C159.279 47.3691 158.299 47.7786 157.248 48.0664C156.197 48.3652 155.106 48.5146 153.978 48.5146C152.849 48.5146 151.758 48.3652 150.707 48.0664C149.667 47.7786 148.687 47.3691 147.769 46.8379C146.861 46.2956 146.031 45.6481 145.278 44.8955C144.526 44.1429 143.878 43.3128 143.336 42.4053C142.805 41.4867 142.39 40.5072 142.091 39.4668C141.803 38.4154 141.659 37.3252 141.659 36.1963C141.659 35.0674 141.803 33.9772 142.091 32.9258C142.39 31.8743 142.805 30.8949 143.336 29.9873C143.878 29.0798 144.526 28.2497 145.278 27.4971C146.031 26.7445 146.861 26.1025 147.769 25.5713C148.687 25.04 149.667 24.6305 150.707 24.3428C151.758 24.0439 152.849 23.8945 153.978 23.8945C155.106 23.8945 156.197 24.0439 157.248 24.3428C158.299 24.6305 159.279 25.04 160.187 25.5713C161.094 26.1025 161.924 26.7445 162.677 27.4971C163.429 28.2497 164.071 29.0798 164.603 29.9873C165.134 30.8949 165.543 31.8743 165.831 32.9258C166.13 33.9772 166.279 35.0674 166.279 36.1963ZM161.548 36.1963C161.548 35.1559 161.349 34.1764 160.95 33.2578C160.552 32.3281 160.009 31.5257 159.323 30.8506C158.648 30.1644 157.846 29.6221 156.916 29.2236C155.997 28.8252 155.018 28.626 153.978 28.626C152.926 28.626 151.941 28.8252 151.022 29.2236C150.104 29.6221 149.301 30.1644 148.615 30.8506C147.929 31.5257 147.387 32.3281 146.988 33.2578C146.59 34.1764 146.391 35.1559 146.391 36.1963C146.391 37.2367 146.59 38.2161 146.988 39.1348C147.387 40.0423 147.929 40.8392 148.615 41.5254C149.301 42.2116 150.104 42.7539 151.022 43.1523C151.941 43.5508 152.926 43.75 153.978 43.75C155.018 43.75 155.997 43.5508 156.916 43.1523C157.846 42.7539 158.648 42.2116 159.323 41.5254C160.009 40.8392 160.552 40.0423 160.95 39.1348C161.349 38.2161 161.548 37.2367 161.548 36.1963ZM188.193 38.4873C188.193 39.8044 187.944 41.0439 187.446 42.2061C186.948 43.3571 186.268 44.3643 185.404 45.2275C184.541 46.0798 183.528 46.7549 182.366 47.2529C181.215 47.751 179.981 48 178.664 48C177.347 48 176.107 47.751 174.945 47.2529C173.794 46.7549 172.787 46.0798 171.924 45.2275C171.072 44.3643 170.396 43.3571 169.898 42.2061C169.4 41.0439 169.151 39.8044 169.151 38.4873V24.1934H173.899V38.4873C173.899 39.1403 174.021 39.7546 174.265 40.3301C174.519 40.9056 174.862 41.4092 175.294 41.8408C175.726 42.2725 176.229 42.6156 176.805 42.8701C177.391 43.1136 178.011 43.2354 178.664 43.2354C179.317 43.2354 179.931 43.1136 180.507 42.8701C181.093 42.6156 181.603 42.2725 182.034 41.8408C182.466 41.4092 182.803 40.9056 183.047 40.3301C183.301 39.7546 183.429 39.1403 183.429 38.4873V24.1934H188.193V38.4873ZM211.402 36.0967C211.402 37.1924 211.258 38.2493 210.971 39.2676C210.694 40.2747 210.296 41.221 209.775 42.1064C209.255 42.9808 208.635 43.7832 207.916 44.5137C207.197 45.2331 206.394 45.8529 205.509 46.373C204.623 46.8932 203.672 47.2972 202.653 47.585C201.646 47.8617 200.595 48 199.499 48H192.327V24.1934H199.499C200.595 24.1934 201.646 24.3372 202.653 24.625C203.672 24.9017 204.623 25.3001 205.509 25.8203C206.394 26.3405 207.197 26.9658 207.916 27.6963C208.635 28.4157 209.255 29.2181 209.775 30.1035C210.296 30.9779 210.694 31.9242 210.971 32.9424C211.258 33.9495 211.402 35.001 211.402 36.0967ZM206.638 36.0967C206.638 35.1117 206.45 34.1875 206.073 33.3242C205.708 32.4609 205.199 31.7083 204.546 31.0664C203.904 30.4134 203.146 29.8988 202.271 29.5225C201.408 29.1462 200.484 28.958 199.499 28.958H197.125V43.2354H199.499C200.484 43.2354 201.408 43.0527 202.271 42.6875C203.146 42.3112 203.904 41.8021 204.546 41.1602C205.199 40.5072 205.708 39.749 206.073 38.8857C206.45 38.0114 206.638 37.0817 206.638 36.0967ZM67.375 59.6465C67.375 59.2119 67.458 58.8042 67.624 58.4233C67.79 58.0425 68.0146 57.7104 68.2979 57.4272C68.5859 57.1392 68.9204 56.9121 69.3013 56.7461C69.6821 56.5801 70.0898 56.4971 70.5244 56.4971H75.3438V58.5991H70.5244C70.3779 58.5991 70.2412 58.626 70.1143 58.6797C69.9873 58.7334 69.875 58.8091 69.7773 58.9067C69.6846 58.9995 69.6113 59.1094 69.5576 59.2363C69.5039 59.3633 69.4771 59.5 69.4771 59.6465C69.4771 59.793 69.5039 59.9321 69.5576 60.064C69.6113 60.1909 69.6846 60.3032 69.7773 60.4009C69.875 60.4937 69.9873 60.5669 70.1143 60.6206C70.2412 60.6743 70.3779 60.7012 70.5244 60.7012H72.6265C73.061 60.7012 73.4688 60.7842 73.8496 60.9502C74.2354 61.1113 74.5698 61.3359 74.853 61.624C75.1411 61.9072 75.3657 62.2417 75.5269 62.6274C75.6929 63.0083 75.7759 63.416 75.7759 63.8506C75.7759 64.2852 75.6929 64.6929 75.5269 65.0737C75.3657 65.4546 75.1411 65.7891 74.853 66.0771C74.5698 66.3604 74.2354 66.585 73.8496 66.751C73.4688 66.917 73.061 67 72.6265 67H67.9609V64.8979H72.6265C72.7729 64.8979 72.9097 64.8711 73.0366 64.8174C73.1636 64.7637 73.2734 64.6904 73.3662 64.5977C73.4639 64.5 73.5396 64.3877 73.5933 64.2607C73.647 64.1338 73.6738 63.9971 73.6738 63.8506C73.6738 63.7041 73.647 63.5674 73.5933 63.4404C73.5396 63.3135 73.4639 63.2036 73.3662 63.1108C73.2734 63.0132 73.1636 62.9375 73.0366 62.8838C72.9097 62.8301 72.7729 62.8032 72.6265 62.8032H70.5244C70.0898 62.8032 69.6821 62.7202 69.3013 62.5542C68.9204 62.3882 68.5859 62.1636 68.2979 61.8804C68.0146 61.5923 67.79 61.2578 67.624 60.877C67.458 60.4912 67.375 60.0811 67.375 59.6465ZM91.6548 61.7925C91.6548 62.2905 91.5889 62.7715 91.457 63.2354C91.3301 63.6943 91.1494 64.1265 90.915 64.5317C90.6807 64.9321 90.3975 65.2983 90.0654 65.6304C89.7334 65.9624 89.3672 66.248 88.9668 66.4873C88.5664 66.7217 88.1343 66.9023 87.6704 67.0293C87.2065 67.1611 86.7256 67.2271 86.2275 67.2271C85.7295 67.2271 85.2485 67.1611 84.7847 67.0293C84.3257 66.9023 83.8936 66.7217 83.4883 66.4873C83.0879 66.248 82.7217 65.9624 82.3896 65.6304C82.0576 65.2983 81.772 64.9321 81.5327 64.5317C81.2983 64.1265 81.1152 63.6943 80.9834 63.2354C80.8564 62.7715 80.793 62.2905 80.793 61.7925C80.793 61.2944 80.8564 60.8135 80.9834 60.3496C81.1152 59.8857 81.2983 59.4536 81.5327 59.0532C81.772 58.6528 82.0576 58.2866 82.3896 57.9546C82.7217 57.6226 83.0879 57.3394 83.4883 57.105C83.8936 56.8706 84.3257 56.6899 84.7847 56.563C85.2485 56.4312 85.7295 56.3652 86.2275 56.3652C86.7256 56.3652 87.2065 56.4312 87.6704 56.563C88.1343 56.6899 88.5664 56.8706 88.9668 57.105C89.3672 57.3394 89.7334 57.6226 90.0654 57.9546C90.3975 58.2866 90.6807 58.6528 90.915 59.0532C91.1494 59.4536 91.3301 59.8857 91.457 60.3496C91.5889 60.8135 91.6548 61.2944 91.6548 61.7925ZM89.5674 61.7925C89.5674 61.3335 89.4795 60.9014 89.3037 60.4961C89.1279 60.0859 88.8887 59.7319 88.5859 59.4341C88.2881 59.1313 87.9341 58.8921 87.5239 58.7163C87.1187 58.5405 86.6865 58.4526 86.2275 58.4526C85.7637 58.4526 85.3291 58.5405 84.9238 58.7163C84.5186 58.8921 84.1646 59.1313 83.8618 59.4341C83.5591 59.7319 83.3198 60.0859 83.144 60.4961C82.9683 60.9014 82.8804 61.3335 82.8804 61.7925C82.8804 62.2515 82.9683 62.6836 83.144 63.0889C83.3198 63.4893 83.5591 63.8408 83.8618 64.1436C84.1646 64.4463 84.5186 64.6855 84.9238 64.8613C85.3291 65.0371 85.7637 65.125 86.2275 65.125C86.6865 65.125 87.1187 65.0371 87.5239 64.8613C87.9341 64.6855 88.2881 64.4463 88.5859 64.1436C88.8887 63.8408 89.1279 63.4893 89.3037 63.0889C89.4795 62.6836 89.5674 62.2515 89.5674 61.7925ZM104.597 67H97.2432V56.4971H99.3452V64.8979H104.597V67ZM118.183 62.8032C118.183 63.3843 118.073 63.9312 117.854 64.4438C117.634 64.9517 117.333 65.396 116.953 65.7769C116.572 66.1528 116.125 66.4507 115.612 66.6704C115.104 66.8901 114.56 67 113.979 67C113.398 67 112.851 66.8901 112.338 66.6704C111.831 66.4507 111.386 66.1528 111.005 65.7769C110.629 65.396 110.332 64.9517 110.112 64.4438C109.892 63.9312 109.782 63.3843 109.782 62.8032V56.4971H111.877V62.8032C111.877 63.0913 111.931 63.3623 112.038 63.6162C112.15 63.8701 112.302 64.0923 112.492 64.2827C112.683 64.4731 112.905 64.6245 113.159 64.7368C113.417 64.8442 113.691 64.8979 113.979 64.8979C114.267 64.8979 114.538 64.8442 114.792 64.7368C115.051 64.6245 115.275 64.4731 115.466 64.2827C115.656 64.0923 115.805 63.8701 115.913 63.6162C116.025 63.3623 116.081 63.0913 116.081 62.8032V56.4971H118.183V62.8032ZM128.62 67H126.525V58.5991H123.369V56.4971H131.77V58.5991H128.62V67ZM139.189 67H137.087V56.4971H139.189V67ZM155.639 61.7925C155.639 62.2905 155.573 62.7715 155.441 63.2354C155.314 63.6943 155.134 64.1265 154.899 64.5317C154.665 64.9321 154.382 65.2983 154.05 65.6304C153.718 65.9624 153.352 66.248 152.951 66.4873C152.551 66.7217 152.119 66.9023 151.655 67.0293C151.191 67.1611 150.71 67.2271 150.212 67.2271C149.714 67.2271 149.233 67.1611 148.769 67.0293C148.31 66.9023 147.878 66.7217 147.473 66.4873C147.072 66.248 146.706 65.9624 146.374 65.6304C146.042 65.2983 145.756 64.9321 145.517 64.5317C145.283 64.1265 145.1 63.6943 144.968 63.2354C144.841 62.7715 144.777 62.2905 144.777 61.7925C144.777 61.2944 144.841 60.8135 144.968 60.3496C145.1 59.8857 145.283 59.4536 145.517 59.0532C145.756 58.6528 146.042 58.2866 146.374 57.9546C146.706 57.6226 147.072 57.3394 147.473 57.105C147.878 56.8706 148.31 56.6899 148.769 56.563C149.233 56.4312 149.714 56.3652 150.212 56.3652C150.71 56.3652 151.191 56.4312 151.655 56.563C152.119 56.6899 152.551 56.8706 152.951 57.105C153.352 57.3394 153.718 57.6226 154.05 57.9546C154.382 58.2866 154.665 58.6528 154.899 59.0532C155.134 59.4536 155.314 59.8857 155.441 60.3496C155.573 60.8135 155.639 61.2944 155.639 61.7925ZM153.552 61.7925C153.552 61.3335 153.464 60.9014 153.288 60.4961C153.112 60.0859 152.873 59.7319 152.57 59.4341C152.272 59.1313 151.918 58.8921 151.508 58.7163C151.103 58.5405 150.671 58.4526 150.212 58.4526C149.748 58.4526 149.313 58.5405 148.908 58.7163C148.503 58.8921 148.149 59.1313 147.846 59.4341C147.543 59.7319 147.304 60.0859 147.128 60.4961C146.953 60.9014 146.865 61.3335 146.865 61.7925C146.865 62.2515 146.953 62.6836 147.128 63.0889C147.304 63.4893 147.543 63.8408 147.846 64.1436C148.149 64.4463 148.503 64.6855 148.908 64.8613C149.313 65.0371 149.748 65.125 150.212 65.125C150.671 65.125 151.103 65.0371 151.508 64.8613C151.918 64.6855 152.272 64.4463 152.57 64.1436C152.873 63.8408 153.112 63.4893 153.288 63.0889C153.464 62.6836 153.552 62.2515 153.552 61.7925ZM169.628 67H167.38L163.33 60.0859V67H161.228V56.4971H163.476L167.526 63.4185V56.4971H169.628V67ZM175.173 59.6465C175.173 59.2119 175.256 58.8042 175.422 58.4233C175.588 58.0425 175.812 57.7104 176.096 57.4272C176.384 57.1392 176.718 56.9121 177.099 56.7461C177.48 56.5801 177.888 56.4971 178.322 56.4971H183.142V58.5991H178.322C178.176 58.5991 178.039 58.626 177.912 58.6797C177.785 58.7334 177.673 58.8091 177.575 58.9067C177.482 58.9995 177.409 59.1094 177.355 59.2363C177.302 59.3633 177.275 59.5 177.275 59.6465C177.275 59.793 177.302 59.9321 177.355 60.064C177.409 60.1909 177.482 60.3032 177.575 60.4009C177.673 60.4937 177.785 60.5669 177.912 60.6206C178.039 60.6743 178.176 60.7012 178.322 60.7012H180.424C180.859 60.7012 181.267 60.7842 181.647 60.9502C182.033 61.1113 182.368 61.3359 182.651 61.624C182.939 61.9072 183.164 62.2417 183.325 62.6274C183.491 63.0083 183.574 63.416 183.574 63.8506C183.574 64.2852 183.491 64.6929 183.325 65.0737C183.164 65.4546 182.939 65.7891 182.651 66.0771C182.368 66.3604 182.033 66.585 181.647 66.751C181.267 66.917 180.859 67 180.424 67H175.759V64.8979H180.424C180.571 64.8979 180.708 64.8711 180.834 64.8174C180.961 64.7637 181.071 64.6904 181.164 64.5977C181.262 64.5 181.337 64.3877 181.391 64.2607C181.445 64.1338 181.472 63.9971 181.472 63.8506C181.472 63.7041 181.445 63.5674 181.391 63.4404C181.337 63.3135 181.262 63.2036 181.164 63.1108C181.071 63.0132 180.961 62.9375 180.834 62.8838C180.708 62.8301 180.571 62.8032 180.424 62.8032H178.322C177.888 62.8032 177.48 62.7202 177.099 62.5542C176.718 62.3882 176.384 62.1636 176.096 61.8804C175.812 61.5923 175.588 61.2578 175.422 60.877C175.256 60.4912 175.173 60.0811 175.173 59.6465Z" fill="#0E0E0E"/>
<defs>
<clipPath id="clip0_381_163">
<rect width="390" height="844" fill="white"/>
</clipPath>
</defs>
</svg>
