<svg width="2913" height="3021" viewBox="0 0 2913 3021" fill="none" xmlns="http://www.w3.org/2000/svg">
<g clip-path="url(#clip0_381_244)">
<rect width="2913" height="3021" fill="white"/>
<path d="M3412 0C3179.19 269.476 2945.75 538.953 2846.07 839.683C2746.38 1139.72 2779.82 1471.01 2628.4 1670.34C2476.35 1869.67 2138.81 1937.04 1949.53 2146.09C1760.89 2355.14 1720.51 2706.57 1570.98 2995.49C1421.46 3284.42 1163.41 3511.53 883.284 3628.21C603.157 3744.89 301.578 3750.44 0 3756V0H3412Z" fill="#DEE2FB"/>
<path d="M2388.25 727.156C2371.9 648.048 2294.01 595.822 2212.47 610.2C2154.78 620.371 2112.81 661.727 2096.3 716.328C2090.91 716.379 2081.45 716.429 2076.14 717.365C2038.91 723.929 2009.05 751.126 1999.1 786.462C1948.72 797.688 1915.39 846.126 1924.28 896.54C1933.42 948.405 1983.85 983.017 2036.66 973.704L2378.82 913.373C2431.63 904.06 2467.18 854.289 2458.04 802.424C2451.6 765.903 2424.13 736.734 2388.25 727.156ZM2374.08 886.5L2031.93 946.831C1994.19 953.484 1958.18 928.758 1951.65 891.714C1945.12 854.669 1970.5 819.118 2008.23 812.464C2009.08 812.315 2009.92 812.237 2010.76 812.144L2022.57 810.781L2024.29 800.6C2029.15 772.006 2051.9 749.347 2080.87 744.238C2087.54 743.063 2094.36 742.858 2101.12 743.634L2113.7 745.059L2116.38 732.866C2127.21 683.559 2166.77 645.966 2217.21 637.073C2285.13 625.096 2349.95 669.611 2361.7 736.284L2363.6 750.399L2373.66 751.992C2402.74 756.591 2425.65 778.805 2430.66 807.25C2437.2 844.295 2411.81 879.846 2374.08 886.5Z" fill="#D5D8F4"/>
<path d="M288.988 1283.99C288.988 1285.44 288.712 1286.81 288.158 1288.09C287.621 1289.36 286.872 1290.48 285.912 1291.44C284.968 1292.38 283.853 1293.13 282.567 1293.68C281.298 1294.22 279.939 1294.49 278.49 1294.49C277.188 1294.49 275.935 1294.26 274.73 1293.8C273.542 1293.35 272.468 1292.68 271.508 1291.8C270.548 1292.68 269.465 1293.35 268.261 1293.8C267.056 1294.26 265.803 1294.49 264.501 1294.49C263.052 1294.49 261.685 1294.22 260.399 1293.68C259.13 1293.13 258.015 1292.38 257.055 1291.44C256.111 1290.48 255.362 1289.36 254.809 1288.09C254.271 1286.81 254.003 1285.44 254.003 1283.99V1258.99H261.01V1283.99C261.01 1284.48 261.099 1284.94 261.278 1285.38C261.457 1285.81 261.701 1286.18 262.011 1286.5C262.336 1286.81 262.711 1287.06 263.134 1287.24C263.557 1287.42 264.013 1287.51 264.501 1287.51C264.989 1287.51 265.445 1287.42 265.868 1287.24C266.291 1287.06 266.658 1286.81 266.967 1286.5C267.292 1286.18 267.545 1285.81 267.724 1285.38C267.903 1284.94 267.992 1284.48 267.992 1283.99V1258.99H274.999V1283.99C274.999 1284.48 275.089 1284.94 275.268 1285.38C275.447 1285.81 275.691 1286.18 276 1286.5C276.326 1286.81 276.7 1287.06 277.123 1287.24C277.546 1287.42 278.002 1287.51 278.49 1287.51C278.979 1287.51 279.434 1287.42 279.857 1287.24C280.281 1287.06 280.647 1286.81 280.956 1286.5C281.282 1286.18 281.534 1285.81 281.713 1285.38C281.908 1284.94 282.006 1284.48 282.006 1283.99V1258.99H288.988V1283.99ZM302.416 1260.75C302.416 1261.37 302.294 1261.94 302.05 1262.48C301.822 1263.02 301.505 1263.49 301.098 1263.9C300.691 1264.29 300.211 1264.61 299.657 1264.85C299.12 1265.08 298.542 1265.19 297.924 1265.19C297.305 1265.19 296.719 1265.08 296.166 1264.85C295.629 1264.61 295.157 1264.29 294.75 1263.9C294.359 1263.49 294.042 1263.02 293.798 1262.48C293.57 1261.94 293.456 1261.37 293.456 1260.75C293.456 1260.15 293.57 1259.58 293.798 1259.04C294.042 1258.49 294.359 1258.01 294.75 1257.62C295.157 1257.22 295.629 1256.9 296.166 1256.67C296.719 1256.43 297.305 1256.3 297.924 1256.3C298.542 1256.3 299.12 1256.43 299.657 1256.67C300.211 1256.9 300.691 1257.22 301.098 1257.62C301.505 1258.01 301.822 1258.49 302.05 1259.04C302.294 1259.58 302.416 1260.15 302.416 1260.75ZM301.269 1294H294.555V1267.85H301.269V1294ZM313.085 1294H306.371V1257.45H313.085V1294ZM324.901 1294H318.188V1257.45H324.901V1294ZM336.718 1294H330.004V1257.45H336.718V1280.5L346.654 1267.9H354.32L345.653 1278.79L354.32 1294H346.654L341.356 1284.5L336.718 1290.66V1294ZM381.396 1280.69C381.396 1282.65 381.046 1284.47 380.346 1286.16C379.646 1287.84 378.694 1289.3 377.489 1290.53C376.285 1291.75 374.869 1292.72 373.241 1293.44C371.63 1294.14 369.896 1294.49 368.041 1294.49C366.202 1294.49 364.468 1294.14 362.841 1293.44C361.229 1292.72 359.813 1291.75 358.593 1290.53C357.388 1289.3 356.436 1287.84 355.736 1286.16C355.036 1284.47 354.687 1282.65 354.687 1280.69C354.687 1278.71 355.036 1276.87 355.736 1275.18C356.436 1273.48 357.388 1272.03 358.593 1270.81C359.813 1269.57 361.229 1268.6 362.841 1267.9C364.468 1267.2 366.202 1266.85 368.041 1266.85C369.896 1266.85 371.63 1267.19 373.241 1267.85C374.869 1268.5 376.285 1269.44 377.489 1270.66C378.694 1271.86 379.646 1273.32 380.346 1275.03C381.046 1276.72 381.396 1278.61 381.396 1280.69ZM374.682 1280.69C374.682 1279.62 374.503 1278.65 374.145 1277.79C373.803 1276.91 373.331 1276.16 372.729 1275.54C372.126 1274.91 371.418 1274.43 370.604 1274.1C369.807 1273.76 368.952 1273.59 368.041 1273.59C367.13 1273.59 366.267 1273.76 365.453 1274.1C364.656 1274.43 363.956 1274.91 363.354 1275.54C362.768 1276.16 362.304 1276.91 361.962 1277.79C361.62 1278.65 361.449 1279.62 361.449 1280.69C361.449 1281.7 361.62 1282.64 361.962 1283.5C362.304 1284.36 362.768 1285.11 363.354 1285.75C363.956 1286.38 364.656 1286.89 365.453 1287.26C366.267 1287.62 367.13 1287.8 368.041 1287.8C368.952 1287.8 369.807 1287.63 370.604 1287.29C371.418 1286.94 372.126 1286.46 372.729 1285.85C373.331 1285.23 373.803 1284.48 374.145 1283.6C374.503 1282.72 374.682 1281.75 374.682 1280.69ZM418.334 1294H411.693V1277.4C411.693 1276.94 411.604 1276.51 411.425 1276.1C411.262 1275.7 411.026 1275.34 410.717 1275.03C410.408 1274.72 410.049 1274.49 409.643 1274.32C409.236 1274.14 408.804 1274.05 408.349 1274.05C407.893 1274.05 407.462 1274.14 407.055 1274.32C406.664 1274.49 406.314 1274.72 406.005 1275.03C405.712 1275.34 405.476 1275.7 405.297 1276.1C405.134 1276.51 405.053 1276.94 405.053 1277.4V1294H398.388V1277.4C398.388 1276.94 398.298 1276.51 398.119 1276.1C397.956 1275.7 397.72 1275.34 397.411 1275.03C397.102 1274.72 396.744 1274.49 396.337 1274.32C395.93 1274.14 395.499 1274.05 395.043 1274.05C394.587 1274.05 394.156 1274.14 393.749 1274.32C393.358 1274.49 393.008 1274.72 392.699 1275.03C392.406 1275.34 392.17 1275.7 391.991 1276.1C391.828 1276.51 391.747 1276.94 391.747 1277.4V1294H385.082V1267.85H386.693L388.5 1269.85C389.428 1269.07 390.445 1268.47 391.552 1268.05C392.675 1267.61 393.839 1267.39 395.043 1267.39C396.264 1267.39 397.452 1267.62 398.607 1268.07C399.779 1268.53 400.805 1269.32 401.684 1270.44C402.09 1269.89 402.554 1269.42 403.075 1269.02C403.596 1268.63 404.141 1268.32 404.711 1268.07C405.297 1267.83 405.899 1267.66 406.518 1267.56C407.136 1267.45 407.746 1267.39 408.349 1267.39C409.732 1267.39 411.026 1267.65 412.23 1268.17C413.451 1268.69 414.509 1269.41 415.404 1270.32C416.316 1271.21 417.032 1272.27 417.553 1273.49C418.074 1274.71 418.334 1276.01 418.334 1277.4V1294ZM456.469 1294H449.828V1277.4C449.828 1276.94 449.739 1276.51 449.56 1276.1C449.397 1275.7 449.161 1275.34 448.852 1275.03C448.542 1274.72 448.184 1274.49 447.777 1274.32C447.37 1274.14 446.939 1274.05 446.483 1274.05C446.028 1274.05 445.596 1274.14 445.189 1274.32C444.799 1274.49 444.449 1274.72 444.14 1275.03C443.847 1275.34 443.611 1275.7 443.432 1276.1C443.269 1276.51 443.188 1276.94 443.188 1277.4V1294H436.522V1277.4C436.522 1276.94 436.433 1276.51 436.254 1276.1C436.091 1275.7 435.855 1275.34 435.546 1275.03C435.237 1274.72 434.879 1274.49 434.472 1274.32C434.065 1274.14 433.633 1274.05 433.178 1274.05C432.722 1274.05 432.291 1274.14 431.884 1274.32C431.493 1274.49 431.143 1274.72 430.834 1275.03C430.541 1275.34 430.305 1275.7 430.126 1276.1C429.963 1276.51 429.882 1276.94 429.882 1277.4V1294H423.217V1267.85H424.828L426.635 1269.85C427.562 1269.07 428.58 1268.47 429.687 1268.05C430.81 1267.61 431.973 1267.39 433.178 1267.39C434.398 1267.39 435.587 1267.62 436.742 1268.07C437.914 1268.53 438.939 1269.32 439.818 1270.44C440.225 1269.89 440.689 1269.42 441.21 1269.02C441.731 1268.63 442.276 1268.32 442.846 1268.07C443.432 1267.83 444.034 1267.66 444.652 1267.56C445.271 1267.45 445.881 1267.39 446.483 1267.39C447.867 1267.39 449.161 1267.65 450.365 1268.17C451.586 1268.69 452.644 1269.41 453.539 1270.32C454.451 1271.21 455.167 1272.27 455.688 1273.49C456.208 1274.71 456.469 1276.01 456.469 1277.4V1294ZM471.752 1287.6C472.012 1287.68 472.273 1287.74 472.533 1287.77C472.794 1287.79 473.054 1287.8 473.314 1287.8C473.965 1287.8 474.592 1287.71 475.194 1287.53C475.797 1287.35 476.358 1287.1 476.879 1286.77C477.416 1286.43 477.888 1286.02 478.295 1285.55C478.718 1285.06 479.06 1284.53 479.32 1283.94L484.203 1288.85C483.585 1289.73 482.868 1290.52 482.055 1291.22C481.257 1291.92 480.386 1292.51 479.442 1293C478.515 1293.49 477.53 1293.85 476.488 1294.1C475.463 1294.36 474.405 1294.49 473.314 1294.49C471.475 1294.49 469.742 1294.15 468.114 1293.46C466.503 1292.78 465.087 1291.83 463.866 1290.61C462.662 1289.39 461.71 1287.94 461.01 1286.26C460.31 1284.57 459.96 1282.71 459.96 1280.69C459.96 1278.63 460.31 1276.74 461.01 1275.03C461.71 1273.32 462.662 1271.86 463.866 1270.66C465.087 1269.46 466.503 1268.52 468.114 1267.85C469.742 1267.19 471.475 1266.85 473.314 1266.85C474.405 1266.85 475.471 1266.98 476.513 1267.24C477.554 1267.5 478.539 1267.88 479.467 1268.37C480.411 1268.85 481.29 1269.46 482.104 1270.17C482.917 1270.87 483.633 1271.66 484.252 1272.54L471.752 1287.6ZM475.17 1273.86C474.861 1273.74 474.551 1273.67 474.242 1273.64C473.949 1273.61 473.64 1273.59 473.314 1273.59C472.403 1273.59 471.54 1273.76 470.727 1274.1C469.929 1274.43 469.229 1274.9 468.627 1275.52C468.041 1276.14 467.577 1276.89 467.235 1277.76C466.894 1278.63 466.723 1279.6 466.723 1280.69C466.723 1280.94 466.731 1281.22 466.747 1281.52C466.78 1281.83 466.82 1282.15 466.869 1282.48C466.934 1282.79 467.007 1283.09 467.089 1283.38C467.17 1283.67 467.276 1283.93 467.406 1284.16L475.17 1273.86ZM494.286 1294H487.621V1267.85H489.232L491.43 1270.39C492.504 1269.42 493.716 1268.67 495.067 1268.15C496.435 1267.61 497.859 1267.34 499.34 1267.34C500.935 1267.34 502.44 1267.65 503.856 1268.27C505.272 1268.87 506.509 1269.71 507.567 1270.78C508.625 1271.84 509.455 1273.09 510.058 1274.52C510.676 1275.93 510.985 1277.45 510.985 1279.06V1294H504.32V1279.06C504.32 1278.38 504.19 1277.73 503.93 1277.13C503.669 1276.51 503.311 1275.97 502.855 1275.52C502.4 1275.06 501.871 1274.7 501.269 1274.44C500.666 1274.18 500.023 1274.05 499.34 1274.05C498.64 1274.05 497.981 1274.18 497.362 1274.44C496.744 1274.7 496.207 1275.06 495.751 1275.52C495.295 1275.97 494.937 1276.51 494.677 1277.13C494.416 1277.73 494.286 1278.38 494.286 1279.06V1294ZM550.17 1294H528.368L539.379 1274.54H528.368V1267.9H550.17L539.159 1287.36H550.17V1294ZM572.899 1290.95C572.362 1291.44 571.785 1291.9 571.166 1292.34C570.564 1292.76 569.929 1293.14 569.262 1293.46C568.594 1293.77 567.903 1294.02 567.187 1294.2C566.487 1294.39 565.771 1294.49 565.038 1294.49C563.427 1294.49 561.913 1294.2 560.497 1293.63C559.081 1293.06 557.836 1292.26 556.762 1291.22C555.704 1290.16 554.866 1288.88 554.247 1287.38C553.645 1285.87 553.344 1284.18 553.344 1282.31V1267.85H559.984V1282.31C559.984 1283.18 560.115 1283.97 560.375 1284.67C560.652 1285.36 561.018 1285.94 561.474 1286.41C561.929 1286.88 562.458 1287.24 563.061 1287.48C563.679 1287.73 564.338 1287.85 565.038 1287.85C565.722 1287.85 566.365 1287.69 566.967 1287.38C567.585 1287.06 568.122 1286.64 568.578 1286.11C569.034 1285.59 569.392 1285.01 569.652 1284.36C569.913 1283.69 570.043 1283.01 570.043 1282.31V1267.85H576.708V1294H575.097L572.899 1290.95ZM603.539 1266V1280.01H610.546C611.506 1280.01 612.41 1279.83 613.256 1279.47C614.102 1279.1 614.843 1278.59 615.478 1277.96C616.112 1277.33 616.609 1276.58 616.967 1275.74C617.341 1274.88 617.528 1273.96 617.528 1273C617.528 1272.04 617.341 1271.14 616.967 1270.29C616.609 1269.43 616.112 1268.68 615.478 1268.05C614.843 1267.41 614.102 1266.92 613.256 1266.56C612.41 1266.18 611.506 1266 610.546 1266H603.539ZM603.539 1294H596.532V1258.99H610.546C611.832 1258.99 613.069 1259.16 614.257 1259.5C615.445 1259.83 616.552 1260.3 617.577 1260.92C618.619 1261.52 619.563 1262.25 620.409 1263.12C621.272 1263.96 622.004 1264.91 622.606 1265.95C623.225 1266.99 623.697 1268.1 624.022 1269.29C624.364 1270.48 624.535 1271.72 624.535 1273C624.535 1274.92 624.169 1276.74 623.437 1278.45C622.704 1280.14 621.703 1281.62 620.434 1282.89C619.164 1284.16 617.675 1285.16 615.966 1285.89C614.273 1286.63 612.466 1286.99 610.546 1286.99H603.539V1294ZM649.267 1280.01V1273C649.267 1272.04 649.079 1271.14 648.705 1270.29C648.347 1269.43 647.851 1268.68 647.216 1268.05C646.581 1267.41 645.832 1266.92 644.97 1266.56C644.123 1266.18 643.22 1266 642.26 1266C641.299 1266 640.388 1266.18 639.525 1266.56C638.679 1266.92 637.938 1267.41 637.304 1268.05C636.669 1268.68 636.164 1269.43 635.79 1270.29C635.432 1271.14 635.253 1272.04 635.253 1273V1280.01H649.267ZM656.273 1294H649.267V1286.99H635.253V1294H628.271V1273C628.271 1271.07 628.637 1269.25 629.369 1267.56C630.102 1265.85 631.094 1264.36 632.348 1263.09C633.617 1261.82 635.098 1260.82 636.791 1260.09C638.5 1259.36 640.323 1258.99 642.26 1258.99C644.197 1258.99 646.011 1259.36 647.704 1260.09C649.413 1260.82 650.902 1261.82 652.172 1263.09C653.441 1264.36 654.442 1265.85 655.175 1267.56C655.907 1269.25 656.273 1271.07 656.273 1273V1294ZM675.976 1294H668.993V1266H658.471V1258.99H686.474V1266H675.976V1294ZM732.152 1290.41C730.525 1291.81 728.702 1292.89 726.684 1293.63C724.665 1294.38 722.574 1294.76 720.409 1294.76C718.749 1294.76 717.146 1294.54 715.6 1294.1C714.07 1293.67 712.629 1293.07 711.278 1292.29C709.944 1291.49 708.723 1290.54 707.616 1289.43C706.509 1288.33 705.557 1287.11 704.76 1285.77C703.979 1284.42 703.368 1282.98 702.929 1281.45C702.506 1279.9 702.294 1278.3 702.294 1276.64C702.294 1274.98 702.506 1273.38 702.929 1271.83C703.368 1270.29 703.979 1268.85 704.76 1267.51C705.557 1266.16 706.509 1264.93 707.616 1263.82C708.723 1262.72 709.944 1261.77 711.278 1260.99C712.629 1260.19 714.07 1259.58 715.6 1259.16C717.146 1258.72 718.749 1258.5 720.409 1258.5C722.574 1258.5 724.665 1258.88 726.684 1259.62C728.702 1260.36 730.525 1261.43 732.152 1262.85L728.441 1268.95C727.416 1267.84 726.203 1267 724.804 1266.41C723.404 1265.81 721.939 1265.51 720.409 1265.51C718.863 1265.51 717.414 1265.8 716.063 1266.39C714.713 1266.97 713.533 1267.77 712.523 1268.78C711.514 1269.77 710.717 1270.95 710.131 1272.32C709.545 1273.67 709.252 1275.11 709.252 1276.64C709.252 1278.17 709.545 1279.61 710.131 1280.96C710.717 1282.3 711.514 1283.47 712.523 1284.48C713.533 1285.49 714.713 1286.29 716.063 1286.87C717.414 1287.46 718.863 1287.75 720.409 1287.75C721.939 1287.75 723.404 1287.46 724.804 1286.87C726.203 1286.27 727.416 1285.41 728.441 1284.31L732.152 1290.41ZM742.235 1294H735.521V1257.45H742.235V1294ZM772.606 1280.69C772.606 1282.65 772.257 1284.47 771.557 1286.16C770.857 1287.84 769.905 1289.3 768.7 1290.53C767.496 1291.75 766.08 1292.72 764.452 1293.44C762.841 1294.14 761.107 1294.49 759.252 1294.49C757.413 1294.49 755.679 1294.14 754.052 1293.44C752.44 1292.72 751.024 1291.75 749.804 1290.53C748.599 1289.3 747.647 1287.84 746.947 1286.16C746.247 1284.47 745.897 1282.65 745.897 1280.69C745.897 1278.71 746.247 1276.87 746.947 1275.18C747.647 1273.48 748.599 1272.03 749.804 1270.81C751.024 1269.57 752.44 1268.6 754.052 1267.9C755.679 1267.2 757.413 1266.85 759.252 1266.85C761.107 1266.85 762.841 1267.19 764.452 1267.85C766.08 1268.5 767.496 1269.44 768.7 1270.66C769.905 1271.86 770.857 1273.32 771.557 1275.03C772.257 1276.72 772.606 1278.61 772.606 1280.69ZM765.893 1280.69C765.893 1279.62 765.714 1278.65 765.355 1277.79C765.014 1276.91 764.542 1276.16 763.939 1275.54C763.337 1274.91 762.629 1274.43 761.815 1274.1C761.018 1273.76 760.163 1273.59 759.252 1273.59C758.34 1273.59 757.478 1273.76 756.664 1274.1C755.867 1274.43 755.167 1274.91 754.564 1275.54C753.979 1276.16 753.515 1276.91 753.173 1277.79C752.831 1278.65 752.66 1279.62 752.66 1280.69C752.66 1281.7 752.831 1282.64 753.173 1283.5C753.515 1284.36 753.979 1285.11 754.564 1285.75C755.167 1286.38 755.867 1286.89 756.664 1287.26C757.478 1287.62 758.34 1287.8 759.252 1287.8C760.163 1287.8 761.018 1287.63 761.815 1287.29C762.629 1286.94 763.337 1286.46 763.939 1285.85C764.542 1285.23 765.014 1284.48 765.355 1283.6C765.714 1282.72 765.893 1281.75 765.893 1280.69ZM795.507 1290.95C794.97 1291.44 794.392 1291.9 793.773 1292.34C793.171 1292.76 792.536 1293.14 791.869 1293.46C791.202 1293.77 790.51 1294.02 789.794 1294.2C789.094 1294.39 788.378 1294.49 787.646 1294.49C786.034 1294.49 784.521 1294.2 783.104 1293.63C781.688 1293.06 780.443 1292.26 779.369 1291.22C778.311 1290.16 777.473 1288.88 776.854 1287.38C776.252 1285.87 775.951 1284.18 775.951 1282.31V1267.85H782.592V1282.31C782.592 1283.18 782.722 1283.97 782.982 1284.67C783.259 1285.36 783.625 1285.94 784.081 1286.41C784.537 1286.88 785.066 1287.24 785.668 1287.48C786.286 1287.73 786.946 1287.85 787.646 1287.85C788.329 1287.85 788.972 1287.69 789.574 1287.38C790.193 1287.06 790.73 1286.64 791.186 1286.11C791.641 1285.59 791.999 1285.01 792.26 1284.36C792.52 1283.69 792.65 1283.01 792.65 1282.31V1267.85H799.315V1294H797.704L795.507 1290.95ZM829.687 1294H828.075L825.487 1290.41C824.853 1290.98 824.177 1291.52 823.461 1292.02C822.761 1292.51 822.021 1292.94 821.239 1293.32C820.458 1293.67 819.652 1293.96 818.822 1294.17C818.008 1294.38 817.178 1294.49 816.332 1294.49C814.493 1294.49 812.759 1294.15 811.132 1293.46C809.521 1292.76 808.104 1291.8 806.884 1290.58C805.679 1289.35 804.727 1287.89 804.027 1286.21C803.327 1284.52 802.978 1282.68 802.978 1280.69C802.978 1278.72 803.327 1276.89 804.027 1275.2C804.727 1273.51 805.679 1272.04 806.884 1270.81C808.104 1269.57 809.521 1268.6 811.132 1267.9C812.759 1267.2 814.493 1266.85 816.332 1266.85C816.918 1266.85 817.52 1266.9 818.139 1267C818.773 1267.1 819.384 1267.26 819.97 1267.49C820.572 1267.7 821.133 1267.98 821.654 1268.34C822.175 1268.7 822.615 1269.14 822.973 1269.66V1257.45H829.687V1294ZM822.973 1280.69C822.973 1279.78 822.794 1278.9 822.436 1278.06C822.094 1277.19 821.622 1276.44 821.02 1275.79C820.417 1275.12 819.709 1274.59 818.896 1274.2C818.098 1273.79 817.243 1273.59 816.332 1273.59C815.421 1273.59 814.558 1273.75 813.744 1274.08C812.947 1274.4 812.247 1274.88 811.645 1275.49C811.059 1276.1 810.595 1276.84 810.253 1277.72C809.911 1278.59 809.74 1279.59 809.74 1280.69C809.74 1281.65 809.911 1282.57 810.253 1283.43C810.595 1284.29 811.059 1285.05 811.645 1285.7C812.247 1286.35 812.947 1286.86 813.744 1287.24C814.558 1287.61 815.421 1287.8 816.332 1287.8C817.243 1287.8 818.098 1287.6 818.896 1287.21C819.709 1286.81 820.417 1286.28 821.02 1285.63C821.622 1284.96 822.094 1284.2 822.436 1283.36C822.794 1282.49 822.973 1281.61 822.973 1280.69ZM847.46 1269.49C847.46 1268.04 847.737 1266.68 848.29 1265.41C848.843 1264.14 849.592 1263.03 850.536 1262.09C851.496 1261.13 852.611 1260.37 853.881 1259.82C855.15 1259.27 856.509 1258.99 857.958 1258.99H874.022V1266H857.958C857.47 1266 857.014 1266.09 856.591 1266.27C856.168 1266.44 855.793 1266.7 855.468 1267.02C855.159 1267.33 854.914 1267.7 854.735 1268.12C854.556 1268.54 854.467 1269 854.467 1269.49C854.467 1269.98 854.556 1270.44 854.735 1270.88C854.914 1271.3 855.159 1271.68 855.468 1272C855.793 1272.31 856.168 1272.56 856.591 1272.74C857.014 1272.91 857.47 1273 857.958 1273H864.965C866.413 1273 867.772 1273.28 869.042 1273.83C870.328 1274.37 871.443 1275.12 872.387 1276.08C873.347 1277.02 874.096 1278.14 874.633 1279.42C875.186 1280.69 875.463 1282.05 875.463 1283.5C875.463 1284.95 875.186 1286.31 874.633 1287.58C874.096 1288.85 873.347 1289.96 872.387 1290.92C871.443 1291.87 870.328 1292.62 869.042 1293.17C867.772 1293.72 866.413 1294 864.965 1294H849.413V1286.99H864.965C865.453 1286.99 865.909 1286.9 866.332 1286.72C866.755 1286.55 867.121 1286.3 867.431 1285.99C867.756 1285.67 868.008 1285.29 868.188 1284.87C868.367 1284.45 868.456 1283.99 868.456 1283.5C868.456 1283.01 868.367 1282.56 868.188 1282.13C868.008 1281.71 867.756 1281.35 867.431 1281.04C867.121 1280.71 866.755 1280.46 866.332 1280.28C865.909 1280.1 865.453 1280.01 864.965 1280.01H857.958C856.509 1280.01 855.15 1279.73 853.881 1279.18C852.611 1278.63 851.496 1277.88 850.536 1276.93C849.592 1275.97 848.843 1274.86 848.29 1273.59C847.737 1272.3 847.46 1270.94 847.46 1269.49ZM904.638 1280.69C904.638 1282.65 904.288 1284.47 903.588 1286.16C902.888 1287.84 901.936 1289.3 900.731 1290.53C899.527 1291.75 898.111 1292.72 896.483 1293.44C894.872 1294.14 893.139 1294.49 891.283 1294.49C889.444 1294.49 887.711 1294.14 886.083 1293.44C884.472 1292.72 883.056 1291.75 881.835 1290.53C880.631 1289.3 879.678 1287.84 878.979 1286.16C878.279 1284.47 877.929 1282.65 877.929 1280.69C877.929 1278.71 878.279 1276.87 878.979 1275.18C879.678 1273.48 880.631 1272.03 881.835 1270.81C883.056 1269.57 884.472 1268.6 886.083 1267.9C887.711 1267.2 889.444 1266.85 891.283 1266.85C893.139 1266.85 894.872 1267.19 896.483 1267.85C898.111 1268.5 899.527 1269.44 900.731 1270.66C901.936 1271.86 902.888 1273.32 903.588 1275.03C904.288 1276.72 904.638 1278.61 904.638 1280.69ZM897.924 1280.69C897.924 1279.62 897.745 1278.65 897.387 1277.79C897.045 1276.91 896.573 1276.16 895.971 1275.54C895.368 1274.91 894.66 1274.43 893.847 1274.1C893.049 1273.76 892.195 1273.59 891.283 1273.59C890.372 1273.59 889.509 1273.76 888.695 1274.1C887.898 1274.43 887.198 1274.91 886.596 1275.54C886.01 1276.16 885.546 1276.91 885.204 1277.79C884.862 1278.65 884.691 1279.62 884.691 1280.69C884.691 1281.7 884.862 1282.64 885.204 1283.5C885.546 1284.36 886.01 1285.11 886.596 1285.75C887.198 1286.38 887.898 1286.89 888.695 1287.26C889.509 1287.62 890.372 1287.8 891.283 1287.8C892.195 1287.8 893.049 1287.63 893.847 1287.29C894.66 1286.94 895.368 1286.46 895.971 1285.85C896.573 1285.23 897.045 1284.48 897.387 1283.6C897.745 1282.72 897.924 1281.75 897.924 1280.69ZM915.038 1294H908.324V1257.45H915.038V1294ZM939.354 1290.95C938.817 1291.44 938.24 1291.9 937.621 1292.34C937.019 1292.76 936.384 1293.14 935.717 1293.46C935.049 1293.77 934.358 1294.02 933.642 1294.2C932.942 1294.39 932.226 1294.49 931.493 1294.49C929.882 1294.49 928.368 1294.2 926.952 1293.63C925.536 1293.06 924.291 1292.26 923.217 1291.22C922.159 1290.16 921.321 1288.88 920.702 1287.38C920.1 1285.87 919.799 1284.18 919.799 1282.31V1267.85H926.439V1282.31C926.439 1283.18 926.57 1283.97 926.83 1284.67C927.107 1285.36 927.473 1285.94 927.929 1286.41C928.384 1286.88 928.913 1287.24 929.516 1287.48C930.134 1287.73 930.793 1287.85 931.493 1287.85C932.177 1287.85 932.82 1287.69 933.422 1287.38C934.04 1287.06 934.577 1286.64 935.033 1286.11C935.489 1285.59 935.847 1285.01 936.107 1284.36C936.368 1283.69 936.498 1283.01 936.498 1282.31V1267.85H943.163V1294H941.552L939.354 1290.95ZM961.376 1294C959.765 1294 958.251 1293.7 956.835 1293.1C955.419 1292.48 954.174 1291.64 953.1 1290.58C952.042 1289.51 951.203 1288.26 950.585 1286.85C949.983 1285.43 949.682 1283.92 949.682 1282.31V1274.54H946.435V1267.9H949.682V1257.45H956.322V1267.9H966.43V1274.54H956.322V1282.31C956.322 1283.01 956.452 1283.66 956.713 1284.28C956.973 1284.89 957.331 1285.41 957.787 1285.87C958.243 1286.33 958.78 1286.69 959.398 1286.97C960.017 1287.23 960.676 1287.36 961.376 1287.36H966.43V1294H961.376ZM978.051 1260.75C978.051 1261.37 977.929 1261.94 977.685 1262.48C977.457 1263.02 977.139 1263.49 976.732 1263.9C976.326 1264.29 975.845 1264.61 975.292 1264.85C974.755 1265.08 974.177 1265.19 973.559 1265.19C972.94 1265.19 972.354 1265.08 971.801 1264.85C971.264 1264.61 970.792 1264.29 970.385 1263.9C969.994 1263.49 969.677 1263.02 969.433 1262.48C969.205 1261.94 969.091 1261.37 969.091 1260.75C969.091 1260.15 969.205 1259.58 969.433 1259.04C969.677 1258.49 969.994 1258.01 970.385 1257.62C970.792 1257.22 971.264 1256.9 971.801 1256.67C972.354 1256.43 972.94 1256.3 973.559 1256.3C974.177 1256.3 974.755 1256.43 975.292 1256.67C975.845 1256.9 976.326 1257.22 976.732 1257.62C977.139 1258.01 977.457 1258.49 977.685 1259.04C977.929 1259.58 978.051 1260.15 978.051 1260.75ZM976.903 1294H970.189V1267.85H976.903V1294ZM1007.27 1280.69C1007.27 1282.65 1006.92 1284.47 1006.22 1286.16C1005.52 1287.84 1004.57 1289.3 1003.37 1290.53C1002.16 1291.75 1000.75 1292.72 999.12 1293.44C997.509 1294.14 995.775 1294.49 993.92 1294.49C992.081 1294.49 990.347 1294.14 988.72 1293.44C987.108 1292.72 985.692 1291.75 984.472 1290.53C983.267 1289.3 982.315 1287.84 981.615 1286.16C980.915 1284.47 980.565 1282.65 980.565 1280.69C980.565 1278.71 980.915 1276.87 981.615 1275.18C982.315 1273.48 983.267 1272.03 984.472 1270.81C985.692 1269.57 987.108 1268.6 988.72 1267.9C990.347 1267.2 992.081 1266.85 993.92 1266.85C995.775 1266.85 997.509 1267.19 999.12 1267.85C1000.75 1268.5 1002.16 1269.44 1003.37 1270.66C1004.57 1271.86 1005.52 1273.32 1006.22 1275.03C1006.92 1276.72 1007.27 1278.61 1007.27 1280.69ZM1000.56 1280.69C1000.56 1279.62 1000.38 1278.65 1000.02 1277.79C999.682 1276.91 999.21 1276.16 998.607 1275.54C998.005 1274.91 997.297 1274.43 996.483 1274.1C995.686 1273.76 994.831 1273.59 993.92 1273.59C993.008 1273.59 992.146 1273.76 991.332 1274.1C990.535 1274.43 989.835 1274.91 989.232 1275.54C988.646 1276.16 988.183 1276.91 987.841 1277.79C987.499 1278.65 987.328 1279.62 987.328 1280.69C987.328 1281.7 987.499 1282.64 987.841 1283.5C988.183 1284.36 988.646 1285.11 989.232 1285.75C989.835 1286.38 990.535 1286.89 991.332 1287.26C992.146 1287.62 993.008 1287.8 993.92 1287.8C994.831 1287.8 995.686 1287.63 996.483 1287.29C997.297 1286.94 998.005 1286.46 998.607 1285.85C999.21 1285.23 999.682 1284.48 1000.02 1283.6C1000.38 1282.72 1000.56 1281.75 1000.56 1280.69ZM1017.63 1294H1010.96V1267.85H1012.57L1014.77 1270.39C1015.84 1269.42 1017.06 1268.67 1018.41 1268.15C1019.77 1267.61 1021.2 1267.34 1022.68 1267.34C1024.27 1267.34 1025.78 1267.65 1027.2 1268.27C1028.61 1268.87 1029.85 1269.71 1030.91 1270.78C1031.97 1271.84 1032.8 1273.09 1033.4 1274.52C1034.02 1275.93 1034.33 1277.45 1034.33 1279.06V1294H1027.66V1279.06C1027.66 1278.38 1027.53 1277.73 1027.27 1277.13C1027.01 1276.51 1026.65 1275.97 1026.2 1275.52C1025.74 1275.06 1025.21 1274.7 1024.61 1274.44C1024.01 1274.18 1023.36 1274.05 1022.68 1274.05C1021.98 1274.05 1021.32 1274.18 1020.7 1274.44C1020.08 1274.7 1019.55 1275.06 1019.09 1275.52C1018.64 1275.97 1018.28 1276.51 1018.02 1277.13C1017.76 1277.73 1017.63 1278.38 1017.63 1279.06V1294ZM1053.44 1294H1038.21V1287.36H1053.44C1053.9 1287.36 1054.29 1287.2 1054.61 1286.87C1054.94 1286.55 1055.1 1286.15 1055.1 1285.7C1055.1 1285.23 1054.94 1284.92 1054.61 1284.77C1054.29 1284.62 1053.9 1284.55 1053.44 1284.55H1046.51C1045.35 1284.55 1044.27 1284.33 1043.26 1283.89C1042.25 1283.45 1041.37 1282.86 1040.62 1282.11C1039.88 1281.35 1039.28 1280.46 1038.84 1279.45C1038.42 1278.44 1038.21 1277.36 1038.21 1276.2C1038.21 1275.05 1038.42 1273.96 1038.84 1272.96C1039.28 1271.95 1039.88 1271.07 1040.62 1270.32C1041.37 1269.57 1042.25 1268.98 1043.26 1268.56C1044.27 1268.12 1045.35 1267.9 1046.51 1267.9H1060.01V1274.54H1046.51C1046.05 1274.54 1045.66 1274.7 1045.34 1275.03C1045.01 1275.36 1044.85 1275.75 1044.85 1276.2C1044.85 1276.67 1045.01 1277.08 1045.34 1277.42C1045.66 1277.75 1046.05 1277.91 1046.51 1277.91H1053.44C1054.58 1277.91 1055.65 1278.11 1056.66 1278.5C1057.67 1278.87 1058.55 1279.4 1059.3 1280.08C1060.05 1280.77 1060.64 1281.59 1061.08 1282.55C1061.52 1283.51 1061.74 1284.56 1061.74 1285.7C1061.74 1286.85 1061.52 1287.94 1061.08 1288.95C1060.64 1289.94 1060.05 1290.82 1059.3 1291.58C1058.55 1292.33 1057.67 1292.93 1056.66 1293.37C1055.65 1293.79 1054.58 1294 1053.44 1294Z" fill="#006FAD"/>
<rect x="218.5" y="1237.5" width="877" height="77" rx="5.5" stroke="#00507E"/>
<path d="M323.137 1423.4C323.137 1428.04 322.521 1432.53 321.291 1436.86C320.106 1441.15 318.42 1445.18 316.232 1448.96C314.045 1452.7 311.402 1456.12 308.303 1459.22C305.204 1462.32 301.786 1464.98 298.049 1467.21C294.312 1469.4 290.279 1471.09 285.949 1472.27C281.62 1473.5 277.131 1474.12 272.482 1474.12C267.834 1474.12 263.345 1473.5 259.016 1472.27C254.732 1471.09 250.699 1469.4 246.916 1467.21C243.179 1464.98 239.761 1462.32 236.662 1459.22C233.563 1456.12 230.897 1452.7 228.664 1448.96C226.477 1445.18 224.768 1441.15 223.537 1436.86C222.352 1432.53 221.76 1428.04 221.76 1423.4C221.76 1418.75 222.352 1414.26 223.537 1409.93C224.768 1405.6 226.477 1401.57 228.664 1397.83C230.897 1394.09 233.563 1390.68 236.662 1387.58C239.761 1384.48 243.179 1381.83 246.916 1379.65C250.699 1377.46 254.732 1375.77 259.016 1374.59C263.345 1373.36 267.834 1372.74 272.482 1372.74C277.131 1372.74 281.62 1373.36 285.949 1374.59C290.279 1375.77 294.312 1377.46 298.049 1379.65C301.786 1381.83 305.204 1384.48 308.303 1387.58C311.402 1390.68 314.045 1394.09 316.232 1397.83C318.42 1401.57 320.106 1405.6 321.291 1409.93C322.521 1414.26 323.137 1418.75 323.137 1423.4ZM303.654 1423.4C303.654 1419.11 302.834 1415.08 301.193 1411.3C299.553 1407.47 297.32 1404.16 294.494 1401.38C291.714 1398.56 288.41 1396.33 284.582 1394.69C280.799 1393.04 276.766 1392.22 272.482 1392.22C268.153 1392.22 264.097 1393.04 260.314 1394.69C256.532 1396.33 253.228 1398.56 250.402 1401.38C247.577 1404.16 245.344 1407.47 243.703 1411.3C242.062 1415.08 241.242 1419.11 241.242 1423.4C241.242 1427.68 242.062 1431.71 243.703 1435.5C245.344 1439.23 247.577 1442.51 250.402 1445.34C253.228 1448.17 256.532 1450.4 260.314 1452.04C264.097 1453.68 268.153 1454.5 272.482 1454.5C276.766 1454.5 280.799 1453.68 284.582 1452.04C288.41 1450.4 291.714 1448.17 294.494 1445.34C297.32 1442.51 299.553 1439.23 301.193 1435.5C302.834 1431.71 303.654 1427.68 303.654 1423.4ZM387.873 1463.46C386.369 1464.82 384.751 1466.12 383.02 1467.35C381.333 1468.54 379.556 1469.58 377.688 1470.5C375.819 1471.36 373.882 1472.05 371.877 1472.55C369.917 1473.09 367.912 1473.37 365.861 1473.37C361.35 1473.37 357.111 1472.57 353.146 1470.97C349.182 1469.38 345.695 1467.12 342.688 1464.21C339.725 1461.24 337.378 1457.67 335.646 1453.47C333.96 1449.24 333.117 1444.5 333.117 1439.26V1398.79H351.711V1439.26C351.711 1441.72 352.076 1443.93 352.805 1445.89C353.579 1447.8 354.605 1449.42 355.881 1450.74C357.157 1452.06 358.638 1453.06 360.324 1453.75C362.056 1454.43 363.902 1454.77 365.861 1454.77C367.775 1454.77 369.576 1454.34 371.262 1453.47C372.993 1452.56 374.497 1451.38 375.773 1449.92C377.049 1448.46 378.052 1446.82 378.781 1445C379.51 1443.13 379.875 1441.22 379.875 1439.26V1398.79H398.537V1472H394.025L387.873 1463.46ZM431.486 1472H412.824V1398.79H417.336L423.488 1407.47C426.496 1404.73 429.914 1402.64 433.742 1401.18C437.57 1399.68 441.535 1398.92 445.637 1398.92H462.111V1417.52H445.637C443.677 1417.52 441.831 1417.88 440.1 1418.61C438.368 1419.34 436.864 1420.34 435.588 1421.62C434.312 1422.9 433.309 1424.4 432.58 1426.13C431.851 1427.86 431.486 1429.71 431.486 1431.67V1472ZM528.83 1499.89H510.031V1398.79H514.543L521.994 1407.61C523.68 1406.01 525.526 1404.51 527.531 1403.09C529.536 1401.68 531.61 1400.47 533.752 1399.47C535.939 1398.42 538.195 1397.6 540.52 1397.01C542.844 1396.42 545.191 1396.12 547.561 1396.12C552.71 1396.12 557.541 1397.06 562.053 1398.92C566.61 1400.75 570.575 1403.34 573.947 1406.72C577.365 1410.09 580.054 1414.17 582.014 1418.95C583.973 1423.69 584.953 1428.96 584.953 1434.74C584.953 1440.76 583.973 1446.18 582.014 1451.01C580.054 1455.8 577.365 1459.88 573.947 1463.25C570.575 1466.58 566.61 1469.13 562.053 1470.91C557.541 1472.68 552.71 1473.57 547.561 1473.57C545.92 1473.57 544.279 1473.39 542.639 1473.03C541.044 1472.66 539.449 1472.18 537.854 1471.59C536.304 1470.95 534.755 1470.25 533.205 1469.47C531.701 1468.7 530.243 1467.9 528.83 1467.08V1499.89ZM566.223 1434.74C566.223 1431.65 565.721 1428.87 564.719 1426.4C563.762 1423.94 562.44 1421.87 560.754 1420.18C559.068 1418.45 557.085 1417.13 554.807 1416.22C552.528 1415.31 550.113 1414.85 547.561 1414.85C545.008 1414.85 542.593 1415.31 540.314 1416.22C538.081 1417.13 536.122 1418.45 534.436 1420.18C532.749 1421.87 531.405 1423.94 530.402 1426.4C529.445 1428.87 528.967 1431.65 528.967 1434.74C528.967 1437.71 529.445 1440.42 530.402 1442.88C531.405 1445.34 532.749 1447.44 534.436 1449.17C536.122 1450.9 538.081 1452.24 540.314 1453.2C542.593 1454.16 545.008 1454.64 547.561 1454.64C550.113 1454.64 552.528 1454.16 554.807 1453.2C557.085 1452.24 559.068 1450.9 560.754 1449.17C562.44 1447.44 563.762 1445.34 564.719 1442.88C565.721 1440.42 566.223 1437.71 566.223 1434.74ZM666.232 1472H661.721L654.475 1461.95C652.697 1463.55 650.806 1465.05 648.801 1466.46C646.841 1467.83 644.768 1469.04 642.58 1470.09C640.393 1471.09 638.137 1471.89 635.812 1472.48C633.534 1473.07 631.21 1473.37 628.84 1473.37C623.69 1473.37 618.837 1472.5 614.279 1470.77C609.768 1469.04 605.803 1466.53 602.385 1463.25C599.012 1459.92 596.346 1455.87 594.387 1451.08C592.427 1446.3 591.447 1440.85 591.447 1434.74C591.447 1429.05 592.427 1423.83 594.387 1419.09C596.346 1414.3 599.012 1410.2 602.385 1406.79C605.803 1403.37 609.768 1400.72 614.279 1398.86C618.837 1396.94 623.69 1395.98 628.84 1395.98C631.21 1395.98 633.557 1396.28 635.881 1396.87C638.205 1397.47 640.461 1398.29 642.648 1399.33C644.836 1400.38 646.91 1401.61 648.869 1403.03C650.874 1404.44 652.743 1405.96 654.475 1407.61L661.721 1398.92H666.232V1472ZM647.434 1434.74C647.434 1432.19 646.932 1429.73 645.93 1427.36C644.973 1424.95 643.651 1422.83 641.965 1421C640.279 1419.14 638.296 1417.65 636.018 1416.56C633.785 1415.42 631.392 1414.85 628.84 1414.85C626.288 1414.85 623.872 1415.28 621.594 1416.15C619.361 1417.02 617.401 1418.29 615.715 1419.98C614.074 1421.66 612.775 1423.76 611.818 1426.27C610.861 1428.73 610.383 1431.55 610.383 1434.74C610.383 1437.93 610.861 1440.78 611.818 1443.29C612.775 1445.75 614.074 1447.82 615.715 1449.51C617.401 1451.2 619.361 1452.47 621.594 1453.34C623.872 1454.2 626.288 1454.64 628.84 1454.64C631.392 1454.64 633.785 1454.09 636.018 1453C638.296 1451.86 640.279 1450.38 641.965 1448.55C643.651 1446.68 644.973 1444.57 645.93 1442.2C646.932 1439.78 647.434 1437.3 647.434 1434.74ZM720.715 1472H678.059V1453.41H720.715C721.991 1453.41 723.085 1452.95 723.996 1452.04C724.908 1451.13 725.363 1450.03 725.363 1448.76C725.363 1447.44 724.908 1446.57 723.996 1446.16C723.085 1445.75 721.991 1445.54 720.715 1445.54H701.301C698.065 1445.54 695.035 1444.93 692.209 1443.7C689.383 1442.47 686.923 1440.81 684.826 1438.71C682.73 1436.57 681.066 1434.08 679.836 1431.26C678.651 1428.43 678.059 1425.4 678.059 1422.17C678.059 1418.93 678.651 1415.9 679.836 1413.07C681.066 1410.25 682.73 1407.79 684.826 1405.69C686.923 1403.6 689.383 1401.95 692.209 1400.77C695.035 1399.54 698.065 1398.92 701.301 1398.92H739.104V1417.52H701.301C700.025 1417.52 698.931 1417.97 698.02 1418.88C697.108 1419.8 696.652 1420.89 696.652 1422.17C696.652 1423.49 697.108 1424.63 698.02 1425.58C698.931 1426.5 700.025 1426.95 701.301 1426.95H720.715C723.905 1426.95 726.913 1427.5 729.738 1428.59C732.564 1429.64 735.025 1431.12 737.121 1433.04C739.217 1434.95 740.881 1437.25 742.111 1439.94C743.342 1442.63 743.957 1445.57 743.957 1448.76C743.957 1451.99 743.342 1455.02 742.111 1457.85C740.881 1460.63 739.217 1463.09 737.121 1465.23C735.025 1467.33 732.564 1468.99 729.738 1470.22C726.913 1471.41 723.905 1472 720.715 1472ZM794.133 1472H751.477V1453.41H794.133C795.409 1453.41 796.503 1452.95 797.414 1452.04C798.326 1451.13 798.781 1450.03 798.781 1448.76C798.781 1447.44 798.326 1446.57 797.414 1446.16C796.503 1445.75 795.409 1445.54 794.133 1445.54H774.719C771.483 1445.54 768.452 1444.93 765.627 1443.7C762.801 1442.47 760.34 1440.81 758.244 1438.71C756.148 1436.57 754.484 1434.08 753.254 1431.26C752.069 1428.43 751.477 1425.4 751.477 1422.17C751.477 1418.93 752.069 1415.9 753.254 1413.07C754.484 1410.25 756.148 1407.79 758.244 1405.69C760.34 1403.6 762.801 1401.95 765.627 1400.77C768.452 1399.54 771.483 1398.92 774.719 1398.92H812.521V1417.52H774.719C773.443 1417.52 772.349 1417.97 771.438 1418.88C770.526 1419.8 770.07 1420.89 770.07 1422.17C770.07 1423.49 770.526 1424.63 771.438 1425.58C772.349 1426.5 773.443 1426.95 774.719 1426.95H794.133C797.323 1426.95 800.331 1427.5 803.156 1428.59C805.982 1429.64 808.443 1431.12 810.539 1433.04C812.635 1434.95 814.299 1437.25 815.529 1439.94C816.76 1442.63 817.375 1445.57 817.375 1448.76C817.375 1451.99 816.76 1455.02 815.529 1457.85C814.299 1460.63 812.635 1463.09 810.539 1465.23C808.443 1467.33 805.982 1468.99 803.156 1470.22C800.331 1471.41 797.323 1472 794.133 1472ZM849.367 1378.89C849.367 1380.63 849.025 1382.24 848.342 1383.75C847.704 1385.25 846.815 1386.57 845.676 1387.71C844.536 1388.81 843.192 1389.7 841.643 1390.38C840.139 1391.02 838.521 1391.34 836.789 1391.34C835.057 1391.34 833.417 1391.02 831.867 1390.38C830.363 1389.7 829.042 1388.81 827.902 1387.71C826.809 1386.57 825.92 1385.25 825.236 1383.75C824.598 1382.24 824.279 1380.63 824.279 1378.89C824.279 1377.21 824.598 1375.61 825.236 1374.11C825.92 1372.56 826.809 1371.24 827.902 1370.14C829.042 1369.01 830.363 1368.12 831.867 1367.48C833.417 1366.79 835.057 1366.45 836.789 1366.45C838.521 1366.45 840.139 1366.79 841.643 1367.48C843.192 1368.12 844.536 1369.01 845.676 1370.14C846.815 1371.24 847.704 1372.56 848.342 1374.11C849.025 1375.61 849.367 1377.21 849.367 1378.89ZM846.154 1472H827.355V1398.79H846.154V1472ZM931.193 1434.74C931.193 1440.21 930.214 1445.32 928.254 1450.06C926.294 1454.75 923.628 1458.83 920.256 1462.29C916.883 1465.71 912.919 1468.42 908.361 1470.43C903.85 1472.39 898.996 1473.37 893.801 1473.37C888.651 1473.37 883.798 1472.39 879.24 1470.43C874.729 1468.42 870.764 1465.71 867.346 1462.29C863.973 1458.83 861.307 1454.75 859.348 1450.06C857.388 1445.32 856.408 1440.21 856.408 1434.74C856.408 1429.18 857.388 1424.03 859.348 1419.29C861.307 1414.56 863.973 1410.48 867.346 1407.06C870.764 1403.6 874.729 1400.88 879.24 1398.92C883.798 1396.96 888.651 1395.98 893.801 1395.98C898.996 1395.98 903.85 1396.92 908.361 1398.79C912.919 1400.61 916.883 1403.23 920.256 1406.65C923.628 1410.02 926.294 1414.1 928.254 1418.88C930.214 1423.62 931.193 1428.91 931.193 1434.74ZM912.395 1434.74C912.395 1431.74 911.893 1429.02 910.891 1426.61C909.934 1424.15 908.612 1422.05 906.926 1420.32C905.24 1418.54 903.257 1417.2 900.979 1416.29C898.745 1415.33 896.353 1414.85 893.801 1414.85C891.249 1414.85 888.833 1415.33 886.555 1416.29C884.322 1417.2 882.362 1418.54 880.676 1420.32C879.035 1422.05 877.736 1424.15 876.779 1426.61C875.822 1429.02 875.344 1431.74 875.344 1434.74C875.344 1437.57 875.822 1440.19 876.779 1442.61C877.736 1445.02 879.035 1447.12 880.676 1448.89C882.362 1450.67 884.322 1452.08 886.555 1453.13C888.833 1454.14 891.249 1454.64 893.801 1454.64C896.353 1454.64 898.745 1454.16 900.979 1453.2C903.257 1452.24 905.24 1450.9 906.926 1449.17C908.612 1447.44 909.934 1445.34 910.891 1442.88C911.893 1440.42 912.395 1437.71 912.395 1434.74ZM960.178 1472H941.516V1398.79H946.027L952.18 1405.9C955.188 1403.16 958.583 1401.07 962.365 1399.61C966.193 1398.1 970.181 1397.35 974.328 1397.35C978.794 1397.35 983.01 1398.22 986.975 1399.95C990.939 1401.64 994.403 1403.98 997.365 1406.99C1000.33 1409.95 1002.65 1413.44 1004.34 1417.45C1006.07 1421.41 1006.94 1425.65 1006.94 1430.16V1472H988.273V1430.16C988.273 1428.25 987.909 1426.45 987.18 1424.76C986.451 1423.03 985.448 1421.53 984.172 1420.25C982.896 1418.98 981.415 1417.97 979.729 1417.24C978.042 1416.51 976.242 1416.15 974.328 1416.15C972.368 1416.15 970.523 1416.51 968.791 1417.24C967.059 1417.97 965.555 1418.98 964.279 1420.25C963.003 1421.53 962.001 1423.03 961.271 1424.76C960.542 1426.45 960.178 1428.25 960.178 1430.16V1472ZM1043.23 1465.03C1043.23 1466.67 1042.94 1468.22 1042.35 1469.68C1041.75 1471.09 1040.93 1472.32 1039.88 1473.37C1038.84 1474.42 1037.61 1475.24 1036.19 1475.83C1034.78 1476.47 1033.25 1476.79 1031.61 1476.79C1030.02 1476.79 1028.49 1476.47 1027.03 1475.83C1025.62 1475.24 1024.37 1474.42 1023.27 1473.37C1022.23 1472.32 1021.38 1471.09 1020.74 1469.68C1020.15 1468.22 1019.86 1466.67 1019.86 1465.03C1019.86 1463.43 1020.15 1461.93 1020.74 1460.52C1021.38 1459.1 1022.23 1457.87 1023.27 1456.82C1024.37 1455.78 1025.62 1454.96 1027.03 1454.36C1028.49 1453.73 1030.02 1453.41 1031.61 1453.41C1033.25 1453.41 1034.78 1453.73 1036.19 1454.36C1037.61 1454.96 1038.84 1455.78 1039.88 1456.82C1040.93 1457.87 1041.75 1459.1 1042.35 1460.52C1042.94 1461.93 1043.23 1463.43 1043.23 1465.03ZM271.184 1646H251.633V1615.31C247.303 1614.21 243.316 1612.46 239.67 1610.04C236.07 1607.63 232.971 1604.76 230.373 1601.43C227.775 1598.06 225.747 1594.34 224.289 1590.29C222.876 1586.19 222.17 1581.88 222.17 1577.37V1547.97H241.789V1577.37C241.789 1580.06 242.29 1582.61 243.293 1585.02C244.341 1587.39 245.754 1589.47 247.531 1591.24C249.309 1593.02 251.382 1594.43 253.752 1595.48C256.167 1596.49 258.719 1596.99 261.408 1596.99C264.097 1596.99 266.626 1596.49 268.996 1595.48C271.411 1594.43 273.508 1593.02 275.285 1591.24C277.062 1589.47 278.452 1587.39 279.455 1585.02C280.503 1582.61 281.027 1580.06 281.027 1577.37V1547.97H300.578V1577.37C300.578 1581.88 299.849 1586.19 298.391 1590.29C296.978 1594.34 294.973 1598.06 292.375 1601.43C289.777 1604.76 286.678 1607.63 283.078 1610.04C279.478 1612.46 275.513 1614.21 271.184 1615.31V1646ZM379.807 1608.74C379.807 1614.21 378.827 1619.32 376.867 1624.06C374.908 1628.75 372.242 1632.83 368.869 1636.29C365.497 1639.71 361.532 1642.42 356.975 1644.43C352.463 1646.39 347.609 1647.37 342.414 1647.37C337.264 1647.37 332.411 1646.39 327.854 1644.43C323.342 1642.42 319.377 1639.71 315.959 1636.29C312.587 1632.83 309.921 1628.75 307.961 1624.06C306.001 1619.32 305.021 1614.21 305.021 1608.74C305.021 1603.18 306.001 1598.03 307.961 1593.29C309.921 1588.56 312.587 1584.48 315.959 1581.06C319.377 1577.6 323.342 1574.88 327.854 1572.92C332.411 1570.96 337.264 1569.98 342.414 1569.98C347.609 1569.98 352.463 1570.92 356.975 1572.79C361.532 1574.61 365.497 1577.23 368.869 1580.65C372.242 1584.02 374.908 1588.1 376.867 1592.88C378.827 1597.62 379.807 1602.91 379.807 1608.74ZM361.008 1608.74C361.008 1605.74 360.507 1603.02 359.504 1600.61C358.547 1598.15 357.225 1596.05 355.539 1594.32C353.853 1592.54 351.87 1591.2 349.592 1590.29C347.359 1589.33 344.966 1588.85 342.414 1588.85C339.862 1588.85 337.447 1589.33 335.168 1590.29C332.935 1591.2 330.975 1592.54 329.289 1594.32C327.648 1596.05 326.35 1598.15 325.393 1600.61C324.436 1603.02 323.957 1605.74 323.957 1608.74C323.957 1611.57 324.436 1614.19 325.393 1616.61C326.35 1619.02 327.648 1621.12 329.289 1622.89C330.975 1624.67 332.935 1626.08 335.168 1627.13C337.447 1628.14 339.862 1628.64 342.414 1628.64C344.966 1628.64 347.359 1628.16 349.592 1627.2C351.87 1626.24 353.853 1624.9 355.539 1623.17C357.225 1621.44 358.547 1619.34 359.504 1616.88C360.507 1614.42 361.008 1611.71 361.008 1608.74ZM443.928 1637.46C442.424 1638.82 440.806 1640.12 439.074 1641.35C437.388 1642.54 435.611 1643.58 433.742 1644.5C431.874 1645.36 429.937 1646.05 427.932 1646.55C425.972 1647.09 423.967 1647.37 421.916 1647.37C417.404 1647.37 413.166 1646.57 409.201 1644.97C405.236 1643.38 401.75 1641.12 398.742 1638.21C395.78 1635.24 393.433 1631.67 391.701 1627.47C390.015 1623.24 389.172 1618.5 389.172 1613.26V1572.79H407.766V1613.26C407.766 1615.72 408.13 1617.93 408.859 1619.89C409.634 1621.8 410.66 1623.42 411.936 1624.74C413.212 1626.06 414.693 1627.06 416.379 1627.75C418.111 1628.43 419.956 1628.77 421.916 1628.77C423.83 1628.77 425.63 1628.34 427.316 1627.47C429.048 1626.56 430.552 1625.38 431.828 1623.92C433.104 1622.46 434.107 1620.82 434.836 1619C435.565 1617.13 435.93 1615.22 435.93 1613.26V1572.79H454.592V1646H450.08L443.928 1637.46ZM487.541 1646H468.879V1572.79H473.391L479.543 1581.47C482.551 1578.73 485.969 1576.64 489.797 1575.18C493.625 1573.68 497.59 1572.92 501.691 1572.92H518.166V1591.52H501.691C499.732 1591.52 497.886 1591.88 496.154 1592.61C494.423 1593.34 492.919 1594.34 491.643 1595.62C490.367 1596.9 489.364 1598.4 488.635 1600.13C487.906 1601.86 487.541 1603.71 487.541 1605.67V1646ZM606.281 1646H563.625V1627.41H606.281C607.557 1627.41 608.651 1626.95 609.562 1626.04C610.474 1625.13 610.93 1624.03 610.93 1622.76C610.93 1621.44 610.474 1620.57 609.562 1620.16C608.651 1619.75 607.557 1619.54 606.281 1619.54H586.867C583.632 1619.54 580.601 1618.93 577.775 1617.7C574.95 1616.47 572.489 1614.81 570.393 1612.71C568.296 1610.57 566.633 1608.08 565.402 1605.26C564.217 1602.43 563.625 1599.4 563.625 1596.17C563.625 1592.93 564.217 1589.9 565.402 1587.07C566.633 1584.25 568.296 1581.79 570.393 1579.69C572.489 1577.6 574.95 1575.95 577.775 1574.77C580.601 1573.54 583.632 1572.92 586.867 1572.92H624.67V1591.52H586.867C585.591 1591.52 584.497 1591.97 583.586 1592.88C582.674 1593.8 582.219 1594.89 582.219 1596.17C582.219 1597.49 582.674 1598.63 583.586 1599.58C584.497 1600.5 585.591 1600.95 586.867 1600.95H606.281C609.471 1600.95 612.479 1601.5 615.305 1602.59C618.13 1603.64 620.591 1605.12 622.688 1607.04C624.784 1608.95 626.447 1611.25 627.678 1613.94C628.908 1616.63 629.523 1619.57 629.523 1622.76C629.523 1625.99 628.908 1629.02 627.678 1631.85C626.447 1634.63 624.784 1637.09 622.688 1639.23C620.591 1641.33 618.13 1642.99 615.305 1644.22C612.479 1645.41 609.471 1646 606.281 1646ZM693.303 1637.46C691.799 1638.82 690.181 1640.12 688.449 1641.35C686.763 1642.54 684.986 1643.58 683.117 1644.5C681.249 1645.36 679.312 1646.05 677.307 1646.55C675.347 1647.09 673.342 1647.37 671.291 1647.37C666.779 1647.37 662.541 1646.57 658.576 1644.97C654.611 1643.38 651.125 1641.12 648.117 1638.21C645.155 1635.24 642.808 1631.67 641.076 1627.47C639.39 1623.24 638.547 1618.5 638.547 1613.26V1572.79H657.141V1613.26C657.141 1615.72 657.505 1617.93 658.234 1619.89C659.009 1621.8 660.035 1623.42 661.311 1624.74C662.587 1626.06 664.068 1627.06 665.754 1627.75C667.486 1628.43 669.331 1628.77 671.291 1628.77C673.205 1628.77 675.005 1628.34 676.691 1627.47C678.423 1626.56 679.927 1625.38 681.203 1623.92C682.479 1622.46 683.482 1620.82 684.211 1619C684.94 1617.13 685.305 1615.22 685.305 1613.26V1572.79H703.967V1646H699.455L693.303 1637.46ZM782.238 1587.35L768.566 1601.09C767.883 1599.17 766.949 1597.46 765.764 1595.96C764.579 1594.41 763.234 1593.11 761.73 1592.06C760.272 1591.02 758.677 1590.22 756.945 1589.67C755.214 1589.12 753.436 1588.85 751.613 1588.85C749.061 1588.85 746.646 1589.38 744.367 1590.42C742.134 1591.47 740.174 1592.95 738.488 1594.87C736.848 1596.74 735.549 1598.97 734.592 1601.57C733.635 1604.16 733.156 1607.04 733.156 1610.18C733.156 1612.73 733.635 1615.12 734.592 1617.36C735.549 1619.59 736.848 1621.55 738.488 1623.24C740.174 1624.92 742.134 1626.24 744.367 1627.2C746.646 1628.16 749.061 1628.64 751.613 1628.64C753.436 1628.64 755.191 1628.39 756.877 1627.88C758.563 1627.38 760.135 1626.68 761.594 1625.77C763.098 1624.81 764.419 1623.67 765.559 1622.35C766.743 1620.98 767.701 1619.48 768.43 1617.84L782.102 1631.58C780.37 1634.04 778.365 1636.25 776.086 1638.21C773.853 1640.17 771.415 1641.83 768.771 1643.2C766.174 1644.56 763.417 1645.59 760.5 1646.27C757.629 1647 754.667 1647.37 751.613 1647.37C746.464 1647.37 741.61 1646.41 737.053 1644.5C732.541 1642.54 728.576 1639.87 725.158 1636.5C721.786 1633.13 719.12 1629.18 717.16 1624.67C715.201 1620.16 714.221 1615.33 714.221 1610.18C714.221 1604.57 715.201 1599.33 717.16 1594.46C719.12 1589.58 721.786 1585.34 725.158 1581.74C728.576 1578.1 732.541 1575.23 737.053 1573.13C741.61 1571.03 746.464 1569.98 751.613 1569.98C754.667 1569.98 757.652 1570.37 760.568 1571.15C763.531 1571.92 766.333 1573.06 768.977 1574.56C771.665 1576.02 774.126 1577.82 776.359 1579.96C778.638 1582.11 780.598 1584.57 782.238 1587.35ZM854.289 1587.35L840.617 1601.09C839.934 1599.17 838.999 1597.46 837.814 1595.96C836.63 1594.41 835.285 1593.11 833.781 1592.06C832.323 1591.02 830.728 1590.22 828.996 1589.67C827.264 1589.12 825.487 1588.85 823.664 1588.85C821.112 1588.85 818.697 1589.38 816.418 1590.42C814.185 1591.47 812.225 1592.95 810.539 1594.87C808.898 1596.74 807.6 1598.97 806.643 1601.57C805.686 1604.16 805.207 1607.04 805.207 1610.18C805.207 1612.73 805.686 1615.12 806.643 1617.36C807.6 1619.59 808.898 1621.55 810.539 1623.24C812.225 1624.92 814.185 1626.24 816.418 1627.2C818.697 1628.16 821.112 1628.64 823.664 1628.64C825.487 1628.64 827.242 1628.39 828.928 1627.88C830.614 1627.38 832.186 1626.68 833.645 1625.77C835.148 1624.81 836.47 1623.67 837.609 1622.35C838.794 1620.98 839.751 1619.48 840.48 1617.84L854.152 1631.58C852.421 1634.04 850.415 1636.25 848.137 1638.21C845.904 1640.17 843.465 1641.83 840.822 1643.2C838.225 1644.56 835.467 1645.59 832.551 1646.27C829.68 1647 826.717 1647.37 823.664 1647.37C818.514 1647.37 813.661 1646.41 809.104 1644.5C804.592 1642.54 800.627 1639.87 797.209 1636.5C793.837 1633.13 791.171 1629.18 789.211 1624.67C787.251 1620.16 786.271 1615.33 786.271 1610.18C786.271 1604.57 787.251 1599.33 789.211 1594.46C791.171 1589.58 793.837 1585.34 797.209 1581.74C800.627 1578.1 804.592 1575.23 809.104 1573.13C813.661 1571.03 818.514 1569.98 823.664 1569.98C826.717 1569.98 829.702 1570.37 832.619 1571.15C835.581 1571.92 838.384 1573.06 841.027 1574.56C843.716 1576.02 846.177 1577.82 848.41 1579.96C850.689 1582.11 852.648 1584.57 854.289 1587.35ZM891.477 1628.09C892.206 1628.32 892.935 1628.48 893.664 1628.57C894.393 1628.61 895.122 1628.64 895.852 1628.64C897.674 1628.64 899.429 1628.39 901.115 1627.88C902.801 1627.38 904.374 1626.68 905.832 1625.77C907.336 1624.81 908.658 1623.67 909.797 1622.35C910.982 1620.98 911.939 1619.48 912.668 1617.84L926.34 1631.58C924.608 1634.04 922.603 1636.25 920.324 1638.21C918.091 1640.17 915.653 1641.83 913.01 1643.2C910.412 1644.56 907.655 1645.59 904.738 1646.27C901.867 1647 898.905 1647.37 895.852 1647.37C890.702 1647.37 885.848 1646.41 881.291 1644.5C876.779 1642.58 872.814 1639.92 869.396 1636.5C866.024 1633.08 863.358 1629.02 861.398 1624.33C859.439 1619.59 858.459 1614.4 858.459 1608.74C858.459 1602.96 859.439 1597.67 861.398 1592.88C863.358 1588.1 866.024 1584.02 869.396 1580.65C872.814 1577.28 876.779 1574.66 881.291 1572.79C885.848 1570.92 890.702 1569.98 895.852 1569.98C898.905 1569.98 901.89 1570.35 904.807 1571.08C907.723 1571.81 910.48 1572.86 913.078 1574.22C915.721 1575.59 918.182 1577.28 920.461 1579.28C922.74 1581.24 924.745 1583.45 926.477 1585.91L891.477 1628.09ZM901.047 1589.6C900.181 1589.28 899.315 1589.08 898.449 1588.99C897.629 1588.9 896.763 1588.85 895.852 1588.85C893.299 1588.85 890.884 1589.33 888.605 1590.29C886.372 1591.2 884.413 1592.52 882.727 1594.25C881.086 1595.98 879.787 1598.08 878.83 1600.54C877.873 1602.96 877.395 1605.69 877.395 1608.74C877.395 1609.43 877.417 1610.2 877.463 1611.07C877.554 1611.93 877.668 1612.82 877.805 1613.73C877.987 1614.6 878.192 1615.44 878.42 1616.26C878.648 1617.08 878.944 1617.81 879.309 1618.45L901.047 1589.6ZM976.105 1646H933.449V1627.41H976.105C977.382 1627.41 978.475 1626.95 979.387 1626.04C980.298 1625.13 980.754 1624.03 980.754 1622.76C980.754 1621.44 980.298 1620.57 979.387 1620.16C978.475 1619.75 977.382 1619.54 976.105 1619.54H956.691C953.456 1619.54 950.425 1618.93 947.6 1617.7C944.774 1616.47 942.313 1614.81 940.217 1612.71C938.12 1610.57 936.457 1608.08 935.227 1605.26C934.042 1602.43 933.449 1599.4 933.449 1596.17C933.449 1592.93 934.042 1589.9 935.227 1587.07C936.457 1584.25 938.12 1581.79 940.217 1579.69C942.313 1577.6 944.774 1575.95 947.6 1574.77C950.425 1573.54 953.456 1572.92 956.691 1572.92H994.494V1591.52H956.691C955.415 1591.52 954.322 1591.97 953.41 1592.88C952.499 1593.8 952.043 1594.89 952.043 1596.17C952.043 1597.49 952.499 1598.63 953.41 1599.58C954.322 1600.5 955.415 1600.95 956.691 1600.95H976.105C979.296 1600.95 982.303 1601.5 985.129 1602.59C987.954 1603.64 990.415 1605.12 992.512 1607.04C994.608 1608.95 996.271 1611.25 997.502 1613.94C998.732 1616.63 999.348 1619.57 999.348 1622.76C999.348 1625.99 998.732 1629.02 997.502 1631.85C996.271 1634.63 994.608 1637.09 992.512 1639.23C990.415 1641.33 987.954 1642.99 985.129 1644.22C982.303 1645.41 979.296 1646 976.105 1646ZM1049.52 1646H1006.87V1627.41H1049.52C1050.8 1627.41 1051.89 1626.95 1052.8 1626.04C1053.72 1625.13 1054.17 1624.03 1054.17 1622.76C1054.17 1621.44 1053.72 1620.57 1052.8 1620.16C1051.89 1619.75 1050.8 1619.54 1049.52 1619.54H1030.11C1026.87 1619.54 1023.84 1618.93 1021.02 1617.7C1018.19 1616.47 1015.73 1614.81 1013.63 1612.71C1011.54 1610.57 1009.88 1608.08 1008.64 1605.26C1007.46 1602.43 1006.87 1599.4 1006.87 1596.17C1006.87 1592.93 1007.46 1589.9 1008.64 1587.07C1009.88 1584.25 1011.54 1581.79 1013.63 1579.69C1015.73 1577.6 1018.19 1575.95 1021.02 1574.77C1023.84 1573.54 1026.87 1572.92 1030.11 1572.92H1067.91V1591.52H1030.11C1028.83 1591.52 1027.74 1591.97 1026.83 1592.88C1025.92 1593.8 1025.46 1594.89 1025.46 1596.17C1025.46 1597.49 1025.92 1598.63 1026.83 1599.58C1027.74 1600.5 1028.83 1600.95 1030.11 1600.95H1049.52C1052.71 1600.95 1055.72 1601.5 1058.55 1602.59C1061.37 1603.64 1063.83 1605.12 1065.93 1607.04C1068.03 1608.95 1069.69 1611.25 1070.92 1613.94C1072.15 1616.63 1072.77 1619.57 1072.77 1622.76C1072.77 1625.99 1072.15 1629.02 1070.92 1631.85C1069.69 1634.63 1068.03 1637.09 1065.93 1639.23C1063.83 1641.33 1061.37 1642.99 1058.55 1644.22C1055.72 1645.41 1052.71 1646 1049.52 1646ZM1102.5 1621.8H1087.26L1083.09 1547.97H1106.74L1102.5 1621.8ZM1106.6 1639.03C1106.6 1640.67 1106.28 1642.22 1105.65 1643.68C1105.05 1645.09 1104.23 1646.32 1103.19 1647.37C1102.14 1648.42 1100.91 1649.24 1099.49 1649.83C1098.08 1650.47 1096.58 1650.79 1094.98 1650.79C1093.34 1650.79 1091.82 1650.47 1090.4 1649.83C1088.99 1649.24 1087.74 1648.42 1086.64 1647.37C1085.59 1646.32 1084.75 1645.09 1084.11 1643.68C1083.52 1642.22 1083.22 1640.67 1083.22 1639.03C1083.22 1637.43 1083.52 1635.93 1084.11 1634.52C1084.75 1633.1 1085.59 1631.87 1086.64 1630.82C1087.74 1629.78 1088.99 1628.96 1090.4 1628.36C1091.82 1627.73 1093.34 1627.41 1094.98 1627.41C1096.58 1627.41 1098.08 1627.73 1099.49 1628.36C1100.91 1628.96 1102.14 1629.78 1103.19 1630.82C1104.23 1631.87 1105.05 1633.1 1105.65 1634.52C1106.28 1635.93 1106.6 1637.43 1106.6 1639.03Z" fill="black"/>
<rect x="218" y="1731" width="354" height="139" rx="11" fill="#006FAD"/>
<path d="M279.436 1793.59C279.436 1791.85 279.768 1790.22 280.432 1788.69C281.096 1787.17 281.994 1785.84 283.127 1784.71C284.279 1783.56 285.617 1782.65 287.141 1781.98C288.664 1781.32 290.295 1780.99 292.033 1780.99H311.311V1789.4H292.033C291.447 1789.4 290.9 1789.5 290.393 1789.72C289.885 1789.93 289.436 1790.24 289.045 1790.63C288.674 1791 288.381 1791.44 288.166 1791.95C287.951 1792.45 287.844 1793 287.844 1793.59C287.844 1794.17 287.951 1794.73 288.166 1795.26C288.381 1795.76 288.674 1796.21 289.045 1796.6C289.436 1796.97 289.885 1797.27 290.393 1797.48C290.9 1797.7 291.447 1797.8 292.033 1797.8H300.441C302.18 1797.8 303.811 1798.14 305.334 1798.8C306.877 1799.45 308.215 1800.34 309.348 1801.5C310.5 1802.63 311.398 1803.97 312.043 1805.51C312.707 1807.03 313.039 1808.66 313.039 1810.4C313.039 1812.14 312.707 1813.77 312.043 1815.29C311.398 1816.82 310.5 1818.16 309.348 1819.31C308.215 1820.44 306.877 1821.34 305.334 1822C303.811 1822.67 302.18 1823 300.441 1823H281.779V1814.59H300.441C301.027 1814.59 301.574 1814.48 302.082 1814.27C302.59 1814.05 303.029 1813.76 303.4 1813.39C303.791 1813 304.094 1812.55 304.309 1812.04C304.523 1811.54 304.631 1810.99 304.631 1810.4C304.631 1809.82 304.523 1809.27 304.309 1808.76C304.094 1808.25 303.791 1807.81 303.4 1807.44C303.029 1807.05 302.59 1806.75 302.082 1806.54C301.574 1806.32 301.027 1806.21 300.441 1806.21H292.033C290.295 1806.21 288.664 1805.88 287.141 1805.22C285.617 1804.55 284.279 1803.65 283.127 1802.52C281.994 1801.37 281.096 1800.03 280.432 1798.51C279.768 1796.96 279.436 1795.32 279.436 1793.59ZM330.207 1815.32C330.52 1815.42 330.832 1815.49 331.145 1815.53C331.457 1815.55 331.77 1815.56 332.082 1815.56C332.863 1815.56 333.615 1815.45 334.338 1815.24C335.061 1815.02 335.734 1814.72 336.359 1814.33C337.004 1813.92 337.57 1813.43 338.059 1812.86C338.566 1812.28 338.977 1811.63 339.289 1810.93L345.148 1816.82C344.406 1817.87 343.547 1818.82 342.57 1819.66C341.613 1820.5 340.568 1821.21 339.436 1821.8C338.322 1822.38 337.141 1822.82 335.891 1823.12C334.66 1823.43 333.391 1823.59 332.082 1823.59C329.875 1823.59 327.795 1823.18 325.842 1822.36C323.908 1821.54 322.209 1820.39 320.744 1818.93C319.299 1817.46 318.156 1815.72 317.316 1813.71C316.477 1811.68 316.057 1809.46 316.057 1807.03C316.057 1804.55 316.477 1802.29 317.316 1800.24C318.156 1798.19 319.299 1796.44 320.744 1794.99C322.209 1793.55 323.908 1792.42 325.842 1791.62C327.795 1790.82 329.875 1790.42 332.082 1790.42C333.391 1790.42 334.67 1790.58 335.92 1790.89C337.17 1791.2 338.352 1791.65 339.465 1792.24C340.598 1792.82 341.652 1793.55 342.629 1794.41C343.605 1795.25 344.465 1796.19 345.207 1797.25L330.207 1815.32ZM334.309 1798.83C333.938 1798.69 333.566 1798.61 333.195 1798.57C332.844 1798.53 332.473 1798.51 332.082 1798.51C330.988 1798.51 329.953 1798.71 328.977 1799.12C328.02 1799.51 327.18 1800.08 326.457 1800.82C325.754 1801.56 325.197 1802.46 324.787 1803.52C324.377 1804.55 324.172 1805.72 324.172 1807.03C324.172 1807.33 324.182 1807.66 324.201 1808.03C324.24 1808.4 324.289 1808.78 324.348 1809.17C324.426 1809.54 324.514 1809.9 324.611 1810.26C324.709 1810.61 324.836 1810.92 324.992 1811.19L334.309 1798.83ZM357.248 1823H349.25V1791.62H351.184L353.82 1795.34C355.109 1794.17 356.574 1793.27 358.215 1792.65C359.855 1792 361.555 1791.68 363.312 1791.68H370.373V1799.65H363.312C362.473 1799.65 361.682 1799.81 360.939 1800.12C360.197 1800.43 359.553 1800.86 359.006 1801.41C358.459 1801.96 358.029 1802.6 357.717 1803.34C357.404 1804.08 357.248 1804.88 357.248 1805.71V1823ZM383 1823L371.047 1791.62H380.158L387.014 1811.19L393.84 1791.62H402.98L391.027 1823H383ZM415.461 1783.1C415.461 1783.84 415.314 1784.53 415.021 1785.18C414.748 1785.82 414.367 1786.39 413.879 1786.88C413.391 1787.35 412.814 1787.73 412.15 1788.02C411.506 1788.29 410.812 1788.43 410.07 1788.43C409.328 1788.43 408.625 1788.29 407.961 1788.02C407.316 1787.73 406.75 1787.35 406.262 1786.88C405.793 1786.39 405.412 1785.82 405.119 1785.18C404.846 1784.53 404.709 1783.84 404.709 1783.1C404.709 1782.38 404.846 1781.69 405.119 1781.05C405.412 1780.38 405.793 1779.82 406.262 1779.35C406.75 1778.86 407.316 1778.48 407.961 1778.21C408.625 1777.91 409.328 1777.77 410.07 1777.77C410.812 1777.77 411.506 1777.91 412.15 1778.21C412.814 1778.48 413.391 1778.86 413.879 1779.35C414.367 1779.82 414.748 1780.38 415.021 1781.05C415.314 1781.69 415.461 1782.38 415.461 1783.1ZM414.084 1823H406.027V1791.62H414.084V1823ZM447.629 1797.86L441.77 1803.75C441.477 1802.93 441.076 1802.2 440.568 1801.55C440.061 1800.89 439.484 1800.33 438.84 1799.88C438.215 1799.44 437.531 1799.09 436.789 1798.86C436.047 1798.62 435.285 1798.51 434.504 1798.51C433.41 1798.51 432.375 1798.73 431.398 1799.18C430.441 1799.63 429.602 1800.27 428.879 1801.09C428.176 1801.89 427.619 1802.84 427.209 1803.96C426.799 1805.07 426.594 1806.3 426.594 1807.65C426.594 1808.74 426.799 1809.77 427.209 1810.72C427.619 1811.68 428.176 1812.52 428.879 1813.24C429.602 1813.97 430.441 1814.53 431.398 1814.94C432.375 1815.35 433.41 1815.56 434.504 1815.56C435.285 1815.56 436.037 1815.45 436.76 1815.24C437.482 1815.02 438.156 1814.72 438.781 1814.33C439.426 1813.92 439.992 1813.43 440.48 1812.86C440.988 1812.28 441.398 1811.63 441.711 1810.93L447.57 1816.82C446.828 1817.87 445.969 1818.82 444.992 1819.66C444.035 1820.5 442.99 1821.21 441.857 1821.8C440.744 1822.38 439.562 1822.82 438.312 1823.12C437.082 1823.43 435.812 1823.59 434.504 1823.59C432.297 1823.59 430.217 1823.18 428.264 1822.36C426.33 1821.52 424.631 1820.37 423.166 1818.93C421.721 1817.48 420.578 1815.79 419.738 1813.86C418.898 1811.93 418.479 1809.86 418.479 1807.65C418.479 1805.25 418.898 1803 419.738 1800.91C420.578 1798.82 421.721 1797 423.166 1795.46C424.631 1793.9 426.33 1792.67 428.264 1791.77C430.217 1790.87 432.297 1790.42 434.504 1790.42C435.812 1790.42 437.092 1790.59 438.342 1790.92C439.611 1791.25 440.812 1791.74 441.945 1792.38C443.098 1793.01 444.152 1793.78 445.109 1794.7C446.086 1795.62 446.926 1796.67 447.629 1797.86ZM463.566 1815.32C463.879 1815.42 464.191 1815.49 464.504 1815.53C464.816 1815.55 465.129 1815.56 465.441 1815.56C466.223 1815.56 466.975 1815.45 467.697 1815.24C468.42 1815.02 469.094 1814.72 469.719 1814.33C470.363 1813.92 470.93 1813.43 471.418 1812.86C471.926 1812.28 472.336 1811.63 472.648 1810.93L478.508 1816.82C477.766 1817.87 476.906 1818.82 475.93 1819.66C474.973 1820.5 473.928 1821.21 472.795 1821.8C471.682 1822.38 470.5 1822.82 469.25 1823.12C468.02 1823.43 466.75 1823.59 465.441 1823.59C463.234 1823.59 461.154 1823.18 459.201 1822.36C457.268 1821.54 455.568 1820.39 454.104 1818.93C452.658 1817.46 451.516 1815.72 450.676 1813.71C449.836 1811.68 449.416 1809.46 449.416 1807.03C449.416 1804.55 449.836 1802.29 450.676 1800.24C451.516 1798.19 452.658 1796.44 454.104 1794.99C455.568 1793.55 457.268 1792.42 459.201 1791.62C461.154 1790.82 463.234 1790.42 465.441 1790.42C466.75 1790.42 468.029 1790.58 469.279 1790.89C470.529 1791.2 471.711 1791.65 472.824 1792.24C473.957 1792.82 475.012 1793.55 475.988 1794.41C476.965 1795.25 477.824 1796.19 478.566 1797.25L463.566 1815.32ZM467.668 1798.83C467.297 1798.69 466.926 1798.61 466.555 1798.57C466.203 1798.53 465.832 1798.51 465.441 1798.51C464.348 1798.51 463.312 1798.71 462.336 1799.12C461.379 1799.51 460.539 1800.08 459.816 1800.82C459.113 1801.56 458.557 1802.46 458.146 1803.52C457.736 1804.55 457.531 1805.72 457.531 1807.03C457.531 1807.33 457.541 1807.66 457.561 1808.03C457.6 1808.4 457.648 1808.78 457.707 1809.17C457.785 1809.54 457.873 1809.9 457.971 1810.26C458.068 1810.61 458.195 1810.92 458.352 1811.19L467.668 1798.83ZM499.836 1823H481.555V1815.03H499.836C500.383 1815.03 500.852 1814.84 501.242 1814.45C501.633 1814.05 501.828 1813.59 501.828 1813.04C501.828 1812.47 501.633 1812.1 501.242 1811.93C500.852 1811.75 500.383 1811.66 499.836 1811.66H491.516C490.129 1811.66 488.83 1811.4 487.619 1810.87C486.408 1810.34 485.354 1809.63 484.455 1808.73C483.557 1807.81 482.844 1806.75 482.316 1805.54C481.809 1804.33 481.555 1803.03 481.555 1801.64C481.555 1800.26 481.809 1798.96 482.316 1797.75C482.844 1796.54 483.557 1795.48 484.455 1794.58C485.354 1793.68 486.408 1792.98 487.619 1792.47C488.83 1791.95 490.129 1791.68 491.516 1791.68H507.717V1799.65H491.516C490.969 1799.65 490.5 1799.85 490.109 1800.24C489.719 1800.63 489.523 1801.1 489.523 1801.64C489.523 1802.21 489.719 1802.7 490.109 1803.11C490.5 1803.5 490.969 1803.69 491.516 1803.69H499.836C501.203 1803.69 502.492 1803.93 503.703 1804.4C504.914 1804.85 505.969 1805.48 506.867 1806.3C507.766 1807.12 508.479 1808.11 509.006 1809.26C509.533 1810.41 509.797 1811.67 509.797 1813.04C509.797 1814.43 509.533 1815.72 509.006 1816.94C508.479 1818.13 507.766 1819.18 506.867 1820.1C505.969 1821 504.914 1821.71 503.703 1822.24C502.492 1822.75 501.203 1823 499.836 1823Z" fill="white"/>
<path d="M168.521 113.994V142.021H182.535C184.456 142.021 186.262 141.663 187.955 140.947C189.648 140.199 191.129 139.189 192.398 137.92C193.668 136.65 194.661 135.169 195.377 133.477C196.126 131.751 196.5 129.928 196.5 128.008C196.5 126.087 196.126 124.281 195.377 122.588C194.661 120.863 193.668 119.365 192.398 118.096C191.129 116.826 189.648 115.833 187.955 115.117C186.262 114.368 184.456 113.994 182.535 113.994H168.521ZM168.521 170H154.508V99.9805H182.535C185.107 99.9805 187.581 100.322 189.957 101.006C192.333 101.657 194.547 102.601 196.598 103.838C198.681 105.042 200.569 106.507 202.262 108.232C203.987 109.925 205.452 111.813 206.656 113.896C207.893 115.98 208.837 118.21 209.488 120.586C210.172 122.962 210.514 125.436 210.514 128.008C210.514 131.849 209.781 135.479 208.316 138.896C206.852 142.282 204.85 145.244 202.311 147.783C199.771 150.322 196.793 152.324 193.375 153.789C189.99 155.254 186.376 155.986 182.535 155.986H168.521V170ZM259.977 142.021V128.008C259.977 126.087 259.602 124.281 258.854 122.588C258.137 120.863 257.145 119.365 255.875 118.096C254.605 116.826 253.108 115.833 251.383 115.117C249.69 114.368 247.883 113.994 245.963 113.994C244.042 113.994 242.219 114.368 240.494 115.117C238.801 115.833 237.32 116.826 236.051 118.096C234.781 119.365 233.772 120.863 233.023 122.588C232.307 124.281 231.949 126.087 231.949 128.008V142.021H259.977ZM273.99 170H259.977V155.986H231.949V170H217.984V128.008C217.984 124.134 218.717 120.505 220.182 117.119C221.646 113.701 223.632 110.723 226.139 108.184C228.678 105.645 231.64 103.643 235.025 102.178C238.443 100.713 242.089 99.9805 245.963 99.9805C249.837 99.9805 253.466 100.713 256.852 102.178C260.27 103.643 263.248 105.645 265.787 108.184C268.326 110.723 270.328 113.701 271.793 117.119C273.258 120.505 273.99 124.134 273.99 128.008V170ZM313.395 170H299.43V113.994H278.385V99.9805H334.391V113.994H313.395V170ZM425.748 162.822C422.493 165.622 418.847 167.77 414.811 169.268C410.774 170.765 406.591 171.514 402.262 171.514C398.941 171.514 395.735 171.074 392.643 170.195C389.583 169.349 386.702 168.145 384 166.582C381.331 164.987 378.889 163.083 376.676 160.869C374.462 158.656 372.558 156.214 370.963 153.545C369.4 150.843 368.18 147.962 367.301 144.902C366.454 141.81 366.031 138.604 366.031 135.283C366.031 131.963 366.454 128.757 367.301 125.664C368.18 122.572 369.4 119.691 370.963 117.021C372.558 114.32 374.462 111.862 376.676 109.648C378.889 107.435 381.331 105.547 384 103.984C386.702 102.389 389.583 101.169 392.643 100.322C395.735 99.4434 398.941 99.0039 402.262 99.0039C406.591 99.0039 410.774 99.7526 414.811 101.25C418.847 102.715 422.493 104.863 425.748 107.695L418.326 119.902C416.275 117.689 413.85 115.996 411.051 114.824C408.251 113.62 405.322 113.018 402.262 113.018C399.169 113.018 396.272 113.604 393.57 114.775C390.868 115.947 388.508 117.542 386.49 119.561C384.472 121.546 382.877 123.906 381.705 126.641C380.533 129.342 379.947 132.223 379.947 135.283C379.947 138.343 380.533 141.224 381.705 143.926C382.877 146.595 384.472 148.939 386.49 150.957C388.508 152.975 390.868 154.57 393.57 155.742C396.272 156.914 399.169 157.5 402.262 157.5C405.322 157.5 408.251 156.914 411.051 155.742C413.85 154.538 416.275 152.829 418.326 150.615L425.748 162.822ZM482.926 170H433.902V99.9805H447.916V155.986H482.926V170ZM556.412 135.283C556.412 138.604 555.973 141.81 555.094 144.902C554.247 147.962 553.043 150.843 551.48 153.545C549.918 156.214 548.03 158.656 545.816 160.869C543.603 163.083 541.161 164.987 538.492 166.582C535.823 168.145 532.942 169.349 529.85 170.195C526.757 171.074 523.551 171.514 520.23 171.514C516.91 171.514 513.704 171.074 510.611 170.195C507.551 169.349 504.671 168.145 501.969 166.582C499.299 164.987 496.858 163.083 494.645 160.869C492.431 158.656 490.527 156.214 488.932 153.545C487.369 150.843 486.148 147.962 485.27 144.902C484.423 141.81 484 138.604 484 135.283C484 131.963 484.423 128.757 485.27 125.664C486.148 122.572 487.369 119.691 488.932 117.021C490.527 114.352 492.431 111.911 494.645 109.697C496.858 107.484 499.299 105.596 501.969 104.033C504.671 102.471 507.551 101.266 510.611 100.42C513.704 99.541 516.91 99.1016 520.23 99.1016C523.551 99.1016 526.757 99.541 529.85 100.42C532.942 101.266 535.823 102.471 538.492 104.033C541.161 105.596 543.603 107.484 545.816 109.697C548.03 111.911 549.918 114.352 551.48 117.021C553.043 119.691 554.247 122.572 555.094 125.664C555.973 128.757 556.412 131.963 556.412 135.283ZM542.496 135.283C542.496 132.223 541.91 129.342 540.738 126.641C539.566 123.906 537.971 121.546 535.953 119.561C533.967 117.542 531.607 115.947 528.873 114.775C526.171 113.604 523.29 113.018 520.23 113.018C517.138 113.018 514.241 113.604 511.539 114.775C508.837 115.947 506.477 117.542 504.459 119.561C502.441 121.546 500.846 123.906 499.674 126.641C498.502 129.342 497.916 132.223 497.916 135.283C497.916 138.343 498.502 141.224 499.674 143.926C500.846 146.595 502.441 148.939 504.459 150.957C506.477 152.975 508.837 154.57 511.539 155.742C514.241 156.914 517.138 157.5 520.23 157.5C523.29 157.5 526.171 156.914 528.873 155.742C531.607 154.57 533.967 152.975 535.953 150.957C537.971 148.939 539.566 146.595 540.738 143.926C541.91 141.224 542.496 138.343 542.496 135.283ZM620.865 142.021C620.865 145.895 620.133 149.541 618.668 152.959C617.203 156.344 615.201 159.307 612.662 161.846C610.123 164.352 607.145 166.338 603.727 167.803C600.341 169.268 596.712 170 592.838 170C588.964 170 585.318 169.268 581.9 167.803C578.515 166.338 575.553 164.352 573.014 161.846C570.507 159.307 568.521 156.344 567.057 152.959C565.592 149.541 564.859 145.895 564.859 142.021V99.9805H578.824V142.021C578.824 143.942 579.182 145.749 579.898 147.441C580.647 149.134 581.656 150.615 582.926 151.885C584.195 153.154 585.676 154.163 587.369 154.912C589.094 155.628 590.917 155.986 592.838 155.986C594.758 155.986 596.565 155.628 598.258 154.912C599.983 154.163 601.48 153.154 602.75 151.885C604.02 150.615 605.012 149.134 605.729 147.441C606.477 145.749 606.852 143.942 606.852 142.021V99.9805H620.865V142.021ZM689.127 134.99C689.127 138.213 688.704 141.322 687.857 144.316C687.044 147.279 685.872 150.062 684.342 152.666C682.812 155.238 680.989 157.598 678.873 159.746C676.757 161.862 674.397 163.685 671.793 165.215C669.189 166.745 666.389 167.933 663.395 168.779C660.432 169.593 657.34 170 654.117 170H633.023V99.9805H654.117C657.34 99.9805 660.432 100.404 663.395 101.25C666.389 102.064 669.189 103.236 671.793 104.766C674.397 106.296 676.757 108.135 678.873 110.283C680.989 112.399 682.812 114.759 684.342 117.363C685.872 119.935 687.044 122.718 687.857 125.713C688.704 128.675 689.127 131.768 689.127 134.99ZM675.113 134.99C675.113 132.093 674.56 129.375 673.453 126.836C672.379 124.297 670.882 122.083 668.961 120.195C667.073 118.275 664.843 116.761 662.271 115.654C659.732 114.548 657.014 113.994 654.117 113.994H647.135V155.986H654.117C657.014 155.986 659.732 155.449 662.271 154.375C664.843 153.268 667.073 151.771 668.961 149.883C670.882 147.962 672.379 145.732 673.453 143.193C674.56 140.622 675.113 137.887 675.113 134.99ZM279 200.391C279 199.232 279.221 198.145 279.664 197.129C280.107 196.113 280.706 195.228 281.461 194.473C282.229 193.704 283.121 193.099 284.137 192.656C285.152 192.214 286.24 191.992 287.398 191.992H300.25V197.598H287.398C287.008 197.598 286.643 197.669 286.305 197.812C285.966 197.956 285.667 198.158 285.406 198.418C285.159 198.665 284.964 198.958 284.82 199.297C284.677 199.635 284.605 200 284.605 200.391C284.605 200.781 284.677 201.152 284.82 201.504C284.964 201.842 285.159 202.142 285.406 202.402C285.667 202.65 285.966 202.845 286.305 202.988C286.643 203.132 287.008 203.203 287.398 203.203H293.004C294.163 203.203 295.25 203.424 296.266 203.867C297.294 204.297 298.186 204.896 298.941 205.664C299.71 206.419 300.309 207.311 300.738 208.34C301.181 209.355 301.402 210.443 301.402 211.602C301.402 212.76 301.181 213.848 300.738 214.863C300.309 215.879 299.71 216.771 298.941 217.539C298.186 218.294 297.294 218.893 296.266 219.336C295.25 219.779 294.163 220 293.004 220H280.562V214.395H293.004C293.395 214.395 293.759 214.323 294.098 214.18C294.436 214.036 294.729 213.841 294.977 213.594C295.237 213.333 295.439 213.034 295.582 212.695C295.725 212.357 295.797 211.992 295.797 211.602C295.797 211.211 295.725 210.846 295.582 210.508C295.439 210.169 295.237 209.876 294.977 209.629C294.729 209.368 294.436 209.167 294.098 209.023C293.759 208.88 293.395 208.809 293.004 208.809H287.398C286.24 208.809 285.152 208.587 284.137 208.145C283.121 207.702 282.229 207.103 281.461 206.348C280.706 205.579 280.107 204.688 279.664 203.672C279.221 202.643 279 201.549 279 200.391ZM343.746 206.113C343.746 207.441 343.57 208.724 343.219 209.961C342.88 211.185 342.398 212.337 341.773 213.418C341.148 214.486 340.393 215.462 339.508 216.348C338.622 217.233 337.646 217.995 336.578 218.633C335.51 219.258 334.358 219.74 333.121 220.078C331.884 220.43 330.602 220.605 329.273 220.605C327.945 220.605 326.663 220.43 325.426 220.078C324.202 219.74 323.049 219.258 321.969 218.633C320.901 217.995 319.924 217.233 319.039 216.348C318.154 215.462 317.392 214.486 316.754 213.418C316.129 212.337 315.641 211.185 315.289 209.961C314.951 208.724 314.781 207.441 314.781 206.113C314.781 204.785 314.951 203.503 315.289 202.266C315.641 201.029 316.129 199.876 316.754 198.809C317.392 197.741 318.154 196.764 319.039 195.879C319.924 194.993 320.901 194.238 321.969 193.613C323.049 192.988 324.202 192.507 325.426 192.168C326.663 191.816 327.945 191.641 329.273 191.641C330.602 191.641 331.884 191.816 333.121 192.168C334.358 192.507 335.51 192.988 336.578 193.613C337.646 194.238 338.622 194.993 339.508 195.879C340.393 196.764 341.148 197.741 341.773 198.809C342.398 199.876 342.88 201.029 343.219 202.266C343.57 203.503 343.746 204.785 343.746 206.113ZM338.18 206.113C338.18 204.889 337.945 203.737 337.477 202.656C337.008 201.562 336.37 200.618 335.562 199.824C334.768 199.017 333.824 198.379 332.73 197.91C331.65 197.441 330.497 197.207 329.273 197.207C328.036 197.207 326.878 197.441 325.797 197.91C324.716 198.379 323.772 199.017 322.965 199.824C322.158 200.618 321.52 201.562 321.051 202.656C320.582 203.737 320.348 204.889 320.348 206.113C320.348 207.337 320.582 208.49 321.051 209.57C321.52 210.638 322.158 211.576 322.965 212.383C323.772 213.19 324.716 213.828 325.797 214.297C326.878 214.766 328.036 215 329.273 215C330.497 215 331.65 214.766 332.73 214.297C333.824 213.828 334.768 213.19 335.562 212.383C336.37 211.576 337.008 210.638 337.477 209.57C337.945 208.49 338.18 207.337 338.18 206.113ZM378.258 220H358.648V191.992H364.254V214.395H378.258V220ZM414.488 208.809C414.488 210.358 414.195 211.816 413.609 213.184C413.023 214.538 412.223 215.723 411.207 216.738C410.191 217.741 409 218.535 407.633 219.121C406.279 219.707 404.827 220 403.277 220C401.728 220 400.27 219.707 398.902 219.121C397.548 218.535 396.363 217.741 395.348 216.738C394.345 215.723 393.551 214.538 392.965 213.184C392.379 211.816 392.086 210.358 392.086 208.809V191.992H397.672V208.809C397.672 209.577 397.815 210.299 398.102 210.977C398.401 211.654 398.805 212.246 399.312 212.754C399.82 213.262 400.413 213.665 401.09 213.965C401.78 214.251 402.509 214.395 403.277 214.395C404.046 214.395 404.768 214.251 405.445 213.965C406.135 213.665 406.734 213.262 407.242 212.754C407.75 212.246 408.147 211.654 408.434 210.977C408.733 210.299 408.883 209.577 408.883 208.809V191.992H414.488V208.809ZM442.32 220H436.734V197.598H428.316V191.992H450.719V197.598H442.32V220ZM470.504 220H464.898V191.992H470.504V220ZM514.371 206.113C514.371 207.441 514.195 208.724 513.844 209.961C513.505 211.185 513.023 212.337 512.398 213.418C511.773 214.486 511.018 215.462 510.133 216.348C509.247 217.233 508.271 217.995 507.203 218.633C506.135 219.258 504.983 219.74 503.746 220.078C502.509 220.43 501.227 220.605 499.898 220.605C498.57 220.605 497.288 220.43 496.051 220.078C494.827 219.74 493.674 219.258 492.594 218.633C491.526 217.995 490.549 217.233 489.664 216.348C488.779 215.462 488.017 214.486 487.379 213.418C486.754 212.337 486.266 211.185 485.914 209.961C485.576 208.724 485.406 207.441 485.406 206.113C485.406 204.785 485.576 203.503 485.914 202.266C486.266 201.029 486.754 199.876 487.379 198.809C488.017 197.741 488.779 196.764 489.664 195.879C490.549 194.993 491.526 194.238 492.594 193.613C493.674 192.988 494.827 192.507 496.051 192.168C497.288 191.816 498.57 191.641 499.898 191.641C501.227 191.641 502.509 191.816 503.746 192.168C504.983 192.507 506.135 192.988 507.203 193.613C508.271 194.238 509.247 194.993 510.133 195.879C511.018 196.764 511.773 197.741 512.398 198.809C513.023 199.876 513.505 201.029 513.844 202.266C514.195 203.503 514.371 204.785 514.371 206.113ZM508.805 206.113C508.805 204.889 508.57 203.737 508.102 202.656C507.633 201.562 506.995 200.618 506.188 199.824C505.393 199.017 504.449 198.379 503.355 197.91C502.275 197.441 501.122 197.207 499.898 197.207C498.661 197.207 497.503 197.441 496.422 197.91C495.341 198.379 494.397 199.017 493.59 199.824C492.783 200.618 492.145 201.562 491.676 202.656C491.207 203.737 490.973 204.889 490.973 206.113C490.973 207.337 491.207 208.49 491.676 209.57C492.145 210.638 492.783 211.576 493.59 212.383C494.397 213.19 495.341 213.828 496.422 214.297C497.503 214.766 498.661 215 499.898 215C501.122 215 502.275 214.766 503.355 214.297C504.449 213.828 505.393 213.19 506.188 212.383C506.995 211.576 507.633 210.638 508.102 209.57C508.57 208.49 508.805 207.337 508.805 206.113ZM551.676 220H545.68L534.879 201.562V220H529.273V191.992H535.27L546.07 210.449V191.992H551.676V220ZM566.461 200.391C566.461 199.232 566.682 198.145 567.125 197.129C567.568 196.113 568.167 195.228 568.922 194.473C569.69 193.704 570.582 193.099 571.598 192.656C572.613 192.214 573.701 191.992 574.859 191.992H587.711V197.598H574.859C574.469 197.598 574.104 197.669 573.766 197.812C573.427 197.956 573.128 198.158 572.867 198.418C572.62 198.665 572.424 198.958 572.281 199.297C572.138 199.635 572.066 200 572.066 200.391C572.066 200.781 572.138 201.152 572.281 201.504C572.424 201.842 572.62 202.142 572.867 202.402C573.128 202.65 573.427 202.845 573.766 202.988C574.104 203.132 574.469 203.203 574.859 203.203H580.465C581.624 203.203 582.711 203.424 583.727 203.867C584.755 204.297 585.647 204.896 586.402 205.664C587.171 206.419 587.77 207.311 588.199 208.34C588.642 209.355 588.863 210.443 588.863 211.602C588.863 212.76 588.642 213.848 588.199 214.863C587.77 215.879 587.171 216.771 586.402 217.539C585.647 218.294 584.755 218.893 583.727 219.336C582.711 219.779 581.624 220 580.465 220H568.023V214.395H580.465C580.855 214.395 581.22 214.323 581.559 214.18C581.897 214.036 582.19 213.841 582.438 213.594C582.698 213.333 582.9 213.034 583.043 212.695C583.186 212.357 583.258 211.992 583.258 211.602C583.258 211.211 583.186 210.846 583.043 210.508C582.9 210.169 582.698 209.876 582.438 209.629C582.19 209.368 581.897 209.167 581.559 209.023C581.22 208.88 580.855 208.809 580.465 208.809H574.859C573.701 208.809 572.613 208.587 571.598 208.145C570.582 207.702 569.69 207.103 568.922 206.348C568.167 205.579 567.568 204.688 567.125 203.672C566.682 202.643 566.461 201.549 566.461 200.391Z" fill="#0E0E0E"/>
<rect x="2673.5" y="73.5" width="141" height="99" rx="13.5" stroke="#BBBBBB" stroke-width="3"/>
<mask id="path-10-inside-1_381_244" fill="white">
<rect x="2702" y="92" width="85" height="11" rx="5"/>
</mask>
<rect x="2702" y="92" width="85" height="11" rx="5" fill="black" stroke="black" stroke-width="11" mask="url(#path-10-inside-1_381_244)"/>
<mask id="path-11-inside-2_381_244" fill="white">
<rect x="2702" y="116" width="85" height="13" rx="5"/>
</mask>
<rect x="2702" y="116" width="85" height="13" rx="5" fill="black" stroke="black" stroke-width="13" mask="url(#path-11-inside-2_381_244)"/>
<mask id="path-12-inside-3_381_244" fill="white">
<rect x="2702" y="142" width="85" height="11" rx="5"/>
</mask>
<rect x="2702" y="142" width="85" height="11" rx="5" fill="black" stroke="black" stroke-width="11" mask="url(#path-12-inside-3_381_244)"/>
<circle cx="1239.5" cy="153.5" r="46.5" fill="#006FAD"/>
<path d="M1129.25 170H1105.25V134.99H1129.25V141.997H1112.25V149.004H1123.75V156.011H1112.25V162.993H1129.25V170ZM1162.16 170H1154.66L1141.16 146.953V170H1134.15V134.99H1141.65L1155.15 158.062V134.99H1162.16V170Z" fill="black"/>
<path d="M1238.77 152.495C1238.77 154.106 1238.56 155.661 1238.13 157.158C1237.73 158.639 1237.14 160.031 1236.38 161.333C1235.61 162.619 1234.7 163.799 1233.64 164.873C1232.58 165.931 1231.4 166.842 1230.1 167.607C1228.8 168.372 1227.4 168.966 1225.9 169.39C1224.42 169.797 1222.87 170 1221.26 170H1210.72V134.99H1221.26C1222.87 134.99 1224.42 135.202 1225.9 135.625C1227.4 136.032 1228.8 136.618 1230.1 137.383C1231.4 138.148 1232.58 139.067 1233.64 140.142C1234.7 141.2 1235.61 142.38 1236.38 143.682C1237.14 144.967 1237.73 146.359 1238.13 147.856C1238.56 149.338 1238.77 150.884 1238.77 152.495ZM1231.76 152.495C1231.76 151.047 1231.48 149.688 1230.93 148.418C1230.39 147.148 1229.64 146.042 1228.68 145.098C1227.74 144.137 1226.63 143.381 1225.34 142.827C1224.07 142.274 1222.71 141.997 1221.26 141.997H1217.77V162.993H1221.26C1222.71 162.993 1224.07 162.725 1225.34 162.188C1226.63 161.634 1227.74 160.885 1228.68 159.941C1229.64 158.981 1230.39 157.866 1230.93 156.597C1231.48 155.311 1231.76 153.944 1231.76 152.495ZM1267.43 170H1243.43V134.99H1267.43V141.997H1250.44V149.004H1261.94V156.011H1250.44V162.993H1267.43V170Z" fill="white"/>
</g>
<defs>
<clipPath id="clip0_381_244">
<rect width="2913" height="3021" fill="white"/>
</clipPath>
</defs>
</svg>
