<svg width="2913" height="3021" fill="none" xmlns="http://www.w3.org/2000/svg"><g clip-path="url(#a)"><path fill="#fff" d="M0 0h2913v3021H0z"/><path d="M3412 0c-232.81 269.476-466.25 538.953-565.93 839.683-99.69 300.037-66.25 631.327-217.67 830.657-152.05 199.33-489.59 266.7-678.87 475.75-188.64 209.05-229.02 560.48-378.55 849.4-149.52 288.93-407.57 516.04-687.696 632.72C603.157 3744.89 301.578 3750.44 0 3756V0h3412Z" fill="#DEE2FB"/><path d="M2388.25 727.156c-16.35-79.108-94.24-131.334-175.78-116.956-57.69 10.171-99.66 51.527-116.17 106.128-5.39.051-14.85.101-20.16 1.037-37.23 6.564-67.09 33.761-77.04 69.097-50.38 11.226-83.71 59.664-74.82 110.078 9.14 51.865 59.57 86.477 112.38 77.164l342.16-60.331c52.81-9.313 88.36-59.084 79.22-110.949-6.44-36.521-33.91-65.69-69.79-75.268ZM2374.08 886.5l-342.15 60.331c-37.74 6.653-73.75-18.073-80.28-55.117-6.53-37.045 18.85-72.596 56.58-79.25.85-.149 1.69-.227 2.53-.32l11.81-1.363 1.72-10.181c4.86-28.594 27.61-51.253 56.58-56.362a70.423 70.423 0 0 1 20.25-.604l12.58 1.425 2.68-12.193c10.83-49.307 50.39-86.9 100.83-95.793 67.92-11.977 132.74 32.538 144.49 99.211l1.9 14.115 10.06 1.593c29.08 4.599 51.99 26.813 57 55.258 6.54 37.045-18.85 72.596-56.58 79.25Z" fill="#D5D8F4"/><path d="M288.988 1283.99c0 1.45-.276 2.82-.83 4.1a10.447 10.447 0 0 1-2.246 3.35c-.944.94-2.059 1.69-3.345 2.24-1.269.54-2.628.81-4.077.81-1.302 0-2.555-.23-3.76-.69a9.963 9.963 0 0 1-3.222-2 9.904 9.904 0 0 1-3.247 2c-1.205.46-2.458.69-3.76.69-1.449 0-2.816-.27-4.102-.81a10.98 10.98 0 0 1-3.344-2.24 10.994 10.994 0 0 1-2.246-3.35 10.484 10.484 0 0 1-.806-4.1v-25h7.007v25a3.548 3.548 0 0 0 1.001 2.51c.325.31.7.56 1.123.74.423.18.879.27 1.367.27a3.456 3.456 0 0 0 2.466-1.01c.325-.32.578-.69.757-1.12.179-.44.268-.9.268-1.39v-25h7.007v25a3.562 3.562 0 0 0 1.001 2.51c.326.31.7.56 1.123.74.423.18.879.27 1.367.27a3.452 3.452 0 0 0 2.466-1.01c.326-.32.578-.69.757-1.12.195-.44.293-.9.293-1.39v-25h6.982v25Zm13.428-23.24c0 .62-.122 1.19-.366 1.73a4.448 4.448 0 0 1-.952 1.42c-.407.39-.887.71-1.441.95-.537.23-1.115.34-1.733.34-.619 0-1.205-.11-1.758-.34a4.956 4.956 0 0 1-1.416-.95 5.045 5.045 0 0 1-.952-1.42 4.378 4.378 0 0 1-.342-1.73c0-.6.114-1.17.342-1.71a4.65 4.65 0 0 1 .952-1.42c.407-.4.879-.72 1.416-.95a4.377 4.377 0 0 1 1.758-.37c.618 0 1.196.13 1.733.37.554.23 1.034.55 1.441.95.407.39.724.87.952 1.42.244.54.366 1.11.366 1.71Zm-1.147 33.25h-6.714v-26.15h6.714V1294Zm11.816 0h-6.714v-36.55h6.714V1294Zm11.816 0h-6.713v-36.55h6.713V1294Zm11.817 0h-6.714v-36.55h6.714v23.05l9.936-12.6h7.666l-8.667 10.89 8.667 15.21h-7.666l-5.298-9.5-4.638 6.16v3.34Zm44.678-13.31c0 1.96-.35 3.78-1.05 5.47-.7 1.68-1.652 3.14-2.857 4.37a13.674 13.674 0 0 1-4.248 2.91c-1.611.7-3.345 1.05-5.2 1.05-1.839 0-3.573-.35-5.2-1.05a14.058 14.058 0 0 1-4.248-2.91c-1.205-1.23-2.157-2.69-2.857-4.37-.7-1.69-1.049-3.51-1.049-5.47 0-1.98.349-3.82 1.049-5.51.7-1.7 1.652-3.15 2.857-4.37a13.375 13.375 0 0 1 4.248-2.91c1.627-.7 3.361-1.05 5.2-1.05 1.855 0 3.589.34 5.2 1 1.628.65 3.044 1.59 4.248 2.81 1.205 1.2 2.157 2.66 2.857 4.37.7 1.69 1.05 3.58 1.05 5.66Zm-6.714 0c0-1.07-.179-2.04-.537-2.9-.342-.88-.814-1.63-1.416-2.25a6.058 6.058 0 0 0-2.125-1.44 6.465 6.465 0 0 0-2.563-.51c-.911 0-1.774.17-2.588.51-.797.33-1.497.81-2.099 1.44-.586.62-1.05 1.37-1.392 2.25-.342.86-.513 1.83-.513 2.9 0 1.01.171 1.95.513 2.81.342.86.806 1.61 1.392 2.25a6.92 6.92 0 0 0 2.099 1.51c.814.36 1.677.54 2.588.54s1.766-.17 2.563-.51a6.646 6.646 0 0 0 2.125-1.44c.602-.62 1.074-1.37 1.416-2.25.358-.88.537-1.85.537-2.91Zm43.652 13.31h-6.641v-16.6c0-.46-.089-.89-.268-1.3-.163-.4-.399-.76-.708-1.07a3.277 3.277 0 0 0-1.074-.71 3.166 3.166 0 0 0-1.294-.27c-.456 0-.887.09-1.294.27-.391.17-.741.4-1.05.71-.293.31-.529.67-.708 1.07-.163.41-.244.84-.244 1.3v16.6h-6.665v-16.6c0-.46-.09-.89-.269-1.3-.163-.4-.399-.76-.708-1.07a3.266 3.266 0 0 0-1.074-.71 3.163 3.163 0 0 0-1.294-.27c-.456 0-.887.09-1.294.27-.391.17-.741.4-1.05.71-.293.31-.529.67-.708 1.07-.163.41-.244.84-.244 1.3v16.6h-6.665v-26.15h1.611l1.807 2a10.51 10.51 0 0 1 3.052-1.8 9.489 9.489 0 0 1 3.491-.66c1.221 0 2.409.23 3.564.68 1.172.46 2.198 1.25 3.077 2.37.406-.55.87-1.02 1.391-1.42.521-.39 1.066-.7 1.636-.95a8.204 8.204 0 0 1 1.807-.51c.618-.11 1.228-.17 1.831-.17 1.383 0 2.677.26 3.881.78a9.78 9.78 0 0 1 3.174 2.15 9.703 9.703 0 0 1 2.149 3.17c.521 1.22.781 2.52.781 3.91v16.6Zm38.135 0h-6.641v-16.6c0-.46-.089-.89-.268-1.3-.163-.4-.399-.76-.708-1.07-.31-.31-.668-.54-1.075-.71a3.163 3.163 0 0 0-1.294-.27c-.455 0-.887.09-1.294.27-.39.17-.74.4-1.049.71-.293.31-.529.67-.708 1.07-.163.41-.244.84-.244 1.3v16.6h-6.666v-16.6c0-.46-.089-.89-.268-1.3-.163-.4-.399-.76-.708-1.07a3.266 3.266 0 0 0-1.074-.71 3.166 3.166 0 0 0-1.294-.27c-.456 0-.887.09-1.294.27-.391.17-.741.4-1.05.71-.293.31-.529.67-.708 1.07-.163.41-.244.84-.244 1.3v16.6h-6.665v-26.15h1.611l1.807 2c.927-.78 1.945-1.38 3.052-1.8a9.485 9.485 0 0 1 3.491-.66c1.22 0 2.409.23 3.564.68 1.172.46 2.197 1.25 3.076 2.37.407-.55.871-1.02 1.392-1.42.521-.39 1.066-.7 1.636-.95a8.212 8.212 0 0 1 1.806-.51 10.46 10.46 0 0 1 1.831-.17c1.384 0 2.678.26 3.882.78a9.78 9.78 0 0 1 3.174 2.15 9.703 9.703 0 0 1 2.149 3.17c.52 1.22.781 2.52.781 3.91v16.6Zm15.283-6.4c.26.08.521.14.781.17.261.02.521.03.781.03a6.714 6.714 0 0 0 3.565-1.03 6.386 6.386 0 0 0 1.416-1.22c.423-.49.765-1.02 1.025-1.61l4.883 4.91a12.9 12.9 0 0 1-2.148 2.37c-.798.7-1.669 1.29-2.613 1.78-.927.49-1.912.85-2.954 1.1-1.025.26-2.083.39-3.174.39-1.839 0-3.572-.34-5.2-1.03a13.227 13.227 0 0 1-4.248-2.85c-1.204-1.22-2.156-2.67-2.856-4.35-.7-1.69-1.05-3.55-1.05-5.57 0-2.06.35-3.95 1.05-5.66.7-1.71 1.652-3.17 2.856-4.37a13.28 13.28 0 0 1 4.248-2.81c1.628-.66 3.361-1 5.2-1a13.113 13.113 0 0 1 6.153 1.52c.944.48 1.823 1.09 2.637 1.8.813.7 1.529 1.49 2.148 2.37l-12.5 15.06Zm3.418-13.74a3.478 3.478 0 0 0-.928-.22 9.073 9.073 0 0 0-.928-.05 6.64 6.64 0 0 0-2.587.51c-.798.33-1.498.8-2.1 1.42-.586.62-1.05 1.37-1.392 2.24-.341.87-.512 1.84-.512 2.93 0 .25.008.53.024.83.033.31.073.63.122.96.065.31.138.61.22.9.081.29.187.55.317.78l7.764-10.3Zm19.116 20.14h-6.665v-26.15h1.611l2.198 2.54a11.608 11.608 0 0 1 3.637-2.24c1.368-.54 2.792-.81 4.273-.81 1.595 0 3.1.31 4.516.93 1.416.6 2.653 1.44 3.711 2.51a11.638 11.638 0 0 1 2.491 3.74c.618 1.41.927 2.93.927 4.54V1294h-6.665v-14.94c0-.68-.13-1.33-.39-1.93a4.916 4.916 0 0 0-1.075-1.61 4.994 4.994 0 0 0-1.586-1.08 4.82 4.82 0 0 0-1.929-.39c-.7 0-1.359.13-1.978.39a4.94 4.94 0 0 0-1.611 1.08c-.456.45-.814.99-1.074 1.61-.261.6-.391 1.25-.391 1.93V1294Zm55.884 0h-21.802l11.011-19.46h-11.011v-6.64h21.802l-11.011 19.46h11.011v6.64Zm22.729-3.05c-.537.49-1.114.95-1.733 1.39-.602.42-1.237.8-1.904 1.12a11.7 11.7 0 0 1-2.075.74c-.7.19-1.416.29-2.149.29a12.05 12.05 0 0 1-4.541-.86 11.457 11.457 0 0 1-3.735-2.41c-1.058-1.06-1.896-2.34-2.515-3.84-.602-1.51-.903-3.2-.903-5.07v-14.46h6.64v14.46c0 .87.131 1.66.391 2.36.277.69.643 1.27 1.099 1.74.455.47.984.83 1.587 1.07.618.25 1.277.37 1.977.37.684 0 1.327-.16 1.929-.47a5.339 5.339 0 0 0 1.611-1.27c.456-.52.814-1.1 1.074-1.75a5.59 5.59 0 0 0 .391-2.05v-14.46h6.665V1294h-1.611l-2.198-3.05Zm30.64-24.95v14.01h7.007c.96 0 1.864-.18 2.71-.54a7.273 7.273 0 0 0 2.222-1.51 6.945 6.945 0 0 0 1.489-2.22 6.82 6.82 0 0 0 .561-2.74c0-.96-.187-1.86-.561-2.71a6.818 6.818 0 0 0-1.489-2.24 6.88 6.88 0 0 0-2.222-1.49 6.532 6.532 0 0 0-2.71-.56h-7.007Zm0 28h-7.007v-35.01h14.014c1.286 0 2.523.17 3.711.51 1.188.33 2.295.8 3.32 1.42 1.042.6 1.986 1.33 2.832 2.2.863.84 1.595 1.79 2.197 2.83a13.386 13.386 0 0 1 1.416 3.34c.342 1.19.513 2.43.513 3.71 0 1.92-.366 3.74-1.098 5.45a14.226 14.226 0 0 1-3.003 4.44 14.06 14.06 0 0 1-4.468 3c-1.693.74-3.5 1.1-5.42 1.1h-7.007v7.01Zm45.728-13.99V1273c0-.96-.188-1.86-.562-2.71a6.802 6.802 0 0 0-3.735-3.73 6.536 6.536 0 0 0-2.71-.56c-.961 0-1.872.18-2.735.56-.846.36-1.587.85-2.221 1.49a7.126 7.126 0 0 0-1.514 2.24 6.898 6.898 0 0 0-.537 2.71v7.01h14.014Zm7.006 13.99h-7.006v-7.01h-14.014v7.01h-6.982v-21c0-1.93.366-3.75 1.098-5.44.733-1.71 1.725-3.2 2.979-4.47a14.117 14.117 0 0 1 4.443-3c1.709-.73 3.532-1.1 5.469-1.1 1.937 0 3.751.37 5.444 1.1a14.06 14.06 0 0 1 4.468 3 14.132 14.132 0 0 1 3.003 4.47c.732 1.69 1.098 3.51 1.098 5.44v21Zm19.703 0h-6.983v-28h-10.522v-7.01h28.003v7.01h-10.498v28Zm56.176-3.59a17.641 17.641 0 0 1-5.468 3.22 17.88 17.88 0 0 1-6.275 1.13c-1.66 0-3.263-.22-4.809-.66a18.744 18.744 0 0 1-4.322-1.81 18.811 18.811 0 0 1-3.662-2.86 18.398 18.398 0 0 1-2.856-3.66 19.126 19.126 0 0 1-1.831-4.32 18.17 18.17 0 0 1-.635-4.81c0-1.66.212-3.26.635-4.81.439-1.54 1.05-2.98 1.831-4.32a18.586 18.586 0 0 1 2.856-3.69 18.287 18.287 0 0 1 3.662-2.83c1.351-.8 2.792-1.41 4.322-1.83 1.546-.44 3.149-.66 4.809-.66a18.1 18.1 0 0 1 6.275 1.12c2.018.74 3.841 1.81 5.468 3.23l-3.711 6.1a10.362 10.362 0 0 0-3.637-2.54c-1.4-.6-2.865-.9-4.395-.9-1.546 0-2.995.29-4.346.88-1.35.58-2.53 1.38-3.54 2.39-1.009.99-1.806 2.17-2.392 3.54a10.731 10.731 0 0 0-.879 4.32c0 1.53.293 2.97.879 4.32a11.378 11.378 0 0 0 2.392 3.52c1.01 1.01 2.19 1.81 3.54 2.39 1.351.59 2.8.88 4.346.88a11.2 11.2 0 0 0 4.395-.88c1.399-.6 2.612-1.46 3.637-2.56l3.711 6.1Zm10.083 3.59h-6.714v-36.55h6.714V1294Zm30.371-13.31c0 1.96-.349 3.78-1.049 5.47-.7 1.68-1.652 3.14-2.857 4.37a13.674 13.674 0 0 1-4.248 2.91c-1.611.7-3.345 1.05-5.2 1.05-1.839 0-3.573-.35-5.2-1.05a14.058 14.058 0 0 1-4.248-2.91c-1.205-1.23-2.157-2.69-2.857-4.37-.7-1.69-1.05-3.51-1.05-5.47 0-1.98.35-3.82 1.05-5.51.7-1.7 1.652-3.15 2.857-4.37a13.375 13.375 0 0 1 4.248-2.91c1.627-.7 3.361-1.05 5.2-1.05 1.855 0 3.589.34 5.2 1 1.628.65 3.044 1.59 4.248 2.81 1.205 1.2 2.157 2.66 2.857 4.37.7 1.69 1.049 3.58 1.049 5.66Zm-6.713 0c0-1.07-.179-2.04-.538-2.9-.341-.88-.813-1.63-1.416-2.25a6.045 6.045 0 0 0-2.124-1.44 6.465 6.465 0 0 0-2.563-.51c-.912 0-1.774.17-2.588.51-.797.33-1.497.81-2.1 1.44-.585.62-1.049 1.37-1.391 2.25-.342.86-.513 1.83-.513 2.9 0 1.01.171 1.95.513 2.81.342.86.806 1.61 1.391 2.25a6.936 6.936 0 0 0 2.1 1.51c.814.36 1.676.54 2.588.54.911 0 1.766-.17 2.563-.51a6.63 6.63 0 0 0 2.124-1.44c.603-.62 1.075-1.37 1.416-2.25.359-.88.538-1.85.538-2.91Zm29.614 10.26c-.537.49-1.115.95-1.734 1.39-.602.42-1.237.8-1.904 1.12-.667.31-1.359.56-2.075.74-.7.19-1.416.29-2.148.29-1.612 0-3.125-.29-4.542-.86a11.457 11.457 0 0 1-3.735-2.41c-1.058-1.06-1.896-2.34-2.515-3.84-.602-1.51-.903-3.2-.903-5.07v-14.46h6.641v14.46c0 .87.13 1.66.39 2.36.277.69.643 1.27 1.099 1.74.456.47.985.83 1.587 1.07.618.25 1.278.37 1.978.37.683 0 1.326-.16 1.928-.47a5.33 5.33 0 0 0 1.612-1.27c.455-.52.813-1.1 1.074-1.75.26-.67.39-1.35.39-2.05v-14.46h6.665V1294h-1.611l-2.197-3.05Zm34.18 3.05h-1.612l-2.588-3.59c-.634.57-1.31 1.11-2.026 1.61-.7.49-1.44.92-2.222 1.3-.781.35-1.587.64-2.417.85-.814.21-1.644.32-2.49.32-1.839 0-3.573-.34-5.2-1.03a13.633 13.633 0 0 1-4.248-2.88c-1.205-1.23-2.157-2.69-2.857-4.37-.7-1.69-1.049-3.53-1.049-5.52 0-1.97.349-3.8 1.049-5.49.7-1.69 1.652-3.16 2.857-4.39a13.386 13.386 0 0 1 4.248-2.91c1.627-.7 3.361-1.05 5.2-1.05.586 0 1.188.05 1.807.15.634.1 1.245.26 1.831.49.602.21 1.163.49 1.684.85.521.36.961.8 1.319 1.32v-12.21h6.714V1294Zm-6.714-13.31c0-.91-.179-1.79-.537-2.63a7.141 7.141 0 0 0-1.416-2.27 6.77 6.77 0 0 0-2.124-1.59 5.527 5.527 0 0 0-2.564-.61 6.82 6.82 0 0 0-2.588.49c-.797.32-1.497.8-2.099 1.41-.586.61-1.05 1.35-1.392 2.23-.342.87-.513 1.87-.513 2.97 0 .96.171 1.88.513 2.74.342.86.806 1.62 1.392 2.27a6.846 6.846 0 0 0 2.099 1.54c.814.37 1.677.56 2.588.56s1.766-.2 2.564-.59c.813-.4 1.521-.93 2.124-1.58a7.74 7.74 0 0 0 1.416-2.27 6.92 6.92 0 0 0 .537-2.67Zm24.487-11.2c0-1.45.277-2.81.83-4.08a10.621 10.621 0 0 1 2.246-3.32c.96-.96 2.075-1.72 3.345-2.27 1.269-.55 2.628-.83 4.077-.83h16.064v7.01h-16.064c-.488 0-.944.09-1.367.27-.423.17-.798.43-1.123.75a3.474 3.474 0 0 0-1.001 2.47c0 .49.089.95.268 1.39.179.42.424.8.733 1.12.325.31.7.56 1.123.74.423.17.879.26 1.367.26h7.007c1.448 0 2.807.28 4.077.83 1.286.54 2.401 1.29 3.345 2.25.96.94 1.709 2.06 2.246 3.34.553 1.27.83 2.63.83 4.08 0 1.45-.277 2.81-.83 4.08a10.403 10.403 0 0 1-2.246 3.34c-.944.95-2.059 1.7-3.345 2.25-1.27.55-2.629.83-4.077.83h-15.552v-7.01h15.552c.488 0 .944-.09 1.367-.27.423-.17.789-.42 1.099-.73.325-.32.577-.7.757-1.12.179-.42.268-.88.268-1.37 0-.49-.089-.94-.268-1.37-.18-.42-.432-.78-.757-1.09-.31-.33-.676-.58-1.099-.76a3.456 3.456 0 0 0-1.367-.27h-7.007c-1.449 0-2.808-.28-4.077-.83-1.27-.55-2.385-1.3-3.345-2.25a10.948 10.948 0 0 1-2.246-3.34c-.553-1.29-.83-2.65-.83-4.1Zm57.178 11.2c0 1.96-.35 3.78-1.05 5.47-.7 1.68-1.652 3.14-2.857 4.37a13.674 13.674 0 0 1-4.248 2.91c-1.611.7-3.344 1.05-5.2 1.05-1.839 0-3.572-.35-5.2-1.05a14.082 14.082 0 0 1-4.248-2.91c-1.204-1.23-2.157-2.69-2.856-4.37-.7-1.69-1.05-3.51-1.05-5.47 0-1.98.35-3.82 1.05-5.51.699-1.7 1.652-3.15 2.856-4.37a13.397 13.397 0 0 1 4.248-2.91c1.628-.7 3.361-1.05 5.2-1.05 1.856 0 3.589.34 5.2 1 1.628.65 3.044 1.59 4.248 2.81 1.205 1.2 2.157 2.66 2.857 4.37.7 1.69 1.05 3.58 1.05 5.66Zm-6.714 0c0-1.07-.179-2.04-.537-2.9-.342-.88-.814-1.63-1.416-2.25a6.063 6.063 0 0 0-2.124-1.44 6.47 6.47 0 0 0-2.564-.51c-.911 0-1.774.17-2.588.51-.797.33-1.497.81-2.099 1.44-.586.62-1.05 1.37-1.392 2.25-.342.86-.513 1.83-.513 2.9 0 1.01.171 1.95.513 2.81.342.86.806 1.61 1.392 2.25a6.92 6.92 0 0 0 2.099 1.51c.814.36 1.677.54 2.588.54a6.47 6.47 0 0 0 2.564-.51 6.653 6.653 0 0 0 2.124-1.44c.602-.62 1.074-1.37 1.416-2.25.358-.88.537-1.85.537-2.91Zm17.114 13.31h-6.714v-36.55h6.714V1294Zm24.316-3.05c-.537.49-1.114.95-1.733 1.39-.602.42-1.237.8-1.904 1.12a11.7 11.7 0 0 1-2.075.74c-.7.19-1.416.29-2.149.29a12.05 12.05 0 0 1-4.541-.86 11.457 11.457 0 0 1-3.735-2.41c-1.058-1.06-1.896-2.34-2.515-3.84-.602-1.51-.903-3.2-.903-5.07v-14.46h6.64v14.46c0 .87.131 1.66.391 2.36.277.69.643 1.27 1.099 1.74.455.47.984.83 1.587 1.07.618.25 1.277.37 1.977.37.684 0 1.327-.16 1.929-.47a5.339 5.339 0 0 0 1.611-1.27c.456-.52.814-1.1 1.074-1.75a5.59 5.59 0 0 0 .391-2.05v-14.46h6.665V1294h-1.611l-2.198-3.05Zm22.022 3.05c-1.611 0-3.125-.3-4.541-.9a12.274 12.274 0 0 1-3.735-2.52 12.26 12.26 0 0 1-2.515-3.73 11.498 11.498 0 0 1-.903-4.54v-7.77h-3.247v-6.64h3.247v-10.45h6.64v10.45h10.108v6.64h-10.108v7.77c0 .7.13 1.35.391 1.97.26.61.618 1.13 1.074 1.59.456.46.993.82 1.611 1.1.619.26 1.278.39 1.978.39h5.054v6.64h-5.054Zm16.675-33.25c0 .62-.122 1.19-.366 1.73a4.451 4.451 0 0 1-.953 1.42 4.85 4.85 0 0 1-1.44.95c-.537.23-1.115.34-1.733.34-.619 0-1.205-.11-1.758-.34a4.956 4.956 0 0 1-1.416-.95 5.045 5.045 0 0 1-.952-1.42 4.378 4.378 0 0 1-.342-1.73c0-.6.114-1.17.342-1.71a4.65 4.65 0 0 1 .952-1.42c.407-.4.879-.72 1.416-.95a4.377 4.377 0 0 1 1.758-.37c.618 0 1.196.13 1.733.37.553.23 1.034.55 1.44.95.407.39.725.87.953 1.42.244.54.366 1.11.366 1.71Zm-1.148 33.25h-6.714v-26.15h6.714V1294Zm30.367-13.31c0 1.96-.35 3.78-1.05 5.47-.7 1.68-1.65 3.14-2.85 4.37a13.73 13.73 0 0 1-4.25 2.91c-1.611.7-3.345 1.05-5.2 1.05-1.839 0-3.573-.35-5.2-1.05a14.058 14.058 0 0 1-4.248-2.91c-1.205-1.23-2.157-2.69-2.857-4.37-.7-1.69-1.05-3.51-1.05-5.47 0-1.98.35-3.82 1.05-5.51.7-1.7 1.652-3.15 2.857-4.37a13.375 13.375 0 0 1 4.248-2.91c1.627-.7 3.361-1.05 5.2-1.05 1.855 0 3.589.34 5.2 1 1.63.65 3.04 1.59 4.25 2.81 1.2 1.2 2.15 2.66 2.85 4.37.7 1.69 1.05 3.58 1.05 5.66Zm-6.71 0c0-1.07-.18-2.04-.54-2.9a6.553 6.553 0 0 0-1.413-2.25 6.045 6.045 0 0 0-2.124-1.44 6.465 6.465 0 0 0-2.563-.51c-.912 0-1.774.17-2.588.51-.797.33-1.497.81-2.1 1.44-.586.62-1.049 1.37-1.391 2.25-.342.86-.513 1.83-.513 2.9 0 1.01.171 1.95.513 2.81.342.86.805 1.61 1.391 2.25a6.936 6.936 0 0 0 2.1 1.51c.814.36 1.676.54 2.588.54.911 0 1.766-.17 2.563-.51a6.63 6.63 0 0 0 2.124-1.44 6.553 6.553 0 0 0 1.413-2.25c.36-.88.54-1.85.54-2.91Zm17.07 13.31h-6.67v-26.15h1.61l2.2 2.54c1.07-.97 2.29-1.72 3.64-2.24 1.36-.54 2.79-.81 4.27-.81 1.59 0 3.1.31 4.52.93 1.41.6 2.65 1.44 3.71 2.51 1.06 1.06 1.89 2.31 2.49 3.74.62 1.41.93 2.93.93 4.54V1294h-6.67v-14.94c0-.68-.13-1.33-.39-1.93-.26-.62-.62-1.16-1.07-1.61a5.09 5.09 0 0 0-1.59-1.08c-.6-.26-1.25-.39-1.93-.39-.7 0-1.36.13-1.98.39a4.956 4.956 0 0 0-2.68 2.69c-.26.6-.39 1.25-.39 1.93V1294Zm35.81 0h-15.23v-6.64h15.23c.46 0 .85-.16 1.17-.49.33-.32.49-.72.49-1.17 0-.47-.16-.78-.49-.93-.32-.15-.71-.22-1.17-.22h-6.93c-1.16 0-2.24-.22-3.25-.66a8.473 8.473 0 0 1-2.64-1.78 8.865 8.865 0 0 1-1.78-2.66 8.367 8.367 0 0 1-.63-3.25c0-1.15.21-2.24.63-3.24a8.648 8.648 0 0 1 1.78-2.64 8.09 8.09 0 0 1 2.64-1.76c1.01-.44 2.09-.66 3.25-.66h13.5v6.64h-13.5c-.46 0-.85.16-1.17.49-.33.33-.49.72-.49 1.17 0 .47.16.88.49 1.22.32.33.71.49 1.17.49h6.93c1.14 0 2.21.2 3.22.59 1.01.37 1.89.9 2.64 1.58.75.69 1.34 1.51 1.78 2.47.44.96.66 2.01.66 3.15 0 1.15-.22 2.24-.66 3.25a8.79 8.79 0 0 1-1.78 2.63 8.5 8.5 0 0 1-2.64 1.79 8.29 8.29 0 0 1-3.22.63Z" fill="#006FAD"/><rect x="218.5" y="1237.5" width="877" height="77" rx="5.5" stroke="#00507E"/><path d="M323.137 1423.4c0 4.64-.616 9.13-1.846 13.46a51.305 51.305 0 0 1-5.059 12.1 50.565 50.565 0 0 1-7.929 10.26 52.435 52.435 0 0 1-10.254 7.99c-3.737 2.19-7.77 3.88-12.1 5.06-4.329 1.23-8.818 1.85-13.467 1.85-4.648 0-9.137-.62-13.466-1.85a51.173 51.173 0 0 1-12.1-5.06 52.435 52.435 0 0 1-10.254-7.99 52.606 52.606 0 0 1-7.998-10.26 53.54 53.54 0 0 1-5.127-12.1c-1.185-4.33-1.777-8.82-1.777-13.46 0-4.65.592-9.14 1.777-13.47 1.231-4.33 2.94-8.36 5.127-12.1a52.543 52.543 0 0 1 7.998-10.25 50.304 50.304 0 0 1 10.254-7.93 51.173 51.173 0 0 1 12.1-5.06c4.329-1.23 8.818-1.85 13.466-1.85 4.649 0 9.138.62 13.467 1.85 4.33 1.18 8.363 2.87 12.1 5.06a50.304 50.304 0 0 1 10.254 7.93 50.504 50.504 0 0 1 7.929 10.25c2.188 3.74 3.874 7.77 5.059 12.1 1.23 4.33 1.846 8.82 1.846 13.47Zm-19.483 0c0-4.29-.82-8.32-2.461-12.1-1.64-3.83-3.873-7.14-6.699-9.92-2.78-2.82-6.084-5.05-9.912-6.69-3.783-1.65-7.816-2.47-12.1-2.47-4.329 0-8.385.82-12.168 2.47-3.782 1.64-7.086 3.87-9.912 6.69-2.825 2.78-5.058 6.09-6.699 9.92-1.641 3.78-2.461 7.81-2.461 12.1 0 4.28.82 8.31 2.461 12.1 1.641 3.73 3.874 7.01 6.699 9.84 2.826 2.83 6.13 5.06 9.912 6.7 3.783 1.64 7.839 2.46 12.168 2.46 4.284 0 8.317-.82 12.1-2.46 3.828-1.64 7.132-3.87 9.912-6.7 2.826-2.83 5.059-6.11 6.699-9.84 1.641-3.79 2.461-7.82 2.461-12.1Zm84.219 40.06a53.013 53.013 0 0 1-4.853 3.89 39.454 39.454 0 0 1-5.332 3.15 32.97 32.97 0 0 1-5.811 2.05c-1.96.54-3.965.82-6.016.82-4.511 0-8.75-.8-12.715-2.4-3.964-1.59-7.451-3.85-10.458-6.76-2.963-2.97-5.31-6.54-7.042-10.74-1.686-4.23-2.529-8.97-2.529-14.21v-40.47h18.594v40.47c0 2.46.365 4.67 1.094 6.63.774 1.91 1.8 3.53 3.076 4.85a12.915 12.915 0 0 0 4.443 3.01c1.732.68 3.578 1.02 5.537 1.02 1.914 0 3.715-.43 5.401-1.3a15.526 15.526 0 0 0 4.511-3.55 17.06 17.06 0 0 0 3.008-4.92 15.665 15.665 0 0 0 1.094-5.74v-40.47h18.662V1472h-4.512l-6.152-8.54Zm43.613 8.54h-18.662v-73.21h4.512l6.152 8.68c3.008-2.74 6.426-4.83 10.254-6.29a32.334 32.334 0 0 1 11.895-2.26h16.474v18.6h-16.474c-1.96 0-3.806.36-5.537 1.09-1.732.73-3.236 1.73-4.512 3.01a14.03 14.03 0 0 0-3.008 4.51c-.729 1.73-1.094 3.58-1.094 5.54V1472Zm97.344 27.89h-18.799v-101.1h4.512l7.451 8.82a49.97 49.97 0 0 1 5.537-4.52 40.873 40.873 0 0 1 6.221-3.62 36.142 36.142 0 0 1 6.768-2.46c2.324-.59 4.671-.89 7.041-.89 5.149 0 9.98.94 14.492 2.8 4.557 1.83 8.522 4.42 11.894 7.8 3.418 3.37 6.107 7.45 8.067 12.23 1.959 4.74 2.939 10.01 2.939 15.79 0 6.02-.98 11.44-2.939 16.27-1.96 4.79-4.649 8.87-8.067 12.24-3.372 3.33-7.337 5.88-11.894 7.66-4.512 1.77-9.343 2.66-14.492 2.66-1.641 0-3.282-.18-4.922-.54-1.595-.37-3.19-.85-4.785-1.44a68.338 68.338 0 0 1-4.649-2.12 94.68 94.68 0 0 1-4.375-2.39v32.81Zm37.393-65.15c0-3.09-.502-5.87-1.504-8.34-.957-2.46-2.279-4.53-3.965-6.22a17.026 17.026 0 0 0-5.947-3.96c-2.279-.91-4.694-1.37-7.246-1.37-2.553 0-4.968.46-7.247 1.37a17.172 17.172 0 0 0-5.878 3.96c-1.687 1.69-3.031 3.76-4.034 6.22-.957 2.47-1.435 5.25-1.435 8.34 0 2.97.478 5.68 1.435 8.14 1.003 2.46 2.347 4.56 4.034 6.29a18.105 18.105 0 0 0 5.878 4.03c2.279.96 4.694 1.44 7.247 1.44 2.552 0 4.967-.48 7.246-1.44 2.278-.96 4.261-2.3 5.947-4.03 1.686-1.73 3.008-3.83 3.965-6.29 1.002-2.46 1.504-5.17 1.504-8.14ZM666.232 1472h-4.511l-7.246-10.05a60.44 60.44 0 0 1-5.674 4.51 44.266 44.266 0 0 1-6.221 3.63c-2.187 1-4.443 1.8-6.768 2.39a27.7 27.7 0 0 1-6.972.89c-5.15 0-10.003-.87-14.561-2.6-4.511-1.73-8.476-4.24-11.894-7.52-3.373-3.33-6.039-7.38-7.998-12.17-1.96-4.78-2.94-10.23-2.94-16.34 0-5.69.98-10.91 2.94-15.65 1.959-4.79 4.625-8.89 7.998-12.3a36.127 36.127 0 0 1 11.894-7.93c4.558-1.92 9.411-2.88 14.561-2.88 2.37 0 4.717.3 7.041.89 2.324.6 4.58 1.42 6.767 2.46a40.222 40.222 0 0 1 6.221 3.7 48.78 48.78 0 0 1 5.606 4.58l7.246-8.69h4.511V1472Zm-18.798-37.26c0-2.55-.502-5.01-1.504-7.38-.957-2.41-2.279-4.53-3.965-6.36a19.087 19.087 0 0 0-5.947-4.44c-2.233-1.14-4.626-1.71-7.178-1.71-2.552 0-4.968.43-7.246 1.3a16.834 16.834 0 0 0-5.879 3.83c-1.641 1.68-2.94 3.78-3.897 6.29-.957 2.46-1.435 5.28-1.435 8.47 0 3.19.478 6.04 1.435 8.55.957 2.46 2.256 4.53 3.897 6.22a16.834 16.834 0 0 0 5.879 3.83c2.278.86 4.694 1.3 7.246 1.3 2.552 0 4.945-.55 7.178-1.64 2.278-1.14 4.261-2.62 5.947-4.45a21.318 21.318 0 0 0 3.965-6.35c1.002-2.42 1.504-4.9 1.504-7.46Zm73.281 37.26h-42.656v-18.59h42.656c1.276 0 2.37-.46 3.281-1.37.912-.91 1.367-2.01 1.367-3.28 0-1.32-.455-2.19-1.367-2.6-.911-.41-2.005-.62-3.281-.62h-19.414c-3.236 0-6.266-.61-9.092-1.84-2.826-1.23-5.286-2.89-7.383-4.99-2.096-2.14-3.76-4.63-4.99-7.45-1.185-2.83-1.777-5.86-1.777-9.09 0-3.24.592-6.27 1.777-9.1 1.23-2.82 2.894-5.28 4.99-7.38a22.806 22.806 0 0 1 7.383-4.92c2.826-1.23 5.856-1.85 9.092-1.85h37.803v18.6h-37.803c-1.276 0-2.37.45-3.281 1.36-.912.92-1.368 2.01-1.368 3.29 0 1.32.456 2.46 1.368 3.41.911.92 2.005 1.37 3.281 1.37h19.414c3.19 0 6.198.55 9.023 1.64 2.826 1.05 5.287 2.53 7.383 4.45 2.096 1.91 3.76 4.21 4.99 6.9 1.231 2.69 1.846 5.63 1.846 8.82 0 3.23-.615 6.26-1.846 9.09a24.79 24.79 0 0 1-4.99 7.38c-2.096 2.1-4.557 3.76-7.383 4.99-2.825 1.19-5.833 1.78-9.023 1.78Zm73.418 0h-42.656v-18.59h42.656c1.276 0 2.37-.46 3.281-1.37.912-.91 1.367-2.01 1.367-3.28 0-1.32-.455-2.19-1.367-2.6-.911-.41-2.005-.62-3.281-.62h-19.414c-3.236 0-6.267-.61-9.092-1.84-2.826-1.23-5.287-2.89-7.383-4.99-2.096-2.14-3.76-4.63-4.99-7.45-1.185-2.83-1.777-5.86-1.777-9.09 0-3.24.592-6.27 1.777-9.1 1.23-2.82 2.894-5.28 4.99-7.38a22.795 22.795 0 0 1 7.383-4.92c2.825-1.23 5.856-1.85 9.092-1.85h37.802v18.6h-37.802c-1.276 0-2.37.45-3.281 1.36-.912.92-1.368 2.01-1.368 3.29 0 1.32.456 2.46 1.368 3.41.911.92 2.005 1.37 3.281 1.37h19.414c3.19 0 6.198.55 9.023 1.64 2.826 1.05 5.287 2.53 7.383 4.45 2.096 1.91 3.76 4.21 4.99 6.9 1.231 2.69 1.846 5.63 1.846 8.82 0 3.23-.615 6.26-1.846 9.09a24.79 24.79 0 0 1-4.99 7.38c-2.096 2.1-4.557 3.76-7.383 4.99-2.825 1.19-5.833 1.78-9.023 1.78Zm55.234-93.11c0 1.74-.342 3.35-1.025 4.86a12.434 12.434 0 0 1-2.666 3.96c-1.14 1.1-2.484 1.99-4.033 2.67-1.504.64-3.122.96-4.854.96-1.732 0-3.372-.32-4.922-.96a13.908 13.908 0 0 1-3.965-2.67 14.159 14.159 0 0 1-2.666-3.96c-.638-1.51-.957-3.12-.957-4.86 0-1.68.319-3.28.957-4.78.684-1.55 1.573-2.87 2.666-3.97a12.577 12.577 0 0 1 3.965-2.66c1.55-.69 3.19-1.03 4.922-1.03 1.732 0 3.35.34 4.854 1.03 1.549.64 2.893 1.53 4.033 2.66 1.139 1.1 2.028 2.42 2.666 3.97.683 1.5 1.025 3.1 1.025 4.78Zm-3.213 93.11h-18.799v-73.21h18.799V1472Zm85.039-37.26c0 5.47-.979 10.58-2.939 15.32-1.96 4.69-4.626 8.77-7.998 12.23-3.373 3.42-7.337 6.13-11.895 8.14-4.511 1.96-9.365 2.94-14.56 2.94-5.15 0-10.003-.98-14.561-2.94-4.511-2.01-8.476-4.72-11.894-8.14-3.373-3.46-6.039-7.54-7.998-12.23-1.96-4.74-2.94-9.85-2.94-15.32 0-5.56.98-10.71 2.94-15.45 1.959-4.73 4.625-8.81 7.998-12.23a37.672 37.672 0 0 1 11.894-8.14c4.558-1.96 9.411-2.94 14.561-2.94 5.195 0 10.049.94 14.56 2.81 4.558 1.82 8.522 4.44 11.895 7.86 3.372 3.37 6.038 7.45 7.998 12.23 1.96 4.74 2.939 10.03 2.939 15.86Zm-18.798 0c0-3-.502-5.72-1.504-8.13-.957-2.46-2.279-4.56-3.965-6.29a16.545 16.545 0 0 0-5.947-4.03c-2.234-.96-4.626-1.44-7.178-1.44-2.552 0-4.968.48-7.246 1.44a16.684 16.684 0 0 0-5.879 4.03c-1.641 1.73-2.94 3.83-3.897 6.29-.957 2.41-1.435 5.13-1.435 8.13 0 2.83.478 5.45 1.435 7.87.957 2.41 2.256 4.51 3.897 6.28a19.373 19.373 0 0 0 5.879 4.24c2.278 1.01 4.694 1.51 7.246 1.51 2.552 0 4.944-.48 7.178-1.44 2.278-.96 4.261-2.3 5.947-4.03 1.686-1.73 3.008-3.83 3.965-6.29 1.002-2.46 1.504-5.17 1.504-8.14Zm47.783 37.26h-18.662v-73.21h4.511l6.153 7.11a32.215 32.215 0 0 1 10.185-6.29 32.31 32.31 0 0 1 11.963-2.26c4.466 0 8.682.87 12.647 2.6 3.964 1.69 7.428 4.03 10.39 7.04 2.965 2.96 5.285 6.45 6.975 10.46 1.73 3.96 2.6 8.2 2.6 12.71V1472h-18.667v-41.84c0-1.91-.364-3.71-1.093-5.4a14.03 14.03 0 0 0-3.008-4.51 14.306 14.306 0 0 0-4.443-3.01c-1.687-.73-3.487-1.09-5.401-1.09-1.96 0-3.805.36-5.537 1.09a14.093 14.093 0 0 0-4.512 3.01 14.047 14.047 0 0 0-3.008 4.51c-.729 1.69-1.093 3.49-1.093 5.4V1472Zm83.052-6.97c0 1.64-.29 3.19-.88 4.65-.6 1.41-1.42 2.64-2.47 3.69a11.156 11.156 0 0 1-3.69 2.46c-1.41.64-2.94.96-4.58.96a11.3 11.3 0 0 1-4.58-.96c-1.41-.59-2.66-1.41-3.76-2.46a12.606 12.606 0 0 1-2.53-3.69c-.59-1.46-.88-3.01-.88-4.65 0-1.6.29-3.1.88-4.51.64-1.42 1.49-2.65 2.53-3.7 1.1-1.04 2.35-1.86 3.76-2.46 1.46-.63 2.99-.95 4.58-.95 1.64 0 3.17.32 4.58.95 1.42.6 2.65 1.42 3.69 2.46 1.05 1.05 1.87 2.28 2.47 3.7.59 1.41.88 2.91.88 4.51ZM271.184 1646h-19.551v-30.69c-4.33-1.1-8.317-2.85-11.963-5.27-3.6-2.41-6.699-5.28-9.297-8.61a40.736 40.736 0 0 1-6.084-11.14c-1.413-4.1-2.119-8.41-2.119-12.92v-29.4h19.619v29.4c0 2.69.501 5.24 1.504 7.65 1.048 2.37 2.461 4.45 4.238 6.22 1.778 1.78 3.851 3.19 6.221 4.24 2.415 1.01 4.967 1.51 7.656 1.51s5.218-.5 7.588-1.51c2.415-1.05 4.512-2.46 6.289-4.24 1.777-1.77 3.167-3.85 4.17-6.22 1.048-2.41 1.572-4.96 1.572-7.65v-29.4h19.551v29.4c0 4.51-.729 8.82-2.187 12.92a39.377 39.377 0 0 1-6.016 11.14c-2.598 3.33-5.697 6.2-9.297 8.61-3.6 2.42-7.565 4.17-11.894 5.27V1646Zm108.623-37.26c0 5.47-.98 10.58-2.94 15.32-1.959 4.69-4.625 8.77-7.998 12.23-3.372 3.42-7.337 6.13-11.894 8.14-4.512 1.96-9.366 2.94-14.561 2.94-5.15 0-10.003-.98-14.56-2.94-4.512-2.01-8.477-4.72-11.895-8.14-3.372-3.46-6.038-7.54-7.998-12.23-1.96-4.74-2.94-9.85-2.94-15.32 0-5.56.98-10.71 2.94-15.45 1.96-4.73 4.626-8.81 7.998-12.23a37.665 37.665 0 0 1 11.895-8.14c4.557-1.96 9.41-2.94 14.56-2.94 5.195 0 10.049.94 14.561 2.81 4.557 1.82 8.522 4.44 11.894 7.86 3.373 3.37 6.039 7.45 7.998 12.23 1.96 4.74 2.94 10.03 2.94 15.86Zm-18.799 0c0-3-.501-5.72-1.504-8.13-.957-2.46-2.279-4.56-3.965-6.29a16.545 16.545 0 0 0-5.947-4.03c-2.233-.96-4.626-1.44-7.178-1.44-2.552 0-4.967.48-7.246 1.44a16.684 16.684 0 0 0-5.879 4.03c-1.641 1.73-2.939 3.83-3.896 6.29-.957 2.41-1.436 5.13-1.436 8.13 0 2.83.479 5.45 1.436 7.87.957 2.41 2.255 4.51 3.896 6.28a19.373 19.373 0 0 0 5.879 4.24c2.279 1.01 4.694 1.51 7.246 1.51 2.552 0 4.945-.48 7.178-1.44 2.278-.96 4.261-2.3 5.947-4.03 1.686-1.73 3.008-3.83 3.965-6.29 1.003-2.46 1.504-5.17 1.504-8.14Zm82.92 28.72a52.893 52.893 0 0 1-4.854 3.89 39.331 39.331 0 0 1-5.332 3.15 32.93 32.93 0 0 1-5.81 2.05c-1.96.54-3.965.82-6.016.82-4.512 0-8.75-.8-12.715-2.4-3.965-1.59-7.451-3.85-10.459-6.76-2.962-2.97-5.309-6.54-7.041-10.74-1.686-4.23-2.529-8.97-2.529-14.21v-40.47h18.594v40.47c0 2.46.364 4.67 1.093 6.63.775 1.91 1.801 3.53 3.077 4.85a12.915 12.915 0 0 0 4.443 3.01c1.732.68 3.577 1.02 5.537 1.02 1.914 0 3.714-.43 5.4-1.3a15.517 15.517 0 0 0 4.512-3.55 17.06 17.06 0 0 0 3.008-4.92 15.665 15.665 0 0 0 1.094-5.74v-40.47h18.662V1646h-4.512l-6.152-8.54Zm43.613 8.54h-18.662v-73.21h4.512l6.152 8.68c3.008-2.74 6.426-4.83 10.254-6.29a32.333 32.333 0 0 1 11.894-2.26h16.475v18.6h-16.475c-1.959 0-3.805.36-5.537 1.09-1.731.73-3.235 1.73-4.511 3.01a14.03 14.03 0 0 0-3.008 4.51c-.729 1.73-1.094 3.58-1.094 5.54V1646Zm118.74 0h-42.656v-18.59h42.656c1.276 0 2.37-.46 3.281-1.37.912-.91 1.368-2.01 1.368-3.28 0-1.32-.456-2.19-1.368-2.6-.911-.41-2.005-.62-3.281-.62h-19.414c-3.235 0-6.266-.61-9.092-1.84-2.825-1.23-5.286-2.89-7.382-4.99-2.097-2.14-3.76-4.63-4.991-7.45-1.185-2.83-1.777-5.86-1.777-9.09 0-3.24.592-6.27 1.777-9.1 1.231-2.82 2.894-5.28 4.991-7.38a22.801 22.801 0 0 1 7.382-4.92c2.826-1.23 5.857-1.85 9.092-1.85h37.803v18.6h-37.803c-1.276 0-2.37.45-3.281 1.36-.912.92-1.367 2.01-1.367 3.29 0 1.32.455 2.46 1.367 3.41.911.92 2.005 1.37 3.281 1.37h19.414c3.19 0 6.198.55 9.024 1.64 2.825 1.05 5.286 2.53 7.383 4.45 2.096 1.91 3.759 4.21 4.99 6.9 1.23 2.69 1.845 5.63 1.845 8.82 0 3.23-.615 6.26-1.845 9.09a24.81 24.81 0 0 1-4.99 7.38c-2.097 2.1-4.558 3.76-7.383 4.99-2.826 1.19-5.834 1.78-9.024 1.78Zm87.022-8.54a52.893 52.893 0 0 1-4.854 3.89 39.331 39.331 0 0 1-5.332 3.15 32.93 32.93 0 0 1-5.81 2.05c-1.96.54-3.965.82-6.016.82-4.512 0-8.75-.8-12.715-2.4-3.965-1.59-7.451-3.85-10.459-6.76-2.962-2.97-5.309-6.54-7.041-10.74-1.686-4.23-2.529-8.97-2.529-14.21v-40.47h18.594v40.47c0 2.46.364 4.67 1.093 6.63.775 1.91 1.801 3.53 3.077 4.85a12.915 12.915 0 0 0 4.443 3.01c1.732.68 3.577 1.02 5.537 1.02 1.914 0 3.714-.43 5.4-1.3a15.517 15.517 0 0 0 4.512-3.55 17.06 17.06 0 0 0 3.008-4.92 15.665 15.665 0 0 0 1.094-5.74v-40.47h18.662V1646h-4.512l-6.152-8.54Zm88.935-50.11-13.672 13.74c-.683-1.92-1.617-3.63-2.802-5.13-1.185-1.55-2.53-2.85-4.034-3.9a17.11 17.11 0 0 0-4.785-2.39 17.502 17.502 0 0 0-5.332-.82c-2.552 0-4.967.53-7.246 1.57-2.233 1.05-4.193 2.53-5.879 4.45-1.64 1.87-2.939 4.1-3.896 6.7-.957 2.59-1.436 5.47-1.436 8.61 0 2.55.479 4.94 1.436 7.18a19.276 19.276 0 0 0 3.896 5.88c1.686 1.68 3.646 3 5.879 3.96 2.279.96 4.694 1.44 7.246 1.44 1.823 0 3.578-.25 5.264-.76 1.686-.5 3.258-1.2 4.717-2.11 1.504-.96 2.825-2.1 3.965-3.42a18.116 18.116 0 0 0 2.871-4.51l13.672 13.74a36.19 36.19 0 0 1-6.016 6.63 36.486 36.486 0 0 1-7.315 4.99 34.785 34.785 0 0 1-8.271 3.07c-2.871.73-5.833 1.1-8.887 1.1-5.149 0-10.003-.96-14.56-2.87-4.512-1.96-8.477-4.63-11.895-8-3.372-3.37-6.038-7.32-7.998-11.83-1.959-4.51-2.939-9.34-2.939-14.49 0-5.61.98-10.85 2.939-15.72 1.96-4.88 4.626-9.12 7.998-12.72a38.404 38.404 0 0 1 11.895-8.61c4.557-2.1 9.411-3.15 14.56-3.15 3.054 0 6.039.39 8.955 1.17 2.963.77 5.765 1.91 8.409 3.41a34.264 34.264 0 0 1 7.382 5.4 33.479 33.479 0 0 1 5.879 7.39Zm72.051 0-13.672 13.74c-.683-1.92-1.618-3.63-2.803-5.13-1.184-1.55-2.529-2.85-4.033-3.9a17.11 17.11 0 0 0-4.785-2.39 17.507 17.507 0 0 0-5.332-.82c-2.552 0-4.967.53-7.246 1.57-2.233 1.05-4.193 2.53-5.879 4.45-1.641 1.87-2.939 4.1-3.896 6.7-.957 2.59-1.436 5.47-1.436 8.61 0 2.55.479 4.94 1.436 7.18a19.258 19.258 0 0 0 3.896 5.88c1.686 1.68 3.646 3 5.879 3.96 2.279.96 4.694 1.44 7.246 1.44 1.823 0 3.578-.25 5.264-.76 1.686-.5 3.258-1.2 4.717-2.11 1.503-.96 2.825-2.1 3.964-3.42a18.087 18.087 0 0 0 2.871-4.51l13.672 13.74a36.184 36.184 0 0 1-6.015 6.63 36.514 36.514 0 0 1-7.315 4.99 34.801 34.801 0 0 1-8.271 3.07c-2.871.73-5.834 1.1-8.887 1.1-5.15 0-10.003-.96-14.56-2.87-4.512-1.96-8.477-4.63-11.895-8-3.372-3.37-6.038-7.32-7.998-11.83s-2.94-9.34-2.94-14.49c0-5.61.98-10.85 2.94-15.72 1.96-4.88 4.626-9.12 7.998-12.72a38.404 38.404 0 0 1 11.895-8.61c4.557-2.1 9.41-3.15 14.56-3.15 3.053 0 6.038.39 8.955 1.17 2.962.77 5.765 1.91 8.408 3.41a34.245 34.245 0 0 1 7.383 5.4 33.508 33.508 0 0 1 5.879 7.39Zm37.188 40.74c.729.23 1.458.39 2.187.48.729.04 1.458.07 2.188.07 1.822 0 3.577-.25 5.263-.76 1.686-.5 3.259-1.2 4.717-2.11a17.98 17.98 0 0 0 3.965-3.42 18.087 18.087 0 0 0 2.871-4.51l13.672 13.74a36.19 36.19 0 0 1-6.016 6.63 36.507 36.507 0 0 1-7.314 4.99 34.809 34.809 0 0 1-8.272 3.07 35.92 35.92 0 0 1-8.886 1.1c-5.15 0-10.004-.96-14.561-2.87-4.512-1.92-8.477-4.58-11.895-8-3.372-3.42-6.038-7.48-7.998-12.17-1.959-4.74-2.939-9.93-2.939-15.59 0-5.78.98-11.07 2.939-15.86 1.96-4.78 4.626-8.86 7.998-12.23 3.418-3.37 7.383-5.99 11.895-7.86 4.557-1.87 9.411-2.81 14.561-2.81 3.053 0 6.038.37 8.955 1.1 2.916.73 5.673 1.78 8.271 3.14a36.946 36.946 0 0 1 7.383 5.06 36.19 36.19 0 0 1 6.016 6.63l-35 42.18Zm9.57-38.49c-.866-.32-1.732-.52-2.598-.61-.82-.09-1.686-.14-2.597-.14-2.553 0-4.968.48-7.247 1.44a17.172 17.172 0 0 0-5.878 3.96c-1.641 1.73-2.94 3.83-3.897 6.29-.957 2.42-1.435 5.15-1.435 8.2 0 .69.022 1.46.068 2.33.091.86.205 1.75.342 2.66.182.87.387 1.71.615 2.53.228.82.524 1.55.889 2.19l21.738-28.85Zm75.058 56.4h-42.656v-18.59h42.656c1.277 0 2.37-.46 3.282-1.37.911-.91 1.367-2.01 1.367-3.28 0-1.32-.456-2.19-1.367-2.6-.912-.41-2.005-.62-3.282-.62h-19.414c-3.235 0-6.266-.61-9.091-1.84-2.826-1.23-5.287-2.89-7.383-4.99-2.097-2.14-3.76-4.63-4.99-7.45-1.185-2.83-1.778-5.86-1.778-9.09 0-3.24.593-6.27 1.778-9.1 1.23-2.82 2.893-5.28 4.99-7.38a22.795 22.795 0 0 1 7.383-4.92c2.825-1.23 5.856-1.85 9.091-1.85h37.803v18.6h-37.803c-1.276 0-2.369.45-3.281 1.36-.911.92-1.367 2.01-1.367 3.29 0 1.32.456 2.46 1.367 3.41.912.92 2.005 1.37 3.281 1.37h19.414c3.191 0 6.198.55 9.024 1.64 2.825 1.05 5.286 2.53 7.383 4.45 2.096 1.91 3.759 4.21 4.99 6.9 1.23 2.69 1.846 5.63 1.846 8.82 0 3.23-.616 6.26-1.846 9.09a24.81 24.81 0 0 1-4.99 7.38c-2.097 2.1-4.558 3.76-7.383 4.99-2.826 1.19-5.833 1.78-9.024 1.78Zm73.415 0h-42.65v-18.59h42.65c1.28 0 2.37-.46 3.28-1.37.92-.91 1.37-2.01 1.37-3.28 0-1.32-.45-2.19-1.37-2.6-.91-.41-2-.62-3.28-.62h-19.41c-3.24 0-6.27-.61-9.09-1.84-2.83-1.23-5.29-2.89-7.39-4.99-2.09-2.14-3.75-4.63-4.99-7.45-1.18-2.83-1.77-5.86-1.77-9.09 0-3.24.59-6.27 1.77-9.1 1.24-2.82 2.9-5.28 4.99-7.38 2.1-2.09 4.56-3.74 7.39-4.92 2.82-1.23 5.85-1.85 9.09-1.85h37.8v18.6h-37.8c-1.28 0-2.37.45-3.28 1.36-.91.92-1.37 2.01-1.37 3.29 0 1.32.46 2.46 1.37 3.41.91.92 2 1.37 3.28 1.37h19.41c3.19 0 6.2.55 9.03 1.64 2.82 1.05 5.28 2.53 7.38 4.45 2.1 1.91 3.76 4.21 4.99 6.9 1.23 2.69 1.85 5.63 1.85 8.82 0 3.23-.62 6.26-1.85 9.09a24.716 24.716 0 0 1-4.99 7.38c-2.1 2.1-4.56 3.76-7.38 4.99-2.83 1.19-5.84 1.78-9.03 1.78Zm52.98-24.2h-15.24l-4.17-73.83h23.65l-4.24 73.83Zm4.1 17.23c0 1.64-.32 3.19-.95 4.65-.6 1.41-1.42 2.64-2.46 3.69a11.302 11.302 0 0 1-3.7 2.46c-1.41.64-2.91.96-4.51.96-1.64 0-3.16-.32-4.58-.96-1.41-.59-2.66-1.41-3.76-2.46a12.417 12.417 0 0 1-2.53-3.69c-.59-1.46-.89-3.01-.89-4.65 0-1.6.3-3.1.89-4.51.64-1.42 1.48-2.65 2.53-3.7 1.1-1.04 2.35-1.86 3.76-2.46 1.42-.63 2.94-.95 4.58-.95 1.6 0 3.1.32 4.51.95 1.42.6 2.65 1.42 3.7 2.46 1.04 1.05 1.86 2.28 2.46 3.7.63 1.41.95 2.91.95 4.51Z" fill="#000"/><rect x="218" y="1731" width="354" height="139" rx="11" fill="#006FAD"/><path d="M279.436 1793.59c0-1.74.332-3.37.996-4.9a12.8 12.8 0 0 1 2.695-3.98 13.073 13.073 0 0 1 4.014-2.73c1.523-.66 3.154-.99 4.892-.99h19.278v8.41h-19.278c-.586 0-1.133.1-1.64.32a4.148 4.148 0 0 0-2.227 2.23 4.12 4.12 0 0 0-.322 1.64c0 .58.107 1.14.322 1.67.215.5.508.95.879 1.34.391.37.84.67 1.348.88a4.07 4.07 0 0 0 1.64.32h8.408c1.739 0 3.37.34 4.893 1 1.543.65 2.881 1.54 4.014 2.7a12.101 12.101 0 0 1 2.695 4.01c.664 1.52.996 3.15.996 4.89 0 1.74-.332 3.37-.996 4.89a12.458 12.458 0 0 1-2.695 4.02 12.694 12.694 0 0 1-4.014 2.69c-1.523.67-3.154 1-4.893 1h-18.662v-8.41h18.662c.586 0 1.133-.11 1.641-.32.508-.22.947-.51 1.318-.88.391-.39.694-.84.909-1.35.214-.5.322-1.05.322-1.64 0-.58-.108-1.13-.322-1.64a3.858 3.858 0 0 0-.909-1.32 3.8 3.8 0 0 0-1.318-.9 4.084 4.084 0 0 0-1.641-.33h-8.408c-1.738 0-3.369-.33-4.892-.99a13.347 13.347 0 0 1-4.014-2.7 13.174 13.174 0 0 1-2.695-4.01 12.363 12.363 0 0 1-.996-4.92Zm50.771 21.73c.313.1.625.17.938.21.312.02.625.03.937.03a8.05 8.05 0 0 0 2.256-.32 8.423 8.423 0 0 0 2.021-.91 7.59 7.59 0 0 0 1.7-1.47 7.67 7.67 0 0 0 1.23-1.93l5.859 5.89a15.62 15.62 0 0 1-2.578 2.84 15.79 15.79 0 0 1-3.134 2.14 15.451 15.451 0 0 1-3.545 1.32c-1.231.31-2.5.47-3.809.47-2.207 0-4.287-.41-6.24-1.23a16.022 16.022 0 0 1-5.098-3.43c-1.445-1.47-2.588-3.21-3.428-5.22-.839-2.03-1.259-4.25-1.259-6.68 0-2.48.42-4.74 1.259-6.79.84-2.05 1.983-3.8 3.428-5.25a15.856 15.856 0 0 1 5.098-3.37c1.953-.8 4.033-1.2 6.24-1.2a15.886 15.886 0 0 1 7.383 1.82c1.133.58 2.187 1.31 3.164 2.17a15.33 15.33 0 0 1 2.578 2.84l-15 18.07Zm4.102-16.49a4.496 4.496 0 0 0-1.114-.26 9.84 9.84 0 0 0-1.113-.06c-1.094 0-2.129.2-3.105.61-.957.39-1.797.96-2.52 1.7-.703.74-1.26 1.64-1.67 2.7-.41 1.03-.615 2.2-.615 3.51 0 .3.01.63.029 1 .039.37.088.75.147 1.14.078.37.166.73.263 1.09.098.35.225.66.381.93l9.317-12.36Zm22.939 24.17h-7.998v-31.38h1.934l2.636 3.72a13.68 13.68 0 0 1 4.395-2.69c1.64-.65 3.34-.97 5.097-.97h7.061v7.97h-7.061c-.839 0-1.63.16-2.373.47-.742.31-1.386.74-1.933 1.29a6.056 6.056 0 0 0-1.758 4.3V1823Zm25.752 0-11.953-31.38h9.111l6.856 19.57 6.826-19.57h9.14L391.027 1823H383Zm32.461-39.9c0 .74-.147 1.43-.44 2.08a5.383 5.383 0 0 1-1.142 1.7 5.83 5.83 0 0 1-1.729 1.14 5.33 5.33 0 0 1-2.08.41c-.742 0-1.445-.14-2.109-.41a5.933 5.933 0 0 1-1.699-1.14 6.13 6.13 0 0 1-1.143-1.7 5.305 5.305 0 0 1-.41-2.08c0-.72.137-1.41.41-2.05.293-.67.674-1.23 1.143-1.7a5.216 5.216 0 0 1 1.699-1.14c.664-.3 1.367-.44 2.109-.44s1.436.14 2.08.44c.664.27 1.241.65 1.729 1.14.488.47.869 1.03 1.142 1.7.293.64.44 1.33.44 2.05Zm-1.377 39.9h-8.057v-31.38h8.057V1823Zm33.545-25.14-5.859 5.89a7.803 7.803 0 0 0-1.202-2.2 7.863 7.863 0 0 0-1.728-1.67 7.328 7.328 0 0 0-2.051-1.02 7.372 7.372 0 0 0-2.285-.35c-1.094 0-2.129.22-3.106.67a7.718 7.718 0 0 0-2.519 1.91c-.703.8-1.26 1.75-1.67 2.87-.41 1.11-.615 2.34-.615 3.69 0 1.09.205 2.12.615 3.07.41.96.967 1.8 1.67 2.52a7.845 7.845 0 0 0 2.519 1.7c.977.41 2.012.62 3.106.62a8.05 8.05 0 0 0 2.256-.32 8.44 8.44 0 0 0 2.021-.91c.645-.41 1.211-.9 1.699-1.47.508-.58.918-1.23 1.231-1.93l5.859 5.89a15.62 15.62 0 0 1-2.578 2.84c-.957.84-2.002 1.55-3.135 2.14a15.434 15.434 0 0 1-3.545 1.32c-1.23.31-2.5.47-3.808.47-2.207 0-4.287-.41-6.24-1.23a16.709 16.709 0 0 1-5.098-3.43 16.357 16.357 0 0 1-3.428-5.07c-.84-1.93-1.259-4-1.259-6.21 0-2.4.419-4.65 1.259-6.74.84-2.09 1.983-3.91 3.428-5.45a16.458 16.458 0 0 1 5.098-3.69c1.953-.9 4.033-1.35 6.24-1.35 1.308 0 2.588.17 3.838.5 1.269.33 2.47.82 3.603 1.46 1.153.63 2.207 1.4 3.164 2.32.977.92 1.817 1.97 2.52 3.16Zm15.937 17.46c.313.1.625.17.938.21.312.02.625.03.937.03a8.04 8.04 0 0 0 2.256-.32 8.43 8.43 0 0 0 2.022-.91c.644-.41 1.211-.9 1.699-1.47.508-.58.918-1.23 1.23-1.93l5.86 5.89c-.742 1.05-1.602 2-2.578 2.84-.957.84-2.002 1.55-3.135 2.14a15.434 15.434 0 0 1-3.545 1.32c-1.23.31-2.5.47-3.809.47-2.207 0-4.287-.41-6.24-1.23a16.018 16.018 0 0 1-5.097-3.43c-1.446-1.47-2.588-3.21-3.428-5.22-.84-2.03-1.26-4.25-1.26-6.68 0-2.48.42-4.74 1.26-6.79.84-2.05 1.982-3.8 3.428-5.25a15.852 15.852 0 0 1 5.097-3.37c1.953-.8 4.033-1.2 6.24-1.2a15.886 15.886 0 0 1 7.383 1.82c1.133.58 2.188 1.31 3.164 2.17.977.84 1.836 1.78 2.578 2.84l-15 18.07Zm4.102-16.49a4.49 4.49 0 0 0-1.113-.26 9.87 9.87 0 0 0-1.114-.06c-1.093 0-2.129.2-3.105.61-.957.39-1.797.96-2.52 1.7-.703.74-1.259 1.64-1.67 2.7-.41 1.03-.615 2.2-.615 3.51 0 .3.01.63.03 1 .039.37.087.75.146 1.14.078.37.166.73.264 1.09.097.35.224.66.381.93l9.316-12.36Zm32.168 24.17h-18.281v-7.97h18.281c.547 0 1.016-.19 1.406-.58.391-.4.586-.86.586-1.41 0-.57-.195-.94-.586-1.11-.39-.18-.859-.27-1.406-.27h-8.32c-1.387 0-2.686-.26-3.897-.79a10.195 10.195 0 0 1-3.164-2.14 10.576 10.576 0 0 1-2.139-3.19c-.507-1.21-.761-2.51-.761-3.9 0-1.38.254-2.68.761-3.89a10.243 10.243 0 0 1 2.139-3.17c.899-.9 1.953-1.6 3.164-2.11a9.778 9.778 0 0 1 3.897-.79h16.201v7.97h-16.201c-.547 0-1.016.2-1.407.59-.39.39-.586.86-.586 1.4 0 .57.196 1.06.586 1.47.391.39.86.58 1.407.58h8.32c1.367 0 2.656.24 3.867.71 1.211.45 2.266 1.08 3.164 1.9a9.077 9.077 0 0 1 2.139 2.96c.527 1.15.791 2.41.791 3.78 0 1.39-.264 2.68-.791 3.9a10.651 10.651 0 0 1-2.139 3.16c-.898.9-1.953 1.61-3.164 2.14-1.211.51-2.5.76-3.867.76Z" fill="#fff"/><path d="M168.521 113.994v28.027h14.014c1.921 0 3.727-.358 5.42-1.074a14.52 14.52 0 0 0 4.443-3.027 13.85 13.85 0 0 0 2.979-4.443 13.591 13.591 0 0 0 1.123-5.469c0-1.921-.374-3.727-1.123-5.42-.716-1.725-1.709-3.223-2.979-4.492a13.83 13.83 0 0 0-4.443-2.979c-1.693-.749-3.499-1.123-5.42-1.123h-14.014Zm0 56.006h-14.013V99.98h28.027c2.572 0 5.046.342 7.422 1.026a26.191 26.191 0 0 1 6.641 2.832 26.446 26.446 0 0 1 5.664 4.394 26.446 26.446 0 0 1 4.394 5.664 27.043 27.043 0 0 1 2.832 6.69 26.695 26.695 0 0 1 1.026 7.422c0 3.841-.733 7.471-2.198 10.888-1.464 3.386-3.466 6.348-6.005 8.887-2.54 2.539-5.518 4.541-8.936 6.006-3.385 1.465-6.999 2.197-10.84 2.197h-14.014V170Zm91.456-27.979v-14.013c0-1.921-.375-3.727-1.123-5.42-.717-1.725-1.709-3.223-2.979-4.492a13.711 13.711 0 0 0-4.492-2.979c-1.693-.749-3.5-1.123-5.42-1.123-1.921 0-3.744.374-5.469 1.123a13.83 13.83 0 0 0-4.443 2.979c-1.27 1.269-2.279 2.767-3.028 4.492-.716 1.693-1.074 3.499-1.074 5.42v14.013h28.028ZM273.99 170h-14.013v-14.014h-28.028V170h-13.965v-41.992c0-3.874.733-7.503 2.198-10.889 1.464-3.418 3.45-6.396 5.957-8.935 2.539-2.539 5.501-4.541 8.886-6.006 3.418-1.465 7.064-2.197 10.938-2.197 3.874 0 7.503.732 10.889 2.197 3.418 1.465 6.396 3.467 8.935 6.006 2.539 2.539 4.541 5.517 6.006 8.935 1.465 3.386 2.197 7.015 2.197 10.889V170Zm39.405 0H299.43v-56.006h-21.045V99.981h56.006v14.013h-20.996V170Zm112.353-7.178a35.67 35.67 0 0 1-10.937 6.446 35.81 35.81 0 0 1-12.549 2.246c-3.321 0-6.527-.44-9.619-1.319a36.732 36.732 0 0 1-8.643-3.613 37.565 37.565 0 0 1-7.324-5.713 37.565 37.565 0 0 1-5.713-7.324 38.313 38.313 0 0 1-3.662-8.643c-.847-3.092-1.27-6.298-1.27-9.619 0-3.32.423-6.526 1.27-9.619a37.116 37.116 0 0 1 3.662-8.643 36.969 36.969 0 0 1 5.713-7.373 36.175 36.175 0 0 1 7.324-5.664 35.61 35.61 0 0 1 8.643-3.662 35.018 35.018 0 0 1 9.619-1.318 35.8 35.8 0 0 1 12.549 2.246 34.419 34.419 0 0 1 10.937 6.445l-7.422 12.207a20.71 20.71 0 0 0-7.275-5.078 22.019 22.019 0 0 0-8.789-1.806c-3.093 0-5.99.586-8.692 1.757-2.702 1.172-5.062 2.767-7.08 4.786-2.018 1.985-3.613 4.345-4.785 7.08-1.172 2.701-1.758 5.582-1.758 8.642 0 3.06.586 5.941 1.758 8.643a22.824 22.824 0 0 0 4.785 7.031c2.018 2.018 4.378 3.613 7.08 4.785 2.702 1.172 5.599 1.758 8.692 1.758 3.06 0 5.989-.586 8.789-1.758a21.25 21.25 0 0 0 7.275-5.127l7.422 12.207ZM482.926 170h-49.024V99.98h14.014v56.006h35.01V170Zm73.486-34.717c0 3.321-.439 6.527-1.318 9.619a36.777 36.777 0 0 1-3.614 8.643 36.103 36.103 0 0 1-5.664 7.324 37.565 37.565 0 0 1-7.324 5.713 35.615 35.615 0 0 1-8.642 3.613 35.016 35.016 0 0 1-9.62 1.319c-3.32 0-6.526-.44-9.619-1.319a36.725 36.725 0 0 1-8.642-3.613 37.536 37.536 0 0 1-7.324-5.713 37.565 37.565 0 0 1-5.713-7.324 38.268 38.268 0 0 1-3.662-8.643c-.847-3.092-1.27-6.298-1.27-9.619 0-3.32.423-6.526 1.27-9.619a37.073 37.073 0 0 1 3.662-8.643 37.595 37.595 0 0 1 5.713-7.324 36.147 36.147 0 0 1 7.324-5.664 36.767 36.767 0 0 1 8.642-3.613 35.014 35.014 0 0 1 9.619-1.318c3.321 0 6.527.439 9.62 1.318a35.655 35.655 0 0 1 8.642 3.613 36.175 36.175 0 0 1 7.324 5.664 36.13 36.13 0 0 1 5.664 7.324 35.681 35.681 0 0 1 3.614 8.643 35.014 35.014 0 0 1 1.318 9.619Zm-13.916 0c0-3.06-.586-5.941-1.758-8.642-1.172-2.735-2.767-5.095-4.785-7.08-1.986-2.019-4.346-3.614-7.08-4.786-2.702-1.171-5.583-1.757-8.643-1.757-3.092 0-5.989.586-8.691 1.757-2.702 1.172-5.062 2.767-7.08 4.786-2.018 1.985-3.613 4.345-4.785 7.08-1.172 2.701-1.758 5.582-1.758 8.642 0 3.06.586 5.941 1.758 8.643a22.824 22.824 0 0 0 4.785 7.031c2.018 2.018 4.378 3.613 7.08 4.785 2.702 1.172 5.599 1.758 8.691 1.758 3.06 0 5.941-.586 8.643-1.758 2.734-1.172 5.094-2.767 7.08-4.785a22.824 22.824 0 0 0 4.785-7.031c1.172-2.702 1.758-5.583 1.758-8.643Zm78.369 6.738c0 3.874-.732 7.52-2.197 10.938-1.465 3.385-3.467 6.348-6.006 8.887-2.539 2.506-5.517 4.492-8.935 5.957-3.386 1.465-7.015 2.197-10.889 2.197-3.874 0-7.52-.732-10.938-2.197-3.385-1.465-6.347-3.451-8.886-5.957-2.507-2.539-4.493-5.502-5.957-8.887-1.465-3.418-2.198-7.064-2.198-10.938v-42.04h13.965v42.04c0 1.921.358 3.728 1.074 5.42a14.539 14.539 0 0 0 3.028 4.444 14.537 14.537 0 0 0 4.443 3.027 14.124 14.124 0 0 0 5.469 1.074c1.92 0 3.727-.358 5.42-1.074 1.725-.749 3.222-1.758 4.492-3.027a13.86 13.86 0 0 0 2.979-4.444c.748-1.692 1.123-3.499 1.123-5.42v-42.04h14.013v42.04Zm68.262-7.031c0 3.223-.423 6.332-1.27 9.326a34.343 34.343 0 0 1-3.515 8.35 37.038 37.038 0 0 1-5.469 7.08 35.15 35.15 0 0 1-7.08 5.469 35.621 35.621 0 0 1-8.398 3.564c-2.963.814-6.055 1.221-9.278 1.221h-21.094V99.98h21.094c3.223 0 6.315.424 9.278 1.27a34.216 34.216 0 0 1 8.398 3.516 34.252 34.252 0 0 1 7.08 5.517 35.15 35.15 0 0 1 5.469 7.08 33.317 33.317 0 0 1 3.515 8.35c.847 2.962 1.27 6.055 1.27 9.277Zm-14.014 0c0-2.897-.553-5.615-1.66-8.154-1.074-2.539-2.571-4.753-4.492-6.641-1.888-1.92-4.118-3.434-6.69-4.541-2.539-1.106-5.257-1.66-8.154-1.66h-6.982v41.992h6.982c2.897 0 5.615-.537 8.154-1.611 2.572-1.107 4.802-2.604 6.69-4.492a20.856 20.856 0 0 0 4.492-6.69c1.107-2.571 1.66-5.306 1.66-8.203ZM279 200.391a8.07 8.07 0 0 1 .664-3.262 8.546 8.546 0 0 1 1.797-2.656 8.603 8.603 0 0 1 2.676-1.817 8.082 8.082 0 0 1 3.261-.664h12.852v5.606h-12.852a2.778 2.778 0 0 0-1.992.82 2.78 2.78 0 0 0-.801 1.973c0 .39.072.761.215 1.113.144.338.339.638.586.898.261.248.56.443.899.586.338.144.703.215 1.093.215h5.606a8.07 8.07 0 0 1 3.262.664 8.079 8.079 0 0 1 2.675 1.797 8.043 8.043 0 0 1 1.797 2.676 8.067 8.067 0 0 1 .664 3.262 8.066 8.066 0 0 1-.664 3.261 8.315 8.315 0 0 1-1.797 2.676 8.494 8.494 0 0 1-2.675 1.797 8.07 8.07 0 0 1-3.262.664h-12.442v-5.605h12.442a2.784 2.784 0 0 0 1.973-.801 2.779 2.779 0 0 0 .82-1.992 2.78 2.78 0 0 0-.215-1.094 2.583 2.583 0 0 0-.605-.879 2.605 2.605 0 0 0-.879-.606 2.783 2.783 0 0 0-1.094-.214h-5.606a8.082 8.082 0 0 1-3.261-.664 8.792 8.792 0 0 1-2.676-1.797 8.804 8.804 0 0 1-1.797-2.676 8.21 8.21 0 0 1-.664-3.281Zm64.746 5.722a14.03 14.03 0 0 1-.527 3.848 14.73 14.73 0 0 1-1.446 3.457 14.48 14.48 0 0 1-2.265 2.93 15.063 15.063 0 0 1-2.93 2.285 14.242 14.242 0 0 1-3.457 1.445 13.987 13.987 0 0 1-3.848.527c-1.328 0-2.61-.175-3.847-.527a14.668 14.668 0 0 1-3.457-1.445 15.033 15.033 0 0 1-2.93-2.285 15.063 15.063 0 0 1-2.285-2.93 15.356 15.356 0 0 1-1.465-3.457 14.536 14.536 0 0 1-.508-3.848c0-1.328.17-2.61.508-3.847a14.85 14.85 0 0 1 1.465-3.457 15.033 15.033 0 0 1 2.285-2.93 14.422 14.422 0 0 1 2.93-2.266 14.71 14.71 0 0 1 3.457-1.445 13.985 13.985 0 0 1 3.847-.527c1.329 0 2.611.175 3.848.527 1.237.339 2.389.82 3.457 1.445a14.45 14.45 0 0 1 2.93 2.266 14.268 14.268 0 0 1 3.711 6.387c.351 1.237.527 2.519.527 3.847Zm-5.566 0a8.607 8.607 0 0 0-.703-3.457 8.762 8.762 0 0 0-1.915-2.832 8.775 8.775 0 0 0-2.832-1.914 8.586 8.586 0 0 0-3.457-.703 8.636 8.636 0 0 0-3.476.703 9.065 9.065 0 0 0-2.832 1.914 8.775 8.775 0 0 0-1.914 2.832 8.59 8.59 0 0 0-.703 3.457c0 1.224.234 2.377.703 3.457a9.132 9.132 0 0 0 1.914 2.813 9.065 9.065 0 0 0 2.832 1.914 8.636 8.636 0 0 0 3.476.703 8.586 8.586 0 0 0 3.457-.703 8.775 8.775 0 0 0 2.832-1.914 9.118 9.118 0 0 0 1.915-2.813 8.603 8.603 0 0 0 .703-3.457ZM378.258 220h-19.61v-28.008h5.606v22.403h14.004V220Zm36.23-11.191c0 1.549-.293 3.007-.879 4.375a11.334 11.334 0 0 1-2.402 3.554 11.455 11.455 0 0 1-3.574 2.383c-1.354.586-2.806.879-4.356.879-1.549 0-3.007-.293-4.375-.879a11.504 11.504 0 0 1-3.554-2.383 11.504 11.504 0 0 1-2.383-3.554 10.992 10.992 0 0 1-.879-4.375v-16.817h5.586v16.817c0 .768.143 1.49.43 2.168a5.819 5.819 0 0 0 1.21 1.777 5.826 5.826 0 0 0 1.778 1.211c.69.286 1.419.43 2.187.43.769 0 1.491-.144 2.168-.43.69-.3 1.289-.703 1.797-1.211.508-.508.905-1.1 1.192-1.777.299-.678.449-1.4.449-2.168v-16.817h5.605v16.817ZM442.32 220h-5.586v-22.402h-8.418v-5.606h22.403v5.606h-8.399V220Zm28.184 0h-5.606v-28.008h5.606V220Zm43.867-13.887a14.03 14.03 0 0 1-.527 3.848 14.73 14.73 0 0 1-1.446 3.457 14.48 14.48 0 0 1-2.265 2.93 15.063 15.063 0 0 1-2.93 2.285 14.242 14.242 0 0 1-3.457 1.445 13.987 13.987 0 0 1-3.848.527c-1.328 0-2.61-.175-3.847-.527a14.668 14.668 0 0 1-3.457-1.445 15.033 15.033 0 0 1-2.93-2.285 15.063 15.063 0 0 1-2.285-2.93 15.356 15.356 0 0 1-1.465-3.457 14.536 14.536 0 0 1-.508-3.848c0-1.328.17-2.61.508-3.847a14.85 14.85 0 0 1 1.465-3.457 15.033 15.033 0 0 1 2.285-2.93 14.422 14.422 0 0 1 2.93-2.266 14.71 14.71 0 0 1 3.457-1.445 13.985 13.985 0 0 1 3.847-.527c1.329 0 2.611.175 3.848.527 1.237.339 2.389.82 3.457 1.445a14.45 14.45 0 0 1 2.93 2.266 14.268 14.268 0 0 1 3.711 6.387c.351 1.237.527 2.519.527 3.847Zm-5.566 0a8.607 8.607 0 0 0-.703-3.457 8.775 8.775 0 0 0-1.914-2.832 8.79 8.79 0 0 0-2.833-1.914 8.586 8.586 0 0 0-3.457-.703 8.636 8.636 0 0 0-3.476.703 9.065 9.065 0 0 0-2.832 1.914 8.775 8.775 0 0 0-1.914 2.832 8.59 8.59 0 0 0-.703 3.457c0 1.224.234 2.377.703 3.457a9.132 9.132 0 0 0 1.914 2.813 9.065 9.065 0 0 0 2.832 1.914 8.636 8.636 0 0 0 3.476.703 8.586 8.586 0 0 0 3.457-.703 8.79 8.79 0 0 0 2.833-1.914 9.132 9.132 0 0 0 1.914-2.813 8.603 8.603 0 0 0 .703-3.457ZM551.676 220h-5.996l-10.801-18.438V220h-5.606v-28.008h5.997l10.8 18.457v-18.457h5.606V220Zm14.785-19.609a8.07 8.07 0 0 1 .664-3.262 8.546 8.546 0 0 1 1.797-2.656 8.603 8.603 0 0 1 2.676-1.817 8.082 8.082 0 0 1 3.261-.664h12.852v5.606h-12.852a2.778 2.778 0 0 0-1.992.82 2.78 2.78 0 0 0-.801 1.973c0 .39.072.761.215 1.113.143.338.339.638.586.898.261.248.56.443.899.586.338.144.703.215 1.093.215h5.606a8.07 8.07 0 0 1 3.262.664 8.079 8.079 0 0 1 2.675 1.797 8.043 8.043 0 0 1 1.797 2.676 8.067 8.067 0 0 1 .664 3.262 8.066 8.066 0 0 1-.664 3.261 8.315 8.315 0 0 1-1.797 2.676 8.494 8.494 0 0 1-2.675 1.797 8.07 8.07 0 0 1-3.262.664h-12.442v-5.605h12.442a2.787 2.787 0 0 0 1.973-.801 2.779 2.779 0 0 0 .82-1.992 2.78 2.78 0 0 0-.215-1.094 2.583 2.583 0 0 0-.605-.879 2.605 2.605 0 0 0-.879-.606 2.787 2.787 0 0 0-1.094-.214h-5.606a8.082 8.082 0 0 1-3.261-.664 8.792 8.792 0 0 1-2.676-1.797 8.804 8.804 0 0 1-1.797-2.676 8.21 8.21 0 0 1-.664-3.281Z" fill="#0E0E0E"/><rect x="2673.5" y="73.5" width="141" height="99" rx="13.5" stroke="#BBB" stroke-width="3"/><mask id="b" fill="#fff"><rect x="2702" y="92" width="85" height="11" rx="5"/></mask><rect x="2702" y="92" width="85" height="11" rx="5" fill="#000" stroke="#000" stroke-width="11" mask="url(#b)"/><mask id="c" fill="#fff"><rect x="2702" y="116" width="85" height="13" rx="5"/></mask><rect x="2702" y="116" width="85" height="13" rx="5" fill="#000" stroke="#000" stroke-width="13" mask="url(#c)"/><mask id="d" fill="#fff"><rect x="2702" y="142" width="85" height="11" rx="5"/></mask><rect x="2702" y="142" width="85" height="11" rx="5" fill="#000" stroke="#000" stroke-width="11" mask="url(#d)"/><circle cx="1239.5" cy="153.5" r="46.5" fill="#006FAD"/><path d="M1129.25 170h-24v-35.01h24v7.007h-17v7.007h11.5v7.007h-11.5v6.982h17V170Zm32.91 0h-7.5l-13.5-23.047V170h-7.01v-35.01h7.5l13.5 23.072V134.99h7.01V170Z" fill="#000"/><path d="M1238.77 152.495c0 1.611-.21 3.166-.64 4.663-.4 1.481-.99 2.873-1.75 4.175a18.669 18.669 0 0 1-2.74 3.54 17.686 17.686 0 0 1-7.74 4.517c-1.48.407-3.03.61-4.64.61h-10.54v-35.01h10.54c1.61 0 3.16.212 4.64.635a17.035 17.035 0 0 1 7.74 4.517 17.71 17.71 0 0 1 2.74 3.54 16.57 16.57 0 0 1 1.75 4.174c.43 1.482.64 3.028.64 4.639Zm-7.01 0c0-1.448-.28-2.807-.83-4.077a10.205 10.205 0 0 0-2.25-3.32 10.294 10.294 0 0 0-3.34-2.271c-1.27-.553-2.63-.83-4.08-.83h-3.49v20.996h3.49c1.45 0 2.81-.268 4.08-.805a10.504 10.504 0 0 0 5.59-5.591c.55-1.286.83-2.653.83-4.102ZM1267.43 170h-24v-35.01h24v7.007h-16.99v7.007h11.5v7.007h-11.5v6.982h16.99V170Z" fill="#fff"/></g><defs><clipPath id="a"><path fill="#fff" d="M0 0h2913v3021H0z"/></clipPath></defs></svg>