<svg width="390" height="844" fill="none" xmlns="http://www.w3.org/2000/svg"><g clip-path="url(#a)"><path fill="#fff" d="M0 0h390v844H0z"/><path d="M543 0c-37.05 60.553-74.201 121.107-90.065 188.683-15.864 67.42-10.543 141.863-34.64 186.654-24.198 44.79-77.916 59.929-108.038 106.904-30.022 46.976-36.448 125.945-60.244 190.868S185.15 789.065 140.57 815.284C95.989 841.503 47.995 842.751 0 844V0h543Z" fill="#DEE2FB"/><circle cx="288.5" cy="38.5" r="14.5" fill="#006FAD"/><rect x="319.5" y="18.5" width="50" height="35" rx="7.5" stroke="#BBB"/><rect x="330" y="27" width="30" height="3" rx="1.5" fill="#000"/><rect x="330" y="27" width="30" height="3" rx="1.5" stroke="#000"/><rect x="330" y="35" width="30" height="3" rx="1.5" fill="#000"/><rect x="330" y="35" width="30" height="3" rx="1.5" stroke="#000"/><rect x="330" y="43" width="30" height="3" rx="1.5" fill="#000"/><rect x="330" y="43" width="30" height="3" rx="1.5" stroke="#000"/><path d="M57.156 261.797c0 .463-.088.901-.265 1.312a3.338 3.338 0 0 1-3.094 2.047 3.237 3.237 0 0 1-2.234-.859 3.215 3.215 0 0 1-1.04.641 3.389 3.389 0 0 1-1.203.218c-.463 0-.9-.086-1.312-.258a3.514 3.514 0 0 1-1.07-.718 3.516 3.516 0 0 1-.72-1.071 3.368 3.368 0 0 1-.257-1.312v-8h2.242v8a1.166 1.166 0 0 0 .32.805c.105.099.224.177.36.234.135.057.281.086.437.086a1.116 1.116 0 0 0 .79-.32c.104-.105.184-.224.242-.36.057-.14.086-.289.086-.445v-8h2.242v8a1.166 1.166 0 0 0 .32.805c.104.099.224.177.36.234.135.057.28.086.437.086a1.117 1.117 0 0 0 .789-.32c.104-.105.185-.224.242-.36.063-.14.094-.289.094-.445v-8h2.234v8Zm4.297-7.438c0 .198-.039.383-.117.555a1.411 1.411 0 0 1-.305.453c-.13.125-.284.227-.46.305a1.404 1.404 0 0 1-.555.109c-.198 0-.386-.036-.563-.109a1.608 1.608 0 0 1-.453-.305 1.605 1.605 0 0 1-.305-.453 1.407 1.407 0 0 1-.11-.555c0-.192.037-.375.11-.547a1.42 1.42 0 0 1 .758-.757 1.38 1.38 0 0 1 .563-.117c.198 0 .382.039.554.117a1.398 1.398 0 0 1 .766.757c.078.172.117.355.117.547ZM61.086 265h-2.148v-8.367h2.148V265Zm3.781 0H62.72v-11.695h2.148V265Zm3.781 0H66.5v-11.695h2.148V265Zm3.782 0H70.28v-11.695h2.149v7.375l3.18-4.032h2.453l-2.774 3.485L78.062 265H75.61l-1.695-3.039-1.484 1.969V265Zm14.297-4.258c0 .625-.112 1.209-.336 1.75a4.423 4.423 0 0 1-.914 1.399c-.386.39-.839.7-1.36.929a4.13 4.13 0 0 1-1.664.336 4.167 4.167 0 0 1-1.664-.336 4.478 4.478 0 0 1-1.36-.929 4.425 4.425 0 0 1-.913-1.399 4.533 4.533 0 0 1-.336-1.75c0-.635.112-1.224.336-1.765a4.316 4.316 0 0 1 .914-1.399c.39-.396.843-.706 1.36-.93a4.167 4.167 0 0 1 1.663-.336c.594 0 1.149.107 1.664.321.521.208.974.508 1.36.898.385.386.69.852.914 1.399.224.541.336 1.146.336 1.812Zm-2.149 0c0-.344-.057-.653-.172-.93-.11-.281-.26-.52-.453-.718a1.896 1.896 0 0 0-.68-.461 2.05 2.05 0 0 0-.82-.164c-.291 0-.568.054-.828.164-.255.104-.48.258-.672.461a2.18 2.18 0 0 0-.445.718 2.51 2.51 0 0 0-.164.93c0 .323.054.623.164.899.11.276.258.515.445.718.193.203.417.365.672.485.26.114.537.172.828.172.292 0 .565-.055.82-.164.26-.11.487-.263.68-.461.193-.198.344-.438.453-.719a2.44 2.44 0 0 0 .172-.93ZM98.547 265h-2.125v-5.312c0-.146-.029-.284-.086-.415a1.012 1.012 0 0 0-.57-.57 1.021 1.021 0 0 0-.414-.086c-.146 0-.284.029-.415.086a1.033 1.033 0 0 0-.562.57 1.111 1.111 0 0 0-.078.415V265h-2.133v-5.312c0-.146-.029-.284-.086-.415a1.014 1.014 0 0 0-.57-.57 1.021 1.021 0 0 0-.414-.086c-.146 0-.284.029-.414.086a1.033 1.033 0 0 0-.563.57 1.111 1.111 0 0 0-.078.415V265h-2.133v-8.367h.516l.578.64c.297-.25.622-.442.977-.578a3.08 3.08 0 0 1 2.258.008c.374.146.703.399.984.758.13-.177.278-.328.445-.453a2.53 2.53 0 0 1 .523-.305c.188-.078.38-.133.579-.164.197-.036.393-.055.586-.055.442 0 .856.084 1.242.25.39.167.729.396 1.015.688.292.286.521.625.688 1.016.166.39.25.807.25 1.25V265Zm12.203 0h-2.125v-5.312c0-.146-.029-.284-.086-.415a1.012 1.012 0 0 0-.227-.343 1.003 1.003 0 0 0-.343-.227 1.02 1.02 0 0 0-.414-.086 1.02 1.02 0 0 0-.414.086 1.034 1.034 0 0 0-.563.57 1.113 1.113 0 0 0-.078.415V265h-2.133v-5.312c0-.146-.028-.284-.086-.415a1.01 1.01 0 0 0-.57-.57 1.02 1.02 0 0 0-.414-.086 1.02 1.02 0 0 0-.414.086 1.034 1.034 0 0 0-.563.57 1.113 1.113 0 0 0-.078.415V265h-2.133v-8.367h.516l.578.64c.297-.25.623-.442.977-.578a3.081 3.081 0 0 1 2.258.008c.374.146.703.399.984.758.13-.177.279-.328.445-.453.167-.125.341-.227.524-.305.187-.078.38-.133.578-.164a3.27 3.27 0 0 1 .586-.055c.442 0 .856.084 1.242.25.391.167.729.396 1.015.688.292.286.521.625.688 1.016.167.39.25.807.25 1.25V265Zm4.891-2.047c.083.026.166.044.25.055.083.005.166.008.25.008.208 0 .408-.029.601-.086a2.052 2.052 0 0 0 1.32-1.149l1.563 1.571a4.152 4.152 0 0 1-.687.757 4.219 4.219 0 0 1-.836.571 3.962 3.962 0 0 1-.946.351 4.073 4.073 0 0 1-1.015.125 4.244 4.244 0 0 1-1.664-.328 4.252 4.252 0 0 1-1.36-.914 4.34 4.34 0 0 1-.914-1.391 4.612 4.612 0 0 1-.336-1.781c0-.661.112-1.265.336-1.812a4.217 4.217 0 0 1 .914-1.399 4.208 4.208 0 0 1 1.36-.898 4.33 4.33 0 0 1 1.664-.321 4.22 4.22 0 0 1 1.968.485c.302.156.584.349.844.578.261.224.49.477.688.758l-4 4.82Zm1.093-4.398a1.237 1.237 0 0 0-.296-.071 2.81 2.81 0 0 0-.297-.015 2.11 2.11 0 0 0-.829.164 1.952 1.952 0 0 0-.671.453 2.178 2.178 0 0 0-.446.719 2.533 2.533 0 0 0-.164.937c0 .078.003.167.008.266.01.099.023.2.039.304.021.099.044.196.07.29.026.093.06.177.102.25l2.484-3.297Zm6.118 6.445h-2.133v-8.367h.515l.704.812a3.667 3.667 0 0 1 1.164-.718 3.7 3.7 0 0 1 1.367-.258c.51 0 .992.099 1.445.297.453.192.849.461 1.188.804.338.339.604.737.796 1.196.198.453.297.937.297 1.453V265h-2.133v-4.781a1.609 1.609 0 0 0-.976-1.477 1.621 1.621 0 0 0-1.766.344 1.59 1.59 0 0 0-.343.516 1.523 1.523 0 0 0-.125.617V265Zm17.882 0h-6.976l3.523-6.227h-3.523v-2.125h6.976l-3.523 6.227h3.523V265Zm7.274-.977a5.88 5.88 0 0 1-.555.446 4.526 4.526 0 0 1-.609.359 3.713 3.713 0 0 1-.664.234 2.527 2.527 0 0 1-.688.094c-.515 0-1-.091-1.453-.273a3.652 3.652 0 0 1-1.195-.774 3.707 3.707 0 0 1-.805-1.226 4.358 4.358 0 0 1-.289-1.625v-4.625h2.125v4.625c0 .281.042.534.125.758.089.218.206.403.352.554.145.151.315.266.507.344.198.078.409.117.633.117.219 0 .425-.049.617-.148.198-.104.37-.24.516-.406.146-.167.26-.355.344-.563.083-.213.125-.432.125-.656v-4.625h2.133V265h-.516l-.703-.977Zm9.804-7.984v4.484h2.243c.307 0 .596-.057.867-.171a2.33 2.33 0 0 0 .711-.485c.203-.203.362-.44.476-.711.12-.276.18-.567.18-.875 0-.307-.06-.596-.18-.867a2.186 2.186 0 0 0-1.187-1.195c-.271-.12-.56-.18-.867-.18h-2.243Zm0 8.961h-2.242v-11.203h4.485c.411 0 .807.055 1.187.164.38.104.735.255 1.063.453.333.193.635.427.906.703.276.271.51.573.703.906.198.334.349.691.453 1.071.11.38.164.776.164 1.187 0 .615-.117 1.196-.351 1.742a4.505 4.505 0 0 1-2.391 2.383 4.311 4.311 0 0 1-1.734.352h-2.243V265Zm14.633-4.477v-2.242c0-.307-.06-.596-.179-.867a2.204 2.204 0 0 0-.477-.719 2.186 2.186 0 0 0-.719-.476c-.271-.12-.56-.18-.867-.18-.307 0-.599.06-.875.18a2.204 2.204 0 0 0-.711.476 2.305 2.305 0 0 0-.484.719c-.115.271-.172.56-.172.867v2.242h4.484Zm2.243 4.477h-2.243v-2.242h-4.484V265h-2.234v-6.719c0-.62.117-1.2.351-1.742a4.585 4.585 0 0 1 .953-1.43 4.56 4.56 0 0 1 1.422-.961 4.401 4.401 0 0 1 1.75-.351c.62 0 1.201.117 1.742.351a4.527 4.527 0 0 1 1.43.961c.406.407.727.883.961 1.43.234.542.352 1.122.352 1.742V265Zm6.304 0h-2.234v-8.961h-3.367v-2.242h8.961v2.242h-3.36V265Zm17.977-1.148a5.74 5.74 0 0 1-3.758 1.39 5.59 5.59 0 0 1-1.539-.211 5.853 5.853 0 0 1-1.383-.578 6.011 6.011 0 0 1-1.172-.914 6.011 6.011 0 0 1-.914-1.172 6.137 6.137 0 0 1-.586-1.383 5.812 5.812 0 0 1-.203-1.539c0-.531.068-1.044.203-1.539.141-.495.336-.955.586-1.383a5.91 5.91 0 0 1 2.086-2.085 5.636 5.636 0 0 1 1.383-.586 5.59 5.59 0 0 1 1.539-.211c.693 0 1.362.119 2.008.359a5.501 5.501 0 0 1 1.75 1.031l-1.188 1.953a3.304 3.304 0 0 0-1.164-.812 3.514 3.514 0 0 0-1.406-.289c-.495 0-.958.094-1.391.281a3.622 3.622 0 0 0-1.898 1.898 3.434 3.434 0 0 0-.281 1.383c0 .49.093.951.281 1.383a3.644 3.644 0 0 0 1.898 1.891c.433.187.896.281 1.391.281.49 0 .958-.094 1.406-.281a3.393 3.393 0 0 0 1.164-.821l1.188 1.954Zm3.226 1.148h-2.148v-11.695h2.148V265Zm9.719-4.258c0 .625-.112 1.209-.336 1.75a4.432 4.432 0 0 1-.914 1.399c-.385.39-.838.7-1.359.929a4.134 4.134 0 0 1-1.664.336 4.162 4.162 0 0 1-1.664-.336 4.482 4.482 0 0 1-1.36-.929 4.432 4.432 0 0 1-.914-1.399 4.531 4.531 0 0 1-.336-1.75c0-.635.112-1.224.336-1.765a4.322 4.322 0 0 1 .914-1.399 4.297 4.297 0 0 1 1.36-.93 4.162 4.162 0 0 1 1.664-.336c.593 0 1.148.107 1.664.321.521.208.974.508 1.359.898.385.386.69.852.914 1.399.224.541.336 1.146.336 1.812Zm-2.148 0a2.42 2.42 0 0 0-.172-.93 2.134 2.134 0 0 0-.453-.718 1.904 1.904 0 0 0-.68-.461 2.05 2.05 0 0 0-.82-.164 2.11 2.11 0 0 0-.829.164 1.906 1.906 0 0 0-.671.461 2.183 2.183 0 0 0-.446.718 2.517 2.517 0 0 0-.164.93c0 .323.055.623.164.899.11.276.258.515.446.718.192.203.416.365.671.485.261.114.537.172.829.172.291 0 .565-.055.82-.164.26-.11.487-.263.68-.461.192-.198.343-.438.453-.719.114-.281.172-.591.172-.93Zm9.476 3.281a5.996 5.996 0 0 1-.554.446 4.476 4.476 0 0 1-.61.359 3.686 3.686 0 0 1-.664.234 2.525 2.525 0 0 1-.687.094c-.516 0-1-.091-1.454-.273a3.652 3.652 0 0 1-1.195-.774 3.723 3.723 0 0 1-.805-1.226 4.379 4.379 0 0 1-.289-1.625v-4.625h2.125v4.625c0 .281.042.534.125.758.089.218.206.403.352.554.146.151.315.266.508.344.198.078.409.117.633.117.218 0 .424-.049.617-.148.198-.104.37-.24.515-.406.146-.167.261-.355.344-.563.083-.213.125-.432.125-.656v-4.625h2.133V265h-.516l-.703-.977Zm10.938.977h-.516l-.828-1.148a7.008 7.008 0 0 1-.648.515 5.114 5.114 0 0 1-.711.414c-.25.115-.508.206-.774.274-.26.067-.526.101-.797.101a4.25 4.25 0 0 1-1.664-.328 4.353 4.353 0 0 1-1.359-.922 4.421 4.421 0 0 1-.914-1.398 4.576 4.576 0 0 1-.336-1.766c0-.63.112-1.216.336-1.758.224-.541.528-1.01.914-1.406.39-.396.844-.706 1.359-.93a4.169 4.169 0 0 1 1.664-.336c.188 0 .38.016.578.047.204.032.399.084.586.157.193.067.373.158.539.273.167.115.308.255.422.422v-3.906h2.149V265Zm-2.149-4.258c0-.291-.057-.573-.172-.844a2.296 2.296 0 0 0-.453-.726 2.161 2.161 0 0 0-.679-.508 1.786 1.786 0 0 0-.821-.195c-.291 0-.567.052-.828.156a1.965 1.965 0 0 0-.672.453c-.187.193-.336.43-.445.711a2.62 2.62 0 0 0-.164.953 2.404 2.404 0 0 0 .609 1.602c.193.208.417.372.672.492.261.12.537.18.828.18.292 0 .565-.063.821-.188.26-.13.487-.299.679-.508.193-.213.344-.455.453-.726.115-.276.172-.56.172-.852Zm7.836-3.586c0-.463.089-.898.266-1.304.177-.407.416-.761.719-1.063a3.466 3.466 0 0 1 1.07-.727 3.23 3.23 0 0 1 1.305-.265h5.14v2.242h-5.14a1.115 1.115 0 0 0-.797.328 1.103 1.103 0 0 0-.321.789c0 .156.029.305.086.446.058.135.136.255.235.359.104.099.224.177.359.234.135.058.281.086.438.086h2.242c.463 0 .898.089 1.304.266.412.172.769.411 1.071.719.307.302.547.658.718 1.07.178.406.266.841.266 1.305 0 .463-.088.898-.266 1.304a3.328 3.328 0 0 1-1.789 1.789 3.229 3.229 0 0 1-1.304.266h-4.977v-2.242h4.977a1.113 1.113 0 0 0 1.031-.68c.057-.135.086-.281.086-.437 0-.157-.029-.302-.086-.438a1.036 1.036 0 0 0-.242-.351 1.033 1.033 0 0 0-.352-.243 1.113 1.113 0 0 0-.437-.086h-2.242a3.23 3.23 0 0 1-1.305-.265 3.514 3.514 0 0 1-1.07-.719 3.496 3.496 0 0 1-.719-1.07 3.29 3.29 0 0 1-.266-1.313Zm18.297 3.586c0 .625-.112 1.209-.336 1.75a4.432 4.432 0 0 1-.914 1.399c-.385.39-.838.7-1.359.929a4.134 4.134 0 0 1-1.664.336 4.162 4.162 0 0 1-1.664-.336 4.482 4.482 0 0 1-1.36-.929 4.432 4.432 0 0 1-.914-1.399 4.531 4.531 0 0 1-.336-1.75c0-.635.112-1.224.336-1.765a4.322 4.322 0 0 1 .914-1.399 4.297 4.297 0 0 1 1.36-.93 4.162 4.162 0 0 1 1.664-.336c.593 0 1.148.107 1.664.321.521.208.974.508 1.359.898.385.386.69.852.914 1.399.224.541.336 1.146.336 1.812Zm-2.148 0a2.42 2.42 0 0 0-.172-.93 2.134 2.134 0 0 0-.453-.718 1.904 1.904 0 0 0-.68-.461 2.05 2.05 0 0 0-.82-.164 2.11 2.11 0 0 0-.829.164 1.906 1.906 0 0 0-.671.461 2.183 2.183 0 0 0-.446.718 2.517 2.517 0 0 0-.164.93c0 .323.055.623.164.899.11.276.258.515.446.718.192.203.416.365.671.485.261.114.537.172.829.172.291 0 .565-.055.82-.164.26-.11.487-.263.68-.461.192-.198.343-.438.453-.719.114-.281.172-.591.172-.93Zm5.476 4.258h-2.148v-11.695h2.148V265Zm7.781-.977a5.74 5.74 0 0 1-.554.446 4.476 4.476 0 0 1-.61.359 3.686 3.686 0 0 1-.664.234 2.525 2.525 0 0 1-.687.094c-.516 0-1-.091-1.453-.273a3.656 3.656 0 0 1-1.196-.774 3.72 3.72 0 0 1-.804-1.226 4.358 4.358 0 0 1-.289-1.625v-4.625h2.125v4.625c0 .281.041.534.125.758.088.218.205.403.351.554.146.151.315.266.508.344.198.078.409.117.633.117.219 0 .424-.049.617-.148.198-.104.37-.24.516-.406.145-.167.26-.355.343-.563.084-.213.125-.432.125-.656v-4.625h2.133V265h-.515l-.704-.977Zm7.047.977c-.515 0-1-.096-1.453-.289a3.924 3.924 0 0 1-1.195-.805 3.924 3.924 0 0 1-.805-1.195 3.67 3.67 0 0 1-.289-1.453v-2.485h-1.039v-2.125h1.039v-3.343h2.125v3.343h3.235v2.125h-3.235v2.485c0 .224.042.435.125.633.083.192.198.362.344.507.146.146.318.263.516.352.197.083.408.125.632.125h1.618V265h-1.618Zm5.336-10.641c0 .198-.039.383-.117.555a1.402 1.402 0 0 1-.305.453c-.13.125-.283.227-.461.305a1.397 1.397 0 0 1-.554.109c-.198 0-.386-.036-.563-.109a1.604 1.604 0 0 1-.453-.305 1.625 1.625 0 0 1-.305-.453 1.423 1.423 0 0 1-.109-.555 1.405 1.405 0 0 1 .867-1.304c.177-.078.365-.117.563-.117.198 0 .383.039.554.117.178.073.331.174.461.304.131.125.232.276.305.453.078.172.117.355.117.547ZM277.289 265h-2.148v-8.367h2.148V265Zm9.719-4.258c0 .625-.112 1.209-.336 1.75a4.432 4.432 0 0 1-.914 1.399c-.386.39-.839.7-1.36.929a4.127 4.127 0 0 1-1.664.336 4.169 4.169 0 0 1-1.664-.336 4.49 4.49 0 0 1-1.359-.929 4.432 4.432 0 0 1-.914-1.399 4.531 4.531 0 0 1-.336-1.75c0-.635.112-1.224.336-1.765a4.322 4.322 0 0 1 .914-1.399 4.304 4.304 0 0 1 1.359-.93 4.169 4.169 0 0 1 1.664-.336c.594 0 1.149.107 1.664.321.521.208.974.508 1.36.898.385.386.69.852.914 1.399.224.541.336 1.146.336 1.812Zm-2.149 0a2.42 2.42 0 0 0-.171-.93 2.121 2.121 0 0 0-.454-.718 1.892 1.892 0 0 0-.679-.461 2.054 2.054 0 0 0-.821-.164 2.11 2.11 0 0 0-.828.164 1.919 1.919 0 0 0-.672.461 2.181 2.181 0 0 0-.445.718 2.517 2.517 0 0 0-.164.93c0 .323.055.623.164.899.109.276.258.515.445.718.193.203.417.365.672.485.261.114.537.172.828.172.292 0 .565-.055.821-.164a2.043 2.043 0 0 0 1.133-1.18c.114-.281.171-.591.171-.93ZM290.32 265h-2.132v-8.367h.515l.703.812a3.69 3.69 0 0 1 1.164-.718 3.71 3.71 0 0 1 1.368-.258c.51 0 .992.099 1.445.297a3.65 3.65 0 0 1 1.187.804c.339.339.604.737.797 1.196.198.453.297.937.297 1.453V265h-2.133v-4.781c0-.219-.041-.425-.125-.617a1.593 1.593 0 0 0-1.468-.985 1.621 1.621 0 0 0-1.149.469 1.609 1.609 0 0 0-.469 1.133V265Zm11.461 0h-4.875v-2.125h4.875a.511.511 0 0 0 .375-.156.511.511 0 0 0 .156-.375c0-.151-.052-.25-.156-.297a.906.906 0 0 0-.375-.07h-2.219c-.369 0-.716-.071-1.039-.211a2.713 2.713 0 0 1-.843-.571 2.797 2.797 0 0 1-.571-.851 2.67 2.67 0 0 1-.203-1.039c0-.37.068-.716.203-1.039.141-.323.331-.605.571-.844.239-.24.521-.427.843-.563.323-.14.67-.211 1.039-.211h4.321v2.125h-4.321a.512.512 0 0 0-.374.157.508.508 0 0 0-.157.375c0 .151.052.281.157.39a.512.512 0 0 0 .374.157h2.219c.365 0 .709.062 1.031.187.323.12.605.289.844.508a2.401 2.401 0 0 1 .782 1.797c0 .37-.071.716-.211 1.039a2.84 2.84 0 0 1-.571.844 2.72 2.72 0 0 1-.844.57 2.64 2.64 0 0 1-1.031.203Z" fill="#006FAD"/><rect x="23.5" y="245.5" width="303" height="26" rx="5.5" stroke="#00507E"/><path d="M51.537 314.808c0 1.261-.167 2.48-.5 3.655a13.972 13.972 0 0 1-1.374 3.284 13.74 13.74 0 0 1-2.152 2.783 14.284 14.284 0 0 1-2.784 2.171 13.513 13.513 0 0 1-3.284 1.373 13.305 13.305 0 0 1-3.655.501c-1.262 0-2.48-.167-3.655-.501a13.935 13.935 0 0 1-3.284-1.373 14.29 14.29 0 0 1-2.784-2.171 14.295 14.295 0 0 1-2.17-2.783 14.567 14.567 0 0 1-1.392-3.284 13.786 13.786 0 0 1-.483-3.655c0-1.262.161-2.481.483-3.656a14.1 14.1 0 0 1 1.392-3.284 14.295 14.295 0 0 1 2.17-2.783 13.715 13.715 0 0 1 2.784-2.152 13.935 13.935 0 0 1 3.284-1.373 13.305 13.305 0 0 1 3.655-.501c1.262 0 2.48.167 3.655.501a13.513 13.513 0 0 1 6.068 3.525 13.544 13.544 0 0 1 3.525 6.067c.334 1.175.501 2.394.501 3.656Zm-5.288 0a8.168 8.168 0 0 0-.668-3.285 8.34 8.34 0 0 0-1.818-2.69 8.328 8.328 0 0 0-2.69-1.818 8.153 8.153 0 0 0-3.285-.668 8.198 8.198 0 0 0-3.303.668 8.602 8.602 0 0 0-2.69 1.818 8.338 8.338 0 0 0-1.818 2.69 8.167 8.167 0 0 0-.668 3.285c0 1.162.222 2.257.668 3.284a8.602 8.602 0 0 0 4.509 4.49 8.214 8.214 0 0 0 3.302.668 8.17 8.17 0 0 0 3.284-.668 8.328 8.328 0 0 0 2.69-1.818 8.678 8.678 0 0 0 1.82-2.672 8.167 8.167 0 0 0 .667-3.284Zm22.86 10.873c-.409.371-.848.723-1.318 1.057-.458.322-.94.606-1.447.854a8.84 8.84 0 0 1-1.577.556 6.024 6.024 0 0 1-1.633.223 9.158 9.158 0 0 1-3.451-.649 8.71 8.71 0 0 1-2.84-1.837c-.803-.804-1.44-1.775-1.91-2.913-.458-1.151-.687-2.437-.687-3.86v-10.984h5.047v10.984c0 .668.099 1.268.297 1.8.21.52.488.959.835 1.317.346.359.748.631 1.206.817.47.185.97.278 1.503.278.52 0 1.008-.117 1.466-.352.47-.248.878-.569 1.224-.965.347-.396.619-.841.817-1.336a4.254 4.254 0 0 0 .296-1.559v-10.984h5.066V328h-1.225l-1.67-2.319ZM80.945 328h-5.065v-19.872h1.225l1.67 2.356a8.715 8.715 0 0 1 2.783-1.707 8.757 8.757 0 0 1 3.228-.612h4.472v5.047h-4.472c-.532 0-1.033.099-1.503.297-.47.198-.878.47-1.224.816a3.802 3.802 0 0 0-.817 1.225c-.198.47-.297.971-.297 1.503V328Zm26.422 7.57h-5.102v-27.442h1.224l2.023 2.393a13.4 13.4 0 0 1 1.503-1.224 11.131 11.131 0 0 1 1.688-.984 9.88 9.88 0 0 1 1.837-.667 7.701 7.701 0 0 1 1.911-.242c1.398 0 2.709.254 3.934.761a9.505 9.505 0 0 1 3.228 2.115c.928.916 1.658 2.023 2.19 3.322.532 1.286.798 2.715.798 4.286 0 1.633-.266 3.105-.798 4.416-.532 1.299-1.262 2.406-2.19 3.321a9.398 9.398 0 0 1-3.228 2.078c-1.225.483-2.536.724-3.934.724-.445 0-.89-.05-1.336-.149a10.498 10.498 0 0 1-1.299-.389 19.04 19.04 0 0 1-1.261-.576c-.409-.21-.804-.426-1.188-.649v8.906Zm10.15-17.682c0-.841-.136-1.596-.409-2.264a4.8 4.8 0 0 0-1.076-1.688 4.617 4.617 0 0 0-1.614-1.077 5.256 5.256 0 0 0-1.967-.371c-.693 0-1.348.124-1.967.371a4.654 4.654 0 0 0-1.595 1.077 5.029 5.029 0 0 0-1.095 1.688c-.26.668-.39 1.423-.39 2.264 0 .804.13 1.54.39 2.208a5.25 5.25 0 0 0 1.095 1.707 4.876 4.876 0 0 0 3.562 1.484c.693 0 1.348-.13 1.967-.39a4.832 4.832 0 0 0 1.614-1.094 5.003 5.003 0 0 0 1.076-1.707c.273-.668.409-1.404.409-2.208ZM144.663 328h-1.225l-1.966-2.728c-.483.433-.996.842-1.54 1.225-.532.371-1.095.699-1.689.983-.594.273-1.206.489-1.837.65a7.476 7.476 0 0 1-1.892.241c-1.398 0-2.715-.235-3.952-.705a9.55 9.55 0 0 1-3.229-2.041c-.915-.903-1.639-2.004-2.171-3.303-.532-1.299-.798-2.777-.798-4.434 0-1.547.266-2.963.798-4.249.532-1.299 1.256-2.412 2.171-3.34a9.86 9.86 0 0 1 3.229-2.153 10.11 10.11 0 0 1 3.952-.779c.643 0 1.28.081 1.911.241a9.955 9.955 0 0 1 1.837.668c.593.285 1.156.619 1.688 1.002.544.384 1.052.798 1.522 1.243l1.966-2.356h1.225V328Zm-5.102-10.112c0-.693-.137-1.361-.409-2.004a5.475 5.475 0 0 0-1.076-1.726 5.175 5.175 0 0 0-1.614-1.206 4.23 4.23 0 0 0-1.948-.464c-.693 0-1.349.118-1.967.353a4.567 4.567 0 0 0-1.596 1.039c-.445.458-.798 1.027-1.057 1.707-.26.668-.39 1.435-.39 2.301 0 .866.13 1.639.39 2.319a4.964 4.964 0 0 0 1.057 1.689c.458.457.99.804 1.596 1.039a5.488 5.488 0 0 0 1.967.352 4.37 4.37 0 0 0 1.948-.445 5.574 5.574 0 0 0 1.614-1.206 5.771 5.771 0 0 0 1.076-1.726 5.23 5.23 0 0 0 .409-2.022ZM159.451 328h-11.578v-5.047h11.578c.347 0 .643-.124.891-.371.247-.247.371-.544.371-.891 0-.358-.124-.593-.371-.705a2.167 2.167 0 0 0-.891-.167h-5.269a6.111 6.111 0 0 1-2.468-.501 6.437 6.437 0 0 1-2.004-1.354 6.683 6.683 0 0 1-1.355-2.023 6.324 6.324 0 0 1-.482-2.467c0-.879.161-1.701.482-2.468a6.44 6.44 0 0 1 1.355-2.004 6.19 6.19 0 0 1 2.004-1.336 6.111 6.111 0 0 1 2.468-.501h10.26v5.047h-10.26c-.347 0-.644.124-.891.371a1.215 1.215 0 0 0-.371.891c0 .358.124.668.371.927.247.248.544.371.891.371h5.269c.866 0 1.682.149 2.449.446a6.048 6.048 0 0 1 2.004 1.206 5.734 5.734 0 0 1 1.355 1.874c.334.73.501 1.528.501 2.393 0 .879-.167 1.701-.501 2.468a6.732 6.732 0 0 1-1.355 2.004 6.44 6.44 0 0 1-2.004 1.355 6.278 6.278 0 0 1-2.449.482Zm19.928 0h-11.578v-5.047h11.578c.346 0 .643-.124.891-.371.247-.247.371-.544.371-.891 0-.358-.124-.593-.371-.705a2.17 2.17 0 0 0-.891-.167h-5.27a6.11 6.11 0 0 1-2.467-.501 6.437 6.437 0 0 1-2.004-1.354 6.683 6.683 0 0 1-1.355-2.023 6.324 6.324 0 0 1-.482-2.467c0-.879.161-1.701.482-2.468a6.44 6.44 0 0 1 1.355-2.004 6.19 6.19 0 0 1 2.004-1.336 6.11 6.11 0 0 1 2.467-.501h10.261v5.047h-10.261c-.346 0-.643.124-.89.371a1.211 1.211 0 0 0-.371.891c0 .358.123.668.371.927.247.248.544.371.89.371h5.27c.866 0 1.682.149 2.449.446a6.048 6.048 0 0 1 2.004 1.206 5.734 5.734 0 0 1 1.355 1.874c.334.73.501 1.528.501 2.393 0 .879-.167 1.701-.501 2.468a6.732 6.732 0 0 1-1.355 2.004 6.44 6.44 0 0 1-2.004 1.355 6.278 6.278 0 0 1-2.449.482Zm14.992-25.271c0 .47-.093.909-.278 1.317a3.367 3.367 0 0 1-.724 1.076 3.749 3.749 0 0 1-1.095.724 3.338 3.338 0 0 1-1.317.259c-.47 0-.915-.086-1.336-.259a3.832 3.832 0 0 1-1.076-.724 3.832 3.832 0 0 1-.724-1.076 3.338 3.338 0 0 1-.259-1.317c0-.458.086-.891.259-1.299.186-.421.427-.78.724-1.076a3.35 3.35 0 0 1 1.076-.724 3.267 3.267 0 0 1 1.336-.278c.47 0 .909.092 1.317.278.421.173.786.414 1.095.724.309.296.551.655.724 1.076.185.408.278.841.278 1.299ZM193.499 328h-5.103v-19.872h5.103V328Zm23.082-10.112c0 1.484-.266 2.869-.798 4.156a10.5 10.5 0 0 1-2.171 3.321 10.315 10.315 0 0 1-3.228 2.208c-1.225.532-2.542.798-3.952.798a9.9 9.9 0 0 1-3.953-.798 10.623 10.623 0 0 1-3.228-2.208 10.518 10.518 0 0 1-2.171-3.321c-.532-1.287-.798-2.672-.798-4.156 0-1.509.266-2.907.798-4.194.532-1.286 1.256-2.393 2.171-3.321a10.213 10.213 0 0 1 3.228-2.208 9.9 9.9 0 0 1 3.953-.798c1.41 0 2.727.254 3.952.761a9.365 9.365 0 0 1 3.228 2.134c.916.915 1.639 2.022 2.171 3.321.532 1.286.798 2.721.798 4.305Zm-5.102 0c0-.817-.137-1.553-.409-2.208a5.003 5.003 0 0 0-1.076-1.707 4.5 4.5 0 0 0-1.614-1.095 4.89 4.89 0 0 0-1.948-.39c-.693 0-1.349.13-1.967.39a4.539 4.539 0 0 0-1.596 1.095 5.167 5.167 0 0 0-1.057 1.707c-.26.655-.39 1.391-.39 2.208 0 .767.13 1.478.39 2.133a5.442 5.442 0 0 0 1.057 1.708c.458.482.99.865 1.596 1.15a4.83 4.83 0 0 0 1.967.408 4.89 4.89 0 0 0 1.948-.39 4.842 4.842 0 0 0 1.614-1.094 5.003 5.003 0 0 0 1.076-1.707 5.802 5.802 0 0 0 .409-2.208ZM224.448 328h-5.065v-19.872h1.224l1.67 1.93a8.736 8.736 0 0 1 2.765-1.707 8.785 8.785 0 0 1 3.247-.613c1.212 0 2.357.235 3.433.705a8.7 8.7 0 0 1 2.82 1.911 8.807 8.807 0 0 1 1.893 2.839 8.533 8.533 0 0 1 .705 3.452V328h-5.066v-11.355c0-.52-.099-1.009-.297-1.466a3.798 3.798 0 0 0-2.022-2.041 3.652 3.652 0 0 0-1.466-.297c-.532 0-1.033.099-1.503.297-.47.198-.878.47-1.224.816a3.785 3.785 0 0 0-.817 1.225 3.649 3.649 0 0 0-.297 1.466V328Zm22.544-1.893c0 .446-.08.866-.241 1.262a3.077 3.077 0 0 1-1.67 1.67c-.383.173-.798.26-1.243.26-.433 0-.847-.087-1.243-.26a3.306 3.306 0 0 1-1.021-.668 3.347 3.347 0 0 1-.686-1.002 3.316 3.316 0 0 1-.242-1.262c0-.433.081-.841.242-1.224.173-.384.402-.718.686-1.002a3.306 3.306 0 0 1 1.021-.668c.396-.173.81-.26 1.243-.26.445 0 .86.087 1.243.26a3.077 3.077 0 0 1 1.67 1.67c.161.383.241.791.241 1.224ZM37.436 375h-5.307v-8.331a10.477 10.477 0 0 1-3.247-1.429 10.82 10.82 0 0 1-2.524-2.338 11.044 11.044 0 0 1-1.651-3.024 10.692 10.692 0 0 1-.575-3.507v-7.978h5.325v7.978c0 .73.136 1.423.408 2.078a5.536 5.536 0 0 0 1.15 1.689 5.52 5.52 0 0 0 1.69 1.15 5.369 5.369 0 0 0 2.077.408c.73 0 1.417-.136 2.06-.408a5.459 5.459 0 0 0 1.707-1.15 5.275 5.275 0 0 0 1.132-1.689 5.161 5.161 0 0 0 .426-2.078v-7.978h5.307v7.978c0 1.225-.198 2.394-.594 3.507a10.67 10.67 0 0 1-1.633 3.024 10.82 10.82 0 0 1-2.523 2.338 10.251 10.251 0 0 1-3.229 1.429V375Zm29.483-10.112c0 1.484-.266 2.869-.798 4.156a10.51 10.51 0 0 1-2.17 3.321 10.322 10.322 0 0 1-3.23 2.208c-1.224.532-2.541.798-3.951.798a9.896 9.896 0 0 1-3.953-.798 10.614 10.614 0 0 1-3.228-2.208 10.51 10.51 0 0 1-2.171-3.321c-.532-1.287-.798-2.672-.798-4.156 0-1.509.266-2.907.798-4.194.532-1.286 1.255-2.393 2.17-3.321a10.205 10.205 0 0 1 3.23-2.208 9.896 9.896 0 0 1 3.952-.798c1.41 0 2.727.254 3.952.761a9.37 9.37 0 0 1 3.228 2.134c.916.915 1.64 2.022 2.171 3.321.532 1.286.798 2.721.798 4.305Zm-5.103 0c0-.817-.136-1.553-.408-2.208a5.02 5.02 0 0 0-1.076-1.707 4.495 4.495 0 0 0-1.614-1.095 4.89 4.89 0 0 0-1.949-.39c-.692 0-1.348.13-1.966.39a4.534 4.534 0 0 0-1.596 1.095 5.176 5.176 0 0 0-1.058 1.707c-.26.655-.39 1.391-.39 2.208 0 .767.13 1.478.39 2.133.26.656.613 1.225 1.058 1.708.458.482.99.865 1.596 1.15a4.832 4.832 0 0 0 1.967.408 4.89 4.89 0 0 0 1.948-.39 4.835 4.835 0 0 0 1.614-1.094 5.02 5.02 0 0 0 1.076-1.707 5.8 5.8 0 0 0 .408-2.208Zm22.507 7.793a14.09 14.09 0 0 1-1.317 1.057c-.458.322-.94.606-1.447.854a8.84 8.84 0 0 1-1.578.556 6.024 6.024 0 0 1-1.632.223 9.157 9.157 0 0 1-3.452-.649 8.711 8.711 0 0 1-2.838-1.837c-.804-.804-1.441-1.775-1.912-2.913-.457-1.151-.686-2.437-.686-3.86v-10.984h5.047v10.984c0 .668.099 1.268.297 1.8.21.52.488.959.835 1.317.346.359.748.631 1.206.817.47.185.97.278 1.503.278.52 0 1.008-.117 1.465-.352a4.24 4.24 0 0 0 1.225-.965c.346-.396.619-.841.817-1.336a4.254 4.254 0 0 0 .296-1.559v-10.984h5.066V375h-1.225l-1.67-2.319ZM96.161 375h-5.065v-19.872h1.224l1.67 2.356a8.716 8.716 0 0 1 2.783-1.707 8.758 8.758 0 0 1 3.229-.612h4.472v5.047h-4.472c-.532 0-1.033.099-1.503.297-.47.198-.878.47-1.225.816a3.804 3.804 0 0 0-.816 1.225c-.198.47-.297.971-.297 1.503V375Zm32.23 0h-11.579v-5.047h11.579c.346 0 .643-.124.89-.371.248-.247.371-.544.371-.891 0-.358-.123-.593-.371-.705a2.162 2.162 0 0 0-.89-.167h-5.27a6.115 6.115 0 0 1-2.468-.501 6.437 6.437 0 0 1-2.004-1.354 6.68 6.68 0 0 1-1.354-2.023 6.307 6.307 0 0 1-.483-2.467c0-.879.161-1.701.483-2.468a6.437 6.437 0 0 1 1.354-2.004 6.19 6.19 0 0 1 2.004-1.336 6.115 6.115 0 0 1 2.468-.501h10.261v5.047h-10.261c-.346 0-.643.124-.891.371a1.215 1.215 0 0 0-.371.891c0 .358.124.668.371.927.248.248.545.371.891.371h5.27c.866 0 1.682.149 2.449.446a6.048 6.048 0 0 1 2.004 1.206 5.732 5.732 0 0 1 1.354 1.874c.334.73.501 1.528.501 2.393 0 .879-.167 1.701-.501 2.468a6.729 6.729 0 0 1-1.354 2.004 6.44 6.44 0 0 1-2.004 1.355 6.278 6.278 0 0 1-2.449.482Zm23.62-2.319c-.408.371-.848.723-1.318 1.057-.457.322-.94.606-1.447.854a8.84 8.84 0 0 1-1.577.556 6.024 6.024 0 0 1-1.633.223 9.159 9.159 0 0 1-3.451-.649 8.71 8.71 0 0 1-2.839-1.837c-.804-.804-1.441-1.775-1.911-2.913-.458-1.151-.687-2.437-.687-3.86v-10.984h5.047v10.984c0 .668.099 1.268.297 1.8.21.52.489.959.835 1.317a3.49 3.49 0 0 0 1.206.817c.47.185.971.278 1.503.278.52 0 1.008-.117 1.466-.352a4.25 4.25 0 0 0 1.225-.965c.346-.396.618-.841.816-1.336a4.252 4.252 0 0 0 .297-1.559v-10.984h5.065V375h-1.224l-1.67-2.319Zm24.139-13.601-3.711 3.73a4.877 4.877 0 0 0-.76-1.392 4.933 4.933 0 0 0-1.095-1.058 4.571 4.571 0 0 0-1.299-.649 4.758 4.758 0 0 0-1.447-.223 4.66 4.66 0 0 0-1.967.427 4.886 4.886 0 0 0-1.596 1.206 5.726 5.726 0 0 0-1.057 1.818c-.26.706-.39 1.485-.39 2.338 0 .693.13 1.342.39 1.949.26.606.612 1.138 1.057 1.595.458.458.99.817 1.596 1.076.619.26 1.274.39 1.967.39.495 0 .971-.068 1.429-.204a5.222 5.222 0 0 0 1.28-.575c.408-.26.767-.569 1.076-.928.322-.371.581-.779.779-1.225l3.711 3.73a9.798 9.798 0 0 1-1.633 1.8 9.85 9.85 0 0 1-1.985 1.354 9.382 9.382 0 0 1-2.245.835 9.753 9.753 0 0 1-2.412.297 10.11 10.11 0 0 1-3.952-.779 10.527 10.527 0 0 1-3.229-2.171 10.288 10.288 0 0 1-2.171-3.21 9.767 9.767 0 0 1-.798-3.934c0-1.521.266-2.944.798-4.267.532-1.324 1.256-2.474 2.171-3.451a10.38 10.38 0 0 1 3.229-2.338 9.344 9.344 0 0 1 3.952-.854 9.4 9.4 0 0 1 2.431.316c.804.21 1.564.519 2.282.927.73.396 1.398.885 2.004 1.466a9.063 9.063 0 0 1 1.595 2.004Zm19.557 0-3.711 3.73a4.855 4.855 0 0 0-.761-1.392 4.907 4.907 0 0 0-1.094-1.058 4.571 4.571 0 0 0-1.299-.649 4.763 4.763 0 0 0-1.447-.223c-.693 0-1.349.143-1.967.427a4.886 4.886 0 0 0-1.596 1.206 5.728 5.728 0 0 0-1.058 1.818c-.259.706-.389 1.485-.389 2.338 0 .693.13 1.342.389 1.949.26.606.613 1.138 1.058 1.595.458.458.99.817 1.596 1.076.618.26 1.274.39 1.967.39.494 0 .971-.068 1.428-.204a4.868 4.868 0 0 0 2.357-1.503c.321-.371.581-.779.779-1.225l3.711 3.73a9.798 9.798 0 0 1-1.633 1.8 9.878 9.878 0 0 1-1.985 1.354 9.398 9.398 0 0 1-2.245.835 9.765 9.765 0 0 1-2.412.297c-1.398 0-2.716-.26-3.953-.779a10.534 10.534 0 0 1-3.228-2.171 10.288 10.288 0 0 1-2.171-3.21 9.767 9.767 0 0 1-.798-3.934c0-1.521.266-2.944.798-4.267.532-1.324 1.256-2.474 2.171-3.451a10.387 10.387 0 0 1 3.228-2.338 9.348 9.348 0 0 1 3.953-.854c.828 0 1.639.105 2.43.316.804.21 1.565.519 2.282.927.73.396 1.398.885 2.004 1.466a9.038 9.038 0 0 1 1.596 2.004Zm10.094 11.059c.198.062.396.105.594.13.197.012.395.018.593.018.495 0 .971-.068 1.429-.204a5.206 5.206 0 0 0 1.28-.575c.408-.26.767-.569 1.076-.928a4.88 4.88 0 0 0 .78-1.225l3.711 3.73a9.834 9.834 0 0 1-1.633 1.8 9.878 9.878 0 0 1-1.985 1.354 9.406 9.406 0 0 1-2.246.835 9.753 9.753 0 0 1-2.412.297 10.11 10.11 0 0 1-3.952-.779 10.097 10.097 0 0 1-3.228-2.171c-.916-.928-1.639-2.029-2.171-3.303-.532-1.286-.798-2.696-.798-4.23 0-1.571.266-3.006.798-4.305s1.255-2.406 2.171-3.321a9.979 9.979 0 0 1 3.228-2.134 10.318 10.318 0 0 1 3.952-.761c.829 0 1.639.099 2.431.297.792.198 1.54.482 2.245.854a9.897 9.897 0 0 1 2.004 1.373 9.828 9.828 0 0 1 1.633 1.799l-9.5 11.449Zm2.597-10.447a2.958 2.958 0 0 0-.705-.167 6.559 6.559 0 0 0-.705-.037c-.692 0-1.348.13-1.967.39a4.651 4.651 0 0 0-1.595 1.076 5.17 5.17 0 0 0-1.058 1.707c-.26.656-.389 1.398-.389 2.227 0 .185.006.396.018.631.025.235.056.476.093.723.049.235.105.464.167.687.062.222.142.42.241.593l5.9-7.83ZM228.771 375h-11.578v-5.047h11.578c.347 0 .644-.124.891-.371.248-.247.371-.544.371-.891 0-.358-.123-.593-.371-.705a2.163 2.163 0 0 0-.891-.167h-5.269a6.115 6.115 0 0 1-2.468-.501 6.437 6.437 0 0 1-2.004-1.354 6.68 6.68 0 0 1-1.354-2.023 6.307 6.307 0 0 1-.483-2.467c0-.879.161-1.701.483-2.468a6.437 6.437 0 0 1 1.354-2.004 6.19 6.19 0 0 1 2.004-1.336 6.115 6.115 0 0 1 2.468-.501h10.261v5.047h-10.261c-.346 0-.643.124-.891.371a1.215 1.215 0 0 0-.371.891c0 .358.124.668.371.927.248.248.545.371.891.371h5.269c.866 0 1.683.149 2.45.446a6.048 6.048 0 0 1 2.004 1.206 5.732 5.732 0 0 1 1.354 1.874c.334.73.501 1.528.501 2.393 0 .879-.167 1.701-.501 2.468a6.729 6.729 0 0 1-1.354 2.004 6.44 6.44 0 0 1-2.004 1.355 6.283 6.283 0 0 1-2.45.482Zm19.928 0h-11.578v-5.047h11.578c.347 0 .643-.124.891-.371.247-.247.371-.544.371-.891 0-.358-.124-.593-.371-.705a2.167 2.167 0 0 0-.891-.167h-5.269a6.111 6.111 0 0 1-2.468-.501 6.437 6.437 0 0 1-2.004-1.354 6.68 6.68 0 0 1-1.354-2.023 6.307 6.307 0 0 1-.483-2.467c0-.879.161-1.701.483-2.468a6.437 6.437 0 0 1 1.354-2.004 6.19 6.19 0 0 1 2.004-1.336 6.111 6.111 0 0 1 2.468-.501h10.26v5.047h-10.26c-.347 0-.644.124-.891.371a1.215 1.215 0 0 0-.371.891c0 .358.124.668.371.927.247.248.544.371.891.371h5.269c.866 0 1.683.149 2.449.446a6.048 6.048 0 0 1 2.004 1.206 5.734 5.734 0 0 1 1.355 1.874c.334.73.501 1.528.501 2.393 0 .879-.167 1.701-.501 2.468a6.732 6.732 0 0 1-1.355 2.004 6.44 6.44 0 0 1-2.004 1.355 6.274 6.274 0 0 1-2.449.482Zm14.38-6.568h-4.138l-1.131-20.039h6.419l-1.15 20.039Zm1.113 4.675c0 .446-.086.866-.259 1.262a3.093 3.093 0 0 1-.668 1.002 3.098 3.098 0 0 1-1.002.668c-.384.173-.792.26-1.225.26-.445 0-.86-.087-1.243-.26a3.306 3.306 0 0 1-1.021-.668 3.347 3.347 0 0 1-.686-1.002 3.316 3.316 0 0 1-.241-1.262c0-.433.08-.841.241-1.224.173-.384.402-.718.686-1.002a3.306 3.306 0 0 1 1.021-.668c.383-.173.798-.26 1.243-.26.433 0 .841.087 1.225.26.383.161.717.383 1.002.668.284.284.507.618.668 1.002.173.383.259.791.259 1.224Z" fill="#000"/><rect x="23" y="404" width="163" height="64" rx="11" fill="#006FAD"/><path d="M65.478 433.195c0-.579.111-1.123.333-1.631.22-.507.52-.95.898-1.328.384-.384.83-.687 1.338-.908a4.042 4.042 0 0 1 1.63-.332h6.426v2.803h-6.425a1.4 1.4 0 0 0-.547.107 1.372 1.372 0 0 0-.85 1.289c0 .196.036.381.108.557.071.169.169.319.293.449.13.124.28.222.449.293.17.072.351.108.547.108h2.803c.579 0 1.123.11 1.63.332.515.214.96.514 1.338.898.384.378.684.824.899 1.338.221.508.332 1.051.332 1.631a4.04 4.04 0 0 1-.332 1.631 4.192 4.192 0 0 1-.899 1.338 4.244 4.244 0 0 1-1.338.898 4.042 4.042 0 0 1-1.63.332H66.26v-2.803h6.22a1.4 1.4 0 0 0 .987-.4 1.394 1.394 0 0 0 .41-.996c0-.196-.036-.378-.108-.547a1.302 1.302 0 0 0-.302-.44 1.287 1.287 0 0 0-.44-.302 1.382 1.382 0 0 0-.546-.108h-2.803c-.58 0-1.123-.11-1.631-.332a4.398 4.398 0 0 1-1.338-.898 4.392 4.392 0 0 1-.898-1.338 4.105 4.105 0 0 1-.333-1.641Zm16.924 7.246c.105.033.209.056.313.069.104.006.208.01.312.01.26 0 .511-.036.752-.108a2.72 2.72 0 0 0 .674-.303 2.576 2.576 0 0 0 .977-1.132l1.953 1.962a5.154 5.154 0 0 1-.86.948 5.227 5.227 0 0 1-2.226 1.152c-.41.104-.834.156-1.27.156a5.306 5.306 0 0 1-2.08-.41 5.31 5.31 0 0 1-1.699-1.142 5.422 5.422 0 0 1-1.142-1.739 5.769 5.769 0 0 1-.42-2.226c0-.827.14-1.582.42-2.266.28-.683.66-1.266 1.142-1.748a5.258 5.258 0 0 1 1.7-1.123 5.427 5.427 0 0 1 2.08-.4 5.262 5.262 0 0 1 2.46.605c.378.195.73.436 1.055.723.325.28.612.595.86.947l-5 6.025Zm1.367-5.498a1.563 1.563 0 0 0-.37-.088 3.372 3.372 0 0 0-.372-.019c-.364 0-.71.068-1.035.205-.319.13-.599.319-.84.566a2.73 2.73 0 0 0-.556.899 3.162 3.162 0 0 0-.205 1.172c0 .097.003.208.01.332.012.123.029.25.048.381.026.123.056.244.088.361.033.117.075.221.127.312l3.105-4.121ZM91.416 443H88.75v-10.459h.644l.88 1.24c.43-.39.917-.69 1.464-.898a4.604 4.604 0 0 1 1.7-.322h2.353v2.656h-2.353a2.02 2.02 0 0 0-1.436.586 2.019 2.019 0 0 0-.586 1.435V443Zm8.584 0-3.984-10.459h3.037l2.285 6.523 2.275-6.523h3.047L102.676 443H100Zm10.82-13.301c0 .248-.049.479-.146.694a1.776 1.776 0 0 1-.381.566 1.992 1.992 0 0 1-.576.381 1.761 1.761 0 0 1-.694.137c-.247 0-.481-.046-.703-.137a2.025 2.025 0 0 1-.566-.381 2.04 2.04 0 0 1-.381-.566 1.761 1.761 0 0 1-.137-.694c0-.241.046-.469.137-.683a1.781 1.781 0 0 1 .947-.948 1.736 1.736 0 0 1 1.397 0 1.76 1.76 0 0 1 .957.948c.097.214.146.442.146.683ZM110.361 443h-2.685v-10.459h2.685V443Zm11.182-8.379-1.953 1.963a2.555 2.555 0 0 0-.401-.732 2.57 2.57 0 0 0-.576-.557 2.392 2.392 0 0 0-.683-.342 2.525 2.525 0 0 0-1.797.108 2.556 2.556 0 0 0-.84.634c-.234.267-.42.586-.557.957a3.556 3.556 0 0 0-.205 1.231c0 .364.069.706.205 1.025.137.319.323.599.557.84a2.638 2.638 0 0 0 1.875.772c.26 0 .511-.036.752-.108.241-.072.465-.172.674-.303a2.578 2.578 0 0 0 .976-1.132l1.953 1.962a5.124 5.124 0 0 1-.859.948 5.217 5.217 0 0 1-2.226 1.152 5.155 5.155 0 0 1-1.27.156 5.305 5.305 0 0 1-2.08-.41 5.538 5.538 0 0 1-1.699-1.142 5.413 5.413 0 0 1-1.143-1.69 5.138 5.138 0 0 1-.42-2.07c0-.801.14-1.55.42-2.246a5.782 5.782 0 0 1 1.143-1.817 5.445 5.445 0 0 1 1.699-1.23 4.908 4.908 0 0 1 2.08-.449c.436 0 .863.055 1.279.166.423.11.824.273 1.201.488.385.208.736.465 1.055.771.326.306.606.658.84 1.055Zm5.312 5.82c.105.033.209.056.313.069.104.006.208.01.312.01a2.716 2.716 0 0 0 1.426-.411 2.578 2.578 0 0 0 .977-1.132l1.953 1.962a5.16 5.16 0 0 1-.859.948 5.245 5.245 0 0 1-2.227 1.152c-.41.104-.833.156-1.27.156a5.308 5.308 0 0 1-2.08-.41 5.312 5.312 0 0 1-1.699-1.142 5.418 5.418 0 0 1-1.142-1.739 5.769 5.769 0 0 1-.42-2.226c0-.827.14-1.582.42-2.266.28-.683.66-1.266 1.142-1.748a5.26 5.26 0 0 1 1.699-1.123 5.43 5.43 0 0 1 2.08-.4 5.265 5.265 0 0 1 2.461.605c.378.195.73.436 1.055.723.326.28.612.595.859.947l-5 6.025Zm1.368-5.498a1.573 1.573 0 0 0-.371-.088 3.39 3.39 0 0 0-.372-.019c-.364 0-.709.068-1.035.205-.319.13-.599.319-.84.566a2.738 2.738 0 0 0-.556.899 3.156 3.156 0 0 0-.205 1.172c0 .097.003.208.01.332.013.123.029.25.048.381.026.123.056.244.088.361.033.117.075.221.127.312l3.106-4.121ZM138.945 443h-6.093v-2.656h6.093a.636.636 0 0 0 .469-.196.638.638 0 0 0 .195-.468c0-.189-.065-.313-.195-.371a1.128 1.128 0 0 0-.469-.088h-2.773c-.462 0-.895-.088-1.299-.264a3.387 3.387 0 0 1-1.055-.713 3.53 3.53 0 0 1-.713-1.064 3.331 3.331 0 0 1-.253-1.299c0-.462.084-.895.253-1.299.176-.404.414-.755.713-1.055.3-.299.651-.534 1.055-.703a3.216 3.216 0 0 1 1.299-.263h5.4v2.656h-5.4a.64.64 0 0 0-.469.195.64.64 0 0 0-.195.469c0 .189.065.351.195.488a.64.64 0 0 0 .469.195h2.773c.456 0 .886.079 1.289.235.404.15.756.361 1.055.635a3.012 3.012 0 0 1 .977 2.246c0 .462-.088.895-.264 1.299a3.54 3.54 0 0 1-.713 1.054c-.299.3-.651.537-1.055.713a3.3 3.3 0 0 1-1.289.254Z" fill="#fff"/><path d="M252.719 44h-7.68V32.797h7.68v2.242h-5.438v2.242h3.68v2.242h-3.68v2.235h5.438V44Zm10.531 0h-2.398l-4.321-7.375V44h-2.242V32.797h2.399l4.32 7.383v-7.383h2.242V44Z" fill="#000"/><path d="M287.766 38.398c0 .516-.068 1.013-.204 1.493-.13.474-.317.919-.562 1.336a5.924 5.924 0 0 1-.875 1.132 5.63 5.63 0 0 1-2.477 1.446c-.474.13-.968.195-1.484.195h-3.375V32.797h3.375c.516 0 1.01.068 1.484.203a5.45 5.45 0 0 1 2.477 1.445c.339.339.63.716.875 1.133.245.412.432.857.562 1.336.136.474.204.969.204 1.484Zm-2.243 0a3.23 3.23 0 0 0-.265-1.304 3.256 3.256 0 0 0-.719-1.063 3.333 3.333 0 0 0-1.07-.726 3.231 3.231 0 0 0-1.305-.266h-1.117v6.719h1.117a3.316 3.316 0 0 0 2.375-.977c.307-.307.547-.664.719-1.07.177-.411.265-.849.265-1.313ZM296.938 44h-7.68V32.797h7.68v2.242H291.5v2.242h3.68v2.242h-3.68v2.235h5.438V44Z" fill="#fff"/></g><path d="M325.305 167.643c-3.057-14.795-17.624-24.562-32.874-21.873-10.789 1.902-18.639 9.636-21.726 19.848-1.009.01-2.778.019-3.772.194-6.962 1.228-12.547 6.314-14.406 12.923-9.424 2.099-15.657 11.158-13.994 20.587 1.71 9.7 11.141 16.173 21.019 14.431l63.99-11.283c9.877-1.742 16.526-11.05 14.815-20.75-1.204-6.83-6.341-12.286-13.052-14.077Zm-2.649 29.801-63.991 11.283c-7.056 1.244-13.791-3.38-15.013-10.308-1.222-6.928 3.526-13.577 10.582-14.821.159-.028.315-.043.473-.06l2.209-.255.321-1.904c.91-5.348 5.164-9.586 10.583-10.541a13.151 13.151 0 0 1 3.785-.113l2.354.266.501-2.28c2.026-9.221 9.425-16.252 18.857-17.915 12.703-2.24 24.825 6.085 27.024 18.554l.355 2.64 1.881.298c5.438.86 9.723 5.015 10.661 10.335 1.222 6.928-3.526 13.577-10.582 14.821Z" fill="#D5D8F4"/><path d="M34.397 28.958v9.53h4.764a4.68 4.68 0 0 0 1.843-.366 4.943 4.943 0 0 0 1.51-1.03c.432-.43.77-.934 1.013-1.51a4.62 4.62 0 0 0 .382-1.86c0-.652-.127-1.267-.382-1.842a4.66 4.66 0 0 0-2.523-2.54 4.505 4.505 0 0 0-1.843-.382h-4.764Zm0 19.042h-4.765V24.193h9.53c.873 0 1.715.117 2.523.349a8.9 8.9 0 0 1 2.257.963c.709.41 1.35.907 1.926 1.494a8.989 8.989 0 0 1 1.494 1.926 9.19 9.19 0 0 1 .963 2.274c.233.808.349 1.65.349 2.524a9.3 9.3 0 0 1-.747 3.702 9.649 9.649 0 0 1-2.042 3.021 9.595 9.595 0 0 1-3.038 2.042 9.182 9.182 0 0 1-3.686.747h-4.764V48Zm31.094-9.513v-4.764c0-.653-.127-1.268-.382-1.843a4.664 4.664 0 0 0-1.012-1.527 4.664 4.664 0 0 0-1.528-1.013 4.505 4.505 0 0 0-1.842-.382c-.653 0-1.273.127-1.86.382a4.71 4.71 0 0 0-1.51 1.012 4.89 4.89 0 0 0-1.03 1.528 4.682 4.682 0 0 0-.365 1.843v4.764h9.53ZM70.256 48H65.49v-4.765h-9.53V48h-4.747V33.723c0-1.317.249-2.551.747-3.703a9.738 9.738 0 0 1 2.025-3.038 9.647 9.647 0 0 1 3.022-2.042 9.34 9.34 0 0 1 3.719-.747c1.317 0 2.55.25 3.702.747a9.595 9.595 0 0 1 3.038 2.042 9.595 9.595 0 0 1 2.042 3.038 9.222 9.222 0 0 1 .747 3.703V48Zm13.397 0h-4.748V28.958H71.75v-4.765h19.042v4.765h-7.139V48Zm38.201-2.44a12.135 12.135 0 0 1-3.719 2.191c-1.373.51-2.795.764-4.267.764a11.9 11.9 0 0 1-3.27-.449 12.503 12.503 0 0 1-2.939-1.228 12.808 12.808 0 0 1-2.49-1.943 12.754 12.754 0 0 1-1.942-2.49 13.007 13.007 0 0 1-1.246-2.938 12.364 12.364 0 0 1-.431-3.27c0-1.13.144-2.22.431-3.271.299-1.052.714-2.031 1.246-2.939a12.535 12.535 0 0 1 4.432-4.432 12.094 12.094 0 0 1 2.939-1.245 11.896 11.896 0 0 1 3.27-.449c1.472 0 2.894.255 4.267.764a11.708 11.708 0 0 1 3.719 2.191l-2.524 4.15a7.035 7.035 0 0 0-2.474-1.726 7.477 7.477 0 0 0-2.988-.614c-1.051 0-2.036.2-2.955.598a7.697 7.697 0 0 0-2.407 1.627 7.452 7.452 0 0 0-1.627 2.407 7.295 7.295 0 0 0-.598 2.938c0 1.04.199 2.02.598 2.939a7.695 7.695 0 0 0 4.034 4.017 7.347 7.347 0 0 0 2.955.598c1.041 0 2.037-.2 2.988-.598a7.224 7.224 0 0 0 2.474-1.743l2.524 4.15Zm19.44 2.44h-16.668V24.193h4.765v19.042h11.903V48Zm24.985-11.804c0 1.13-.149 2.22-.448 3.27a12.518 12.518 0 0 1-1.228 2.94 12.34 12.34 0 0 1-1.926 2.49c-.753.752-1.583 1.4-2.49 1.942-.908.531-1.888.94-2.939 1.228a11.905 11.905 0 0 1-3.27.449c-1.129 0-2.22-.15-3.271-.449a12.496 12.496 0 0 1-2.938-1.228 12.785 12.785 0 0 1-2.491-1.943 12.792 12.792 0 0 1-1.942-2.49 13.05 13.05 0 0 1-1.245-2.938 12.324 12.324 0 0 1-.432-3.27c0-1.13.144-2.22.432-3.271.299-1.052.714-2.031 1.245-2.939a12.792 12.792 0 0 1 1.942-2.49 12.291 12.291 0 0 1 2.491-1.926c.918-.531 1.898-.94 2.938-1.228a11.903 11.903 0 0 1 3.271-.448 11.9 11.9 0 0 1 3.27.448c1.051.288 2.031.697 2.939 1.228a12.313 12.313 0 0 1 2.49 1.926 12.34 12.34 0 0 1 1.926 2.49c.531.908.94 1.887 1.228 2.939.299 1.051.448 2.141.448 3.27Zm-4.731 0c0-1.04-.199-2.02-.598-2.938a7.452 7.452 0 0 0-1.627-2.407 7.452 7.452 0 0 0-2.407-1.627 7.305 7.305 0 0 0-2.938-.598 7.35 7.35 0 0 0-2.956.598 7.708 7.708 0 0 0-2.407 1.627 7.468 7.468 0 0 0-1.627 2.407 7.311 7.311 0 0 0-.597 2.938c0 1.04.199 2.02.597 2.939a7.772 7.772 0 0 0 1.627 2.39 7.706 7.706 0 0 0 2.407 1.627 7.348 7.348 0 0 0 2.956.598c1.04 0 2.019-.2 2.938-.598a7.45 7.45 0 0 0 2.407-1.627 7.755 7.755 0 0 0 1.627-2.39 7.296 7.296 0 0 0 .598-2.939Zm26.645 2.291a9.341 9.341 0 0 1-.747 3.72 9.632 9.632 0 0 1-2.042 3.02 9.732 9.732 0 0 1-3.038 2.026 9.22 9.22 0 0 1-3.702.747 9.34 9.34 0 0 1-3.719-.747 9.783 9.783 0 0 1-3.021-2.026 9.794 9.794 0 0 1-2.026-3.02 9.341 9.341 0 0 1-.747-3.72V24.193h4.748v14.294c0 .653.122 1.268.366 1.843.254.576.597 1.08 1.029 1.51a4.94 4.94 0 0 0 1.511 1.03 4.798 4.798 0 0 0 1.859.365c.653 0 1.267-.121 1.843-.365a4.883 4.883 0 0 0 1.527-1.03 4.711 4.711 0 0 0 1.013-1.51c.254-.575.382-1.19.382-1.843V24.193h4.764v14.294Zm23.209-2.39c0 1.095-.144 2.152-.431 3.17a11.675 11.675 0 0 1-1.196 2.84c-.52.874-1.14 1.676-1.859 2.407-.719.72-1.522 1.339-2.407 1.859-.886.52-1.837.924-2.856 1.212a11.849 11.849 0 0 1-3.154.415h-7.172V24.193h7.172c1.096 0 2.147.144 3.154.432a11.63 11.63 0 0 1 5.263 3.071c.719.72 1.339 1.522 1.859 2.407.521.875.919 1.821 1.196 2.84.287 1.007.431 2.058.431 3.154Zm-4.764 0c0-.985-.188-1.91-.565-2.773a6.898 6.898 0 0 0-1.527-2.258 7.07 7.07 0 0 0-2.275-1.543 6.86 6.86 0 0 0-2.772-.565h-2.374v14.277h2.374c.985 0 1.909-.182 2.772-.547a7.087 7.087 0 0 0 3.802-3.802 6.968 6.968 0 0 0 .565-2.79ZM67.375 59.647c0-.435.083-.843.249-1.224a3.203 3.203 0 0 1 1.677-1.677c.381-.166.789-.249 1.223-.249h4.82V58.6h-4.82a1.041 1.041 0 0 0-1.047 1.048c0 .146.027.285.08.417.054.127.128.24.22.337.098.093.21.166.337.22.127.053.264.08.41.08h2.102c.435 0 .843.083 1.224.25.385.16.72.385 1.003.673.288.283.513.618.674 1.003.166.381.249.789.249 1.224 0 .434-.083.842-.25 1.223a3.128 3.128 0 0 1-1.676 1.677c-.381.166-.789.249-1.224.249h-4.665v-2.102h4.665a1.042 1.042 0 0 0 .967-.637c.054-.127.08-.264.08-.41 0-.147-.026-.284-.08-.41a.971.971 0 0 0-.227-.33.971.971 0 0 0-.33-.227 1.042 1.042 0 0 0-.41-.08h-2.102c-.434 0-.842-.084-1.223-.25a3.294 3.294 0 0 1-1.003-.674 3.295 3.295 0 0 1-.674-1.003 3.08 3.08 0 0 1-.249-1.23Zm24.28 2.145c0 .498-.066.98-.198 1.443a5.511 5.511 0 0 1-.542 1.297c-.234.4-.518.766-.85 1.098a5.64 5.64 0 0 1-1.098.857c-.4.235-.833.415-1.297.542a5.254 5.254 0 0 1-1.442.198c-.498 0-.98-.066-1.443-.198a5.516 5.516 0 0 1-1.297-.542 5.644 5.644 0 0 1-1.955-1.955 5.746 5.746 0 0 1-.55-1.297 5.44 5.44 0 0 1-.19-1.443c0-.498.063-.979.19-1.442.132-.464.315-.896.55-1.297.239-.4.525-.766.857-1.098a5.426 5.426 0 0 1 1.098-.85 5.512 5.512 0 0 1 1.297-.542 5.253 5.253 0 0 1 1.443-.198c.498 0 .979.066 1.442.198a5.344 5.344 0 0 1 2.395 1.392 5.344 5.344 0 0 1 1.392 2.395c.132.464.198.944.198 1.443Zm-2.088 0c0-.459-.087-.89-.263-1.296a3.288 3.288 0 0 0-.718-1.062 3.288 3.288 0 0 0-1.062-.718 3.222 3.222 0 0 0-1.296-.263 3.24 3.24 0 0 0-1.304.263 3.4 3.4 0 0 0-1.062.718 3.29 3.29 0 0 0-.718 1.062 3.224 3.224 0 0 0-.264 1.296c0 .46.088.892.264 1.297a3.4 3.4 0 0 0 1.78 1.772c.405.176.84.264 1.304.264.459 0 .89-.088 1.296-.264a3.29 3.29 0 0 0 1.062-.717c.303-.303.542-.655.718-1.055.175-.405.263-.837.263-1.297ZM104.597 67h-7.354V56.497h2.102v8.4h5.252V67Zm13.586-4.197c0 .581-.11 1.128-.329 1.64-.22.509-.521.953-.901 1.334a4.298 4.298 0 0 1-1.341.893c-.508.22-1.052.33-1.633.33s-1.128-.11-1.641-.33a4.331 4.331 0 0 1-1.333-.893 4.322 4.322 0 0 1-.893-1.333 4.116 4.116 0 0 1-.33-1.64v-6.307h2.095v6.306c0 .288.054.56.161.813.112.254.264.476.454.667.191.19.413.341.667.454.258.107.532.16.82.16a2.066 2.066 0 0 0 1.487-.614c.19-.19.339-.413.447-.667.112-.254.168-.525.168-.813v-6.306h2.102v6.306ZM128.62 67h-2.095v-8.4h-3.156v-2.103h8.401V58.6h-3.15V67Zm10.569 0h-2.102V56.497h2.102V67Zm16.45-5.208c0 .498-.066.98-.198 1.443a5.49 5.49 0 0 1-.542 1.297c-.234.4-.517.766-.849 1.098a5.625 5.625 0 0 1-1.099.857c-.4.235-.832.415-1.296.542a5.255 5.255 0 0 1-1.443.198c-.498 0-.979-.066-1.443-.198a5.508 5.508 0 0 1-1.296-.542 5.625 5.625 0 0 1-1.099-.857 5.633 5.633 0 0 1-.857-1.098 5.772 5.772 0 0 1-.549-1.297 5.44 5.44 0 0 1-.191-1.443c0-.498.064-.979.191-1.442.132-.464.315-.896.549-1.297.239-.4.525-.766.857-1.098a5.409 5.409 0 0 1 1.099-.85 5.503 5.503 0 0 1 1.296-.542 5.255 5.255 0 0 1 1.443-.198c.498 0 .979.066 1.443.198a5.333 5.333 0 0 1 2.395 1.392 5.325 5.325 0 0 1 1.391 2.395c.132.464.198.944.198 1.443Zm-2.087 0a3.22 3.22 0 0 0-.264-1.296 3.288 3.288 0 0 0-.718-1.062 3.292 3.292 0 0 0-1.062-.718 3.22 3.22 0 0 0-1.296-.263 3.24 3.24 0 0 0-1.304.263 3.404 3.404 0 0 0-1.062.718 3.288 3.288 0 0 0-.718 1.062 3.235 3.235 0 0 0-.263 1.296c0 .46.088.892.263 1.297a3.405 3.405 0 0 0 1.78 1.772c.405.176.84.264 1.304.264a3.22 3.22 0 0 0 1.296-.264c.41-.175.764-.415 1.062-.717.303-.303.542-.655.718-1.055a3.22 3.22 0 0 0 .264-1.297ZM169.628 67h-2.248l-4.05-6.914V67h-2.102V56.497h2.248l4.05 6.922v-6.922h2.102V67Zm5.545-7.353c0-.435.083-.843.249-1.224a3.192 3.192 0 0 1 1.677-1.677 3.03 3.03 0 0 1 1.223-.249h4.82V58.6h-4.82a1.043 1.043 0 0 0-.967.637 1.11 1.11 0 0 0 0 .828c.054.127.127.24.22.337.098.093.21.166.337.22.127.053.264.08.41.08h2.102c.435 0 .843.083 1.223.25.386.16.721.385 1.004.673.288.283.513.618.674 1.003.166.381.249.789.249 1.224 0 .434-.083.842-.249 1.223a3.127 3.127 0 0 1-1.678 1.677c-.38.166-.788.249-1.223.249h-4.665v-2.102h4.665a1.036 1.036 0 0 0 .967-.637c.054-.127.081-.264.081-.41 0-.147-.027-.284-.081-.41a.971.971 0 0 0-.227-.33.975.975 0 0 0-.33-.227 1.036 1.036 0 0 0-.41-.08h-2.102a3.03 3.03 0 0 1-1.223-.25 3.29 3.29 0 0 1-1.003-.674 3.283 3.283 0 0 1-.674-1.003 3.08 3.08 0 0 1-.249-1.23Z" fill="#0E0E0E"/><defs><clipPath id="a"><path fill="#fff" d="M0 0h390v844H0z"/></clipPath></defs></svg>