<svg width="621" height="661" viewBox="0 0 621 661" fill="none" xmlns="http://www.w3.org/2000/svg">
<g filter="url(#filter0_d_471_512)">
<rect x="2.5" y="12.5" width="546" height="595.511" rx="61.5" fill="white" stroke="#CDCDCD" stroke-width="5"/>
<g clip-path="url(#clip0_471_512)">
<rect x="388" y="128" width="120" height="120" fill="white"/>
<rect x="388" y="248" width="120" height="120" fill="#48454A"/>
<rect x="388" y="368" width="120" height="120" fill="white"/>
<rect x="148" y="128" width="120" height="120" fill="white"/>
<rect x="148" y="248" width="120" height="120" fill="#48454A"/>
<rect x="148" y="368" width="120" height="120" fill="white"/>
<rect x="28" y="128" width="120" height="120" fill="#48454A"/>
<rect x="28" y="248" width="120" height="120" fill="white"/>
<rect x="28" y="368" width="120" height="120" fill="#48454A"/>
<rect x="268" y="128" width="120" height="120" fill="#48454A"/>
<rect x="268" y="248" width="120" height="120" fill="white"/>
<rect x="268" y="368" width="120" height="120" fill="#48454A"/>
</g>
<rect x="42" y="132" width="462" height="352" rx="6" stroke="#178EFF" stroke-width="8"/>
<path d="M63.625 63C65.8906 63.4844 67.9297 64.1875 69.7422 65.1094C71.5547 66.0156 73.0938 67.1797 74.3594 68.6016C75.6406 70.0234 76.6172 71.7266 77.2891 73.7109C77.9766 75.6797 78.3203 77.9688 78.3203 80.5781C78.3203 84.0313 77.7422 86.9375 76.5859 89.2969C75.4297 91.6406 73.7969 93.5313 71.6875 94.9688C69.5938 96.4063 67.0703 97.4375 64.1172 98.0625C61.1641 98.6875 57.8984 99 54.3203 99H36.3203V88.8281L39.3203 88.2422V72.8906L36.3203 72.3047V63H63.625ZM56.6172 88.2422C58.2891 88.2422 59.5781 88.0625 60.4844 87.7031C61.3906 87.3281 62.0469 86.8047 62.4531 86.1328C62.875 85.4609 63.1172 84.6563 63.1797 83.7188C63.2578 82.7813 63.2969 81.7344 63.2969 80.5781C63.2969 79.4219 63.2578 78.375 63.1797 77.4375C63.1172 76.4844 62.875 75.6719 62.4531 75C62.0469 74.3281 61.3906 73.8125 60.4844 73.4531C59.5781 73.0781 58.2891 72.8906 56.6172 72.8906H54.3203V88.2422H56.6172ZM81.7891 66H101.523V75.2344L98.7109 75.7734V89.1094L101.523 89.6484V99H81.7891V89.6484L84.6016 89.1094V75.7734L81.7891 75.2344V66ZM134.781 88.6172C134.781 90.0703 134.57 91.3594 134.148 92.4844C133.742 93.5938 133.18 94.5625 132.461 95.3906C131.758 96.2031 130.914 96.8828 129.93 97.4297C128.961 97.9766 127.914 98.4219 126.789 98.7656C125.664 99.0938 124.484 99.2813 123.25 99.3281C122.031 99.3906 120.813 99.4219 119.594 99.4219C117.906 99.4219 116.383 99.3828 115.023 99.3047C113.664 99.2266 112.445 99.0547 111.367 98.7891C110.305 98.5234 109.359 98.2344 108.531 97.9219C107.719 97.5938 107 97.2734 106.375 96.9609V88.8281H113.008C113.664 89.8594 114.414 90.6172 115.258 91.1016C116.102 91.5859 116.969 91.8281 117.859 91.8281C118.125 91.8281 118.422 91.8047 118.75 91.7578C119.078 91.7109 119.383 91.5625 119.664 91.3125C119.945 91.0625 120.18 90.6797 120.367 90.1641C120.57 89.6328 120.672 88.8906 120.672 87.9375C119.406 87.8281 118.148 87.6719 116.898 87.4688C115.664 87.25 114.477 86.9609 113.336 86.6016C112.211 86.2422 111.164 85.7891 110.195 85.2422C109.227 84.6797 108.383 84.0078 107.664 83.2266C106.961 82.4297 106.406 81.5 106 80.4375C105.594 79.3594 105.391 78.125 105.391 76.7344C105.391 75.1406 105.594 73.75 106 72.5625C106.406 71.3594 106.961 70.3281 107.664 69.4688C108.367 68.6094 109.195 67.8984 110.148 67.3359C111.117 66.7734 112.156 66.3281 113.266 66C114.375 65.6719 115.531 65.4453 116.734 65.3203C117.938 65.1797 119.141 65.1094 120.344 65.1094C122.047 65.1094 123.57 65.1953 124.914 65.3672C126.273 65.5391 127.484 65.7578 128.547 66.0234C129.625 66.2891 130.57 66.5859 131.383 66.9141C132.211 67.2266 132.945 67.5313 133.586 67.8281V76.0313H126.484C125.891 74.9063 125.211 74.0859 124.445 73.5703C123.68 73.0547 122.898 72.7969 122.102 72.7969C121.836 72.7969 121.531 72.8438 121.188 72.9375C120.844 73.0156 120.523 73.2031 120.227 73.5C119.93 73.7969 119.68 74.2344 119.477 74.8125C119.273 75.3906 119.172 76.1719 119.172 77.1563C121.75 77.25 124.008 77.5234 125.945 77.9766C127.898 78.4297 129.531 79.1094 130.844 80.0156C132.156 80.9063 133.141 82.0625 133.797 83.4844C134.453 84.8906 134.781 86.6016 134.781 88.6172ZM151.891 82.0547C151.891 84.5391 152.523 86.3516 153.789 87.4922C155.055 88.6172 156.852 89.1797 159.18 89.1797C160.555 89.1797 162.164 89.0078 164.008 88.6641C165.867 88.3203 167.961 87.7969 170.289 87.0938V97.2891C165.602 98.7109 161.094 99.4219 156.766 99.4219C154.078 99.4219 151.578 99.1094 149.266 98.4844C146.953 97.8438 144.945 96.7969 143.242 95.3438C141.539 93.8906 140.195 92.0625 139.211 89.8594C138.242 87.6406 137.758 85.0391 137.758 82.0547C137.758 79.1016 138.203 76.5625 139.094 74.4375C140 72.2969 141.273 70.5391 142.914 69.1641C144.57 67.7734 146.555 66.75 148.867 66.0938C151.18 65.4375 153.758 65.1094 156.602 65.1094C158.336 65.1094 159.898 65.1953 161.289 65.3672C162.695 65.5391 163.953 65.7578 165.063 66.0234C166.188 66.2891 167.172 66.5859 168.016 66.9141C168.875 67.2266 169.633 67.5313 170.289 67.8281V78.0234H163.656C162.906 76.9922 162.078 76.2344 161.172 75.75C160.266 75.25 159.32 75 158.336 75C157.523 75 156.727 75.1563 155.945 75.4688C155.18 75.7813 154.492 76.2422 153.883 76.8516C153.289 77.4453 152.805 78.1797 152.43 79.0547C152.07 79.9297 151.891 80.9297 151.891 82.0547ZM193.258 99.4219C190.508 99.4219 187.93 99.1328 185.523 98.5547C183.133 97.9609 181.047 96.9531 179.266 95.5313C177.5 94.0938 176.102 92.2656 175.07 90.0469C174.055 87.8281 173.547 85.1641 173.547 82.0547C173.547 79.0078 174.055 76.4141 175.07 74.2734C176.102 72.1172 177.508 70.3672 179.289 69.0234C181.07 67.6641 183.156 66.6719 185.547 66.0469C187.938 65.4219 190.508 65.1094 193.258 65.1094C195.992 65.1094 198.555 65.4219 200.945 66.0469C203.352 66.6719 205.445 67.6641 207.227 69.0234C209.023 70.3672 210.438 72.1172 211.469 74.2734C212.5 76.4141 213.016 79.0078 213.016 82.0547C213.016 84.1172 212.781 85.9922 212.313 87.6797C211.844 89.3516 211.18 90.8438 210.32 92.1563C209.477 93.4531 208.453 94.5781 207.25 95.5313C206.063 96.4688 204.734 97.25 203.266 97.875C201.797 98.4844 200.219 98.8906 198.531 99.0938C196.844 99.3125 195.086 99.4219 193.258 99.4219ZM193.258 75.0938C192.336 75.0938 191.555 75.2109 190.914 75.4453C190.289 75.6797 189.766 75.9844 189.344 76.3594C188.938 76.7344 188.617 77.1641 188.383 77.6484C188.148 78.1328 187.977 78.6328 187.867 79.1484C187.773 79.6484 187.711 80.1484 187.68 80.6484C187.664 81.1328 187.656 81.5625 187.656 81.9375C187.656 82.2969 187.664 82.7266 187.68 83.2266C187.695 83.7109 187.75 84.2266 187.844 84.7734C187.938 85.3047 188.094 85.8359 188.313 86.3672C188.531 86.8984 188.844 87.375 189.25 87.7969C189.672 88.2188 190.203 88.5625 190.844 88.8281C191.5 89.0781 192.305 89.2031 193.258 89.2031C194.195 89.2031 194.984 89.0781 195.625 88.8281C196.281 88.5781 196.813 88.25 197.219 87.8438C197.641 87.4219 197.969 86.9531 198.203 86.4375C198.438 85.9219 198.602 85.4063 198.695 84.8906C198.805 84.3594 198.867 83.8438 198.883 83.3438C198.914 82.8438 198.93 82.4141 198.93 82.0547C198.93 81.6797 198.914 81.25 198.883 80.7656C198.867 80.2656 198.805 79.7578 198.695 79.2422C198.602 78.7266 198.438 78.2266 198.203 77.7422C197.969 77.2422 197.641 76.7969 197.219 76.4063C196.813 76.0156 196.281 75.7031 195.625 75.4688C194.984 75.2188 194.195 75.0938 193.258 75.0938ZM226.609 99.0234L217.844 75.75L214.492 75.2344V66H235.07V75.2344L232.656 75.75L236.453 88.5L240.273 75.75L237.836 75.2344V66H254.875V75.2344L251.547 75.75L242.781 99.0234H226.609ZM274.469 80.5078L280.961 79.125V85.8047L274.469 84.3984V89.5781C275.406 89.5781 276.313 89.5156 277.188 89.3906C278.063 89.25 278.875 89.0625 279.625 88.8281C280.375 88.5938 281.063 88.3203 281.688 88.0078C282.313 87.6953 282.852 87.3594 283.305 87H286.516V99H257.547V89.6484L260.359 89.1094V75.8203L257.547 75.2813V66H286.516V78H283.305C282.852 77.6563 282.313 77.3281 281.688 77.0156C281.063 76.7031 280.375 76.4297 279.625 76.1953C278.875 75.9609 278.063 75.7734 277.188 75.6328C276.313 75.4922 275.406 75.4219 274.469 75.4219V80.5078ZM326.922 99H312.906C312.469 98.1875 312.016 97.3281 311.547 96.4219C311.078 95.5 310.625 94.5391 310.188 93.5391C309.75 92.5391 309.336 91.5078 308.945 90.4453C308.57 89.3828 308.25 88.2891 307.984 87.1641H307.211V99H290.289V89.6484L293.102 89.1094V75.7734L290.289 75.2344V66H309.484C312.031 66 314.227 66.1094 316.07 66.3281C317.93 66.5469 319.5 66.8672 320.781 67.2891C322.078 67.7109 323.125 68.2266 323.922 68.8359C324.719 69.4297 325.336 70.1094 325.773 70.875C326.227 71.625 326.531 72.4531 326.688 73.3594C326.844 74.2656 326.922 75.2266 326.922 76.2422C326.922 77.2734 326.82 78.2109 326.617 79.0547C326.43 79.8984 326.086 80.6719 325.586 81.375C325.086 82.0781 324.398 82.7266 323.523 83.3203C322.664 83.8984 321.563 84.4453 320.219 84.9609C320.5 85.5234 320.914 86.1953 321.461 86.9766C322.023 87.7422 322.633 88.5313 323.289 89.3438C323.945 90.1406 324.594 90.9141 325.234 91.6641C325.891 92.4141 326.453 93.0547 326.922 93.5859V99ZM307.211 80.8125C308.07 80.8125 308.844 80.7734 309.531 80.6953C310.234 80.6016 310.828 80.4141 311.313 80.1328C311.813 79.8359 312.195 79.4063 312.461 78.8438C312.727 78.2813 312.859 77.5234 312.859 76.5703C312.859 75.6328 312.727 74.8828 312.461 74.3203C312.195 73.7578 311.813 73.3281 311.313 73.0313C310.828 72.7188 310.234 72.5156 309.531 72.4219C308.844 72.3281 308.07 72.2813 307.211 72.2813V80.8125Z" fill="black"/>
<path d="M37.9 504.94V517.54C37.9 518.8 38.21 519.77 38.83 520.45C39.45 521.13 40.36 521.47 41.56 521.47C42.76 521.47 43.68 521.13 44.32 520.45C44.96 519.77 45.28 518.8 45.28 517.54V504.94H50.41V517.51C50.41 519.39 50.01 520.98 49.21 522.28C48.41 523.58 47.33 524.56 45.97 525.22C44.63 525.88 43.13 526.21 41.47 526.21C39.81 526.21 38.32 525.89 37 525.25C35.7 524.59 34.67 523.61 33.91 522.31C33.15 520.99 32.77 519.39 32.77 517.51V504.94H37.9ZM59.1423 512.05C59.7423 511.13 60.4923 510.41 61.3923 509.89C62.2923 509.35 63.2923 509.08 64.3923 509.08V514.51H62.9823C61.7023 514.51 60.7423 514.79 60.1023 515.35C59.4623 515.89 59.1423 516.85 59.1423 518.23V526H54.0123V509.26H59.1423V512.05ZM71.9744 511.63C72.4544 510.85 73.1444 510.22 74.0444 509.74C74.9444 509.26 75.9744 509.02 77.1344 509.02C78.5144 509.02 79.7644 509.37 80.8844 510.07C82.0044 510.77 82.8844 511.77 83.5244 513.07C84.1844 514.37 84.5144 515.88 84.5144 517.6C84.5144 519.32 84.1844 520.84 83.5244 522.16C82.8844 523.46 82.0044 524.47 80.8844 525.19C79.7644 525.89 78.5144 526.24 77.1344 526.24C75.9544 526.24 74.9244 526.01 74.0444 525.55C73.1644 525.07 72.4744 524.44 71.9744 523.66V526H66.8444V503.8H71.9744V511.63ZM79.2944 517.6C79.2944 516.32 78.9344 515.32 78.2144 514.6C77.5144 513.86 76.6444 513.49 75.6044 513.49C74.5844 513.49 73.7144 513.86 72.9944 514.6C72.2944 515.34 71.9444 516.35 71.9444 517.63C71.9444 518.91 72.2944 519.92 72.9944 520.66C73.7144 521.4 74.5844 521.77 75.6044 521.77C76.6244 521.77 77.4944 521.4 78.2144 520.66C78.9344 519.9 79.2944 518.88 79.2944 517.6ZM86.1857 517.6C86.1857 515.88 86.5057 514.37 87.1457 513.07C87.8057 511.77 88.6957 510.77 89.8157 510.07C90.9357 509.37 92.1857 509.02 93.5657 509.02C94.7457 509.02 95.7757 509.26 96.6557 509.74C97.5557 510.22 98.2457 510.85 98.7257 511.63V509.26H103.856V526H98.7257V523.63C98.2257 524.41 97.5257 525.04 96.6257 525.52C95.7457 526 94.7157 526.24 93.5357 526.24C92.1757 526.24 90.9357 525.89 89.8157 525.19C88.6957 524.47 87.8057 523.46 87.1457 522.16C86.5057 520.84 86.1857 519.32 86.1857 517.6ZM98.7257 517.63C98.7257 516.35 98.3657 515.34 97.6457 514.6C96.9457 513.86 96.0857 513.49 95.0657 513.49C94.0457 513.49 93.1757 513.86 92.4557 514.6C91.7557 515.32 91.4057 516.32 91.4057 517.6C91.4057 518.88 91.7557 519.9 92.4557 520.66C93.1757 521.4 94.0457 521.77 95.0657 521.77C96.0857 521.77 96.9457 521.4 97.6457 520.66C98.3657 519.92 98.7257 518.91 98.7257 517.63ZM117.767 509.08C119.727 509.08 121.287 509.72 122.447 511C123.627 512.26 124.217 514 124.217 516.22V526H119.117V516.91C119.117 515.79 118.827 514.92 118.247 514.3C117.667 513.68 116.887 513.37 115.907 513.37C114.927 513.37 114.147 513.68 113.567 514.3C112.987 514.92 112.697 515.79 112.697 516.91V526H107.567V509.26H112.697V511.48C113.217 510.74 113.917 510.16 114.797 509.74C115.677 509.3 116.667 509.08 117.767 509.08ZM141.492 504.94V509.05H132.912V513.49H139.332V517.48H132.912V526H127.782V504.94H141.492ZM151.808 526.24C150.168 526.24 148.688 525.89 147.368 525.19C146.068 524.49 145.038 523.49 144.278 522.19C143.538 520.89 143.168 519.37 143.168 517.63C143.168 515.91 143.548 514.4 144.308 513.1C145.068 511.78 146.108 510.77 147.428 510.07C148.748 509.37 150.228 509.02 151.868 509.02C153.508 509.02 154.988 509.37 156.308 510.07C157.628 510.77 158.668 511.78 159.428 513.1C160.188 514.4 160.568 515.91 160.568 517.63C160.568 519.35 160.178 520.87 159.398 522.19C158.638 523.49 157.588 524.49 156.248 525.19C154.928 525.89 153.448 526.24 151.808 526.24ZM151.808 521.8C152.788 521.8 153.618 521.44 154.298 520.72C154.998 520 155.348 518.97 155.348 517.63C155.348 516.29 155.008 515.26 154.328 514.54C153.668 513.82 152.848 513.46 151.868 513.46C150.868 513.46 150.038 513.82 149.378 514.54C148.718 515.24 148.388 516.27 148.388 517.63C148.388 518.97 148.708 520 149.348 520.72C150.008 521.44 150.828 521.8 151.808 521.8ZM168.42 512.05C169.02 511.13 169.77 510.41 170.67 509.89C171.57 509.35 172.57 509.08 173.67 509.08V514.51H172.26C170.98 514.51 170.02 514.79 169.38 515.35C168.74 515.89 168.42 516.85 168.42 518.23V526H163.29V509.26H168.42V512.05ZM182.482 509.02C183.662 509.02 184.692 509.26 185.572 509.74C186.472 510.22 187.162 510.85 187.642 511.63V509.26H192.772V525.97C192.772 527.51 192.462 528.9 191.842 530.14C191.242 531.4 190.312 532.4 189.052 533.14C187.812 533.88 186.262 534.25 184.402 534.25C181.922 534.25 179.912 533.66 178.372 532.48C176.832 531.32 175.952 529.74 175.732 527.74H180.802C180.962 528.38 181.342 528.88 181.942 529.24C182.542 529.62 183.282 529.81 184.162 529.81C185.222 529.81 186.062 529.5 186.682 528.88C187.322 528.28 187.642 527.31 187.642 525.97V523.6C187.142 524.38 186.452 525.02 185.572 525.52C184.692 526 183.662 526.24 182.482 526.24C181.102 526.24 179.852 525.89 178.732 525.19C177.612 524.47 176.722 523.46 176.062 522.16C175.422 520.84 175.102 519.32 175.102 517.6C175.102 515.88 175.422 514.37 176.062 513.07C176.722 511.77 177.612 510.77 178.732 510.07C179.852 509.37 181.102 509.02 182.482 509.02ZM187.642 517.63C187.642 516.35 187.282 515.34 186.562 514.6C185.862 513.86 185.002 513.49 183.982 513.49C182.962 513.49 182.092 513.86 181.372 514.6C180.672 515.32 180.322 516.32 180.322 517.6C180.322 518.88 180.672 519.9 181.372 520.66C182.092 521.4 182.962 521.77 183.982 521.77C185.002 521.77 185.862 521.4 186.562 520.66C187.282 519.92 187.642 518.91 187.642 517.63ZM212.263 517.36C212.263 517.84 212.233 518.34 212.173 518.86H200.563C200.643 519.9 200.973 520.7 201.553 521.26C202.153 521.8 202.883 522.07 203.743 522.07C205.023 522.07 205.913 521.53 206.413 520.45H211.873C211.593 521.55 211.083 522.54 210.343 523.42C209.623 524.3 208.713 524.99 207.613 525.49C206.513 525.99 205.283 526.24 203.923 526.24C202.283 526.24 200.823 525.89 199.543 525.19C198.263 524.49 197.263 523.49 196.543 522.19C195.823 520.89 195.463 519.37 195.463 517.63C195.463 515.89 195.813 514.37 196.513 513.07C197.233 511.77 198.233 510.77 199.513 510.07C200.793 509.37 202.263 509.02 203.923 509.02C205.543 509.02 206.983 509.36 208.243 510.04C209.503 510.72 210.483 511.69 211.183 512.95C211.903 514.21 212.263 515.68 212.263 517.36ZM207.013 516.01C207.013 515.13 206.713 514.43 206.113 513.91C205.513 513.39 204.763 513.13 203.863 513.13C203.003 513.13 202.273 513.38 201.673 513.88C201.093 514.38 200.733 515.09 200.593 516.01H207.013Z" fill="black"/>
<path d="M40.78 552.9H34.7L33.58 556H31.66L36.7 542.14H38.8L43.82 556H41.9L40.78 552.9ZM40.26 551.42L37.74 544.38L35.22 551.42H40.26ZM53.3566 556L50.0366 550.3H47.8366V556H46.0166V542.06H50.5166C51.5699 542.06 52.4566 542.24 53.1766 542.6C53.9099 542.96 54.4566 543.447 54.8166 544.06C55.1766 544.673 55.3566 545.373 55.3566 546.16C55.3566 547.12 55.0766 547.967 54.5166 548.7C53.9699 549.433 53.1432 549.92 52.0366 550.16L55.5366 556H53.3566ZM47.8366 548.84H50.5166C51.5032 548.84 52.2432 548.6 52.7366 548.12C53.2299 547.627 53.4766 546.973 53.4766 546.16C53.4766 545.333 53.2299 544.693 52.7366 544.24C52.2566 543.787 51.5166 543.56 50.5166 543.56H47.8366V548.84ZM57.5045 549.02C57.5045 547.66 57.8112 546.44 58.4245 545.36C59.0379 544.267 59.8712 543.413 60.9245 542.8C61.9912 542.187 63.1712 541.88 64.4645 541.88C65.9845 541.88 67.3112 542.247 68.4445 542.98C69.5779 543.713 70.4045 544.753 70.9245 546.1H68.7445C68.3579 545.26 67.7979 544.613 67.0645 544.16C66.3445 543.707 65.4779 543.48 64.4645 543.48C63.4912 543.48 62.6179 543.707 61.8445 544.16C61.0712 544.613 60.4645 545.26 60.0245 546.1C59.5845 546.927 59.3645 547.9 59.3645 549.02C59.3645 550.127 59.5845 551.1 60.0245 551.94C60.4645 552.767 61.0712 553.407 61.8445 553.86C62.6179 554.313 63.4912 554.54 64.4645 554.54C65.4779 554.54 66.3445 554.32 67.0645 553.88C67.7979 553.427 68.3579 552.78 68.7445 551.94H70.9245C70.4045 553.273 69.5779 554.307 68.4445 555.04C67.3112 555.76 65.9845 556.12 64.4645 556.12C63.1712 556.12 61.9912 555.82 60.9245 555.22C59.8712 554.607 59.0379 553.76 58.4245 552.68C57.8112 551.6 57.5045 550.38 57.5045 549.02ZM84.3738 542.06V556H82.5538V549.68H75.4538V556H73.6338V542.06H75.4538V548.18H82.5538V542.06H84.3738ZM89.3014 542.06V556H87.4814V542.06H89.3014ZM100.983 542.06V543.54H97.1833V556H95.3633V543.54H91.5433V542.06H100.983ZM105.044 543.54V548.2H110.124V549.7H105.044V554.5H110.724V556H103.224V542.04H110.724V543.54H105.044ZM112.798 549.02C112.798 547.66 113.104 546.44 113.718 545.36C114.331 544.267 115.164 543.413 116.218 542.8C117.284 542.187 118.464 541.88 119.758 541.88C121.278 541.88 122.604 542.247 123.738 542.98C124.871 543.713 125.698 544.753 126.218 546.1H124.038C123.651 545.26 123.091 544.613 122.358 544.16C121.638 543.707 120.771 543.48 119.758 543.48C118.784 543.48 117.911 543.707 117.138 544.16C116.364 544.613 115.758 545.26 115.318 546.1C114.878 546.927 114.658 547.9 114.658 549.02C114.658 550.127 114.878 551.1 115.318 551.94C115.758 552.767 116.364 553.407 117.138 553.86C117.911 554.313 118.784 554.54 119.758 554.54C120.771 554.54 121.638 554.32 122.358 553.88C123.091 553.427 123.651 552.78 124.038 551.94H126.218C125.698 553.273 124.871 554.307 123.738 555.04C122.604 555.76 121.278 556.12 119.758 556.12C118.464 556.12 117.284 555.82 116.218 555.22C115.164 554.607 114.331 553.76 113.718 552.68C113.104 551.6 112.798 550.38 112.798 549.02ZM137.507 542.06V543.54H133.707V556H131.887V543.54H128.067V542.06H137.507ZM144.167 556.14C143.247 556.14 142.42 555.98 141.687 555.66C140.967 555.327 140.4 554.873 139.987 554.3C139.574 553.713 139.36 553.04 139.347 552.28H141.287C141.354 552.933 141.62 553.487 142.087 553.94C142.567 554.38 143.26 554.6 144.167 554.6C145.034 554.6 145.714 554.387 146.207 553.96C146.714 553.52 146.967 552.96 146.967 552.28C146.967 551.747 146.82 551.313 146.527 550.98C146.234 550.647 145.867 550.393 145.427 550.22C144.987 550.047 144.394 549.86 143.647 549.66C142.727 549.42 141.987 549.18 141.427 548.94C140.88 548.7 140.407 548.327 140.007 547.82C139.62 547.3 139.427 546.607 139.427 545.74C139.427 544.98 139.62 544.307 140.007 543.72C140.394 543.133 140.934 542.68 141.627 542.36C142.334 542.04 143.14 541.88 144.047 541.88C145.354 541.88 146.42 542.207 147.247 542.86C148.087 543.513 148.56 544.38 148.667 545.46H146.667C146.6 544.927 146.32 544.46 145.827 544.06C145.334 543.647 144.68 543.44 143.867 543.44C143.107 543.44 142.487 543.64 142.007 544.04C141.527 544.427 141.287 544.973 141.287 545.68C141.287 546.187 141.427 546.6 141.707 546.92C142 547.24 142.354 547.487 142.767 547.66C143.194 547.82 143.787 548.007 144.547 548.22C145.467 548.473 146.207 548.727 146.767 548.98C147.327 549.22 147.807 549.6 148.207 550.12C148.607 550.627 148.807 551.32 148.807 552.2C148.807 552.88 148.627 553.52 148.267 554.12C147.907 554.72 147.374 555.207 146.667 555.58C145.96 555.953 145.127 556.14 144.167 556.14ZM167.517 556L165.697 554.16C165.017 554.867 164.291 555.393 163.517 555.74C162.744 556.073 161.871 556.24 160.897 556.24C159.937 556.24 159.084 556.067 158.337 555.72C157.604 555.373 157.031 554.88 156.617 554.24C156.217 553.6 156.017 552.853 156.017 552C156.017 551.027 156.291 550.173 156.837 549.44C157.397 548.693 158.217 548.107 159.297 547.68C158.871 547.173 158.564 546.707 158.377 546.28C158.191 545.853 158.097 545.387 158.097 544.88C158.097 544.293 158.244 543.767 158.537 543.3C158.844 542.82 159.277 542.447 159.837 542.18C160.397 541.913 161.044 541.78 161.777 541.78C162.497 541.78 163.124 541.92 163.657 542.2C164.191 542.48 164.591 542.873 164.857 543.38C165.124 543.873 165.244 544.427 165.217 545.04H163.397C163.411 544.493 163.257 544.067 162.937 543.76C162.617 543.44 162.204 543.28 161.697 543.28C161.164 543.28 160.731 543.433 160.397 543.74C160.077 544.033 159.917 544.413 159.917 544.88C159.917 545.28 160.024 545.667 160.237 546.04C160.464 546.413 160.837 546.873 161.357 547.42L165.517 551.6L165.877 551.04L167.237 548.76H169.197L167.557 551.6C167.331 552 167.064 552.42 166.757 552.86L169.897 556H167.517ZM160.897 554.68C161.617 554.68 162.264 554.54 162.837 554.26C163.424 553.98 163.977 553.547 164.497 552.96L160.397 548.84C158.691 549.493 157.837 550.527 157.837 551.94C157.837 552.727 158.117 553.38 158.677 553.9C159.251 554.42 159.991 554.68 160.897 554.68ZM181.275 542.06C182.795 542.06 184.108 542.347 185.215 542.92C186.335 543.48 187.188 544.287 187.775 545.34C188.375 546.393 188.675 547.633 188.675 549.06C188.675 550.487 188.375 551.727 187.775 552.78C187.188 553.82 186.335 554.62 185.215 555.18C184.108 555.727 182.795 556 181.275 556H176.935V542.06H181.275ZM181.275 554.5C183.075 554.5 184.448 554.027 185.395 553.08C186.341 552.12 186.815 550.78 186.815 549.06C186.815 547.327 186.335 545.973 185.375 545C184.428 544.027 183.061 543.54 181.275 543.54H178.755V554.5H181.275ZM192.895 543.54V548.2H197.975V549.7H192.895V554.5H198.575V556H191.075V542.04H198.575V543.54H192.895ZM205.749 556.14C204.829 556.14 204.002 555.98 203.269 555.66C202.549 555.327 201.982 554.873 201.569 554.3C201.156 553.713 200.942 553.04 200.929 552.28H202.869C202.936 552.933 203.202 553.487 203.669 553.94C204.149 554.38 204.842 554.6 205.749 554.6C206.616 554.6 207.296 554.387 207.789 553.96C208.296 553.52 208.549 552.96 208.549 552.28C208.549 551.747 208.402 551.313 208.109 550.98C207.816 550.647 207.449 550.393 207.009 550.22C206.569 550.047 205.976 549.86 205.229 549.66C204.309 549.42 203.569 549.18 203.009 548.94C202.462 548.7 201.989 548.327 201.589 547.82C201.202 547.3 201.009 546.607 201.009 545.74C201.009 544.98 201.202 544.307 201.589 543.72C201.976 543.133 202.516 542.68 203.209 542.36C203.916 542.04 204.722 541.88 205.629 541.88C206.936 541.88 208.002 542.207 208.829 542.86C209.669 543.513 210.142 544.38 210.249 545.46H208.249C208.182 544.927 207.902 544.46 207.409 544.06C206.916 543.647 206.262 543.44 205.449 543.44C204.689 543.44 204.069 543.64 203.589 544.04C203.109 544.427 202.869 544.973 202.869 545.68C202.869 546.187 203.009 546.6 203.289 546.92C203.582 547.24 203.936 547.487 204.349 547.66C204.776 547.82 205.369 548.007 206.129 548.22C207.049 548.473 207.789 548.727 208.349 548.98C208.909 549.22 209.389 549.6 209.789 550.12C210.189 550.627 210.389 551.32 210.389 552.2C210.389 552.88 210.209 553.52 209.849 554.12C209.489 554.72 208.956 555.207 208.249 555.58C207.542 555.953 206.709 556.14 205.749 556.14ZM214.887 542.06V556H213.067V542.06H214.887ZM228.549 546.1C228.163 545.287 227.603 544.66 226.869 544.22C226.136 543.767 225.283 543.54 224.309 543.54C223.336 543.54 222.456 543.767 221.669 544.22C220.896 544.66 220.283 545.3 219.829 546.14C219.389 546.967 219.169 547.927 219.169 549.02C219.169 550.113 219.389 551.073 219.829 551.9C220.283 552.727 220.896 553.367 221.669 553.82C222.456 554.26 223.336 554.48 224.309 554.48C225.669 554.48 226.789 554.073 227.669 553.26C228.549 552.447 229.063 551.347 229.209 549.96H223.649V548.48H231.149V549.88C231.043 551.027 230.683 552.08 230.069 553.04C229.456 553.987 228.649 554.74 227.649 555.3C226.649 555.847 225.536 556.12 224.309 556.12C223.016 556.12 221.836 555.82 220.769 555.22C219.703 554.607 218.856 553.76 218.229 552.68C217.616 551.6 217.309 550.38 217.309 549.02C217.309 547.66 217.616 546.44 218.229 545.36C218.856 544.267 219.703 543.42 220.769 542.82C221.836 542.207 223.016 541.9 224.309 541.9C225.789 541.9 227.096 542.267 228.229 543C229.376 543.733 230.209 544.767 230.729 546.1H228.549ZM244.516 556H242.696L235.376 544.9V556H233.556V542.04H235.376L242.696 553.12V542.04H244.516V556ZM249.438 543.54V548.2H254.518V549.7H249.438V554.5H255.118V556H247.618V542.04H255.118V543.54H249.438ZM265.212 556L261.892 550.3H259.692V556H257.872V542.06H262.372C263.425 542.06 264.312 542.24 265.032 542.6C265.765 542.96 266.312 543.447 266.672 544.06C267.032 544.673 267.212 545.373 267.212 546.16C267.212 547.12 266.932 547.967 266.372 548.7C265.825 549.433 264.999 549.92 263.892 550.16L267.392 556H265.212ZM259.692 548.84H262.372C263.359 548.84 264.099 548.6 264.592 548.12C265.085 547.627 265.332 546.973 265.332 546.16C265.332 545.333 265.085 544.693 264.592 544.24C264.112 543.787 263.372 543.56 262.372 543.56H259.692V548.84ZM274.46 556.14C273.54 556.14 272.713 555.98 271.98 555.66C271.26 555.327 270.693 554.873 270.28 554.3C269.867 553.713 269.653 553.04 269.64 552.28H271.58C271.647 552.933 271.913 553.487 272.38 553.94C272.86 554.38 273.553 554.6 274.46 554.6C275.327 554.6 276.007 554.387 276.5 553.96C277.007 553.52 277.26 552.96 277.26 552.28C277.26 551.747 277.113 551.313 276.82 550.98C276.527 550.647 276.16 550.393 275.72 550.22C275.28 550.047 274.687 549.86 273.94 549.66C273.02 549.42 272.28 549.18 271.72 548.94C271.173 548.7 270.7 548.327 270.3 547.82C269.913 547.3 269.72 546.607 269.72 545.74C269.72 544.98 269.913 544.307 270.3 543.72C270.687 543.133 271.227 542.68 271.92 542.36C272.627 542.04 273.433 541.88 274.34 541.88C275.647 541.88 276.713 542.207 277.54 542.86C278.38 543.513 278.853 544.38 278.96 545.46H276.96C276.893 544.927 276.613 544.46 276.12 544.06C275.627 543.647 274.973 543.44 274.16 543.44C273.4 543.44 272.78 543.64 272.3 544.04C271.82 544.427 271.58 544.973 271.58 545.68C271.58 546.187 271.72 546.6 272 546.92C272.293 547.24 272.647 547.487 273.06 547.66C273.487 547.82 274.08 548.007 274.84 548.22C275.76 548.473 276.5 548.727 277.06 548.98C277.62 549.22 278.1 549.6 278.5 550.12C278.9 550.627 279.1 551.32 279.1 552.2C279.1 552.88 278.92 553.52 278.56 554.12C278.2 554.72 277.667 555.207 276.96 555.58C276.253 555.953 275.42 556.14 274.46 556.14ZM282.358 556.12C282.012 556.12 281.718 556 281.478 555.76C281.238 555.52 281.118 555.227 281.118 554.88C281.118 554.533 281.238 554.24 281.478 554C281.718 553.76 282.012 553.64 282.358 553.64C282.692 553.64 282.972 553.76 283.198 554C283.438 554.24 283.558 554.533 283.558 554.88C283.558 555.227 283.438 555.52 283.198 555.76C282.972 556 282.692 556.12 282.358 556.12Z" fill="black"/>
<circle cx="437" cy="80" r="20" fill="black"/>
<path d="M429.559 82.58C430.239 81.9 430.579 81.06 430.579 80.06C430.579 79.06 430.239 78.22 429.559 77.54C428.879 76.86 428.039 76.52 427.039 76.52C426.039 76.52 425.199 76.86 424.519 77.54C423.839 78.22 423.499 79.06 423.499 80.06C423.499 81.06 423.839 81.9 424.519 82.58C425.199 83.26 426.039 83.6 427.039 83.6C428.039 83.6 428.879 83.26 429.559 82.58ZM439.52 82.58C440.2 81.9 440.54 81.06 440.54 80.06C440.54 79.06 440.2 78.22 439.52 77.54C438.84 76.86 438 76.52 437 76.52C436 76.52 435.16 76.86 434.48 77.54C433.8 78.22 433.46 79.06 433.46 80.06C433.46 81.06 433.8 81.9 434.48 82.58C435.16 83.26 436 83.6 437 83.6C438 83.6 438.84 83.26 439.52 82.58ZM449.48 82.58C450.16 81.9 450.5 81.06 450.5 80.06C450.5 79.06 450.16 78.22 449.48 77.54C448.8 76.86 447.96 76.52 446.96 76.52C445.96 76.52 445.12 76.86 444.44 77.54C443.76 78.22 443.42 79.06 443.42 80.06C443.42 81.06 443.76 81.9 444.44 82.58C445.12 83.26 445.96 83.6 446.96 83.6C447.96 83.6 448.8 83.26 449.48 82.58Z" fill="white"/>
<circle cx="488" cy="80" r="20" fill="black"/>
<path d="M486.615 86.2308C490.821 86.2308 494.231 82.8213 494.231 78.6154C494.231 74.4095 490.821 71 486.615 71C482.41 71 479 74.4095 479 78.6154C479 82.8213 482.41 86.2308 486.615 86.2308Z" stroke="white" stroke-width="2" stroke-linecap="round" stroke-linejoin="round"/>
<path d="M496.998 89.0024L492.152 84.1562" stroke="white" stroke-width="2" stroke-linecap="round" stroke-linejoin="round"/>
<path d="M339 82L350.445 89.6302C350.781 89.8541 351.219 89.8541 351.555 89.6302L363 82" stroke="black" stroke-width="3" stroke-linecap="round"/>
<rect x="386" y="502" width="151" height="45" rx="5" fill="#FEBC2E" fill-opacity="0.8"/>
<path fill-rule="evenodd" clip-rule="evenodd" d="M408.45 498.882L370.547 413.75L459.766 448.034L422.274 464.727L421.763 465.744L408.45 498.882Z" fill="#CDCDCD"/>
<path fill-rule="evenodd" clip-rule="evenodd" d="M381.316 423.621L407.849 483.213L416.849 460.914L417.371 459.795L444.185 447.909L381.316 423.621Z" fill="black"/>
<rect x="31.5" y="123.5" width="15" height="15" fill="white" stroke="#178EFF" stroke-width="3"/>
<rect x="33.0469" y="478.77" width="15" height="15" fill="white" stroke="#178EFF" stroke-width="3"/>
<rect x="497.5" y="475.5" width="15" height="15" fill="white" stroke="#178EFF" stroke-width="3"/>
<path d="M402.75 513.94C404.97 513.94 406.91 514.38 408.57 515.26C410.23 516.14 411.51 517.38 412.41 518.98C413.33 520.56 413.79 522.39 413.79 524.47C413.79 526.53 413.33 528.36 412.41 529.96C411.51 531.56 410.22 532.8 408.54 533.68C406.88 534.56 404.95 535 402.75 535H394.86V513.94H402.75ZM402.42 530.56C404.36 530.56 405.87 530.03 406.95 528.97C408.03 527.91 408.57 526.41 408.57 524.47C408.57 522.53 408.03 521.02 406.95 519.94C405.87 518.86 404.36 518.32 402.42 518.32H399.99V530.56H402.42ZM432.437 526.36C432.437 526.84 432.407 527.34 432.347 527.86H420.737C420.817 528.9 421.147 529.7 421.727 530.26C422.327 530.8 423.057 531.07 423.917 531.07C425.197 531.07 426.087 530.53 426.587 529.45H432.047C431.767 530.55 431.257 531.54 430.517 532.42C429.797 533.3 428.887 533.99 427.787 534.49C426.687 534.99 425.457 535.24 424.097 535.24C422.457 535.24 420.997 534.89 419.717 534.19C418.437 533.49 417.437 532.49 416.717 531.19C415.997 529.89 415.637 528.37 415.637 526.63C415.637 524.89 415.987 523.37 416.687 522.07C417.407 520.77 418.407 519.77 419.687 519.07C420.967 518.37 422.437 518.02 424.097 518.02C425.717 518.02 427.157 518.36 428.417 519.04C429.677 519.72 430.657 520.69 431.357 521.95C432.077 523.21 432.437 524.68 432.437 526.36ZM427.187 525.01C427.187 524.13 426.887 523.43 426.287 522.91C425.687 522.39 424.937 522.13 424.037 522.13C423.177 522.13 422.447 522.38 421.847 522.88C421.267 523.38 420.907 524.09 420.767 525.01H427.187ZM441.953 535.24C440.493 535.24 439.193 534.99 438.053 534.49C436.913 533.99 436.013 533.31 435.353 532.45C434.693 531.57 434.323 530.59 434.243 529.51H439.313C439.373 530.09 439.643 530.56 440.123 530.92C440.603 531.28 441.193 531.46 441.893 531.46C442.533 531.46 443.023 531.34 443.363 531.1C443.723 530.84 443.903 530.51 443.903 530.11C443.903 529.63 443.653 529.28 443.153 529.06C442.653 528.82 441.843 528.56 440.723 528.28C439.523 528 438.523 527.71 437.723 527.41C436.923 527.09 436.233 526.6 435.653 525.94C435.073 525.26 434.783 524.35 434.783 523.21C434.783 522.25 435.043 521.38 435.563 520.6C436.103 519.8 436.883 519.17 437.903 518.71C438.943 518.25 440.173 518.02 441.593 518.02C443.693 518.02 445.343 518.54 446.543 519.58C447.763 520.62 448.463 522 448.643 523.72H443.903C443.823 523.14 443.563 522.68 443.123 522.34C442.703 522 442.143 521.83 441.443 521.83C440.843 521.83 440.383 521.95 440.063 522.19C439.743 522.41 439.583 522.72 439.583 523.12C439.583 523.6 439.833 523.96 440.333 524.2C440.853 524.44 441.653 524.68 442.733 524.92C443.973 525.24 444.983 525.56 445.763 525.88C446.543 526.18 447.223 526.68 447.803 527.38C448.403 528.06 448.713 528.98 448.733 530.14C448.733 531.12 448.453 532 447.893 532.78C447.353 533.54 446.563 534.14 445.523 534.58C444.503 535.02 443.313 535.24 441.953 535.24ZM454.452 516.52C453.552 516.52 452.812 516.26 452.232 515.74C451.672 515.2 451.392 514.54 451.392 513.76C451.392 512.96 451.672 512.3 452.232 511.78C452.812 511.24 453.552 510.97 454.452 510.97C455.332 510.97 456.052 511.24 456.612 511.78C457.192 512.3 457.482 512.96 457.482 513.76C457.482 514.54 457.192 515.2 456.612 515.74C456.052 516.26 455.332 516.52 454.452 516.52ZM457.002 518.26V535H451.872V518.26H457.002ZM467.079 518.02C468.259 518.02 469.289 518.26 470.169 518.74C471.069 519.22 471.759 519.85 472.239 520.63V518.26H477.369V534.97C477.369 536.51 477.059 537.9 476.439 539.14C475.839 540.4 474.909 541.4 473.649 542.14C472.409 542.88 470.859 543.25 468.999 543.25C466.519 543.25 464.509 542.66 462.969 541.48C461.429 540.32 460.549 538.74 460.329 536.74H465.399C465.559 537.38 465.939 537.88 466.539 538.24C467.139 538.62 467.879 538.81 468.759 538.81C469.819 538.81 470.659 538.5 471.279 537.88C471.919 537.28 472.239 536.31 472.239 534.97V532.6C471.739 533.38 471.049 534.02 470.169 534.52C469.289 535 468.259 535.24 467.079 535.24C465.699 535.24 464.449 534.89 463.329 534.19C462.209 533.47 461.319 532.46 460.659 531.16C460.019 529.84 459.699 528.32 459.699 526.6C459.699 524.88 460.019 523.37 460.659 522.07C461.319 520.77 462.209 519.77 463.329 519.07C464.449 518.37 465.699 518.02 467.079 518.02ZM472.239 526.63C472.239 525.35 471.879 524.34 471.159 523.6C470.459 522.86 469.599 522.49 468.579 522.49C467.559 522.49 466.689 522.86 465.969 523.6C465.269 524.32 464.919 525.32 464.919 526.6C464.919 527.88 465.269 528.9 465.969 529.66C466.689 530.4 467.559 530.77 468.579 530.77C469.599 530.77 470.459 530.4 471.159 529.66C471.879 528.92 472.239 527.91 472.239 526.63ZM491.281 518.08C493.241 518.08 494.801 518.72 495.961 520C497.141 521.26 497.731 523 497.731 525.22V535H492.631V525.91C492.631 524.79 492.341 523.92 491.761 523.3C491.181 522.68 490.401 522.37 489.421 522.37C488.441 522.37 487.661 522.68 487.081 523.3C486.501 523.92 486.211 524.79 486.211 525.91V535H481.081V518.26H486.211V520.48C486.731 519.74 487.431 519.16 488.311 518.74C489.191 518.3 490.181 518.08 491.281 518.08ZM517.076 526.36C517.076 526.84 517.046 527.34 516.986 527.86H505.376C505.456 528.9 505.786 529.7 506.366 530.26C506.966 530.8 507.696 531.07 508.556 531.07C509.836 531.07 510.726 530.53 511.226 529.45H516.686C516.406 530.55 515.896 531.54 515.156 532.42C514.436 533.3 513.526 533.99 512.426 534.49C511.326 534.99 510.096 535.24 508.736 535.24C507.096 535.24 505.636 534.89 504.356 534.19C503.076 533.49 502.076 532.49 501.356 531.19C500.636 529.89 500.276 528.37 500.276 526.63C500.276 524.89 500.626 523.37 501.326 522.07C502.046 520.77 503.046 519.77 504.326 519.07C505.606 518.37 507.076 518.02 508.736 518.02C510.356 518.02 511.796 518.36 513.056 519.04C514.316 519.72 515.296 520.69 515.996 521.95C516.716 523.21 517.076 524.68 517.076 526.36ZM511.826 525.01C511.826 524.13 511.526 523.43 510.926 522.91C510.326 522.39 509.576 522.13 508.676 522.13C507.816 522.13 507.086 522.38 506.486 522.88C505.906 523.38 505.546 524.09 505.406 525.01H511.826ZM524.912 521.05C525.512 520.13 526.262 519.41 527.162 518.89C528.062 518.35 529.062 518.08 530.162 518.08V523.51H528.752C527.472 523.51 526.512 523.79 525.872 524.35C525.232 524.89 524.912 525.85 524.912 527.23V535H519.782V518.26H524.912V521.05Z" fill="black"/>
<rect x="497.5" y="123.5" width="15" height="15" fill="white" stroke="#178EFF" stroke-width="3"/>
</g>
<defs>
<filter id="filter0_d_471_512" x="0" y="0" width="621" height="660.512" filterUnits="userSpaceOnUse" color-interpolation-filters="sRGB">
<feFlood flood-opacity="0" result="BackgroundImageFix"/>
<feColorMatrix in="SourceAlpha" type="matrix" values="0 0 0 0 0 0 0 0 0 0 0 0 0 0 0 0 0 0 127 0" result="hardAlpha"/>
<feOffset dx="40" dy="20"/>
<feGaussianBlur stdDeviation="15"/>
<feComposite in2="hardAlpha" operator="out"/>
<feColorMatrix type="matrix" values="0 0 0 0 0 0 0 0 0 0 0 0 0 0 0 0 0 0 0.25 0"/>
<feBlend mode="normal" in2="BackgroundImageFix" result="effect1_dropShadow_471_512"/>
<feBlend mode="normal" in="SourceGraphic" in2="effect1_dropShadow_471_512" result="shape"/>
</filter>
<clipPath id="clip0_471_512">
<rect x="38" y="128" width="470" height="360" rx="10" fill="white"/>
</clipPath>
</defs>
</svg>
