<svg width="551" height="600" viewBox="0 0 551 600" fill="none" xmlns="http://www.w3.org/2000/svg">
<rect x="2" y="2" width="547" height="596" rx="62" fill="white" stroke="#CDCDCD" stroke-width="4"/>
<path d="M63.625 53C65.8906 53.4844 67.9297 54.1875 69.7422 55.1094C71.5547 56.0156 73.0938 57.1797 74.3594 58.6016C75.6406 60.0234 76.6172 61.7266 77.2891 63.7109C77.9766 65.6797 78.3203 67.9688 78.3203 70.5781C78.3203 74.0312 77.7422 76.9375 76.5859 79.2969C75.4297 81.6406 73.7969 83.5312 71.6875 84.9688C69.5938 86.4062 67.0703 87.4375 64.1172 88.0625C61.1641 88.6875 57.8984 89 54.3203 89H36.3203V78.8281L39.3203 78.2422V62.8906L36.3203 62.3047V53H63.625ZM56.6172 78.2422C58.2891 78.2422 59.5781 78.0625 60.4844 77.7031C61.3906 77.3281 62.0469 76.8047 62.4531 76.1328C62.875 75.4609 63.1172 74.6562 63.1797 73.7188C63.2578 72.7812 63.2969 71.7344 63.2969 70.5781C63.2969 69.4219 63.2578 68.375 63.1797 67.4375C63.1172 66.4844 62.875 65.6719 62.4531 65C62.0469 64.3281 61.3906 63.8125 60.4844 63.4531C59.5781 63.0781 58.2891 62.8906 56.6172 62.8906H54.3203V78.2422H56.6172ZM81.7891 56H101.523V65.2344L98.7109 65.7734V79.1094L101.523 79.6484V89H81.7891V79.6484L84.6016 79.1094V65.7734L81.7891 65.2344V56ZM134.781 78.6172C134.781 80.0703 134.57 81.3594 134.148 82.4844C133.742 83.5938 133.18 84.5625 132.461 85.3906C131.758 86.2031 130.914 86.8828 129.93 87.4297C128.961 87.9766 127.914 88.4219 126.789 88.7656C125.664 89.0938 124.484 89.2812 123.25 89.3281C122.031 89.3906 120.812 89.4219 119.594 89.4219C117.906 89.4219 116.383 89.3828 115.023 89.3047C113.664 89.2266 112.445 89.0547 111.367 88.7891C110.305 88.5234 109.359 88.2344 108.531 87.9219C107.719 87.5938 107 87.2734 106.375 86.9609V78.8281H113.008C113.664 79.8594 114.414 80.6172 115.258 81.1016C116.102 81.5859 116.969 81.8281 117.859 81.8281C118.125 81.8281 118.422 81.8047 118.75 81.7578C119.078 81.7109 119.383 81.5625 119.664 81.3125C119.945 81.0625 120.18 80.6797 120.367 80.1641C120.57 79.6328 120.672 78.8906 120.672 77.9375C119.406 77.8281 118.148 77.6719 116.898 77.4688C115.664 77.25 114.477 76.9609 113.336 76.6016C112.211 76.2422 111.164 75.7891 110.195 75.2422C109.227 74.6797 108.383 74.0078 107.664 73.2266C106.961 72.4297 106.406 71.5 106 70.4375C105.594 69.3594 105.391 68.125 105.391 66.7344C105.391 65.1406 105.594 63.75 106 62.5625C106.406 61.3594 106.961 60.3281 107.664 59.4688C108.367 58.6094 109.195 57.8984 110.148 57.3359C111.117 56.7734 112.156 56.3281 113.266 56C114.375 55.6719 115.531 55.4453 116.734 55.3203C117.938 55.1797 119.141 55.1094 120.344 55.1094C122.047 55.1094 123.57 55.1953 124.914 55.3672C126.273 55.5391 127.484 55.7578 128.547 56.0234C129.625 56.2891 130.57 56.5859 131.383 56.9141C132.211 57.2266 132.945 57.5312 133.586 57.8281V66.0312H126.484C125.891 64.9062 125.211 64.0859 124.445 63.5703C123.68 63.0547 122.898 62.7969 122.102 62.7969C121.836 62.7969 121.531 62.8438 121.188 62.9375C120.844 63.0156 120.523 63.2031 120.227 63.5C119.93 63.7969 119.68 64.2344 119.477 64.8125C119.273 65.3906 119.172 66.1719 119.172 67.1562C121.75 67.25 124.008 67.5234 125.945 67.9766C127.898 68.4297 129.531 69.1094 130.844 70.0156C132.156 70.9062 133.141 72.0625 133.797 73.4844C134.453 74.8906 134.781 76.6016 134.781 78.6172ZM151.891 72.0547C151.891 74.5391 152.523 76.3516 153.789 77.4922C155.055 78.6172 156.852 79.1797 159.18 79.1797C160.555 79.1797 162.164 79.0078 164.008 78.6641C165.867 78.3203 167.961 77.7969 170.289 77.0938V87.2891C165.602 88.7109 161.094 89.4219 156.766 89.4219C154.078 89.4219 151.578 89.1094 149.266 88.4844C146.953 87.8438 144.945 86.7969 143.242 85.3438C141.539 83.8906 140.195 82.0625 139.211 79.8594C138.242 77.6406 137.758 75.0391 137.758 72.0547C137.758 69.1016 138.203 66.5625 139.094 64.4375C140 62.2969 141.273 60.5391 142.914 59.1641C144.57 57.7734 146.555 56.75 148.867 56.0938C151.18 55.4375 153.758 55.1094 156.602 55.1094C158.336 55.1094 159.898 55.1953 161.289 55.3672C162.695 55.5391 163.953 55.7578 165.062 56.0234C166.188 56.2891 167.172 56.5859 168.016 56.9141C168.875 57.2266 169.633 57.5312 170.289 57.8281V68.0234H163.656C162.906 66.9922 162.078 66.2344 161.172 65.75C160.266 65.25 159.32 65 158.336 65C157.523 65 156.727 65.1562 155.945 65.4688C155.18 65.7812 154.492 66.2422 153.883 66.8516C153.289 67.4453 152.805 68.1797 152.43 69.0547C152.07 69.9297 151.891 70.9297 151.891 72.0547ZM193.258 89.4219C190.508 89.4219 187.93 89.1328 185.523 88.5547C183.133 87.9609 181.047 86.9531 179.266 85.5312C177.5 84.0938 176.102 82.2656 175.07 80.0469C174.055 77.8281 173.547 75.1641 173.547 72.0547C173.547 69.0078 174.055 66.4141 175.07 64.2734C176.102 62.1172 177.508 60.3672 179.289 59.0234C181.07 57.6641 183.156 56.6719 185.547 56.0469C187.938 55.4219 190.508 55.1094 193.258 55.1094C195.992 55.1094 198.555 55.4219 200.945 56.0469C203.352 56.6719 205.445 57.6641 207.227 59.0234C209.023 60.3672 210.438 62.1172 211.469 64.2734C212.5 66.4141 213.016 69.0078 213.016 72.0547C213.016 74.1172 212.781 75.9922 212.312 77.6797C211.844 79.3516 211.18 80.8438 210.32 82.1562C209.477 83.4531 208.453 84.5781 207.25 85.5312C206.062 86.4688 204.734 87.25 203.266 87.875C201.797 88.4844 200.219 88.8906 198.531 89.0938C196.844 89.3125 195.086 89.4219 193.258 89.4219ZM193.258 65.0938C192.336 65.0938 191.555 65.2109 190.914 65.4453C190.289 65.6797 189.766 65.9844 189.344 66.3594C188.938 66.7344 188.617 67.1641 188.383 67.6484C188.148 68.1328 187.977 68.6328 187.867 69.1484C187.773 69.6484 187.711 70.1484 187.68 70.6484C187.664 71.1328 187.656 71.5625 187.656 71.9375C187.656 72.2969 187.664 72.7266 187.68 73.2266C187.695 73.7109 187.75 74.2266 187.844 74.7734C187.938 75.3047 188.094 75.8359 188.312 76.3672C188.531 76.8984 188.844 77.375 189.25 77.7969C189.672 78.2188 190.203 78.5625 190.844 78.8281C191.5 79.0781 192.305 79.2031 193.258 79.2031C194.195 79.2031 194.984 79.0781 195.625 78.8281C196.281 78.5781 196.812 78.25 197.219 77.8438C197.641 77.4219 197.969 76.9531 198.203 76.4375C198.438 75.9219 198.602 75.4062 198.695 74.8906C198.805 74.3594 198.867 73.8438 198.883 73.3438C198.914 72.8438 198.93 72.4141 198.93 72.0547C198.93 71.6797 198.914 71.25 198.883 70.7656C198.867 70.2656 198.805 69.7578 198.695 69.2422C198.602 68.7266 198.438 68.2266 198.203 67.7422C197.969 67.2422 197.641 66.7969 197.219 66.4062C196.812 66.0156 196.281 65.7031 195.625 65.4688C194.984 65.2188 194.195 65.0938 193.258 65.0938ZM226.609 89.0234L217.844 65.75L214.492 65.2344V56H235.07V65.2344L232.656 65.75L236.453 78.5L240.273 65.75L237.836 65.2344V56H254.875V65.2344L251.547 65.75L242.781 89.0234H226.609ZM274.469 70.5078L280.961 69.125V75.8047L274.469 74.3984V79.5781C275.406 79.5781 276.312 79.5156 277.188 79.3906C278.062 79.25 278.875 79.0625 279.625 78.8281C280.375 78.5938 281.062 78.3203 281.688 78.0078C282.312 77.6953 282.852 77.3594 283.305 77H286.516V89H257.547V79.6484L260.359 79.1094V65.8203L257.547 65.2812V56H286.516V68H283.305C282.852 67.6562 282.312 67.3281 281.688 67.0156C281.062 66.7031 280.375 66.4297 279.625 66.1953C278.875 65.9609 278.062 65.7734 277.188 65.6328C276.312 65.4922 275.406 65.4219 274.469 65.4219V70.5078ZM326.922 89H312.906C312.469 88.1875 312.016 87.3281 311.547 86.4219C311.078 85.5 310.625 84.5391 310.188 83.5391C309.75 82.5391 309.336 81.5078 308.945 80.4453C308.57 79.3828 308.25 78.2891 307.984 77.1641H307.211V89H290.289V79.6484L293.102 79.1094V65.7734L290.289 65.2344V56H309.484C312.031 56 314.227 56.1094 316.07 56.3281C317.93 56.5469 319.5 56.8672 320.781 57.2891C322.078 57.7109 323.125 58.2266 323.922 58.8359C324.719 59.4297 325.336 60.1094 325.773 60.875C326.227 61.625 326.531 62.4531 326.688 63.3594C326.844 64.2656 326.922 65.2266 326.922 66.2422C326.922 67.2734 326.82 68.2109 326.617 69.0547C326.43 69.8984 326.086 70.6719 325.586 71.375C325.086 72.0781 324.398 72.7266 323.523 73.3203C322.664 73.8984 321.562 74.4453 320.219 74.9609C320.5 75.5234 320.914 76.1953 321.461 76.9766C322.023 77.7422 322.633 78.5312 323.289 79.3438C323.945 80.1406 324.594 80.9141 325.234 81.6641C325.891 82.4141 326.453 83.0547 326.922 83.5859V89ZM307.211 70.8125C308.07 70.8125 308.844 70.7734 309.531 70.6953C310.234 70.6016 310.828 70.4141 311.312 70.1328C311.812 69.8359 312.195 69.4062 312.461 68.8438C312.727 68.2812 312.859 67.5234 312.859 66.5703C312.859 65.6328 312.727 64.8828 312.461 64.3203C312.195 63.7578 311.812 63.3281 311.312 63.0312C310.828 62.7188 310.234 62.5156 309.531 62.4219C308.844 62.3281 308.07 62.2812 307.211 62.2812V70.8125Z" fill="black"/>
<path d="M37.9 494.94V507.54C37.9 508.8 38.21 509.77 38.83 510.45C39.45 511.13 40.36 511.47 41.56 511.47C42.76 511.47 43.68 511.13 44.32 510.45C44.96 509.77 45.28 508.8 45.28 507.54V494.94H50.41V507.51C50.41 509.39 50.01 510.98 49.21 512.28C48.41 513.58 47.33 514.56 45.97 515.22C44.63 515.88 43.13 516.21 41.47 516.21C39.81 516.21 38.32 515.89 37 515.25C35.7 514.59 34.67 513.61 33.91 512.31C33.15 510.99 32.77 509.39 32.77 507.51V494.94H37.9ZM59.1423 502.05C59.7423 501.13 60.4923 500.41 61.3923 499.89C62.2923 499.35 63.2923 499.08 64.3923 499.08V504.51H62.9823C61.7023 504.51 60.7423 504.79 60.1023 505.35C59.4623 505.89 59.1423 506.85 59.1423 508.23V516H54.0123V499.26H59.1423V502.05ZM71.9744 501.63C72.4544 500.85 73.1444 500.22 74.0444 499.74C74.9444 499.26 75.9744 499.02 77.1344 499.02C78.5144 499.02 79.7644 499.37 80.8844 500.07C82.0044 500.77 82.8844 501.77 83.5244 503.07C84.1844 504.37 84.5144 505.88 84.5144 507.6C84.5144 509.32 84.1844 510.84 83.5244 512.16C82.8844 513.46 82.0044 514.47 80.8844 515.19C79.7644 515.89 78.5144 516.24 77.1344 516.24C75.9544 516.24 74.9244 516.01 74.0444 515.55C73.1644 515.07 72.4744 514.44 71.9744 513.66V516H66.8444V493.8H71.9744V501.63ZM79.2944 507.6C79.2944 506.32 78.9344 505.32 78.2144 504.6C77.5144 503.86 76.6444 503.49 75.6044 503.49C74.5844 503.49 73.7144 503.86 72.9944 504.6C72.2944 505.34 71.9444 506.35 71.9444 507.63C71.9444 508.91 72.2944 509.92 72.9944 510.66C73.7144 511.4 74.5844 511.77 75.6044 511.77C76.6244 511.77 77.4944 511.4 78.2144 510.66C78.9344 509.9 79.2944 508.88 79.2944 507.6ZM86.1857 507.6C86.1857 505.88 86.5057 504.37 87.1457 503.07C87.8057 501.77 88.6957 500.77 89.8157 500.07C90.9357 499.37 92.1857 499.02 93.5657 499.02C94.7457 499.02 95.7757 499.26 96.6557 499.74C97.5557 500.22 98.2457 500.85 98.7257 501.63V499.26H103.856V516H98.7257V513.63C98.2257 514.41 97.5257 515.04 96.6257 515.52C95.7457 516 94.7157 516.24 93.5357 516.24C92.1757 516.24 90.9357 515.89 89.8157 515.19C88.6957 514.47 87.8057 513.46 87.1457 512.16C86.5057 510.84 86.1857 509.32 86.1857 507.6ZM98.7257 507.63C98.7257 506.35 98.3657 505.34 97.6457 504.6C96.9457 503.86 96.0857 503.49 95.0657 503.49C94.0457 503.49 93.1757 503.86 92.4557 504.6C91.7557 505.32 91.4057 506.32 91.4057 507.6C91.4057 508.88 91.7557 509.9 92.4557 510.66C93.1757 511.4 94.0457 511.77 95.0657 511.77C96.0857 511.77 96.9457 511.4 97.6457 510.66C98.3657 509.92 98.7257 508.91 98.7257 507.63ZM117.767 499.08C119.727 499.08 121.287 499.72 122.447 501C123.627 502.26 124.217 504 124.217 506.22V516H119.117V506.91C119.117 505.79 118.827 504.92 118.247 504.3C117.667 503.68 116.887 503.37 115.907 503.37C114.927 503.37 114.147 503.68 113.567 504.3C112.987 504.92 112.697 505.79 112.697 506.91V516H107.567V499.26H112.697V501.48C113.217 500.74 113.917 500.16 114.797 499.74C115.677 499.3 116.667 499.08 117.767 499.08ZM141.492 494.94V499.05H132.912V503.49H139.332V507.48H132.912V516H127.782V494.94H141.492ZM151.808 516.24C150.168 516.24 148.688 515.89 147.368 515.19C146.068 514.49 145.038 513.49 144.278 512.19C143.538 510.89 143.168 509.37 143.168 507.63C143.168 505.91 143.548 504.4 144.308 503.1C145.068 501.78 146.108 500.77 147.428 500.07C148.748 499.37 150.228 499.02 151.868 499.02C153.508 499.02 154.988 499.37 156.308 500.07C157.628 500.77 158.668 501.78 159.428 503.1C160.188 504.4 160.568 505.91 160.568 507.63C160.568 509.35 160.178 510.87 159.398 512.19C158.638 513.49 157.588 514.49 156.248 515.19C154.928 515.89 153.448 516.24 151.808 516.24ZM151.808 511.8C152.788 511.8 153.618 511.44 154.298 510.72C154.998 510 155.348 508.97 155.348 507.63C155.348 506.29 155.008 505.26 154.328 504.54C153.668 503.82 152.848 503.46 151.868 503.46C150.868 503.46 150.038 503.82 149.378 504.54C148.718 505.24 148.388 506.27 148.388 507.63C148.388 508.97 148.708 510 149.348 510.72C150.008 511.44 150.828 511.8 151.808 511.8ZM168.42 502.05C169.02 501.13 169.77 500.41 170.67 499.89C171.57 499.35 172.57 499.08 173.67 499.08V504.51H172.26C170.98 504.51 170.02 504.79 169.38 505.35C168.74 505.89 168.42 506.85 168.42 508.23V516H163.29V499.26H168.42V502.05ZM182.482 499.02C183.662 499.02 184.692 499.26 185.572 499.74C186.472 500.22 187.162 500.85 187.642 501.63V499.26H192.772V515.97C192.772 517.51 192.462 518.9 191.842 520.14C191.242 521.4 190.312 522.4 189.052 523.14C187.812 523.88 186.262 524.25 184.402 524.25C181.922 524.25 179.912 523.66 178.372 522.48C176.832 521.32 175.952 519.74 175.732 517.74H180.802C180.962 518.38 181.342 518.88 181.942 519.24C182.542 519.62 183.282 519.81 184.162 519.81C185.222 519.81 186.062 519.5 186.682 518.88C187.322 518.28 187.642 517.31 187.642 515.97V513.6C187.142 514.38 186.452 515.02 185.572 515.52C184.692 516 183.662 516.24 182.482 516.24C181.102 516.24 179.852 515.89 178.732 515.19C177.612 514.47 176.722 513.46 176.062 512.16C175.422 510.84 175.102 509.32 175.102 507.6C175.102 505.88 175.422 504.37 176.062 503.07C176.722 501.77 177.612 500.77 178.732 500.07C179.852 499.37 181.102 499.02 182.482 499.02ZM187.642 507.63C187.642 506.35 187.282 505.34 186.562 504.6C185.862 503.86 185.002 503.49 183.982 503.49C182.962 503.49 182.092 503.86 181.372 504.6C180.672 505.32 180.322 506.32 180.322 507.6C180.322 508.88 180.672 509.9 181.372 510.66C182.092 511.4 182.962 511.77 183.982 511.77C185.002 511.77 185.862 511.4 186.562 510.66C187.282 509.92 187.642 508.91 187.642 507.63ZM212.263 507.36C212.263 507.84 212.233 508.34 212.173 508.86H200.563C200.643 509.9 200.973 510.7 201.553 511.26C202.153 511.8 202.883 512.07 203.743 512.07C205.023 512.07 205.913 511.53 206.413 510.45H211.873C211.593 511.55 211.083 512.54 210.343 513.42C209.623 514.3 208.713 514.99 207.613 515.49C206.513 515.99 205.283 516.24 203.923 516.24C202.283 516.24 200.823 515.89 199.543 515.19C198.263 514.49 197.263 513.49 196.543 512.19C195.823 510.89 195.463 509.37 195.463 507.63C195.463 505.89 195.813 504.37 196.513 503.07C197.233 501.77 198.233 500.77 199.513 500.07C200.793 499.37 202.263 499.02 203.923 499.02C205.543 499.02 206.983 499.36 208.243 500.04C209.503 500.72 210.483 501.69 211.183 502.95C211.903 504.21 212.263 505.68 212.263 507.36ZM207.013 506.01C207.013 505.13 206.713 504.43 206.113 503.91C205.513 503.39 204.763 503.13 203.863 503.13C203.003 503.13 202.273 503.38 201.673 503.88C201.093 504.38 200.733 505.09 200.593 506.01H207.013Z" fill="black"/>
<path d="M40.78 542.9H34.7L33.58 546H31.66L36.7 532.14H38.8L43.82 546H41.9L40.78 542.9ZM40.26 541.42L37.74 534.38L35.22 541.42H40.26ZM53.3566 546L50.0366 540.3H47.8366V546H46.0166V532.06H50.5166C51.5699 532.06 52.4566 532.24 53.1766 532.6C53.9099 532.96 54.4566 533.447 54.8166 534.06C55.1766 534.673 55.3566 535.373 55.3566 536.16C55.3566 537.12 55.0766 537.967 54.5166 538.7C53.9699 539.433 53.1432 539.92 52.0366 540.16L55.5366 546H53.3566ZM47.8366 538.84H50.5166C51.5032 538.84 52.2432 538.6 52.7366 538.12C53.2299 537.627 53.4766 536.973 53.4766 536.16C53.4766 535.333 53.2299 534.693 52.7366 534.24C52.2566 533.787 51.5166 533.56 50.5166 533.56H47.8366V538.84ZM57.5045 539.02C57.5045 537.66 57.8112 536.44 58.4245 535.36C59.0379 534.267 59.8712 533.413 60.9245 532.8C61.9912 532.187 63.1712 531.88 64.4645 531.88C65.9845 531.88 67.3112 532.247 68.4445 532.98C69.5779 533.713 70.4045 534.753 70.9245 536.1H68.7445C68.3579 535.26 67.7979 534.613 67.0645 534.16C66.3445 533.707 65.4779 533.48 64.4645 533.48C63.4912 533.48 62.6179 533.707 61.8445 534.16C61.0712 534.613 60.4645 535.26 60.0245 536.1C59.5845 536.927 59.3645 537.9 59.3645 539.02C59.3645 540.127 59.5845 541.1 60.0245 541.94C60.4645 542.767 61.0712 543.407 61.8445 543.86C62.6179 544.313 63.4912 544.54 64.4645 544.54C65.4779 544.54 66.3445 544.32 67.0645 543.88C67.7979 543.427 68.3579 542.78 68.7445 541.94H70.9245C70.4045 543.273 69.5779 544.307 68.4445 545.04C67.3112 545.76 65.9845 546.12 64.4645 546.12C63.1712 546.12 61.9912 545.82 60.9245 545.22C59.8712 544.607 59.0379 543.76 58.4245 542.68C57.8112 541.6 57.5045 540.38 57.5045 539.02ZM84.3738 532.06V546H82.5538V539.68H75.4538V546H73.6338V532.06H75.4538V538.18H82.5538V532.06H84.3738ZM89.3014 532.06V546H87.4814V532.06H89.3014ZM100.983 532.06V533.54H97.1833V546H95.3633V533.54H91.5433V532.06H100.983ZM105.044 533.54V538.2H110.124V539.7H105.044V544.5H110.724V546H103.224V532.04H110.724V533.54H105.044ZM112.798 539.02C112.798 537.66 113.104 536.44 113.718 535.36C114.331 534.267 115.164 533.413 116.218 532.8C117.284 532.187 118.464 531.88 119.758 531.88C121.278 531.88 122.604 532.247 123.738 532.98C124.871 533.713 125.698 534.753 126.218 536.1H124.038C123.651 535.26 123.091 534.613 122.358 534.16C121.638 533.707 120.771 533.48 119.758 533.48C118.784 533.48 117.911 533.707 117.138 534.16C116.364 534.613 115.758 535.26 115.318 536.1C114.878 536.927 114.658 537.9 114.658 539.02C114.658 540.127 114.878 541.1 115.318 541.94C115.758 542.767 116.364 543.407 117.138 543.86C117.911 544.313 118.784 544.54 119.758 544.54C120.771 544.54 121.638 544.32 122.358 543.88C123.091 543.427 123.651 542.78 124.038 541.94H126.218C125.698 543.273 124.871 544.307 123.738 545.04C122.604 545.76 121.278 546.12 119.758 546.12C118.464 546.12 117.284 545.82 116.218 545.22C115.164 544.607 114.331 543.76 113.718 542.68C113.104 541.6 112.798 540.38 112.798 539.02ZM137.507 532.06V533.54H133.707V546H131.887V533.54H128.067V532.06H137.507ZM144.167 546.14C143.247 546.14 142.42 545.98 141.687 545.66C140.967 545.327 140.4 544.873 139.987 544.3C139.574 543.713 139.36 543.04 139.347 542.28H141.287C141.354 542.933 141.62 543.487 142.087 543.94C142.567 544.38 143.26 544.6 144.167 544.6C145.034 544.6 145.714 544.387 146.207 543.96C146.714 543.52 146.967 542.96 146.967 542.28C146.967 541.747 146.82 541.313 146.527 540.98C146.234 540.647 145.867 540.393 145.427 540.22C144.987 540.047 144.394 539.86 143.647 539.66C142.727 539.42 141.987 539.18 141.427 538.94C140.88 538.7 140.407 538.327 140.007 537.82C139.62 537.3 139.427 536.607 139.427 535.74C139.427 534.98 139.62 534.307 140.007 533.72C140.394 533.133 140.934 532.68 141.627 532.36C142.334 532.04 143.14 531.88 144.047 531.88C145.354 531.88 146.42 532.207 147.247 532.86C148.087 533.513 148.56 534.38 148.667 535.46H146.667C146.6 534.927 146.32 534.46 145.827 534.06C145.334 533.647 144.68 533.44 143.867 533.44C143.107 533.44 142.487 533.64 142.007 534.04C141.527 534.427 141.287 534.973 141.287 535.68C141.287 536.187 141.427 536.6 141.707 536.92C142 537.24 142.354 537.487 142.767 537.66C143.194 537.82 143.787 538.007 144.547 538.22C145.467 538.473 146.207 538.727 146.767 538.98C147.327 539.22 147.807 539.6 148.207 540.12C148.607 540.627 148.807 541.32 148.807 542.2C148.807 542.88 148.627 543.52 148.267 544.12C147.907 544.72 147.374 545.207 146.667 545.58C145.96 545.953 145.127 546.14 144.167 546.14ZM167.517 546L165.697 544.16C165.017 544.867 164.291 545.393 163.517 545.74C162.744 546.073 161.871 546.24 160.897 546.24C159.937 546.24 159.084 546.067 158.337 545.72C157.604 545.373 157.031 544.88 156.617 544.24C156.217 543.6 156.017 542.853 156.017 542C156.017 541.027 156.291 540.173 156.837 539.44C157.397 538.693 158.217 538.107 159.297 537.68C158.871 537.173 158.564 536.707 158.377 536.28C158.191 535.853 158.097 535.387 158.097 534.88C158.097 534.293 158.244 533.767 158.537 533.3C158.844 532.82 159.277 532.447 159.837 532.18C160.397 531.913 161.044 531.78 161.777 531.78C162.497 531.78 163.124 531.92 163.657 532.2C164.191 532.48 164.591 532.873 164.857 533.38C165.124 533.873 165.244 534.427 165.217 535.04H163.397C163.411 534.493 163.257 534.067 162.937 533.76C162.617 533.44 162.204 533.28 161.697 533.28C161.164 533.28 160.731 533.433 160.397 533.74C160.077 534.033 159.917 534.413 159.917 534.88C159.917 535.28 160.024 535.667 160.237 536.04C160.464 536.413 160.837 536.873 161.357 537.42L165.517 541.6L165.877 541.04L167.237 538.76H169.197L167.557 541.6C167.331 542 167.064 542.42 166.757 542.86L169.897 546H167.517ZM160.897 544.68C161.617 544.68 162.264 544.54 162.837 544.26C163.424 543.98 163.977 543.547 164.497 542.96L160.397 538.84C158.691 539.493 157.837 540.527 157.837 541.94C157.837 542.727 158.117 543.38 158.677 543.9C159.251 544.42 159.991 544.68 160.897 544.68ZM181.275 532.06C182.795 532.06 184.108 532.347 185.215 532.92C186.335 533.48 187.188 534.287 187.775 535.34C188.375 536.393 188.675 537.633 188.675 539.06C188.675 540.487 188.375 541.727 187.775 542.78C187.188 543.82 186.335 544.62 185.215 545.18C184.108 545.727 182.795 546 181.275 546H176.935V532.06H181.275ZM181.275 544.5C183.075 544.5 184.448 544.027 185.395 543.08C186.341 542.12 186.815 540.78 186.815 539.06C186.815 537.327 186.335 535.973 185.375 535C184.428 534.027 183.061 533.54 181.275 533.54H178.755V544.5H181.275ZM192.895 533.54V538.2H197.975V539.7H192.895V544.5H198.575V546H191.075V532.04H198.575V533.54H192.895ZM205.749 546.14C204.829 546.14 204.002 545.98 203.269 545.66C202.549 545.327 201.982 544.873 201.569 544.3C201.156 543.713 200.942 543.04 200.929 542.28H202.869C202.936 542.933 203.202 543.487 203.669 543.94C204.149 544.38 204.842 544.6 205.749 544.6C206.616 544.6 207.296 544.387 207.789 543.96C208.296 543.52 208.549 542.96 208.549 542.28C208.549 541.747 208.402 541.313 208.109 540.98C207.816 540.647 207.449 540.393 207.009 540.22C206.569 540.047 205.976 539.86 205.229 539.66C204.309 539.42 203.569 539.18 203.009 538.94C202.462 538.7 201.989 538.327 201.589 537.82C201.202 537.3 201.009 536.607 201.009 535.74C201.009 534.98 201.202 534.307 201.589 533.72C201.976 533.133 202.516 532.68 203.209 532.36C203.916 532.04 204.722 531.88 205.629 531.88C206.936 531.88 208.002 532.207 208.829 532.86C209.669 533.513 210.142 534.38 210.249 535.46H208.249C208.182 534.927 207.902 534.46 207.409 534.06C206.916 533.647 206.262 533.44 205.449 533.44C204.689 533.44 204.069 533.64 203.589 534.04C203.109 534.427 202.869 534.973 202.869 535.68C202.869 536.187 203.009 536.6 203.289 536.92C203.582 537.24 203.936 537.487 204.349 537.66C204.776 537.82 205.369 538.007 206.129 538.22C207.049 538.473 207.789 538.727 208.349 538.98C208.909 539.22 209.389 539.6 209.789 540.12C210.189 540.627 210.389 541.32 210.389 542.2C210.389 542.88 210.209 543.52 209.849 544.12C209.489 544.72 208.956 545.207 208.249 545.58C207.542 545.953 206.709 546.14 205.749 546.14ZM214.887 532.06V546H213.067V532.06H214.887ZM228.549 536.1C228.163 535.287 227.603 534.66 226.869 534.22C226.136 533.767 225.283 533.54 224.309 533.54C223.336 533.54 222.456 533.767 221.669 534.22C220.896 534.66 220.283 535.3 219.829 536.14C219.389 536.967 219.169 537.927 219.169 539.02C219.169 540.113 219.389 541.073 219.829 541.9C220.283 542.727 220.896 543.367 221.669 543.82C222.456 544.26 223.336 544.48 224.309 544.48C225.669 544.48 226.789 544.073 227.669 543.26C228.549 542.447 229.063 541.347 229.209 539.96H223.649V538.48H231.149V539.88C231.043 541.027 230.683 542.08 230.069 543.04C229.456 543.987 228.649 544.74 227.649 545.3C226.649 545.847 225.536 546.12 224.309 546.12C223.016 546.12 221.836 545.82 220.769 545.22C219.703 544.607 218.856 543.76 218.229 542.68C217.616 541.6 217.309 540.38 217.309 539.02C217.309 537.66 217.616 536.44 218.229 535.36C218.856 534.267 219.703 533.42 220.769 532.82C221.836 532.207 223.016 531.9 224.309 531.9C225.789 531.9 227.096 532.267 228.229 533C229.376 533.733 230.209 534.767 230.729 536.1H228.549ZM244.516 546H242.696L235.376 534.9V546H233.556V532.04H235.376L242.696 543.12V532.04H244.516V546ZM249.438 533.54V538.2H254.518V539.7H249.438V544.5H255.118V546H247.618V532.04H255.118V533.54H249.438ZM265.212 546L261.892 540.3H259.692V546H257.872V532.06H262.372C263.425 532.06 264.312 532.24 265.032 532.6C265.765 532.96 266.312 533.447 266.672 534.06C267.032 534.673 267.212 535.373 267.212 536.16C267.212 537.12 266.932 537.967 266.372 538.7C265.825 539.433 264.999 539.92 263.892 540.16L267.392 546H265.212ZM259.692 538.84H262.372C263.359 538.84 264.099 538.6 264.592 538.12C265.085 537.627 265.332 536.973 265.332 536.16C265.332 535.333 265.085 534.693 264.592 534.24C264.112 533.787 263.372 533.56 262.372 533.56H259.692V538.84ZM274.46 546.14C273.54 546.14 272.713 545.98 271.98 545.66C271.26 545.327 270.693 544.873 270.28 544.3C269.867 543.713 269.653 543.04 269.64 542.28H271.58C271.647 542.933 271.913 543.487 272.38 543.94C272.86 544.38 273.553 544.6 274.46 544.6C275.327 544.6 276.007 544.387 276.5 543.96C277.007 543.52 277.26 542.96 277.26 542.28C277.26 541.747 277.113 541.313 276.82 540.98C276.527 540.647 276.16 540.393 275.72 540.22C275.28 540.047 274.687 539.86 273.94 539.66C273.02 539.42 272.28 539.18 271.72 538.94C271.173 538.7 270.7 538.327 270.3 537.82C269.913 537.3 269.72 536.607 269.72 535.74C269.72 534.98 269.913 534.307 270.3 533.72C270.687 533.133 271.227 532.68 271.92 532.36C272.627 532.04 273.433 531.88 274.34 531.88C275.647 531.88 276.713 532.207 277.54 532.86C278.38 533.513 278.853 534.38 278.96 535.46H276.96C276.893 534.927 276.613 534.46 276.12 534.06C275.627 533.647 274.973 533.44 274.16 533.44C273.4 533.44 272.78 533.64 272.3 534.04C271.82 534.427 271.58 534.973 271.58 535.68C271.58 536.187 271.72 536.6 272 536.92C272.293 537.24 272.647 537.487 273.06 537.66C273.487 537.82 274.08 538.007 274.84 538.22C275.76 538.473 276.5 538.727 277.06 538.98C277.62 539.22 278.1 539.6 278.5 540.12C278.9 540.627 279.1 541.32 279.1 542.2C279.1 542.88 278.92 543.52 278.56 544.12C278.2 544.72 277.667 545.207 276.96 545.58C276.253 545.953 275.42 546.14 274.46 546.14ZM282.358 546.12C282.012 546.12 281.718 546 281.478 545.76C281.238 545.52 281.118 545.227 281.118 544.88C281.118 544.533 281.238 544.24 281.478 544C281.718 543.76 282.012 543.64 282.358 543.64C282.692 543.64 282.972 543.76 283.198 544C283.438 544.24 283.558 544.533 283.558 544.88C283.558 545.227 283.438 545.52 283.198 545.76C282.972 546 282.692 546.12 282.358 546.12Z" fill="black"/>
<circle cx="437" cy="70" r="20" fill="black"/>
<path d="M429.559 72.58C430.239 71.9 430.579 71.06 430.579 70.06C430.579 69.06 430.239 68.22 429.559 67.54C428.879 66.86 428.039 66.52 427.039 66.52C426.039 66.52 425.199 66.86 424.519 67.54C423.839 68.22 423.499 69.06 423.499 70.06C423.499 71.06 423.839 71.9 424.519 72.58C425.199 73.26 426.039 73.6 427.039 73.6C428.039 73.6 428.879 73.26 429.559 72.58ZM439.52 72.58C440.2 71.9 440.54 71.06 440.54 70.06C440.54 69.06 440.2 68.22 439.52 67.54C438.84 66.86 438 66.52 437 66.52C436 66.52 435.16 66.86 434.48 67.54C433.8 68.22 433.46 69.06 433.46 70.06C433.46 71.06 433.8 71.9 434.48 72.58C435.16 73.26 436 73.6 437 73.6C438 73.6 438.84 73.26 439.52 72.58ZM449.48 72.58C450.16 71.9 450.5 71.06 450.5 70.06C450.5 69.06 450.16 68.22 449.48 67.54C448.8 66.86 447.96 66.52 446.96 66.52C445.96 66.52 445.12 66.86 444.44 67.54C443.76 68.22 443.42 69.06 443.42 70.06C443.42 71.06 443.76 71.9 444.44 72.58C445.12 73.26 445.96 73.6 446.96 73.6C447.96 73.6 448.8 73.26 449.48 72.58Z" fill="white"/>
<circle cx="488" cy="70" r="20" fill="black"/>
<path d="M486.615 76.2308C490.821 76.2308 494.231 72.8213 494.231 68.6154C494.231 64.4095 490.821 61 486.615 61C482.41 61 479 64.4095 479 68.6154C479 72.8213 482.41 76.2308 486.615 76.2308Z" stroke="white" stroke-width="2" stroke-linecap="round" stroke-linejoin="round"/>
<path d="M496.998 78.9985L492.152 74.1523" stroke="white" stroke-width="2" stroke-linecap="round" stroke-linejoin="round"/>
<path d="M339 72L350.445 79.6302C350.781 79.8541 351.219 79.8541 351.555 79.6302L363 72" stroke="black" stroke-width="3" stroke-linecap="round"/>
<rect x="386" y="492" width="151" height="45" rx="5" fill="#FEBC2E" fill-opacity="0.8"/>
<path d="M402.75 503.94C404.97 503.94 406.91 504.38 408.57 505.26C410.23 506.14 411.51 507.38 412.41 508.98C413.33 510.56 413.79 512.39 413.79 514.47C413.79 516.53 413.33 518.36 412.41 519.96C411.51 521.56 410.22 522.8 408.54 523.68C406.88 524.56 404.95 525 402.75 525H394.86V503.94H402.75ZM402.42 520.56C404.36 520.56 405.87 520.03 406.95 518.97C408.03 517.91 408.57 516.41 408.57 514.47C408.57 512.53 408.03 511.02 406.95 509.94C405.87 508.86 404.36 508.32 402.42 508.32H399.99V520.56H402.42ZM432.437 516.36C432.437 516.84 432.407 517.34 432.347 517.86H420.737C420.817 518.9 421.147 519.7 421.727 520.26C422.327 520.8 423.057 521.07 423.917 521.07C425.197 521.07 426.087 520.53 426.587 519.45H432.047C431.767 520.55 431.257 521.54 430.517 522.42C429.797 523.3 428.887 523.99 427.787 524.49C426.687 524.99 425.457 525.24 424.097 525.24C422.457 525.24 420.997 524.89 419.717 524.19C418.437 523.49 417.437 522.49 416.717 521.19C415.997 519.89 415.637 518.37 415.637 516.63C415.637 514.89 415.987 513.37 416.687 512.07C417.407 510.77 418.407 509.77 419.687 509.07C420.967 508.37 422.437 508.02 424.097 508.02C425.717 508.02 427.157 508.36 428.417 509.04C429.677 509.72 430.657 510.69 431.357 511.95C432.077 513.21 432.437 514.68 432.437 516.36ZM427.187 515.01C427.187 514.13 426.887 513.43 426.287 512.91C425.687 512.39 424.937 512.13 424.037 512.13C423.177 512.13 422.447 512.38 421.847 512.88C421.267 513.38 420.907 514.09 420.767 515.01H427.187ZM441.953 525.24C440.493 525.24 439.193 524.99 438.053 524.49C436.913 523.99 436.013 523.31 435.353 522.45C434.693 521.57 434.323 520.59 434.243 519.51H439.313C439.373 520.09 439.643 520.56 440.123 520.92C440.603 521.28 441.193 521.46 441.893 521.46C442.533 521.46 443.023 521.34 443.363 521.1C443.723 520.84 443.903 520.51 443.903 520.11C443.903 519.63 443.653 519.28 443.153 519.06C442.653 518.82 441.843 518.56 440.723 518.28C439.523 518 438.523 517.71 437.723 517.41C436.923 517.09 436.233 516.6 435.653 515.94C435.073 515.26 434.783 514.35 434.783 513.21C434.783 512.25 435.043 511.38 435.563 510.6C436.103 509.8 436.883 509.17 437.903 508.71C438.943 508.25 440.173 508.02 441.593 508.02C443.693 508.02 445.343 508.54 446.543 509.58C447.763 510.62 448.463 512 448.643 513.72H443.903C443.823 513.14 443.563 512.68 443.123 512.34C442.703 512 442.143 511.83 441.443 511.83C440.843 511.83 440.383 511.95 440.063 512.19C439.743 512.41 439.583 512.72 439.583 513.12C439.583 513.6 439.833 513.96 440.333 514.2C440.853 514.44 441.653 514.68 442.733 514.92C443.973 515.24 444.983 515.56 445.763 515.88C446.543 516.18 447.223 516.68 447.803 517.38C448.403 518.06 448.713 518.98 448.733 520.14C448.733 521.12 448.453 522 447.893 522.78C447.353 523.54 446.563 524.14 445.523 524.58C444.503 525.02 443.313 525.24 441.953 525.24ZM454.452 506.52C453.552 506.52 452.812 506.26 452.232 505.74C451.672 505.2 451.392 504.54 451.392 503.76C451.392 502.96 451.672 502.3 452.232 501.78C452.812 501.24 453.552 500.97 454.452 500.97C455.332 500.97 456.052 501.24 456.612 501.78C457.192 502.3 457.482 502.96 457.482 503.76C457.482 504.54 457.192 505.2 456.612 505.74C456.052 506.26 455.332 506.52 454.452 506.52ZM457.002 508.26V525H451.872V508.26H457.002ZM467.079 508.02C468.259 508.02 469.289 508.26 470.169 508.74C471.069 509.22 471.759 509.85 472.239 510.63V508.26H477.369V524.97C477.369 526.51 477.059 527.9 476.439 529.14C475.839 530.4 474.909 531.4 473.649 532.14C472.409 532.88 470.859 533.25 468.999 533.25C466.519 533.25 464.509 532.66 462.969 531.48C461.429 530.32 460.549 528.74 460.329 526.74H465.399C465.559 527.38 465.939 527.88 466.539 528.24C467.139 528.62 467.879 528.81 468.759 528.81C469.819 528.81 470.659 528.5 471.279 527.88C471.919 527.28 472.239 526.31 472.239 524.97V522.6C471.739 523.38 471.049 524.02 470.169 524.52C469.289 525 468.259 525.24 467.079 525.24C465.699 525.24 464.449 524.89 463.329 524.19C462.209 523.47 461.319 522.46 460.659 521.16C460.019 519.84 459.699 518.32 459.699 516.6C459.699 514.88 460.019 513.37 460.659 512.07C461.319 510.77 462.209 509.77 463.329 509.07C464.449 508.37 465.699 508.02 467.079 508.02ZM472.239 516.63C472.239 515.35 471.879 514.34 471.159 513.6C470.459 512.86 469.599 512.49 468.579 512.49C467.559 512.49 466.689 512.86 465.969 513.6C465.269 514.32 464.919 515.32 464.919 516.6C464.919 517.88 465.269 518.9 465.969 519.66C466.689 520.4 467.559 520.77 468.579 520.77C469.599 520.77 470.459 520.4 471.159 519.66C471.879 518.92 472.239 517.91 472.239 516.63ZM491.281 508.08C493.241 508.08 494.801 508.72 495.961 510C497.141 511.26 497.731 513 497.731 515.22V525H492.631V515.91C492.631 514.79 492.341 513.92 491.761 513.3C491.181 512.68 490.401 512.37 489.421 512.37C488.441 512.37 487.661 512.68 487.081 513.3C486.501 513.92 486.211 514.79 486.211 515.91V525H481.081V508.26H486.211V510.48C486.731 509.74 487.431 509.16 488.311 508.74C489.191 508.3 490.181 508.08 491.281 508.08ZM517.076 516.36C517.076 516.84 517.046 517.34 516.986 517.86H505.376C505.456 518.9 505.786 519.7 506.366 520.26C506.966 520.8 507.696 521.07 508.556 521.07C509.836 521.07 510.726 520.53 511.226 519.45H516.686C516.406 520.55 515.896 521.54 515.156 522.42C514.436 523.3 513.526 523.99 512.426 524.49C511.326 524.99 510.096 525.24 508.736 525.24C507.096 525.24 505.636 524.89 504.356 524.19C503.076 523.49 502.076 522.49 501.356 521.19C500.636 519.89 500.276 518.37 500.276 516.63C500.276 514.89 500.626 513.37 501.326 512.07C502.046 510.77 503.046 509.77 504.326 509.07C505.606 508.37 507.076 508.02 508.736 508.02C510.356 508.02 511.796 508.36 513.056 509.04C514.316 509.72 515.296 510.69 515.996 511.95C516.716 513.21 517.076 514.68 517.076 516.36ZM511.826 515.01C511.826 514.13 511.526 513.43 510.926 512.91C510.326 512.39 509.576 512.13 508.676 512.13C507.816 512.13 507.086 512.38 506.486 512.88C505.906 513.38 505.546 514.09 505.406 515.01H511.826ZM524.912 511.05C525.512 510.13 526.262 509.41 527.162 508.89C528.062 508.35 529.062 508.08 530.162 508.08V513.51H528.752C527.472 513.51 526.512 513.79 525.872 514.35C525.232 514.89 524.912 515.85 524.912 517.23V525H519.782V508.26H524.912V511.05Z" fill="black"/>
<g clip-path="url(#clip0_472_320)">
<rect x="388" y="118" width="120" height="120" fill="white"/>
<rect x="388" y="238" width="120" height="120" fill="#48454A"/>
<rect x="388" y="358" width="120" height="120" fill="white"/>
<rect x="148" y="118" width="120" height="120" fill="white"/>
<rect x="148" y="238" width="120" height="120" fill="#48454A"/>
<rect x="148" y="358" width="120" height="120" fill="white"/>
<rect x="28" y="118" width="120" height="120" fill="#48454A"/>
<rect x="28" y="238" width="120" height="120" fill="white"/>
<rect x="28" y="358" width="120" height="120" fill="#48454A"/>
<rect x="268" y="118" width="120" height="120" fill="#48454A"/>
<rect x="268" y="238" width="120" height="120" fill="white"/>
<rect x="268" y="358" width="120" height="120" fill="#48454A"/>
</g>
<rect x="42" y="122" width="462" height="352" rx="6" stroke="#178EFF" stroke-width="8"/>
<rect x="30.5" y="110.5" width="15" height="15" fill="white" stroke="#178EFF" stroke-width="3"/>
<rect x="30.5" y="470.5" width="15" height="15" fill="white" stroke="#178EFF" stroke-width="3"/>
<path fill-rule="evenodd" clip-rule="evenodd" d="M356.182 505.507L340 413.734L418.275 468.584L377.858 475.711L377.117 476.574L356.182 505.507Z" fill="#CDCDCD"/>
<path fill-rule="evenodd" clip-rule="evenodd" d="M348.062 425.918L359.39 490.159L373.518 470.7L374.295 469.74L403.188 464.693L348.062 425.918Z" fill="black"/>
<rect x="500.5" y="110.5" width="15" height="15" fill="white" stroke="#178EFF" stroke-width="3"/>
<defs>
<clipPath id="clip0_472_320">
<rect x="38" y="118" width="470" height="360" rx="10" fill="white"/>
</clipPath>
</defs>
</svg>
