<svg width="700" height="740" viewBox="0 0 700 740" fill="none" xmlns="http://www.w3.org/2000/svg">
<g filter="url(#filter0_d_471_163)">
<rect x="74" y="70" width="551" height="600.511" rx="64" fill="white"/>
<g clip-path="url(#clip0_471_163)">
<rect x="462" y="188" width="120" height="120" fill="white"/>
<rect x="462" y="308" width="120" height="120" fill="#48454A"/>
<rect x="462" y="428" width="120" height="120" fill="white"/>
<rect x="222" y="188" width="120" height="120" fill="white"/>
<rect x="222" y="308" width="120" height="120" fill="#48454A"/>
<rect x="222" y="428" width="120" height="120" fill="white"/>
<rect x="102" y="188" width="120" height="120" fill="#48454A"/>
<rect x="102" y="308" width="120" height="120" fill="white"/>
<rect x="102" y="428" width="120" height="120" fill="#48454A"/>
<rect x="342" y="188" width="120" height="120" fill="#48454A"/>
<rect x="342" y="308" width="120" height="120" fill="white"/>
<rect x="342" y="428" width="120" height="120" fill="#48454A"/>
</g>
<rect x="116" y="192" width="462" height="352" rx="6" stroke="#178EFF" stroke-width="8"/>
<path d="M137.625 123C139.891 123.484 141.93 124.188 143.742 125.109C145.555 126.016 147.094 127.18 148.359 128.602C149.641 130.023 150.617 131.727 151.289 133.711C151.977 135.68 152.32 137.969 152.32 140.578C152.32 144.031 151.742 146.938 150.586 149.297C149.43 151.641 147.797 153.531 145.688 154.969C143.594 156.406 141.07 157.438 138.117 158.063C135.164 158.688 131.898 159 128.32 159H110.32V148.828L113.32 148.242V132.891L110.32 132.305V123H137.625ZM130.617 148.242C132.289 148.242 133.578 148.063 134.484 147.703C135.391 147.328 136.047 146.805 136.453 146.133C136.875 145.461 137.117 144.656 137.18 143.719C137.258 142.781 137.297 141.734 137.297 140.578C137.297 139.422 137.258 138.375 137.18 137.438C137.117 136.484 136.875 135.672 136.453 135C136.047 134.328 135.391 133.813 134.484 133.453C133.578 133.078 132.289 132.891 130.617 132.891H128.32V148.242H130.617ZM155.789 126H175.523V135.234L172.711 135.773V149.109L175.523 149.648V159H155.789V149.648L158.602 149.109V135.773L155.789 135.234V126ZM208.781 148.617C208.781 150.07 208.57 151.359 208.148 152.484C207.742 153.594 207.18 154.563 206.461 155.391C205.758 156.203 204.914 156.883 203.93 157.43C202.961 157.977 201.914 158.422 200.789 158.766C199.664 159.094 198.484 159.281 197.25 159.328C196.031 159.391 194.813 159.422 193.594 159.422C191.906 159.422 190.383 159.383 189.023 159.305C187.664 159.227 186.445 159.055 185.367 158.789C184.305 158.523 183.359 158.234 182.531 157.922C181.719 157.594 181 157.273 180.375 156.961V148.828H187.008C187.664 149.859 188.414 150.617 189.258 151.102C190.102 151.586 190.969 151.828 191.859 151.828C192.125 151.828 192.422 151.805 192.75 151.758C193.078 151.711 193.383 151.563 193.664 151.313C193.945 151.063 194.18 150.68 194.367 150.164C194.57 149.633 194.672 148.891 194.672 147.938C193.406 147.828 192.148 147.672 190.898 147.469C189.664 147.25 188.477 146.961 187.336 146.602C186.211 146.242 185.164 145.789 184.195 145.242C183.227 144.68 182.383 144.008 181.664 143.227C180.961 142.43 180.406 141.5 180 140.438C179.594 139.359 179.391 138.125 179.391 136.734C179.391 135.141 179.594 133.75 180 132.563C180.406 131.359 180.961 130.328 181.664 129.469C182.367 128.609 183.195 127.898 184.148 127.336C185.117 126.773 186.156 126.328 187.266 126C188.375 125.672 189.531 125.445 190.734 125.32C191.938 125.18 193.141 125.109 194.344 125.109C196.047 125.109 197.57 125.195 198.914 125.367C200.273 125.539 201.484 125.758 202.547 126.023C203.625 126.289 204.57 126.586 205.383 126.914C206.211 127.227 206.945 127.531 207.586 127.828V136.031H200.484C199.891 134.906 199.211 134.086 198.445 133.57C197.68 133.055 196.898 132.797 196.102 132.797C195.836 132.797 195.531 132.844 195.188 132.938C194.844 133.016 194.523 133.203 194.227 133.5C193.93 133.797 193.68 134.234 193.477 134.813C193.273 135.391 193.172 136.172 193.172 137.156C195.75 137.25 198.008 137.523 199.945 137.977C201.898 138.43 203.531 139.109 204.844 140.016C206.156 140.906 207.141 142.063 207.797 143.484C208.453 144.891 208.781 146.602 208.781 148.617ZM225.891 142.055C225.891 144.539 226.523 146.352 227.789 147.492C229.055 148.617 230.852 149.18 233.18 149.18C234.555 149.18 236.164 149.008 238.008 148.664C239.867 148.32 241.961 147.797 244.289 147.094V157.289C239.602 158.711 235.094 159.422 230.766 159.422C228.078 159.422 225.578 159.109 223.266 158.484C220.953 157.844 218.945 156.797 217.242 155.344C215.539 153.891 214.195 152.063 213.211 149.859C212.242 147.641 211.758 145.039 211.758 142.055C211.758 139.102 212.203 136.563 213.094 134.438C214 132.297 215.273 130.539 216.914 129.164C218.57 127.773 220.555 126.75 222.867 126.094C225.18 125.438 227.758 125.109 230.602 125.109C232.336 125.109 233.898 125.195 235.289 125.367C236.695 125.539 237.953 125.758 239.063 126.023C240.188 126.289 241.172 126.586 242.016 126.914C242.875 127.227 243.633 127.531 244.289 127.828V138.023H237.656C236.906 136.992 236.078 136.234 235.172 135.75C234.266 135.25 233.32 135 232.336 135C231.523 135 230.727 135.156 229.945 135.469C229.18 135.781 228.492 136.242 227.883 136.852C227.289 137.445 226.805 138.18 226.43 139.055C226.07 139.93 225.891 140.93 225.891 142.055ZM267.258 159.422C264.508 159.422 261.93 159.133 259.523 158.555C257.133 157.961 255.047 156.953 253.266 155.531C251.5 154.094 250.102 152.266 249.07 150.047C248.055 147.828 247.547 145.164 247.547 142.055C247.547 139.008 248.055 136.414 249.07 134.273C250.102 132.117 251.508 130.367 253.289 129.023C255.07 127.664 257.156 126.672 259.547 126.047C261.938 125.422 264.508 125.109 267.258 125.109C269.992 125.109 272.555 125.422 274.945 126.047C277.352 126.672 279.445 127.664 281.227 129.023C283.023 130.367 284.438 132.117 285.469 134.273C286.5 136.414 287.016 139.008 287.016 142.055C287.016 144.117 286.781 145.992 286.313 147.68C285.844 149.352 285.18 150.844 284.32 152.156C283.477 153.453 282.453 154.578 281.25 155.531C280.063 156.469 278.734 157.25 277.266 157.875C275.797 158.484 274.219 158.891 272.531 159.094C270.844 159.313 269.086 159.422 267.258 159.422ZM267.258 135.094C266.336 135.094 265.555 135.211 264.914 135.445C264.289 135.68 263.766 135.984 263.344 136.359C262.938 136.734 262.617 137.164 262.383 137.648C262.148 138.133 261.977 138.633 261.867 139.148C261.773 139.648 261.711 140.148 261.68 140.648C261.664 141.133 261.656 141.563 261.656 141.938C261.656 142.297 261.664 142.727 261.68 143.227C261.695 143.711 261.75 144.227 261.844 144.773C261.938 145.305 262.094 145.836 262.313 146.367C262.531 146.898 262.844 147.375 263.25 147.797C263.672 148.219 264.203 148.563 264.844 148.828C265.5 149.078 266.305 149.203 267.258 149.203C268.195 149.203 268.984 149.078 269.625 148.828C270.281 148.578 270.813 148.25 271.219 147.844C271.641 147.422 271.969 146.953 272.203 146.438C272.438 145.922 272.602 145.406 272.695 144.891C272.805 144.359 272.867 143.844 272.883 143.344C272.914 142.844 272.93 142.414 272.93 142.055C272.93 141.68 272.914 141.25 272.883 140.766C272.867 140.266 272.805 139.758 272.695 139.242C272.602 138.727 272.438 138.227 272.203 137.742C271.969 137.242 271.641 136.797 271.219 136.406C270.813 136.016 270.281 135.703 269.625 135.469C268.984 135.219 268.195 135.094 267.258 135.094ZM300.609 159.023L291.844 135.75L288.492 135.234V126H309.07V135.234L306.656 135.75L310.453 148.5L314.273 135.75L311.836 135.234V126H328.875V135.234L325.547 135.75L316.781 159.023H300.609ZM348.469 140.508L354.961 139.125V145.805L348.469 144.398V149.578C349.406 149.578 350.313 149.516 351.188 149.391C352.063 149.25 352.875 149.063 353.625 148.828C354.375 148.594 355.063 148.32 355.688 148.008C356.313 147.695 356.852 147.359 357.305 147H360.516V159H331.547V149.648L334.359 149.109V135.82L331.547 135.281V126H360.516V138H357.305C356.852 137.656 356.313 137.328 355.688 137.016C355.063 136.703 354.375 136.43 353.625 136.195C352.875 135.961 352.063 135.773 351.188 135.633C350.313 135.492 349.406 135.422 348.469 135.422V140.508ZM400.922 159H386.906C386.469 158.188 386.016 157.328 385.547 156.422C385.078 155.5 384.625 154.539 384.188 153.539C383.75 152.539 383.336 151.508 382.945 150.445C382.57 149.383 382.25 148.289 381.984 147.164H381.211V159H364.289V149.648L367.102 149.109V135.773L364.289 135.234V126H383.484C386.031 126 388.227 126.109 390.07 126.328C391.93 126.547 393.5 126.867 394.781 127.289C396.078 127.711 397.125 128.227 397.922 128.836C398.719 129.43 399.336 130.109 399.773 130.875C400.227 131.625 400.531 132.453 400.688 133.359C400.844 134.266 400.922 135.227 400.922 136.242C400.922 137.273 400.82 138.211 400.617 139.055C400.43 139.898 400.086 140.672 399.586 141.375C399.086 142.078 398.398 142.727 397.523 143.32C396.664 143.898 395.563 144.445 394.219 144.961C394.5 145.523 394.914 146.195 395.461 146.977C396.023 147.742 396.633 148.531 397.289 149.344C397.945 150.141 398.594 150.914 399.234 151.664C399.891 152.414 400.453 153.055 400.922 153.586V159ZM381.211 140.813C382.07 140.813 382.844 140.773 383.531 140.695C384.234 140.602 384.828 140.414 385.313 140.133C385.813 139.836 386.195 139.406 386.461 138.844C386.727 138.281 386.859 137.523 386.859 136.57C386.859 135.633 386.727 134.883 386.461 134.32C386.195 133.758 385.813 133.328 385.313 133.031C384.828 132.719 384.234 132.516 383.531 132.422C382.844 132.328 382.07 132.281 381.211 132.281V140.813Z" fill="black"/>
<path d="M111.9 564.94V577.54C111.9 578.8 112.21 579.77 112.83 580.45C113.45 581.13 114.36 581.47 115.56 581.47C116.76 581.47 117.68 581.13 118.32 580.45C118.96 579.77 119.28 578.8 119.28 577.54V564.94H124.41V577.51C124.41 579.39 124.01 580.98 123.21 582.28C122.41 583.58 121.33 584.56 119.97 585.22C118.63 585.88 117.13 586.21 115.47 586.21C113.81 586.21 112.32 585.89 111 585.25C109.7 584.59 108.67 583.61 107.91 582.31C107.15 580.99 106.77 579.39 106.77 577.51V564.94H111.9ZM133.142 572.05C133.742 571.13 134.492 570.41 135.392 569.89C136.292 569.35 137.292 569.08 138.392 569.08V574.51H136.982C135.702 574.51 134.742 574.79 134.102 575.35C133.462 575.89 133.142 576.85 133.142 578.23V586H128.012V569.26H133.142V572.05ZM145.974 571.63C146.454 570.85 147.144 570.22 148.044 569.74C148.944 569.26 149.974 569.02 151.134 569.02C152.514 569.02 153.764 569.37 154.884 570.07C156.004 570.77 156.884 571.77 157.524 573.07C158.184 574.37 158.514 575.88 158.514 577.6C158.514 579.32 158.184 580.84 157.524 582.16C156.884 583.46 156.004 584.47 154.884 585.19C153.764 585.89 152.514 586.24 151.134 586.24C149.954 586.24 148.924 586.01 148.044 585.55C147.164 585.07 146.474 584.44 145.974 583.66V586H140.844V563.8H145.974V571.63ZM153.294 577.6C153.294 576.32 152.934 575.32 152.214 574.6C151.514 573.86 150.644 573.49 149.604 573.49C148.584 573.49 147.714 573.86 146.994 574.6C146.294 575.34 145.944 576.35 145.944 577.63C145.944 578.91 146.294 579.92 146.994 580.66C147.714 581.4 148.584 581.77 149.604 581.77C150.624 581.77 151.494 581.4 152.214 580.66C152.934 579.9 153.294 578.88 153.294 577.6ZM160.186 577.6C160.186 575.88 160.506 574.37 161.146 573.07C161.806 571.77 162.696 570.77 163.816 570.07C164.936 569.37 166.186 569.02 167.566 569.02C168.746 569.02 169.776 569.26 170.656 569.74C171.556 570.22 172.246 570.85 172.726 571.63V569.26H177.856V586H172.726V583.63C172.226 584.41 171.526 585.04 170.626 585.52C169.746 586 168.716 586.24 167.536 586.24C166.176 586.24 164.936 585.89 163.816 585.19C162.696 584.47 161.806 583.46 161.146 582.16C160.506 580.84 160.186 579.32 160.186 577.6ZM172.726 577.63C172.726 576.35 172.366 575.34 171.646 574.6C170.946 573.86 170.086 573.49 169.066 573.49C168.046 573.49 167.176 573.86 166.456 574.6C165.756 575.32 165.406 576.32 165.406 577.6C165.406 578.88 165.756 579.9 166.456 580.66C167.176 581.4 168.046 581.77 169.066 581.77C170.086 581.77 170.946 581.4 171.646 580.66C172.366 579.92 172.726 578.91 172.726 577.63ZM191.767 569.08C193.727 569.08 195.287 569.72 196.447 571C197.627 572.26 198.217 574 198.217 576.22V586H193.117V576.91C193.117 575.79 192.827 574.92 192.247 574.3C191.667 573.68 190.887 573.37 189.907 573.37C188.927 573.37 188.147 573.68 187.567 574.3C186.987 574.92 186.697 575.79 186.697 576.91V586H181.567V569.26H186.697V571.48C187.217 570.74 187.917 570.16 188.797 569.74C189.677 569.3 190.667 569.08 191.767 569.08ZM215.492 564.94V569.05H206.912V573.49H213.332V577.48H206.912V586H201.782V564.94H215.492ZM225.808 586.24C224.168 586.24 222.688 585.89 221.368 585.19C220.068 584.49 219.038 583.49 218.278 582.19C217.538 580.89 217.168 579.37 217.168 577.63C217.168 575.91 217.548 574.4 218.308 573.1C219.068 571.78 220.108 570.77 221.428 570.07C222.748 569.37 224.228 569.02 225.868 569.02C227.508 569.02 228.988 569.37 230.308 570.07C231.628 570.77 232.668 571.78 233.428 573.1C234.188 574.4 234.568 575.91 234.568 577.63C234.568 579.35 234.178 580.87 233.398 582.19C232.638 583.49 231.588 584.49 230.248 585.19C228.928 585.89 227.448 586.24 225.808 586.24ZM225.808 581.8C226.788 581.8 227.618 581.44 228.298 580.72C228.998 580 229.348 578.97 229.348 577.63C229.348 576.29 229.008 575.26 228.328 574.54C227.668 573.82 226.848 573.46 225.868 573.46C224.868 573.46 224.038 573.82 223.378 574.54C222.718 575.24 222.388 576.27 222.388 577.63C222.388 578.97 222.708 580 223.348 580.72C224.008 581.44 224.828 581.8 225.808 581.8ZM242.42 572.05C243.02 571.13 243.77 570.41 244.67 569.89C245.57 569.35 246.57 569.08 247.67 569.08V574.51H246.26C244.98 574.51 244.02 574.79 243.38 575.35C242.74 575.89 242.42 576.85 242.42 578.23V586H237.29V569.26H242.42V572.05ZM256.482 569.02C257.662 569.02 258.692 569.26 259.572 569.74C260.472 570.22 261.162 570.85 261.642 571.63V569.26H266.772V585.97C266.772 587.51 266.462 588.9 265.842 590.14C265.242 591.4 264.312 592.4 263.052 593.14C261.812 593.88 260.262 594.25 258.402 594.25C255.922 594.25 253.912 593.66 252.372 592.48C250.832 591.32 249.952 589.74 249.732 587.74H254.802C254.962 588.38 255.342 588.88 255.942 589.24C256.542 589.62 257.282 589.81 258.162 589.81C259.222 589.81 260.062 589.5 260.682 588.88C261.322 588.28 261.642 587.31 261.642 585.97V583.6C261.142 584.38 260.452 585.02 259.572 585.52C258.692 586 257.662 586.24 256.482 586.24C255.102 586.24 253.852 585.89 252.732 585.19C251.612 584.47 250.722 583.46 250.062 582.16C249.422 580.84 249.102 579.32 249.102 577.6C249.102 575.88 249.422 574.37 250.062 573.07C250.722 571.77 251.612 570.77 252.732 570.07C253.852 569.37 255.102 569.02 256.482 569.02ZM261.642 577.63C261.642 576.35 261.282 575.34 260.562 574.6C259.862 573.86 259.002 573.49 257.982 573.49C256.962 573.49 256.092 573.86 255.372 574.6C254.672 575.32 254.322 576.32 254.322 577.6C254.322 578.88 254.672 579.9 255.372 580.66C256.092 581.4 256.962 581.77 257.982 581.77C259.002 581.77 259.862 581.4 260.562 580.66C261.282 579.92 261.642 578.91 261.642 577.63ZM286.263 577.36C286.263 577.84 286.233 578.34 286.173 578.86H274.563C274.643 579.9 274.973 580.7 275.553 581.26C276.153 581.8 276.883 582.07 277.743 582.07C279.023 582.07 279.913 581.53 280.413 580.45H285.873C285.593 581.55 285.083 582.54 284.343 583.42C283.623 584.3 282.713 584.99 281.613 585.49C280.513 585.99 279.283 586.24 277.923 586.24C276.283 586.24 274.823 585.89 273.543 585.19C272.263 584.49 271.263 583.49 270.543 582.19C269.823 580.89 269.463 579.37 269.463 577.63C269.463 575.89 269.813 574.37 270.513 573.07C271.233 571.77 272.233 570.77 273.513 570.07C274.793 569.37 276.263 569.02 277.923 569.02C279.543 569.02 280.983 569.36 282.243 570.04C283.503 570.72 284.483 571.69 285.183 572.95C285.903 574.21 286.263 575.68 286.263 577.36ZM281.013 576.01C281.013 575.13 280.713 574.43 280.113 573.91C279.513 573.39 278.763 573.13 277.863 573.13C277.003 573.13 276.273 573.38 275.673 573.88C275.093 574.38 274.733 575.09 274.593 576.01H281.013Z" fill="black"/>
<path d="M114.78 612.9H108.7L107.58 616H105.66L110.7 602.14H112.8L117.82 616H115.9L114.78 612.9ZM114.26 611.42L111.74 604.38L109.22 611.42H114.26ZM127.357 616L124.037 610.3H121.837V616H120.017V602.06H124.517C125.57 602.06 126.457 602.24 127.177 602.6C127.91 602.96 128.457 603.447 128.817 604.06C129.177 604.673 129.357 605.373 129.357 606.16C129.357 607.12 129.077 607.967 128.517 608.7C127.97 609.433 127.143 609.92 126.037 610.16L129.537 616H127.357ZM121.837 608.84H124.517C125.503 608.84 126.243 608.6 126.737 608.12C127.23 607.627 127.477 606.973 127.477 606.16C127.477 605.333 127.23 604.693 126.737 604.24C126.257 603.787 125.517 603.56 124.517 603.56H121.837V608.84ZM131.505 609.02C131.505 607.66 131.811 606.44 132.425 605.36C133.038 604.267 133.871 603.413 134.925 602.8C135.991 602.187 137.171 601.88 138.465 601.88C139.985 601.88 141.311 602.247 142.445 602.98C143.578 603.713 144.405 604.753 144.925 606.1H142.745C142.358 605.26 141.798 604.613 141.065 604.16C140.345 603.707 139.478 603.48 138.465 603.48C137.491 603.48 136.618 603.707 135.845 604.16C135.071 604.613 134.465 605.26 134.025 606.1C133.585 606.927 133.365 607.9 133.365 609.02C133.365 610.127 133.585 611.1 134.025 611.94C134.465 612.767 135.071 613.407 135.845 613.86C136.618 614.313 137.491 614.54 138.465 614.54C139.478 614.54 140.345 614.32 141.065 613.88C141.798 613.427 142.358 612.78 142.745 611.94H144.925C144.405 613.273 143.578 614.307 142.445 615.04C141.311 615.76 139.985 616.12 138.465 616.12C137.171 616.12 135.991 615.82 134.925 615.22C133.871 614.607 133.038 613.76 132.425 612.68C131.811 611.6 131.505 610.38 131.505 609.02ZM158.374 602.06V616H156.554V609.68H149.454V616H147.634V602.06H149.454V608.18H156.554V602.06H158.374ZM163.301 602.06V616H161.481V602.06H163.301ZM174.983 602.06V603.54H171.183V616H169.363V603.54H165.543V602.06H174.983ZM179.044 603.54V608.2H184.124V609.7H179.044V614.5H184.724V616H177.224V602.04H184.724V603.54H179.044ZM186.798 609.02C186.798 607.66 187.104 606.44 187.718 605.36C188.331 604.267 189.164 603.413 190.218 602.8C191.284 602.187 192.464 601.88 193.758 601.88C195.278 601.88 196.604 602.247 197.738 602.98C198.871 603.713 199.698 604.753 200.218 606.1H198.038C197.651 605.26 197.091 604.613 196.358 604.16C195.638 603.707 194.771 603.48 193.758 603.48C192.784 603.48 191.911 603.707 191.138 604.16C190.364 604.613 189.758 605.26 189.318 606.1C188.878 606.927 188.658 607.9 188.658 609.02C188.658 610.127 188.878 611.1 189.318 611.94C189.758 612.767 190.364 613.407 191.138 613.86C191.911 614.313 192.784 614.54 193.758 614.54C194.771 614.54 195.638 614.32 196.358 613.88C197.091 613.427 197.651 612.78 198.038 611.94H200.218C199.698 613.273 198.871 614.307 197.738 615.04C196.604 615.76 195.278 616.12 193.758 616.12C192.464 616.12 191.284 615.82 190.218 615.22C189.164 614.607 188.331 613.76 187.718 612.68C187.104 611.6 186.798 610.38 186.798 609.02ZM211.507 602.06V603.54H207.707V616H205.887V603.54H202.067V602.06H211.507ZM218.167 616.14C217.247 616.14 216.42 615.98 215.687 615.66C214.967 615.327 214.4 614.873 213.987 614.3C213.574 613.713 213.36 613.04 213.347 612.28H215.287C215.354 612.933 215.62 613.487 216.087 613.94C216.567 614.38 217.26 614.6 218.167 614.6C219.034 614.6 219.714 614.387 220.207 613.96C220.714 613.52 220.967 612.96 220.967 612.28C220.967 611.747 220.82 611.313 220.527 610.98C220.234 610.647 219.867 610.393 219.427 610.22C218.987 610.047 218.394 609.86 217.647 609.66C216.727 609.42 215.987 609.18 215.427 608.94C214.88 608.7 214.407 608.327 214.007 607.82C213.62 607.3 213.427 606.607 213.427 605.74C213.427 604.98 213.62 604.307 214.007 603.72C214.394 603.133 214.934 602.68 215.627 602.36C216.334 602.04 217.14 601.88 218.047 601.88C219.354 601.88 220.42 602.207 221.247 602.86C222.087 603.513 222.56 604.38 222.667 605.46H220.667C220.6 604.927 220.32 604.46 219.827 604.06C219.334 603.647 218.68 603.44 217.867 603.44C217.107 603.44 216.487 603.64 216.007 604.04C215.527 604.427 215.287 604.973 215.287 605.68C215.287 606.187 215.427 606.6 215.707 606.92C216 607.24 216.354 607.487 216.767 607.66C217.194 607.82 217.787 608.007 218.547 608.22C219.467 608.473 220.207 608.727 220.767 608.98C221.327 609.22 221.807 609.6 222.207 610.12C222.607 610.627 222.807 611.32 222.807 612.2C222.807 612.88 222.627 613.52 222.267 614.12C221.907 614.72 221.374 615.207 220.667 615.58C219.96 615.953 219.127 616.14 218.167 616.14ZM241.517 616L239.697 614.16C239.017 614.867 238.291 615.393 237.517 615.74C236.744 616.073 235.871 616.24 234.897 616.24C233.937 616.24 233.084 616.067 232.337 615.72C231.604 615.373 231.031 614.88 230.617 614.24C230.217 613.6 230.017 612.853 230.017 612C230.017 611.027 230.291 610.173 230.837 609.44C231.397 608.693 232.217 608.107 233.297 607.68C232.871 607.173 232.564 606.707 232.377 606.28C232.191 605.853 232.097 605.387 232.097 604.88C232.097 604.293 232.244 603.767 232.537 603.3C232.844 602.82 233.277 602.447 233.837 602.18C234.397 601.913 235.044 601.78 235.777 601.78C236.497 601.78 237.124 601.92 237.657 602.2C238.191 602.48 238.591 602.873 238.857 603.38C239.124 603.873 239.244 604.427 239.217 605.04H237.397C237.411 604.493 237.257 604.067 236.937 603.76C236.617 603.44 236.204 603.28 235.697 603.28C235.164 603.28 234.731 603.433 234.397 603.74C234.077 604.033 233.917 604.413 233.917 604.88C233.917 605.28 234.024 605.667 234.237 606.04C234.464 606.413 234.837 606.873 235.357 607.42L239.517 611.6L239.877 611.04L241.237 608.76H243.197L241.557 611.6C241.331 612 241.064 612.42 240.757 612.86L243.897 616H241.517ZM234.897 614.68C235.617 614.68 236.264 614.54 236.837 614.26C237.424 613.98 237.977 613.547 238.497 612.96L234.397 608.84C232.691 609.493 231.837 610.527 231.837 611.94C231.837 612.727 232.117 613.38 232.677 613.9C233.251 614.42 233.991 614.68 234.897 614.68ZM255.275 602.06C256.795 602.06 258.108 602.347 259.215 602.92C260.335 603.48 261.188 604.287 261.775 605.34C262.375 606.393 262.675 607.633 262.675 609.06C262.675 610.487 262.375 611.727 261.775 612.78C261.188 613.82 260.335 614.62 259.215 615.18C258.108 615.727 256.795 616 255.275 616H250.935V602.06H255.275ZM255.275 614.5C257.075 614.5 258.448 614.027 259.395 613.08C260.341 612.12 260.815 610.78 260.815 609.06C260.815 607.327 260.335 605.973 259.375 605C258.428 604.027 257.061 603.54 255.275 603.54H252.755V614.5H255.275ZM266.895 603.54V608.2H271.975V609.7H266.895V614.5H272.575V616H265.075V602.04H272.575V603.54H266.895ZM279.749 616.14C278.829 616.14 278.002 615.98 277.269 615.66C276.549 615.327 275.982 614.873 275.569 614.3C275.156 613.713 274.942 613.04 274.929 612.28H276.869C276.936 612.933 277.202 613.487 277.669 613.94C278.149 614.38 278.842 614.6 279.749 614.6C280.616 614.6 281.296 614.387 281.789 613.96C282.296 613.52 282.549 612.96 282.549 612.28C282.549 611.747 282.402 611.313 282.109 610.98C281.816 610.647 281.449 610.393 281.009 610.22C280.569 610.047 279.976 609.86 279.229 609.66C278.309 609.42 277.569 609.18 277.009 608.94C276.462 608.7 275.989 608.327 275.589 607.82C275.202 607.3 275.009 606.607 275.009 605.74C275.009 604.98 275.202 604.307 275.589 603.72C275.976 603.133 276.516 602.68 277.209 602.36C277.916 602.04 278.722 601.88 279.629 601.88C280.936 601.88 282.002 602.207 282.829 602.86C283.669 603.513 284.142 604.38 284.249 605.46H282.249C282.182 604.927 281.902 604.46 281.409 604.06C280.916 603.647 280.262 603.44 279.449 603.44C278.689 603.44 278.069 603.64 277.589 604.04C277.109 604.427 276.869 604.973 276.869 605.68C276.869 606.187 277.009 606.6 277.289 606.92C277.582 607.24 277.936 607.487 278.349 607.66C278.776 607.82 279.369 608.007 280.129 608.22C281.049 608.473 281.789 608.727 282.349 608.98C282.909 609.22 283.389 609.6 283.789 610.12C284.189 610.627 284.389 611.32 284.389 612.2C284.389 612.88 284.209 613.52 283.849 614.12C283.489 614.72 282.956 615.207 282.249 615.58C281.542 615.953 280.709 616.14 279.749 616.14ZM288.887 602.06V616H287.067V602.06H288.887ZM302.549 606.1C302.163 605.287 301.603 604.66 300.869 604.22C300.136 603.767 299.283 603.54 298.309 603.54C297.336 603.54 296.456 603.767 295.669 604.22C294.896 604.66 294.283 605.3 293.829 606.14C293.389 606.967 293.169 607.927 293.169 609.02C293.169 610.113 293.389 611.073 293.829 611.9C294.283 612.727 294.896 613.367 295.669 613.82C296.456 614.26 297.336 614.48 298.309 614.48C299.669 614.48 300.789 614.073 301.669 613.26C302.549 612.447 303.063 611.347 303.209 609.96H297.649V608.48H305.149V609.88C305.043 611.027 304.683 612.08 304.069 613.04C303.456 613.987 302.649 614.74 301.649 615.3C300.649 615.847 299.536 616.12 298.309 616.12C297.016 616.12 295.836 615.82 294.769 615.22C293.703 614.607 292.856 613.76 292.229 612.68C291.616 611.6 291.309 610.38 291.309 609.02C291.309 607.66 291.616 606.44 292.229 605.36C292.856 604.267 293.703 603.42 294.769 602.82C295.836 602.207 297.016 601.9 298.309 601.9C299.789 601.9 301.096 602.267 302.229 603C303.376 603.733 304.209 604.767 304.729 606.1H302.549ZM318.516 616H316.696L309.376 604.9V616H307.556V602.04H309.376L316.696 613.12V602.04H318.516V616ZM323.438 603.54V608.2H328.518V609.7H323.438V614.5H329.118V616H321.618V602.04H329.118V603.54H323.438ZM339.212 616L335.892 610.3H333.692V616H331.872V602.06H336.372C337.425 602.06 338.312 602.24 339.032 602.6C339.765 602.96 340.312 603.447 340.672 604.06C341.032 604.673 341.212 605.373 341.212 606.16C341.212 607.12 340.932 607.967 340.372 608.7C339.825 609.433 338.999 609.92 337.892 610.16L341.392 616H339.212ZM333.692 608.84H336.372C337.359 608.84 338.099 608.6 338.592 608.12C339.085 607.627 339.332 606.973 339.332 606.16C339.332 605.333 339.085 604.693 338.592 604.24C338.112 603.787 337.372 603.56 336.372 603.56H333.692V608.84ZM348.46 616.14C347.54 616.14 346.713 615.98 345.98 615.66C345.26 615.327 344.693 614.873 344.28 614.3C343.867 613.713 343.653 613.04 343.64 612.28H345.58C345.647 612.933 345.913 613.487 346.38 613.94C346.86 614.38 347.553 614.6 348.46 614.6C349.327 614.6 350.007 614.387 350.5 613.96C351.007 613.52 351.26 612.96 351.26 612.28C351.26 611.747 351.113 611.313 350.82 610.98C350.527 610.647 350.16 610.393 349.72 610.22C349.28 610.047 348.687 609.86 347.94 609.66C347.02 609.42 346.28 609.18 345.72 608.94C345.173 608.7 344.7 608.327 344.3 607.82C343.913 607.3 343.72 606.607 343.72 605.74C343.72 604.98 343.913 604.307 344.3 603.72C344.687 603.133 345.227 602.68 345.92 602.36C346.627 602.04 347.433 601.88 348.34 601.88C349.647 601.88 350.713 602.207 351.54 602.86C352.38 603.513 352.853 604.38 352.96 605.46H350.96C350.893 604.927 350.613 604.46 350.12 604.06C349.627 603.647 348.973 603.44 348.16 603.44C347.4 603.44 346.78 603.64 346.3 604.04C345.82 604.427 345.58 604.973 345.58 605.68C345.58 606.187 345.72 606.6 346 606.92C346.293 607.24 346.647 607.487 347.06 607.66C347.487 607.82 348.08 608.007 348.84 608.22C349.76 608.473 350.5 608.727 351.06 608.98C351.62 609.22 352.1 609.6 352.5 610.12C352.9 610.627 353.1 611.32 353.1 612.2C353.1 612.88 352.92 613.52 352.56 614.12C352.2 614.72 351.667 615.207 350.96 615.58C350.253 615.953 349.42 616.14 348.46 616.14ZM356.358 616.12C356.012 616.12 355.718 616 355.478 615.76C355.238 615.52 355.118 615.227 355.118 614.88C355.118 614.533 355.238 614.24 355.478 614C355.718 613.76 356.012 613.64 356.358 613.64C356.692 613.64 356.972 613.76 357.198 614C357.438 614.24 357.558 614.533 357.558 614.88C357.558 615.227 357.438 615.52 357.198 615.76C356.972 616 356.692 616.12 356.358 616.12Z" fill="black"/>
<circle cx="511" cy="140" r="20" fill="black"/>
<path d="M503.559 142.58C504.239 141.9 504.579 141.06 504.579 140.06C504.579 139.06 504.239 138.22 503.559 137.54C502.879 136.86 502.039 136.52 501.039 136.52C500.039 136.52 499.199 136.86 498.519 137.54C497.839 138.22 497.499 139.06 497.499 140.06C497.499 141.06 497.839 141.9 498.519 142.58C499.199 143.26 500.039 143.6 501.039 143.6C502.039 143.6 502.879 143.26 503.559 142.58ZM513.52 142.58C514.2 141.9 514.54 141.06 514.54 140.06C514.54 139.06 514.2 138.22 513.52 137.54C512.84 136.86 512 136.52 511 136.52C510 136.52 509.16 136.86 508.48 137.54C507.8 138.22 507.46 139.06 507.46 140.06C507.46 141.06 507.8 141.9 508.48 142.58C509.16 143.26 510 143.6 511 143.6C512 143.6 512.84 143.26 513.52 142.58ZM523.48 142.58C524.16 141.9 524.5 141.06 524.5 140.06C524.5 139.06 524.16 138.22 523.48 137.54C522.8 136.86 521.96 136.52 520.96 136.52C519.96 136.52 519.12 136.86 518.44 137.54C517.76 138.22 517.42 139.06 517.42 140.06C517.42 141.06 517.76 141.9 518.44 142.58C519.12 143.26 519.96 143.6 520.96 143.6C521.96 143.6 522.8 143.26 523.48 142.58Z" fill="white"/>
<circle cx="562" cy="140" r="20" fill="black"/>
<path d="M560.615 146.231C564.821 146.231 568.231 142.821 568.231 138.615C568.231 134.41 564.821 131 560.615 131C556.41 131 553 134.41 553 138.615C553 142.821 556.41 146.231 560.615 146.231Z" stroke="white" stroke-width="2" stroke-linecap="round" stroke-linejoin="round"/>
<path d="M570.998 149.002L566.152 144.156" stroke="white" stroke-width="2" stroke-linecap="round" stroke-linejoin="round"/>
<path d="M413 142L424.445 149.63C424.781 149.854 425.219 149.854 425.555 149.63L437 142" stroke="black" stroke-width="3" stroke-linecap="round"/>
<rect x="460" y="562" width="151" height="45" rx="5" fill="#FEBC2E" fill-opacity="0.8"/>
<path fill-rule="evenodd" clip-rule="evenodd" d="M482.45 558.882L444.547 473.75L533.766 508.034L496.274 524.727L495.763 525.744L482.45 558.882Z" fill="#CDCDCD"/>
<path fill-rule="evenodd" clip-rule="evenodd" d="M455.316 483.621L481.849 543.213L490.849 520.914L491.371 519.795L518.185 507.909L455.316 483.621Z" fill="black"/>
<rect x="105.5" y="183.5" width="15" height="15" fill="white" stroke="#178EFF" stroke-width="3"/>
<rect x="107.047" y="538.77" width="15" height="15" fill="white" stroke="#178EFF" stroke-width="3"/>
<rect x="571.5" y="535.5" width="15" height="15" fill="white" stroke="#178EFF" stroke-width="3"/>
<path d="M476.75 573.94C478.97 573.94 480.91 574.38 482.57 575.26C484.23 576.14 485.51 577.38 486.41 578.98C487.33 580.56 487.79 582.39 487.79 584.47C487.79 586.53 487.33 588.36 486.41 589.96C485.51 591.56 484.22 592.8 482.54 593.68C480.88 594.56 478.95 595 476.75 595H468.86V573.94H476.75ZM476.42 590.56C478.36 590.56 479.87 590.03 480.95 588.97C482.03 587.91 482.57 586.41 482.57 584.47C482.57 582.53 482.03 581.02 480.95 579.94C479.87 578.86 478.36 578.32 476.42 578.32H473.99V590.56H476.42ZM506.437 586.36C506.437 586.84 506.407 587.34 506.347 587.86H494.737C494.817 588.9 495.147 589.7 495.727 590.26C496.327 590.8 497.057 591.07 497.917 591.07C499.197 591.07 500.087 590.53 500.587 589.45H506.047C505.767 590.55 505.257 591.54 504.517 592.42C503.797 593.3 502.887 593.99 501.787 594.49C500.687 594.99 499.457 595.24 498.097 595.24C496.457 595.24 494.997 594.89 493.717 594.19C492.437 593.49 491.437 592.49 490.717 591.19C489.997 589.89 489.637 588.37 489.637 586.63C489.637 584.89 489.987 583.37 490.687 582.07C491.407 580.77 492.407 579.77 493.687 579.07C494.967 578.37 496.437 578.02 498.097 578.02C499.717 578.02 501.157 578.36 502.417 579.04C503.677 579.72 504.657 580.69 505.357 581.95C506.077 583.21 506.437 584.68 506.437 586.36ZM501.187 585.01C501.187 584.13 500.887 583.43 500.287 582.91C499.687 582.39 498.937 582.13 498.037 582.13C497.177 582.13 496.447 582.38 495.847 582.88C495.267 583.38 494.907 584.09 494.767 585.01H501.187ZM515.953 595.24C514.493 595.24 513.193 594.99 512.053 594.49C510.913 593.99 510.013 593.31 509.353 592.45C508.693 591.57 508.323 590.59 508.243 589.51H513.313C513.373 590.09 513.643 590.56 514.123 590.92C514.603 591.28 515.193 591.46 515.893 591.46C516.533 591.46 517.023 591.34 517.363 591.1C517.723 590.84 517.903 590.51 517.903 590.11C517.903 589.63 517.653 589.28 517.153 589.06C516.653 588.82 515.843 588.56 514.723 588.28C513.523 588 512.523 587.71 511.723 587.41C510.923 587.09 510.233 586.6 509.653 585.94C509.073 585.26 508.783 584.35 508.783 583.21C508.783 582.25 509.043 581.38 509.563 580.6C510.103 579.8 510.883 579.17 511.903 578.71C512.943 578.25 514.173 578.02 515.593 578.02C517.693 578.02 519.343 578.54 520.543 579.58C521.763 580.62 522.463 582 522.643 583.72H517.903C517.823 583.14 517.563 582.68 517.123 582.34C516.703 582 516.143 581.83 515.443 581.83C514.843 581.83 514.383 581.95 514.063 582.19C513.743 582.41 513.583 582.72 513.583 583.12C513.583 583.6 513.833 583.96 514.333 584.2C514.853 584.44 515.653 584.68 516.733 584.92C517.973 585.24 518.983 585.56 519.763 585.88C520.543 586.18 521.223 586.68 521.803 587.38C522.403 588.06 522.713 588.98 522.733 590.14C522.733 591.12 522.453 592 521.893 592.78C521.353 593.54 520.563 594.14 519.523 594.58C518.503 595.02 517.313 595.24 515.953 595.24ZM528.452 576.52C527.552 576.52 526.812 576.26 526.232 575.74C525.672 575.2 525.392 574.54 525.392 573.76C525.392 572.96 525.672 572.3 526.232 571.78C526.812 571.24 527.552 570.97 528.452 570.97C529.332 570.97 530.052 571.24 530.612 571.78C531.192 572.3 531.482 572.96 531.482 573.76C531.482 574.54 531.192 575.2 530.612 575.74C530.052 576.26 529.332 576.52 528.452 576.52ZM531.002 578.26V595H525.872V578.26H531.002ZM541.079 578.02C542.259 578.02 543.289 578.26 544.169 578.74C545.069 579.22 545.759 579.85 546.239 580.63V578.26H551.369V594.97C551.369 596.51 551.059 597.9 550.439 599.14C549.839 600.4 548.909 601.4 547.649 602.14C546.409 602.88 544.859 603.25 542.999 603.25C540.519 603.25 538.509 602.66 536.969 601.48C535.429 600.32 534.549 598.74 534.329 596.74H539.399C539.559 597.38 539.939 597.88 540.539 598.24C541.139 598.62 541.879 598.81 542.759 598.81C543.819 598.81 544.659 598.5 545.279 597.88C545.919 597.28 546.239 596.31 546.239 594.97V592.6C545.739 593.38 545.049 594.02 544.169 594.52C543.289 595 542.259 595.24 541.079 595.24C539.699 595.24 538.449 594.89 537.329 594.19C536.209 593.47 535.319 592.46 534.659 591.16C534.019 589.84 533.699 588.32 533.699 586.6C533.699 584.88 534.019 583.37 534.659 582.07C535.319 580.77 536.209 579.77 537.329 579.07C538.449 578.37 539.699 578.02 541.079 578.02ZM546.239 586.63C546.239 585.35 545.879 584.34 545.159 583.6C544.459 582.86 543.599 582.49 542.579 582.49C541.559 582.49 540.689 582.86 539.969 583.6C539.269 584.32 538.919 585.32 538.919 586.6C538.919 587.88 539.269 588.9 539.969 589.66C540.689 590.4 541.559 590.77 542.579 590.77C543.599 590.77 544.459 590.4 545.159 589.66C545.879 588.92 546.239 587.91 546.239 586.63ZM565.281 578.08C567.241 578.08 568.801 578.72 569.961 580C571.141 581.26 571.731 583 571.731 585.22V595H566.631V585.91C566.631 584.79 566.341 583.92 565.761 583.3C565.181 582.68 564.401 582.37 563.421 582.37C562.441 582.37 561.661 582.68 561.081 583.3C560.501 583.92 560.211 584.79 560.211 585.91V595H555.081V578.26H560.211V580.48C560.731 579.74 561.431 579.16 562.311 578.74C563.191 578.3 564.181 578.08 565.281 578.08ZM591.076 586.36C591.076 586.84 591.046 587.34 590.986 587.86H579.376C579.456 588.9 579.786 589.7 580.366 590.26C580.966 590.8 581.696 591.07 582.556 591.07C583.836 591.07 584.726 590.53 585.226 589.45H590.686C590.406 590.55 589.896 591.54 589.156 592.42C588.436 593.3 587.526 593.99 586.426 594.49C585.326 594.99 584.096 595.24 582.736 595.24C581.096 595.24 579.636 594.89 578.356 594.19C577.076 593.49 576.076 592.49 575.356 591.19C574.636 589.89 574.276 588.37 574.276 586.63C574.276 584.89 574.626 583.37 575.326 582.07C576.046 580.77 577.046 579.77 578.326 579.07C579.606 578.37 581.076 578.02 582.736 578.02C584.356 578.02 585.796 578.36 587.056 579.04C588.316 579.72 589.296 580.69 589.996 581.95C590.716 583.21 591.076 584.68 591.076 586.36ZM585.826 585.01C585.826 584.13 585.526 583.43 584.926 582.91C584.326 582.39 583.576 582.13 582.676 582.13C581.816 582.13 581.086 582.38 580.486 582.88C579.906 583.38 579.546 584.09 579.406 585.01H585.826ZM598.912 581.05C599.512 580.13 600.262 579.41 601.162 578.89C602.062 578.35 603.062 578.08 604.162 578.08V583.51H602.752C601.472 583.51 600.512 583.79 599.872 584.35C599.232 584.89 598.912 585.85 598.912 587.23V595H593.782V578.26H598.912V581.05Z" fill="black"/>
</g>
<rect x="572.5" y="183.5" width="15" height="15" fill="white" stroke="#178EFF" stroke-width="3"/>
<defs>
<filter id="filter0_d_471_163" x="74" y="60" width="621" height="660.512" filterUnits="userSpaceOnUse" color-interpolation-filters="sRGB">
<feFlood flood-opacity="0" result="BackgroundImageFix"/>
<feColorMatrix in="SourceAlpha" type="matrix" values="0 0 0 0 0 0 0 0 0 0 0 0 0 0 0 0 0 0 127 0" result="hardAlpha"/>
<feOffset dx="40" dy="20"/>
<feGaussianBlur stdDeviation="15"/>
<feComposite in2="hardAlpha" operator="out"/>
<feColorMatrix type="matrix" values="0 0 0 0 0 0 0 0 0 0 0 0 0 0 0 0 0 0 0.25 0"/>
<feBlend mode="normal" in2="BackgroundImageFix" result="effect1_dropShadow_471_163"/>
<feBlend mode="normal" in="SourceGraphic" in2="effect1_dropShadow_471_163" result="shape"/>
</filter>
<clipPath id="clip0_471_163">
<rect x="112" y="188" width="470" height="360" rx="10" fill="white"/>
</clipPath>
</defs>
</svg>
