<svg id="visual" viewBox="0 0 900 100" width="900" height="100" xmlns="http://www.w3.org/2000/svg" xmlns:xlink="http://www.w3.org/1999/xlink" version="1.1"><path d="M0 86L25 87C50 88 100 90 150 90.8C200 91.7 250 91.3 300 91.2C350 91 400 91 450 90C500 89 550 87 600 87.7C650 88.3 700 91.7 750 92.2C800 92.7 850 90.3 875 89.2L900 88L900 101L875 101C850 101 800 101 750 101C700 101 650 101 600 101C550 101 500 101 450 101C400 101 350 101 300 101C250 101 200 101 150 101C100 101 50 101 25 101L0 101Z" fill="#003d10" stroke-linecap="round" stroke-linejoin="miter"></path></svg>