<svg width="361" height="96" viewBox="0 0 361 96" fill="none" xmlns="http://www.w3.org/2000/svg">
<path d="M20.288 35.688H28.48L33.664 50.728L38.912 35.688H47.04L39.232 56.36L44.992 70.824L57.856 35.56H67.456L49.28 81H41.664L33.664 61.928L25.728 81H18.112L0 35.56H9.472L22.4 70.824L28.032 56.36L20.288 35.688ZM103.663 73.256V81H72.111V35.56H103.087V43.304H80.943V54.248H100.079V61.416H80.943V73.256H103.663ZM147.157 69.288C147.157 71.848 146.495 74.0027 145.173 75.752C143.85 77.4587 142.058 78.76 139.797 79.656C137.578 80.552 135.146 81 132.501 81H110.549V35.56H134.869C137.002 35.56 138.837 36.136 140.373 37.288C141.951 38.3973 143.146 39.848 143.957 41.64C144.81 43.3893 145.237 45.224 145.237 47.144C145.237 49.32 144.682 51.3893 143.573 53.352C142.463 55.3147 140.842 56.7653 138.708 57.704C141.311 58.472 143.359 59.8587 144.853 61.864C146.389 63.8693 147.157 66.344 147.157 69.288ZM138.261 67.624C138.261 66.472 138.026 65.448 137.557 64.552C137.087 63.6133 136.447 62.888 135.637 62.376C134.869 61.8213 133.973 61.544 132.949 61.544H119.381V73.512H132.501C133.567 73.512 134.527 73.256 135.381 72.744C136.277 72.1893 136.981 71.464 137.493 70.568C138.005 69.672 138.261 68.6907 138.261 67.624ZM119.381 43.112V54.568H131.157C132.138 54.568 133.034 54.3333 133.845 53.864C134.655 53.3947 135.295 52.7333 135.765 51.88C136.277 51.0267 136.533 50.0027 136.533 48.808C136.533 47.656 136.298 46.6533 135.829 45.8C135.402 44.9467 134.805 44.2853 134.037 43.816C133.311 43.3467 132.479 43.112 131.541 43.112H119.381Z" fill="black"/>
<path d="M274.264 81V35.56H254.168C252.077 35.56 250.157 35.9867 248.408 36.84C246.616 37.6933 245.08 38.8453 243.8 40.296C242.477 41.7467 241.475 43.368 240.792 45.16C240.067 46.952 239.704 48.7867 239.704 50.664C239.704 52.584 240.045 54.44 240.728 56.232C241.368 57.9813 242.307 59.5173 243.544 60.84C244.781 62.1627 246.232 63.1867 247.896 63.912L237.528 81H247.256L256.6 65.768H265.432V81H274.264ZM265.432 58.024H254.36C253.251 58.024 252.269 57.704 251.416 57.064C250.563 56.3813 249.88 55.4853 249.368 54.376C248.856 53.2667 248.6 52.0293 248.6 50.664C248.6 49.2133 248.899 47.9547 249.496 46.888C250.093 45.7787 250.861 44.904 251.8 44.264C252.696 43.624 253.677 43.304 254.744 43.304H265.432V58.024Z" fill="black"/>
<path d="M312.288 73.256V81H280.736V35.56H311.712V43.304H289.568V54.248H308.704V61.416H289.568V73.256H312.288ZM350.726 73.256V81H319.174V35.56H350.15V43.304H328.006V54.248H347.142V61.416H328.006V73.256H350.726Z" fill="black"/>
<path d="M182.651 35.6191L182.37 34.6114C179.661 24.8937 187.872 15.7515 197.32 17.9645V17.9645" stroke="#00731E" stroke-width="5" stroke-linecap="round" stroke-linejoin="round"/>
<path d="M169.265 51.3937L168.984 50.3859C166.275 40.6682 174.486 31.5261 183.934 33.739V33.739" stroke="#00731E" stroke-width="5" stroke-linecap="round" stroke-linejoin="round"/>
<path d="M172.169 68.5625L170.97 67.4088C164.549 61.229 163.558 51.2468 168.623 43.7745V43.7745" stroke="#00731E" stroke-width="5" stroke-linecap="round" stroke-linejoin="round"/>
<path d="M183.318 75.6267L182.273 75.6058C176.795 75.4965 172.102 71.3896 171.037 65.7745V65.7745" stroke="#00731E" stroke-width="5" stroke-linecap="round" stroke-linejoin="round"/>
<path d="M190.675 72.823L193.158 72.5355L193.735 77.5023L191.251 77.7898L190.675 72.823ZM190.007 75.4171L190.296 77.9005L190.007 75.4171ZM179.504 77.7457L177.03 77.3871L177.746 72.4388L180.22 72.7974L179.504 77.7457ZM191.251 77.7898L190.296 77.9005L189.719 72.9336L190.675 72.823L191.251 77.7898ZM190.296 77.9005C186.707 78.316 183.08 78.2639 179.504 77.7457L180.22 72.7974C183.367 73.2536 186.56 73.2994 189.719 72.9336L190.296 77.9005Z" fill="#00731E"/>
<path d="M195.159 17.6675L196.661 17.5381C203.989 16.9067 210.986 21.1845 214.04 28.1633V28.1633" stroke="#00731E" stroke-width="5" stroke-linecap="round" stroke-linejoin="round"/>
<path d="M227.668 41.7051L228.786 42.6855C234.732 47.8998 236.057 56.7096 231.934 63.6187V63.6187" stroke="#00731E" stroke-width="5" stroke-linecap="round" stroke-linejoin="round"/>
<path d="M232.661 56.7745L232.718 58.182C233.053 66.4887 227.002 73.512 219.062 74.0328V74.0328" stroke="#00731E" stroke-width="5" stroke-linecap="round" stroke-linejoin="round"/>
<path d="M223.662 70.3364C225.009 70.0247 226.342 70.8636 226.64 72.2101C226.939 73.5567 226.089 74.901 224.742 75.2127L223.662 70.3364ZM219.822 73.7885L219.282 71.3504L219.822 73.7885ZM197.275 76.1127L197.354 73.6107L197.354 73.6107L197.275 76.1127ZM195.229 78.5708L192.733 78.515L192.892 73.5111L195.388 73.5668L195.229 78.5708ZM224.742 75.2127L220.362 76.2266L219.282 71.3504L223.662 70.3364L224.742 75.2127ZM197.195 78.6147L195.229 78.5708L195.388 73.5668L197.354 73.6107L197.195 78.6147ZM220.362 76.2266C212.76 77.9862 204.978 78.7885 197.195 78.6147L197.354 73.6107C204.72 73.7752 212.086 73.0159 219.282 71.3504L220.362 76.2266Z" fill="#00731E"/>
<path d="M213.326 27.4558L214.349 28.5042C217.956 32.2009 221.104 36.3566 223.719 40.8755V40.8755" stroke="#00731E" stroke-width="5" stroke-linecap="round" stroke-linejoin="round"/>
<path d="M202.308 37.2745C202.308 42.593 201.144 47.3832 199.287 50.8258C197.419 54.2885 194.923 56.2745 192.29 56.2745C189.657 56.2745 187.161 54.2885 185.293 50.8258C183.436 47.3832 182.272 42.593 182.272 37.2745C182.272 31.9561 183.436 27.1659 185.293 23.7233C187.161 20.2606 189.657 18.2745 192.29 18.2745C194.923 18.2745 197.419 20.2606 199.287 23.7233C201.144 27.1659 202.308 31.9561 202.308 37.2745Z" fill="#00731E"/>
<path d="M202.308 37.2745C202.308 42.593 201.144 47.3832 199.287 50.8258C197.419 54.2885 194.923 56.2745 192.29 56.2745C189.657 56.2745 187.161 54.2885 185.293 50.8258C183.436 47.3832 182.272 42.593 182.272 37.2745C182.272 31.9561 183.436 27.1659 185.293 23.7233C187.161 20.2606 189.657 18.2745 192.29 18.2745C194.923 18.2745 197.419 20.2606 199.287 23.7233C201.144 27.1659 202.308 31.9561 202.308 37.2745Z" stroke="#00731E"/>
<path d="M202.308 37.2745C202.308 42.593 201.144 47.3832 199.287 50.8258C197.419 54.2885 194.923 56.2745 192.29 56.2745C189.657 56.2745 187.161 54.2885 185.293 50.8258C183.436 47.3832 182.272 42.593 182.272 37.2745C182.272 31.9561 183.436 27.1659 185.293 23.7233C187.161 20.2606 189.657 18.2745 192.29 18.2745C194.923 18.2745 197.419 20.2606 199.287 23.7233C201.144 27.1659 202.308 31.9561 202.308 37.2745Z" stroke="#00731E"/>
<path d="M211.869 53.7745C211.869 65.629 201.839 75.2745 189.422 75.2745C177.004 75.2745 166.974 65.629 166.974 53.7745C166.974 41.9201 177.004 32.2745 189.422 32.2745C201.839 32.2745 211.869 41.9201 211.869 53.7745Z" fill="#00731E"/>
<path d="M211.869 53.7745C211.869 65.629 201.839 75.2745 189.422 75.2745C177.004 75.2745 166.974 65.629 166.974 53.7745C166.974 41.9201 177.004 32.2745 189.422 32.2745C201.839 32.2745 211.869 41.9201 211.869 53.7745Z" stroke="#00731E"/>
<path d="M211.869 53.7745C211.869 65.629 201.839 75.2745 189.422 75.2745C177.004 75.2745 166.974 65.629 166.974 53.7745C166.974 41.9201 177.004 32.2745 189.422 32.2745C201.839 32.2745 211.869 41.9201 211.869 53.7745Z" stroke="#00731E"/>
<path d="M231.949 51.7745C231.949 58.1898 227.404 63.2745 221.931 63.2745C216.458 63.2745 211.913 58.1898 211.913 51.7745C211.913 45.3593 216.458 40.2745 221.931 40.2745C227.404 40.2745 231.949 45.3593 231.949 51.7745Z" fill="#00731E"/>
<path d="M231.949 51.7745C231.949 58.1898 227.404 63.2745 221.931 63.2745C216.458 63.2745 211.913 58.1898 211.913 51.7745C211.913 45.3593 216.458 40.2745 221.931 40.2745C227.404 40.2745 231.949 45.3593 231.949 51.7745Z" stroke="#00731E"/>
<path d="M231.949 51.7745C231.949 58.1898 227.404 63.2745 221.931 63.2745C216.458 63.2745 211.913 58.1898 211.913 51.7745C211.913 45.3593 216.458 40.2745 221.931 40.2745C227.404 40.2745 231.949 45.3593 231.949 51.7745Z" stroke="#00731E"/>
<path d="M222.387 63.7745C222.387 70.1898 217.842 75.2745 212.369 75.2745C206.897 75.2745 202.352 70.1898 202.352 63.7745C202.352 57.3593 206.897 52.2745 212.369 52.2745C217.842 52.2745 222.387 57.3593 222.387 63.7745Z" fill="#00731E"/>
<path d="M222.387 63.7745C222.387 70.1898 217.842 75.2745 212.369 75.2745C206.897 75.2745 202.352 70.1898 202.352 63.7745C202.352 57.3593 206.897 52.2745 212.369 52.2745C217.842 52.2745 222.387 57.3593 222.387 63.7745Z" stroke="#00731E"/>
<path d="M222.387 63.7745C222.387 70.1898 217.842 75.2745 212.369 75.2745C206.897 75.2745 202.352 70.1898 202.352 63.7745C202.352 57.3593 206.897 52.2745 212.369 52.2745C217.842 52.2745 222.387 57.3593 222.387 63.7745Z" stroke="#00731E"/>
<path d="M213.782 62.7745C213.782 69.1898 209.237 74.2745 203.764 74.2745C198.291 74.2745 193.746 69.1898 193.746 62.7745C193.746 56.3593 198.291 51.2745 203.764 51.2745C209.237 51.2745 213.782 56.3593 213.782 62.7745Z" fill="#00731E"/>
<path d="M213.782 62.7745C213.782 69.1898 209.237 74.2745 203.764 74.2745C198.291 74.2745 193.746 69.1898 193.746 62.7745C193.746 56.3593 198.291 51.2745 203.764 51.2745C209.237 51.2745 213.782 56.3593 213.782 62.7745Z" stroke="#00731E"/>
<path d="M213.782 62.7745C213.782 69.1898 209.237 74.2745 203.764 74.2745C198.291 74.2745 193.746 69.1898 193.746 62.7745C193.746 56.3593 198.291 51.2745 203.764 51.2745C209.237 51.2745 213.782 56.3593 213.782 62.7745Z" stroke="#00731E"/>
<path d="M230.992 61.7745C230.992 68.1898 226.447 73.2745 220.975 73.2745C215.502 73.2745 210.957 68.1898 210.957 61.7745C210.957 55.3593 215.502 50.2745 220.975 50.2745C226.447 50.2745 230.992 55.3593 230.992 61.7745Z" fill="#00731E"/>
<path d="M230.992 61.7745C230.992 68.1898 226.447 73.2745 220.975 73.2745C215.502 73.2745 210.957 68.1898 210.957 61.7745C210.957 55.3593 215.502 50.2745 220.975 50.2745C226.447 50.2745 230.992 55.3593 230.992 61.7745Z" stroke="#00731E"/>
<path d="M230.992 61.7745C230.992 68.1898 226.447 73.2745 220.975 73.2745C215.502 73.2745 210.957 68.1898 210.957 61.7745C210.957 55.3593 215.502 50.2745 220.975 50.2745C226.447 50.2745 230.992 55.3593 230.992 61.7745Z" stroke="#00731E"/>
<path d="M222.387 51.2745C222.387 56.593 221.223 61.3832 219.366 64.8258C217.499 68.2885 215.002 70.2745 212.369 70.2745C209.737 70.2745 207.24 68.2885 205.372 64.8258C203.515 61.3832 202.352 56.593 202.352 51.2745C202.352 45.9561 203.515 41.1659 205.372 37.7233C207.24 34.2606 209.737 32.2745 212.369 32.2745C215.002 32.2745 217.499 34.2606 219.366 37.7233C221.223 41.1659 222.387 45.9561 222.387 51.2745Z" fill="#00731E"/>
<path d="M222.387 51.2745C222.387 56.593 221.223 61.3832 219.366 64.8258C217.499 68.2885 215.002 70.2745 212.369 70.2745C209.737 70.2745 207.24 68.2885 205.372 64.8258C203.515 61.3832 202.352 56.593 202.352 51.2745C202.352 45.9561 203.515 41.1659 205.372 37.7233C207.24 34.2606 209.737 32.2745 212.369 32.2745C215.002 32.2745 217.499 34.2606 219.366 37.7233C221.223 41.1659 222.387 45.9561 222.387 51.2745Z" stroke="#00731E"/>
<path d="M222.387 51.2745C222.387 56.593 221.223 61.3832 219.366 64.8258C217.499 68.2885 215.002 70.2745 212.369 70.2745C209.737 70.2745 207.24 68.2885 205.372 64.8258C203.515 61.3832 202.352 56.593 202.352 51.2745C202.352 45.9561 203.515 41.1659 205.372 37.7233C207.24 34.2606 209.737 32.2745 212.369 32.2745C215.002 32.2745 217.499 34.2606 219.366 37.7233C221.223 41.1659 222.387 45.9561 222.387 51.2745Z" stroke="#00731E"/>
<path d="M215.694 41.5C215.694 46.815 214.478 51.6021 212.538 55.043C210.589 58.4993 207.974 60.5 205.198 60.5C202.422 60.5 199.807 58.4993 197.859 55.043C195.918 51.6021 194.702 46.815 194.702 41.5C194.702 36.185 195.918 31.3979 197.859 27.957C199.807 24.5007 202.422 22.5 205.198 22.5C207.974 22.5 210.589 24.5007 212.538 27.957C214.478 31.3979 215.694 36.185 215.694 41.5Z" fill="#00731E"/>
<path d="M215.694 41.5C215.694 46.815 214.478 51.6021 212.538 55.043C210.589 58.4993 207.974 60.5 205.198 60.5C202.422 60.5 199.807 58.4993 197.859 55.043C195.918 51.6021 194.702 46.815 194.702 41.5C194.702 36.185 195.918 31.3979 197.859 27.957C199.807 24.5007 202.422 22.5 205.198 22.5C207.974 22.5 210.589 24.5007 212.538 27.957C214.478 31.3979 215.694 36.185 215.694 41.5Z" stroke="#00731E"/>
<path d="M215.694 41.5C215.694 46.815 214.478 51.6021 212.538 55.043C210.589 58.4993 207.974 60.5 205.198 60.5C202.422 60.5 199.807 58.4993 197.859 55.043C195.918 51.6021 194.702 46.815 194.702 41.5C194.702 36.185 195.918 31.3979 197.859 27.957C199.807 24.5007 202.422 22.5 205.198 22.5C207.974 22.5 210.589 24.5007 212.538 27.957C214.478 31.3979 215.694 36.185 215.694 41.5Z" stroke="#00731E"/>
<path d="M209.957 37.2745C209.957 42.593 208.793 47.3832 206.936 50.8258C205.069 54.2885 202.572 56.2745 199.939 56.2745C197.307 56.2745 194.81 54.2885 192.942 50.8258C191.085 47.3832 189.922 42.593 189.922 37.2745C189.922 31.9561 191.085 27.1659 192.942 23.7233C194.81 20.2606 197.307 18.2745 199.939 18.2745C202.572 18.2745 205.069 20.2606 206.936 23.7233C208.793 27.1659 209.957 31.9561 209.957 37.2745Z" fill="#00731E"/>
<path d="M209.957 37.2745C209.957 42.593 208.793 47.3832 206.936 50.8258C205.069 54.2885 202.572 56.2745 199.939 56.2745C197.307 56.2745 194.81 54.2885 192.942 50.8258C191.085 47.3832 189.922 42.593 189.922 37.2745C189.922 31.9561 191.085 27.1659 192.942 23.7233C194.81 20.2606 197.307 18.2745 199.939 18.2745C202.572 18.2745 205.069 20.2606 206.936 23.7233C208.793 27.1659 209.957 31.9561 209.957 37.2745Z" stroke="#00731E"/>
<path d="M209.957 37.2745C209.957 42.593 208.793 47.3832 206.936 50.8258C205.069 54.2885 202.572 56.2745 199.939 56.2745C197.307 56.2745 194.81 54.2885 192.942 50.8258C191.085 47.3832 189.922 42.593 189.922 37.2745C189.922 31.9561 191.085 27.1659 192.942 23.7233C194.81 20.2606 197.307 18.2745 199.939 18.2745C202.572 18.2745 205.069 20.2606 206.936 23.7233C208.793 27.1659 209.957 31.9561 209.957 37.2745Z" stroke="#00731E"/>
<path d="M190.998 25.5905V88.5905" stroke="black" stroke-width="7" stroke-linecap="round"/>
<path d="M208.518 46.5905L191.998 63.9995" stroke="black" stroke-width="7" stroke-linecap="round"/>
<path d="M190.116 55.4122L175.998 41.5894" stroke="black" stroke-width="7" stroke-linecap="round"/>
<path d="M217.764 30.9293L219.415 31.7471C231.46 37.7132 234.809 53.3424 226.265 63.7197V63.7197" stroke="black" stroke-width="8" stroke-linecap="round" stroke-linejoin="round"/>
<path d="M215.993 70.5894L210.016 70.7981L205 70.9732" stroke="black" stroke-width="8" stroke-linecap="round" stroke-linejoin="round"/>
<path d="M230.514 52.1552L230.329 53.8367C229.474 61.6279 224.114 68.1865 216.65 70.5768V70.5768" stroke="black" stroke-width="8" stroke-linecap="round" stroke-linejoin="round"/>
<path d="M189.767 71.3501L186.299 71.605C179.738 72.0871 173.145 71.8564 166.634 70.917L165.297 70.724" stroke="black" stroke-width="8" stroke-linecap="round" stroke-linejoin="round"/>
<path d="M168.876 71.1796L167.457 71.0992C160.411 70.7 154.459 65.7294 152.81 58.867V58.867" stroke="black" stroke-width="8" stroke-linecap="round" stroke-linejoin="round"/>
<path d="M154.605 63.5195L154.024 62.1209C151.766 56.6856 151.567 50.6138 153.463 45.0422V45.0422" stroke="black" stroke-width="8" stroke-linecap="round" stroke-linejoin="round"/>
<path d="M152.694 48.8936L152.821 47.5869C153.413 41.5096 157.548 36.3599 163.354 34.469V34.469" stroke="black" stroke-width="8" stroke-linecap="round" stroke-linejoin="round"/>
<path d="M163.758 34.2069L163.679 33.2885C163.311 28.9789 165.57 24.8705 169.407 22.8729V22.8729" stroke="black" stroke-width="8" stroke-linecap="round" stroke-linejoin="round"/>
<path d="M187.847 11.6603L189.755 11.159C203.09 7.65601 216.339 17.0939 217.386 30.8414V30.8414" stroke="black" stroke-width="8" stroke-linecap="round" stroke-linejoin="round"/>
</svg>
