<svg width="108" height="25" viewBox="0 0 108 25" fill="none" xmlns="http://www.w3.org/2000/svg">
<g clip-path="url(#clip0_544_964)">
<path d="M83.879 20.2377V6.71387H77.7996C77.167 6.71387 76.5862 6.84086 76.0571 7.09482C75.5149 7.34881 75.0503 7.69166 74.663 8.12339C74.2628 8.55515 73.9597 9.03768 73.7531 9.57101C73.5337 10.1043 73.4239 10.6504 73.4239 11.2091C73.4239 11.7805 73.5271 12.3329 73.7337 12.8662C73.9273 13.3869 74.2114 13.844 74.5856 14.2377C74.9598 14.6313 75.3988 14.9361 75.9022 15.152L72.7656 20.2377H75.7085L78.5353 15.7043H81.2072V20.2377H83.879ZM81.2072 13.3996H77.8577C77.5222 13.3996 77.2251 13.3043 76.967 13.1139C76.709 12.9107 76.5024 12.644 76.3475 12.3139C76.1926 11.9837 76.1151 11.6155 76.1151 11.2091C76.1151 10.7774 76.2056 10.4028 76.3862 10.0853C76.5668 9.75515 76.7991 9.49482 77.0832 9.30434C77.3543 9.11387 77.651 9.01863 77.9738 9.01863H81.2072V13.3996Z" fill="black"/>
<path d="M95.6819 17.9329V20.2377H86.1367V6.71387H95.5076V9.01863H88.8086V12.2758H94.5976V14.4091H88.8086V17.9329H95.6819ZM107.31 17.9329V20.2377H97.765V6.71387H107.136V9.01863H100.437V12.2758H106.226V14.4091H100.437V17.9329H107.31Z" fill="black"/>
<path d="M6.13755 6.75196H8.6158L10.1841 11.2282L11.7717 6.75196H14.2306L11.8685 12.9043L13.611 17.2091L17.5027 6.71387H20.4069L14.9082 20.2377H12.6042L10.1841 14.5615L7.78326 20.2377H5.47926L0 6.71387H2.86548L6.77647 17.2091L8.48027 12.9043L6.13755 6.75196ZM31.3602 17.9329V20.2377H21.8151V6.71387H31.186V9.01863H24.487V12.2758H30.276V14.4091H24.487V17.9329H31.3602ZM44.5181 16.752C44.5181 17.5139 44.3178 18.1551 43.9179 18.6758C43.5177 19.1837 42.9755 19.571 42.2915 19.8377C41.6202 20.1043 40.8845 20.2377 40.0843 20.2377H33.4434V6.71387H40.8007C41.446 6.71387 42.0011 6.8853 42.4658 7.22815C42.9432 7.55833 43.3047 7.99006 43.55 8.52339C43.8081 9.04405 43.9372 9.59006 43.9372 10.1615C43.9372 10.8091 43.7693 11.425 43.4338 12.0091C43.0981 12.5932 42.6077 13.025 41.9621 13.3043C42.7495 13.5329 43.3691 13.9456 43.8211 14.5424C44.2857 15.1393 44.5181 15.8758 44.5181 16.752ZM41.8269 16.2567C41.8269 15.9139 41.7558 15.6091 41.6139 15.3424C41.4717 15.0631 41.2781 14.8472 41.033 14.6948C40.8007 14.5298 40.5297 14.4472 40.2199 14.4472H36.1153V18.0091H40.0843C40.4068 18.0091 40.6972 17.9329 40.9556 17.7805C41.2267 17.6155 41.4396 17.3996 41.5945 17.1329C41.7494 16.8662 41.8269 16.5742 41.8269 16.2567ZM36.1153 8.96149V12.371H39.6777C39.9745 12.371 40.2456 12.3012 40.4909 12.1615C40.736 12.0218 40.9296 11.825 41.0718 11.571C41.2267 11.3171 41.3041 11.0123 41.3041 10.6567C41.3041 10.3139 41.233 10.0155 41.0911 9.76149C40.9619 9.50753 40.7813 9.31071 40.549 9.17101C40.3294 9.03134 40.0777 8.96149 39.7939 8.96149H36.1153Z" fill="black"/>
<path d="M65.0366 21.8419C68.6435 21.8419 71.6001 18.9333 71.6001 15.3848C71.6001 12.4762 69.6488 9.97481 66.9288 9.21856C66.3967 6.13547 63.7357 3.80859 60.4836 3.80859C57.2315 3.80859 54.5706 6.13547 54.0384 9.16041C51.3185 9.97481 49.3672 12.418 49.3672 15.3266C49.3672 18.8751 52.3237 21.7837 55.9307 21.7837C56.5218 21.8419 64.0313 21.8419 65.0366 21.8419Z" fill="#00731E"/>
<path d="M58.1172 5.84375V23.877" stroke="black" stroke-width="2" stroke-miterlimit="10" stroke-linecap="round"/>
<path d="M53.0938 9.91602L58.1198 14.8606" stroke="black" stroke-width="2" stroke-miterlimit="10" stroke-linecap="round"/>
<path d="M63.1433 12.2432L58.1172 17.1878" stroke="black" stroke-width="2" stroke-miterlimit="10" stroke-linecap="round"/>
<path d="M53.094 3.40039C52.2663 4.33116 51.6749 5.4364 51.4383 6.71619C48.6594 7.5306 46.5898 10.0902 46.5898 13.1151C46.5898 16.8381 49.6054 19.8049 53.3899 19.8049C54.0403 19.8049 56.8786 19.8049 58.1201 19.8049" stroke="black" stroke-width="2" stroke-miterlimit="10" stroke-linecap="round" stroke-linejoin="round"/>
<path d="M61.077 19.8054C63.5014 19.8054 61.8457 19.8054 62.851 19.8054C66.6352 19.8054 69.651 16.8386 69.651 13.1156C69.651 10.0907 67.5815 7.53114 64.8022 6.71674C64.2111 3.57546 61.4911 1.19043 58.1205 1.19043C57.7066 1.19043 57.2928 1.2486 56.8789 1.30677" stroke="black" stroke-width="2" stroke-miterlimit="10" stroke-linecap="round" stroke-linejoin="round"/>
</g>
<defs>
<clipPath id="clip0_544_964">
<rect width="108" height="25" fill="white"/>
</clipPath>
</defs>
</svg>
