<svg width="361" height="101" viewBox="0 0 361 101" fill="none" xmlns="http://www.w3.org/2000/svg">
<path d="M20.288 40.688H28.48L33.664 55.728L38.912 40.688H47.04L39.232 61.36L44.992 75.824L57.856 40.56H67.456L49.28 86H41.664L33.664 66.928L25.728 86H18.112L0 40.56H9.472L22.4 75.824L28.032 61.36L20.288 40.688ZM103.663 78.256V86H72.111V40.56H103.087V48.304H80.943V59.248H100.079V66.416H80.943V78.256H103.663ZM147.157 74.288C147.157 76.848 146.495 79.0027 145.173 80.752C143.85 82.4587 142.058 83.76 139.797 84.656C137.578 85.552 135.146 86 132.501 86H110.549V40.56H134.869C137.002 40.56 138.837 41.136 140.373 42.288C141.951 43.3973 143.146 44.848 143.957 46.64C144.81 48.3893 145.237 50.224 145.237 52.144C145.237 54.32 144.682 56.3893 143.573 58.352C142.463 60.3147 140.842 61.7653 138.708 62.704C141.311 63.472 143.359 64.8587 144.853 66.864C146.389 68.8693 147.157 71.344 147.157 74.288ZM138.261 72.624C138.261 71.472 138.026 70.448 137.557 69.552C137.087 68.6133 136.447 67.888 135.637 67.376C134.869 66.8213 133.973 66.544 132.949 66.544H119.381V78.512H132.501C133.567 78.512 134.527 78.256 135.381 77.744C136.277 77.1893 136.981 76.464 137.493 75.568C138.005 74.672 138.261 73.6907 138.261 72.624ZM119.381 48.112V59.568H131.157C132.138 59.568 133.034 59.3333 133.845 58.864C134.655 58.3947 135.295 57.7333 135.765 56.88C136.277 56.0267 136.533 55.0027 136.533 53.808C136.533 52.656 136.298 51.6533 135.829 50.8C135.402 49.9467 134.805 49.2853 134.037 48.816C133.311 48.3467 132.479 48.112 131.541 48.112H119.381Z" fill="white"/>
<path d="M274.264 86V40.56H254.168C252.077 40.56 250.157 40.9867 248.408 41.84C246.616 42.6933 245.08 43.8453 243.8 45.296C242.477 46.7467 241.475 48.368 240.792 50.16C240.067 51.952 239.704 53.7867 239.704 55.664C239.704 57.584 240.045 59.44 240.728 61.232C241.368 62.9813 242.307 64.5173 243.544 65.84C244.781 67.1627 246.232 68.1867 247.896 68.912L237.528 86H247.256L256.6 70.768H265.432V86H274.264ZM265.432 63.024H254.36C253.251 63.024 252.269 62.704 251.416 62.064C250.563 61.3813 249.88 60.4853 249.368 59.376C248.856 58.2667 248.6 57.0293 248.6 55.664C248.6 54.2133 248.899 52.9547 249.496 51.888C250.093 50.7787 250.861 49.904 251.8 49.264C252.696 48.624 253.677 48.304 254.744 48.304H265.432V63.024Z" fill="white"/>
<path d="M312.288 78.256V86H280.736V40.56H311.712V48.304H289.568V59.248H308.704V66.416H289.568V78.256H312.288ZM350.726 78.256V86H319.174V40.56H350.15V48.304H328.006V59.248H347.142V66.416H328.006V78.256H350.726Z" fill="white"/>
<path d="M182.651 41.6191L182.37 40.6114C179.661 30.8937 187.872 21.7515 197.32 23.9645V23.9645" stroke="#00731E" stroke-width="5" stroke-linecap="round" stroke-linejoin="round"/>
<path d="M169.265 57.3937L168.984 56.3859C166.275 46.6682 174.486 37.5261 183.934 39.739V39.739" stroke="#00731E" stroke-width="5" stroke-linecap="round" stroke-linejoin="round"/>
<path d="M172.169 74.5625L170.97 73.4088C164.549 67.229 163.558 57.2468 168.623 49.7745V49.7745" stroke="#00731E" stroke-width="5" stroke-linecap="round" stroke-linejoin="round"/>
<path d="M183.318 81.6267L182.273 81.6058C176.795 81.4965 172.102 77.3896 171.037 71.7745V71.7745" stroke="#00731E" stroke-width="5" stroke-linecap="round" stroke-linejoin="round"/>
<path d="M190.675 78.823L193.158 78.5355L193.735 83.5023L191.251 83.7898L190.675 78.823ZM190.007 81.4171L190.296 83.9005L190.007 81.4171ZM179.504 83.7457L177.03 83.3871L177.746 78.4388L180.22 78.7974L179.504 83.7457ZM191.251 83.7898L190.296 83.9005L189.719 78.9336L190.675 78.823L191.251 83.7898ZM190.296 83.9005C186.707 84.316 183.08 84.2639 179.504 83.7457L180.22 78.7974C183.367 79.2536 186.56 79.2994 189.719 78.9336L190.296 83.9005Z" fill="#00731E"/>
<path d="M195.159 23.6675L196.661 23.5381C203.989 22.9067 210.986 27.1845 214.04 34.1633V34.1633" stroke="#00731E" stroke-width="5" stroke-linecap="round" stroke-linejoin="round"/>
<path d="M227.668 47.7051L228.786 48.6855C234.732 53.8998 236.057 62.7096 231.934 69.6187V69.6187" stroke="#00731E" stroke-width="5" stroke-linecap="round" stroke-linejoin="round"/>
<path d="M232.661 62.7745L232.718 64.182C233.053 72.4887 227.002 79.512 219.062 80.0328V80.0328" stroke="#00731E" stroke-width="5" stroke-linecap="round" stroke-linejoin="round"/>
<path d="M223.662 76.3364C225.009 76.0247 226.342 76.8636 226.64 78.2101C226.939 79.5567 226.089 80.901 224.742 81.2127L223.662 76.3364ZM219.822 79.7885L219.282 77.3504L219.822 79.7885ZM197.275 82.1127L197.354 79.6107L197.354 79.6107L197.275 82.1127ZM195.229 84.5708L192.733 84.515L192.892 79.5111L195.388 79.5668L195.229 84.5708ZM224.742 81.2127L220.362 82.2266L219.282 77.3504L223.662 76.3364L224.742 81.2127ZM197.195 84.6147L195.229 84.5708L195.388 79.5668L197.354 79.6107L197.195 84.6147ZM220.362 82.2266C212.76 83.9862 204.978 84.7885 197.195 84.6147L197.354 79.6107C204.72 79.7752 212.086 79.0159 219.282 77.3504L220.362 82.2266Z" fill="#00731E"/>
<path d="M213.326 33.4558L214.349 34.5042C217.956 38.2009 221.104 42.3566 223.719 46.8755V46.8755" stroke="#00731E" stroke-width="5" stroke-linecap="round" stroke-linejoin="round"/>
<path d="M202.308 43.2745C202.308 48.593 201.144 53.3832 199.287 56.8258C197.419 60.2885 194.923 62.2745 192.29 62.2745C189.657 62.2745 187.161 60.2885 185.293 56.8258C183.436 53.3832 182.272 48.593 182.272 43.2745C182.272 37.9561 183.436 33.1659 185.293 29.7233C187.161 26.2606 189.657 24.2745 192.29 24.2745C194.923 24.2745 197.419 26.2606 199.287 29.7233C201.144 33.1659 202.308 37.9561 202.308 43.2745Z" fill="#00731E"/>
<path d="M202.308 43.2745C202.308 48.593 201.144 53.3832 199.287 56.8258C197.419 60.2885 194.923 62.2745 192.29 62.2745C189.657 62.2745 187.161 60.2885 185.293 56.8258C183.436 53.3832 182.272 48.593 182.272 43.2745C182.272 37.9561 183.436 33.1659 185.293 29.7233C187.161 26.2606 189.657 24.2745 192.29 24.2745C194.923 24.2745 197.419 26.2606 199.287 29.7233C201.144 33.1659 202.308 37.9561 202.308 43.2745Z" stroke="#00731E"/>
<path d="M202.308 43.2745C202.308 48.593 201.144 53.3832 199.287 56.8258C197.419 60.2885 194.923 62.2745 192.29 62.2745C189.657 62.2745 187.161 60.2885 185.293 56.8258C183.436 53.3832 182.272 48.593 182.272 43.2745C182.272 37.9561 183.436 33.1659 185.293 29.7233C187.161 26.2606 189.657 24.2745 192.29 24.2745C194.923 24.2745 197.419 26.2606 199.287 29.7233C201.144 33.1659 202.308 37.9561 202.308 43.2745Z" stroke="#00731E"/>
<path d="M211.869 59.7745C211.869 71.629 201.839 81.2745 189.422 81.2745C177.004 81.2745 166.974 71.629 166.974 59.7745C166.974 47.9201 177.004 38.2745 189.422 38.2745C201.839 38.2745 211.869 47.9201 211.869 59.7745Z" fill="#00731E"/>
<path d="M211.869 59.7745C211.869 71.629 201.839 81.2745 189.422 81.2745C177.004 81.2745 166.974 71.629 166.974 59.7745C166.974 47.9201 177.004 38.2745 189.422 38.2745C201.839 38.2745 211.869 47.9201 211.869 59.7745Z" stroke="#00731E"/>
<path d="M211.869 59.7745C211.869 71.629 201.839 81.2745 189.422 81.2745C177.004 81.2745 166.974 71.629 166.974 59.7745C166.974 47.9201 177.004 38.2745 189.422 38.2745C201.839 38.2745 211.869 47.9201 211.869 59.7745Z" stroke="#00731E"/>
<path d="M231.949 57.7745C231.949 64.1898 227.404 69.2745 221.931 69.2745C216.458 69.2745 211.913 64.1898 211.913 57.7745C211.913 51.3593 216.458 46.2745 221.931 46.2745C227.404 46.2745 231.949 51.3593 231.949 57.7745Z" fill="#00731E"/>
<path d="M231.949 57.7745C231.949 64.1898 227.404 69.2745 221.931 69.2745C216.458 69.2745 211.913 64.1898 211.913 57.7745C211.913 51.3593 216.458 46.2745 221.931 46.2745C227.404 46.2745 231.949 51.3593 231.949 57.7745Z" stroke="#00731E"/>
<path d="M231.949 57.7745C231.949 64.1898 227.404 69.2745 221.931 69.2745C216.458 69.2745 211.913 64.1898 211.913 57.7745C211.913 51.3593 216.458 46.2745 221.931 46.2745C227.404 46.2745 231.949 51.3593 231.949 57.7745Z" stroke="#00731E"/>
<path d="M222.387 69.7745C222.387 76.1898 217.842 81.2745 212.369 81.2745C206.897 81.2745 202.352 76.1898 202.352 69.7745C202.352 63.3593 206.897 58.2745 212.369 58.2745C217.842 58.2745 222.387 63.3593 222.387 69.7745Z" fill="#00731E"/>
<path d="M222.387 69.7745C222.387 76.1898 217.842 81.2745 212.369 81.2745C206.897 81.2745 202.352 76.1898 202.352 69.7745C202.352 63.3593 206.897 58.2745 212.369 58.2745C217.842 58.2745 222.387 63.3593 222.387 69.7745Z" stroke="#00731E"/>
<path d="M222.387 69.7745C222.387 76.1898 217.842 81.2745 212.369 81.2745C206.897 81.2745 202.352 76.1898 202.352 69.7745C202.352 63.3593 206.897 58.2745 212.369 58.2745C217.842 58.2745 222.387 63.3593 222.387 69.7745Z" stroke="#00731E"/>
<path d="M213.782 68.7745C213.782 75.1898 209.237 80.2745 203.764 80.2745C198.291 80.2745 193.746 75.1898 193.746 68.7745C193.746 62.3593 198.291 57.2745 203.764 57.2745C209.237 57.2745 213.782 62.3593 213.782 68.7745Z" fill="#00731E"/>
<path d="M213.782 68.7745C213.782 75.1898 209.237 80.2745 203.764 80.2745C198.291 80.2745 193.746 75.1898 193.746 68.7745C193.746 62.3593 198.291 57.2745 203.764 57.2745C209.237 57.2745 213.782 62.3593 213.782 68.7745Z" stroke="#00731E"/>
<path d="M213.782 68.7745C213.782 75.1898 209.237 80.2745 203.764 80.2745C198.291 80.2745 193.746 75.1898 193.746 68.7745C193.746 62.3593 198.291 57.2745 203.764 57.2745C209.237 57.2745 213.782 62.3593 213.782 68.7745Z" stroke="#00731E"/>
<path d="M230.992 67.7745C230.992 74.1898 226.447 79.2745 220.975 79.2745C215.502 79.2745 210.957 74.1898 210.957 67.7745C210.957 61.3593 215.502 56.2745 220.975 56.2745C226.447 56.2745 230.992 61.3593 230.992 67.7745Z" fill="#00731E"/>
<path d="M230.992 67.7745C230.992 74.1898 226.447 79.2745 220.975 79.2745C215.502 79.2745 210.957 74.1898 210.957 67.7745C210.957 61.3593 215.502 56.2745 220.975 56.2745C226.447 56.2745 230.992 61.3593 230.992 67.7745Z" stroke="#00731E"/>
<path d="M230.992 67.7745C230.992 74.1898 226.447 79.2745 220.975 79.2745C215.502 79.2745 210.957 74.1898 210.957 67.7745C210.957 61.3593 215.502 56.2745 220.975 56.2745C226.447 56.2745 230.992 61.3593 230.992 67.7745Z" stroke="#00731E"/>
<path d="M222.387 57.2745C222.387 62.593 221.223 67.3832 219.366 70.8258C217.499 74.2885 215.002 76.2745 212.369 76.2745C209.737 76.2745 207.24 74.2885 205.372 70.8258C203.515 67.3832 202.352 62.593 202.352 57.2745C202.352 51.9561 203.515 47.1659 205.372 43.7233C207.24 40.2606 209.737 38.2745 212.369 38.2745C215.002 38.2745 217.499 40.2606 219.366 43.7233C221.223 47.1659 222.387 51.9561 222.387 57.2745Z" fill="#00731E"/>
<path d="M222.387 57.2745C222.387 62.593 221.223 67.3832 219.366 70.8258C217.499 74.2885 215.002 76.2745 212.369 76.2745C209.737 76.2745 207.24 74.2885 205.372 70.8258C203.515 67.3832 202.352 62.593 202.352 57.2745C202.352 51.9561 203.515 47.1659 205.372 43.7233C207.24 40.2606 209.737 38.2745 212.369 38.2745C215.002 38.2745 217.499 40.2606 219.366 43.7233C221.223 47.1659 222.387 51.9561 222.387 57.2745Z" stroke="#00731E"/>
<path d="M222.387 57.2745C222.387 62.593 221.223 67.3832 219.366 70.8258C217.499 74.2885 215.002 76.2745 212.369 76.2745C209.737 76.2745 207.24 74.2885 205.372 70.8258C203.515 67.3832 202.352 62.593 202.352 57.2745C202.352 51.9561 203.515 47.1659 205.372 43.7233C207.24 40.2606 209.737 38.2745 212.369 38.2745C215.002 38.2745 217.499 40.2606 219.366 43.7233C221.223 47.1659 222.387 51.9561 222.387 57.2745Z" stroke="#00731E"/>
<path d="M215.694 47.5C215.694 52.815 214.478 57.6021 212.538 61.043C210.589 64.4993 207.974 66.5 205.198 66.5C202.422 66.5 199.807 64.4993 197.859 61.043C195.918 57.6021 194.702 52.815 194.702 47.5C194.702 42.185 195.918 37.3979 197.859 33.957C199.807 30.5007 202.422 28.5 205.198 28.5C207.974 28.5 210.589 30.5007 212.538 33.957C214.478 37.3979 215.694 42.185 215.694 47.5Z" fill="#00731E"/>
<path d="M215.694 47.5C215.694 52.815 214.478 57.6021 212.538 61.043C210.589 64.4993 207.974 66.5 205.198 66.5C202.422 66.5 199.807 64.4993 197.859 61.043C195.918 57.6021 194.702 52.815 194.702 47.5C194.702 42.185 195.918 37.3979 197.859 33.957C199.807 30.5007 202.422 28.5 205.198 28.5C207.974 28.5 210.589 30.5007 212.538 33.957C214.478 37.3979 215.694 42.185 215.694 47.5Z" stroke="#00731E"/>
<path d="M215.694 47.5C215.694 52.815 214.478 57.6021 212.538 61.043C210.589 64.4993 207.974 66.5 205.198 66.5C202.422 66.5 199.807 64.4993 197.859 61.043C195.918 57.6021 194.702 52.815 194.702 47.5C194.702 42.185 195.918 37.3979 197.859 33.957C199.807 30.5007 202.422 28.5 205.198 28.5C207.974 28.5 210.589 30.5007 212.538 33.957C214.478 37.3979 215.694 42.185 215.694 47.5Z" stroke="#00731E"/>
<path d="M209.957 43.2745C209.957 48.593 208.793 53.3832 206.936 56.8258C205.069 60.2885 202.572 62.2745 199.939 62.2745C197.307 62.2745 194.81 60.2885 192.942 56.8258C191.085 53.3832 189.922 48.593 189.922 43.2745C189.922 37.9561 191.085 33.1659 192.942 29.7233C194.81 26.2606 197.307 24.2745 199.939 24.2745C202.572 24.2745 205.069 26.2606 206.936 29.7233C208.793 33.1659 209.957 37.9561 209.957 43.2745Z" fill="#00731E"/>
<path d="M209.957 43.2745C209.957 48.593 208.793 53.3832 206.936 56.8258C205.069 60.2885 202.572 62.2745 199.939 62.2745C197.307 62.2745 194.81 60.2885 192.942 56.8258C191.085 53.3832 189.922 48.593 189.922 43.2745C189.922 37.9561 191.085 33.1659 192.942 29.7233C194.81 26.2606 197.307 24.2745 199.939 24.2745C202.572 24.2745 205.069 26.2606 206.936 29.7233C208.793 33.1659 209.957 37.9561 209.957 43.2745Z" stroke="#00731E"/>
<path d="M209.957 43.2745C209.957 48.593 208.793 53.3832 206.936 56.8258C205.069 60.2885 202.572 62.2745 199.939 62.2745C197.307 62.2745 194.81 60.2885 192.942 56.8258C191.085 53.3832 189.922 48.593 189.922 43.2745C189.922 37.9561 191.085 33.1659 192.942 29.7233C194.81 26.2606 197.307 24.2745 199.939 24.2745C202.572 24.2745 205.069 26.2606 206.936 29.7233C208.793 33.1659 209.957 37.9561 209.957 43.2745Z" stroke="#00731E"/>
<path d="M190.998 31.5905V94.5905" stroke="white" stroke-width="7" stroke-linecap="round"/>
<path d="M208.518 52.5905L191.998 69.9994" stroke="white" stroke-width="7" stroke-linecap="round"/>
<path d="M190.116 61.4122L175.998 47.5894" stroke="white" stroke-width="7" stroke-linecap="round"/>
<path d="M217.764 36.9293L219.415 37.7471C231.46 43.7132 234.809 59.3424 226.265 69.7197V69.7197" stroke="white" stroke-width="8" stroke-linecap="round" stroke-linejoin="round"/>
<path d="M215.993 76.5894L210.016 76.7981L205 76.9732" stroke="white" stroke-width="8" stroke-linecap="round" stroke-linejoin="round"/>
<path d="M230.514 58.1552L230.329 59.8367C229.474 67.6279 224.114 74.1865 216.65 76.5768V76.5768" stroke="white" stroke-width="8" stroke-linecap="round" stroke-linejoin="round"/>
<path d="M189.767 77.3501L186.299 77.605C179.738 78.0871 173.145 77.8564 166.634 76.917L165.297 76.724" stroke="white" stroke-width="8" stroke-linecap="round" stroke-linejoin="round"/>
<path d="M168.876 77.1797L167.457 77.0993C160.411 76.7 154.459 71.7295 152.81 64.867V64.867" stroke="white" stroke-width="8" stroke-linecap="round" stroke-linejoin="round"/>
<path d="M154.605 69.5194L154.024 68.1208C151.766 62.6855 151.567 56.6137 153.463 51.0421V51.0421" stroke="white" stroke-width="8" stroke-linecap="round" stroke-linejoin="round"/>
<path d="M152.694 54.8936L152.821 53.5869C153.413 47.5096 157.548 42.3599 163.354 40.469V40.469" stroke="white" stroke-width="8" stroke-linecap="round" stroke-linejoin="round"/>
<path d="M163.758 40.2069L163.679 39.2885C163.311 34.9789 165.57 30.8705 169.407 28.8729V28.8729" stroke="white" stroke-width="8" stroke-linecap="round" stroke-linejoin="round"/>
<path d="M187.847 17.6603L189.755 17.159C203.09 13.6559 216.339 23.0938 217.386 36.8414V36.8414" stroke="white" stroke-width="8" stroke-linecap="round" stroke-linejoin="round"/>
</svg>
