<?xml version="1.0" encoding="UTF-8" standalone="no"?>
<!-- Created with Inkscape (http://www.inkscape.org/) -->

<svg
   width="1919.6868"
   height="1040.7062"
   viewBox="0 0 507.91712 275.35351"
   version="1.1"
   id="svg1"
   xml:space="preserve"
   xmlns="http://www.w3.org/2000/svg"
   xmlns:svg="http://www.w3.org/2000/svg"><defs
     id="defs1" /><g
     id="layer1"
     transform="translate(-0.11134145,0.83983803)"><g
       id="g1"
       transform="matrix(0.33715834,0,0,0.28788644,15.926252,57.945724)"><path
         d="m 430.17958,804.71527 q -46.60473,0 -93.07031,-1.44922 c -44.26221,-1.38086 -90.03174,-2.80762 -132.57276,-23.29883 -29.75927,-14.333 -56.11572,-37.3291 -76.21923,-66.50391 a 207.83633,207.83633 0 0 1 -29.21143,-63.60449 228.67366,228.67366 0 0 1 -6.44824,-33.28613 226.38642,226.38642 0 0 1 7.54541,-90.49317 202.11618,202.11618 0 0 1 16.97363,-40.40039 c 31.02344,-55.79345 87.60791,-93.24609 155.24512,-102.7539 a 9.01656,9.01656 0 0 1 1.68457,-0.0312 c 0.3042,0.0142 0.60742,0.0293 0.9165,0.0181 l 0.398,-0.10986 a 21.86278,21.86278 0 0 1 3.13281,-0.69824 c 104.31446,-13.48682 214.58985,13.80176 318.89649,78.91357 80.6499,50.35108 187.53369,77.46436 326.75976,82.88916 l 1.97657,0.0899 c 38.75732,1.93359 76.24703,15.81054 108.42093,40.13281 a 203.69025,203.69025 0 0 1 68.9531,92.624 c 1.6416,4.46094 3.1465,9.10449 4.4727,13.80078 2.5126,8.88282 -0.4,17.8584 -7.9922,24.69043 v 0.009 l -0.3467,0.30957 c -0.8345,0.72071 -1.7129,1.41211 -2.6109,2.05567 l -1.0556,0.75586 c -8.8975,6.36523 -15.9248,11.39355 -24.3355,15.29882 a 82.14255,82.14255 0 0 1 -17.7539,5.82129 c -33.9277,7.1836 -68.38182,13.84375 -102.40525,19.79688 -66.07574,11.57033 -133.89215,21.11525 -201.56597,28.36818 a 3003.6477,3003.6477 0 0 1 -319.7876,17.05567 z M 273.31532,384.87005 a 4.63987,4.63987 0 0 0 -0.62109,0.0366 C 205.68935,394.3256 149.64052,431.41056 118.9247,486.65177 a 200.08509,200.08509 0 0 0 -16.80567,40 224.37776,224.37776 0 0 0 -7.47509,89.68652 226.66946,226.66946 0 0 0 6.3916,32.99414 205.83781,205.83781 0 0 0 28.92822,62.9961 c 19.90674,28.88867 45.99365,51.65429 75.44092,65.83594 42.15918,20.30761 87.71289,21.72851 131.76709,23.10151 a 3001.5106,3001.5106 0 0 0 412.582,-15.59473 c 67.62988,-7.249 135.40234,-16.78711 201.43457,-28.35058 34.00049,-5.94825 68.43066,-12.60352 102.33546,-19.78321 a 80.09168,80.09168 0 0 0 17.3262,-5.67871 c 8.2412,-3.82617 15.2016,-8.80664 24.0136,-15.11133 l 1.0557,-0.75488 c 0.772,-0.55371 1.5298,-1.14551 2.2549,-1.76074 l 0.208,-0.18945 c 7.2417,-6.33887 10.0576,-14.70215 7.7261,-22.94434 v -0.001 c -1.312,-4.64648 -2.8008,-9.24023 -4.4258,-13.65527 -27.2779,-74.74609 -97.8428,-127.56934 -175.59183,-131.44727 l -1.96582,-0.0898 C 860.52817,543.42613 804.87632,536.5609 753.99643,524.91442 693.25771,511.01214 640.23183,490.08441 596.391,462.7138 492.48182,397.8515 382.66736,370.66449 278.80848,384.08734 a 20.03288,20.03288 0 0 0 -2.854,0.64258 l -0.71728,0.17431 c -0.41309,0.022 -0.81836,0.005 -1.22266,-0.0127 -0.23974,-0.0108 -0.47217,-0.0215 -0.69922,-0.0215 z"
         transform="translate(-91.08461,-73.86566)"
         fill="#f0f0f0"
         id="path1" /><path
         d="m 1099.0408,714.79565 v 0.01 c -0.8099,0.7 -1.66,1.37 -2.5399,2 -14.6801,10.51 -24.7101,17.88 -42.77,21.71 q -51,10.8 -102.37009,19.79 -100.215,17.55 -201.5,28.36 a 2994.002,2994.002 0 0 1 -412.72,15.6 c -45.87994,-1.43 -90.12994,-2.95 -132.17,-23.2 -30.73,-14.8 -56.55,-38.19 -75.83,-66.17 -19.55,-28.37 -31.43994,-61.94 -35.49,-96.44 a 99.087,99.087 0 0 1 29.97,-7.8 c 35.88,-3.42 71.19,9.72 103.82,25.01 32.64,15.28 64.69,33.14 100.03,40.19 52.08,10.39 105.84,-3.74 155.77,-21.83 49.93,-18.09 99.08,-40.43 151.74,-47.26 70.63,-9.17 141.5,10.24 210.08,29.46 q 109.575,30.705 219.15999,61.42 c 10.44,2.92 21.27,6.05 29.4099,13.21 a 36.17064,36.17064 0 0 1 5.4101,5.94 z"
         transform="translate(-91.08461,-73.86566)"
         fill="#e6e6e6"
         id="path2" /><path
         d="m 1099.0408,714.79565 v 0.01 c -0.8099,0.7 -1.66,1.37 -2.5399,2 -9.2001,6.58 -16.5701,11.94 -25.2301,15.96 q -44.6549,4.395 -89.43003,7.61005 -115.24493,8.26493 -230.94,8.79 c -156.47,0.8 -320.98,5.7 -457.98,-70.3 -45.58549,-25.2883 -111.62,26.57 -156.78,-1.16 a 208.5735,208.5735 0 0 1 -36.06994,-28.11 227.10885,227.10885 0 0 1 -6.42005,-33.14 224.72209,224.72209 0 0 1 7.51,-90.09 200.41013,200.41013 0 0 1 16.89,-40.2 c 20.98,7.53 41.1,18.37 60.25,29.85 35.12,21.03 69.27,44.91 108.38,56.95 57.65,17.75 120.02,7.99 178.52,-6.69 58.5,-14.68 116.61,-34.24 176.9,-35.89 80.86,-2.21 158.69,27.9 233.96,57.53 q 113.265,44.595 226.55992,89.18 2.4901,6.765 4.4501,13.73 c 2.6701,9.43992 -1.2001,17.98997 -8.03,23.96995 z"
         transform="translate(-91.08461,-73.86566)"
         fill="#f2f2f2"
         id="path3" /><path
         d="m 362.80838,330.89244 c -11.37261,-7.6666 -10.2601,-24.44139 1.76661,-31.03466 q 0.36706,-0.20124 0.71988,-0.41616 0.90407,-4.32993 1.80822,-8.65978 c 3.54785,3.685 10.52442,2.98952 13.27491,-1.32343 a 225.44564,225.44564 0 0 0 -37.41171,-56.06548 20.20509,20.20509 0 0 1 -0.29046,-26.8019 q 0.0872,-0.10167 0.17294,-0.20488 A 95.65823,95.65823 0 0 0 367.003,194.189 c -25.4899,-40.95375 -74.09555,-73.4889 -85.64863,-120.32338 -34.75671,37.32463 -38.65837,50.47005 -73.41516,87.79468 0,0 -32.91062,29.69718 -40.01414,45.65693 1.74539,1.83339 17.37143,6.233 17.97216,9.83777 11.91681,0.95532 32.56209,-12.10645 32.56209,-12.10645 0,0 -45.06178,48.04087 -58.74307,77.63181 -1.232,2.6647 -2.40211,5.70738 -1.37,8.4557 0.824,2.19417 3.78008,3.45928 5.68391,2.5875 a 24.37352,24.37352 0 0 0 -5.37657,7.69885 20.93647,20.93647 0 0 0 25.828,-2.60127 q -2.8584,5.34033 -5.71681,10.68053 l 0.003,0.008 a 15.56651,15.56651 0 0 1 5.77118,26.19045 c -11.82522,10.998 -22.63039,22.55822 -26.58965,30.17117 -3.72466,7.16188 34.5192,15.795 43.12118,15.441 8.60198,-0.354 16.64241,-4.13372 24.41155,-7.84324 a 18.0599,18.0599 0 0 0 1.94757,10.27618 32.8624,32.8624 0 0 0 25.16871,-4.06893 c -0.34282,7.08471 8.594,10.99688 14.797,8.99055 -3.09681,48.99028 -0.83155,117.78337 2.14363,189.19844 h 7.38145 V 391.49158 a 22.25823,22.25823 0 0 0 6.23435,2.07242 c 15.102,2.68077 33.3263,4.31066 43.15324,-7.46587 11.31034,11.40463 32.0369,11.18815 43.28184,-0.17664 -1.10671,1.9607 0.58717,5.26025 3.09287,5.78012 2.95295,0.61266 5.82579,-1.142 8.3329,-2.81807 q 17.02441,-11.38173 34.04887,-22.7635 C 401.0587,356.67837 381.16276,343.266 362.80799,330.89244 Z"
         transform="translate(-91.08461,-73.86566)"
         fill="#e6e6e6"
         id="path4" /><circle
         cx="612.42316"
         cy="198.58788"
         r="35.640011"
         fill="#f2f2f2"
         id="circle4" /><path
         d="m 783.27836,255.57938 c -2.06134,-6.90478 -7.88493,-11.4124 -14.92193,-12.40127 -0.0774,-0.0109 -0.15088,0.004 -0.228,-0.001 a 2.22314,2.22314 0 0 0 -0.30421,-0.0701 44.46125,44.46125 0 0 0 -28.61564,6.22885 c -8.24956,5.15006 -17.86053,7.47935 -27.57831,7.85771 q -0.0859,0.003 -0.17194,0.008 a 17.61025,17.61025 0 0 0 -15.751,12.6957 2.066,2.066 0 0 0 0.92011,2.2611 9.031,9.031 0 0 0 3.72364,1.89009 q 4.43992,0.94061 8.91145,1.72332 8.72537,1.52694 17.54182,2.469 a 260.84605,260.84605 0 0 0 35.92995,1.3581 c 3.99461,-0.12449 7.84681,-0.257 11.50674,-2.02 a 17.12124,17.12124 0 0 0 6.601,-5.76037 19.42316,19.42316 0 0 0 2.43632,-16.23834 z"
         transform="translate(-91.08461,-73.86566)"
         fill="#e6e6e6"
         id="path5" /><path
         d="m 709.20315,303.09932 c -2.06151,-6.90469 -7.8851,-11.41231 -14.92194,-12.40118 -0.0775,-0.0109 -0.151,0.003 -0.22811,-0.001 a 2.221,2.221 0 0 0 -0.304,-0.0701 44.46147,44.46147 0 0 0 -28.61593,6.22895 c -8.24928,5.14993 -17.85994,7.47957 -27.57743,7.85758 q -0.0863,0.003 -0.1727,0.008 a 17.61025,17.61025 0 0 0 -15.751,12.6957 2.06644,2.06644 0 0 0 0.92027,2.2611 9.03145,9.03145 0 0 0 3.72348,1.89009 q 4.43992,0.94048 8.91145,1.72332 8.72537,1.52682 17.542,2.469 a 260.85839,260.85839 0 0 0 35.93,1.3581 c 3.99444,-0.12449 7.84664,-0.25712 11.50673,-2.02012 a 17.12343,17.12343 0 0 0 6.601,-5.76029 19.424,19.424 0 0 0 2.43618,-16.23839 z"
         transform="translate(-91.08461,-73.86566)"
         fill="#e6e6e6"
         id="path6" /><path
         d="m 1010.8084,451.89244 c -11.37263,-7.6666 -10.2601,-24.44139 1.7666,-31.03466 q 0.3671,-0.20124 0.7199,-0.41616 0.904,-4.32993 1.8082,-8.65978 c 3.5478,3.685 10.5244,2.98952 13.2749,-1.32343 a 225.44564,225.44564 0 0 0 -37.41171,-56.06548 20.20509,20.20509 0 0 1 -0.29046,-26.8019 q 0.0872,-0.10167 0.17294,-0.20488 A 95.65823,95.65823 0 0 0 1015.003,315.189 c -25.4899,-40.95375 -74.09555,-73.4889 -85.64863,-120.32338 -34.75671,37.32463 -38.65837,50.47005 -73.41516,87.79468 0,0 -32.91062,29.69718 -40.01414,45.65693 1.74539,1.83339 17.37143,6.233 17.97216,9.83777 11.91681,0.95532 32.56209,-12.10645 32.56209,-12.10645 0,0 -45.06178,48.04087 -58.74307,77.63181 -1.232,2.6647 -2.40211,5.70738 -1.37,8.4557 0.824,2.19417 3.78008,3.45928 5.68391,2.5875 a 24.37352,24.37352 0 0 0 -5.37657,7.69885 20.93647,20.93647 0 0 0 25.82805,-2.60127 q -2.8584,5.34033 -5.71681,10.68053 l 0.003,0.008 a 15.56651,15.56651 0 0 1 5.77118,26.19045 c -11.82522,10.998 -22.63039,22.55822 -26.58965,30.17117 -3.72466,7.16188 34.5192,15.795 43.12118,15.441 8.60198,-0.354 16.64241,-4.13372 24.41155,-7.84324 a 18.0599,18.0599 0 0 0 1.94752,10.27618 32.8624,32.8624 0 0 0 25.16871,-4.06893 c -0.34282,7.08471 8.594,10.99688 14.797,8.99055 -3.09681,48.99028 -0.83155,117.78337 2.14363,189.19844 h 7.38145 V 512.49158 a 22.25823,22.25823 0 0 0 6.23435,2.07242 c 15.102,2.68077 33.3263,4.31066 43.15324,-7.46587 11.31034,11.40463 32.03691,11.18815 43.28181,-0.17664 -1.1067,1.9607 0.5872,5.26025 3.0929,5.78012 2.9529,0.61266 5.8258,-1.14195 8.3329,-2.81807 q 17.0244,-11.38173 34.0489,-22.7635 c -14.0058,-9.44167 -33.9017,-22.85404 -52.2565,-35.2276 z"
         transform="translate(-91.08461,-73.86566)"
         fill="#e6e6e6"
         id="path7" /><path
         d="m 154.05484,641.88332 a 3.61324,3.61324 0 0 0 2.61866,-6.26263 c -0.0911,-0.36212 -0.15647,-0.62217 -0.24758,-0.98429 q 0.0489,-0.11823 0.0984,-0.23628 a 9.70311,9.70311 0 0 1 17.89849,0.0665 c 2.92739,7.05051 6.65446,14.11307 7.57216,21.56779 a 28.70521,28.70521 0 0 1 -0.50391,9.87235 115.086,115.086 0 0 0 10.46897,-47.79893 111.07978,111.07978 0 0 0 -0.689,-12.392 q -0.5708,-5.05968 -1.58377,-10.04731 a 116.41946,116.41946 0 0 0 -23.087,-49.34151 30.98262,30.98262 0 0 1 -12.88557,-13.36893 23.63324,23.63324 0 0 1 -2.14932,-6.45821 c 0.62728,0.0823 1.26488,0.13369 1.89217,0.17479 0.19542,0.0102 0.40108,0.0206 0.5965,0.0309 l 0.0737,0.003 a 3.57989,3.57989 0 0 0 2.9401,-5.83225 q -0.40628,-0.5 -0.81305,-0.99948 c -0.4114,-0.51422 -0.833,-1.01813 -1.24434,-1.53227 a 1.78213,1.78213 0 0 1 -0.1337,-0.15433 c -0.47312,-0.58618 -0.94608,-1.16206 -1.41921,-1.74824 a 10.35167,10.35167 0 0 1 3.39367,-3.28044 c 4.74083,-2.77662 11.28132,-0.85358 14.70585,3.43476 3.43477,4.28826 4.0826,10.30438 2.88976,15.66218 a 41.48487,41.48487 0 0 1 -5.73841,12.793 c 0.25715,0.32912 0.52454,0.64792 0.78161,0.977 a 117.172,117.172 0 0 1 12.22972,19.37481 48.70925,48.70925 0 0 1 2.908,-22.62446 c 2.78346,-6.71479 8.00064,-12.37 12.595,-18.175 5.51856,-6.9726 16.83488,-3.92959 17.80713,4.90927 q 0.0141,0.12837 0.0276,0.25666 -1.02362,0.57749 -2.004,1.22585 a 4.90111,4.90111 0 0 0 1.976,8.91909 l 0.0999,0.0154 a 48.76572,48.76572 0 0 1 -1.28543,7.29124 50.20985,50.20985 0 0 1 -24.99991,31.46843 c -0.40108,0.20566 -0.79192,0.41132 -1.193,0.60674 a 116.53349,116.53349 0 0 1 4.40148,15.88839 117.59793,117.59793 0 0 1 2.03618,14.4076 113.433,113.433 0 0 1 -0.0823,18.31542 l 0.0309,-0.216 a 29.974,29.974 0 0 1 10.23241,-17.30759 c 7.87437,-6.46853 18.9994,-8.8505 27.49445,-14.04994 a 5.62529,5.62529 0 0 1 8.61572,5.47252 q -0.0171,0.11351 -0.0348,0.227 a 32.92361,32.92361 0 0 0 -3.69183,1.779 q -1.02363,0.57761 -2.004,1.22585 a 4.90115,4.90115 0 0 0 1.976,8.91916 l 0.1,0.0153 c 0.072,0.0103 0.1337,0.0206 0.20558,0.031 a 48.808,48.808 0 0 1 -8.97768,14.05786 50.25439,50.25439 0 0 1 -36.44572,15.99129 h -0.0103 a 119.56321,119.56321 0 0 1 -8.03167,23.447 h -28.69164 c -0.10291,-0.3188 -0.19542,-0.64791 -0.288,-0.96671 a 32.59917,32.59917 0 0 0 7.93915,-0.473 c -2.12877,-2.61214 -4.25747,-5.24483 -6.38625,-7.85688 a 1.783,1.783 0 0 1 -0.13369,-0.15425 c -1.07978,-1.33685 -2.16988,-2.66347 -3.24966,-4.00032 l -5.8e-4,-0.002 a 47.75114,47.75114 0 0 1 1.39916,-12.16411 z"
         transform="translate(-91.08461,-73.86566)"
         fill="#e6e6e6"
         id="path8" /><path
         d="m 1009.0548,669.88332 a 3.61324,3.61324 0 0 0 2.6187,-6.26263 c -0.091,-0.36212 -0.1565,-0.62217 -0.2476,-0.98429 q 0.049,-0.11823 0.098,-0.23628 a 9.70311,9.70311 0 0 1 17.8985,0.0665 c 2.9274,7.05051 6.6544,14.11307 7.5721,21.56779 a 28.70521,28.70521 0 0 1 -0.5039,9.87235 115.086,115.086 0 0 0 10.469,-47.79893 111.07978,111.07978 0 0 0 -0.689,-12.392 q -0.5708,-5.05968 -1.5838,-10.04731 a 116.41946,116.41946 0 0 0 -23.087,-49.34151 30.98262,30.98262 0 0 1 -12.8855,-13.36893 23.63324,23.63324 0 0 1 -2.1494,-6.45821 c 0.6273,0.0823 1.2649,0.13369 1.8922,0.17479 0.1954,0.0102 0.4011,0.0206 0.5965,0.0309 l 0.074,0.003 a 3.57989,3.57989 0 0 0 2.9401,-5.83225 q -0.4063,-0.5 -0.813,-0.99948 c -0.4114,-0.51422 -0.833,-1.01813 -1.2443,-1.53227 a 1.78213,1.78213 0 0 1 -0.1337,-0.15433 c -0.4731,-0.58618 -0.9461,-1.16206 -1.4192,-1.74824 a 10.35167,10.35167 0 0 1 3.3936,-3.28044 c 4.7409,-2.77662 11.2814,-0.85358 14.7059,3.43476 3.4348,4.28826 4.0826,10.30438 2.8897,15.66218 a 41.48487,41.48487 0 0 1 -5.7384,12.793 c 0.2572,0.32912 0.5246,0.64792 0.7816,0.977 a 117.172,117.172 0 0 1 12.2298,19.37481 48.70925,48.70925 0 0 1 2.908,-22.62446 c 2.7834,-6.71479 8.0006,-12.37 12.595,-18.175 5.5185,-6.9726 16.8348,-3.92959 17.8071,4.90927 q 0.014,0.12837 0.027,0.25666 -1.0236,0.57749 -2.004,1.22585 a 4.90111,4.90111 0 0 0 1.9761,8.91909 l 0.1,0.0154 a 48.76572,48.76572 0 0 1 -1.2854,7.29124 50.20985,50.20985 0 0 1 -24.9999,31.46836 c -0.4011,0.20566 -0.7919,0.41132 -1.193,0.60674 a 119.59737,119.59737 0 0 1 6.4377,30.296 113.433,113.433 0 0 1 -0.082,18.31542 l 0.031,-0.216 a 29.974,29.974 0 0 1 10.2324,-17.30759 c 7.8744,-6.46853 18.9994,-8.8505 27.4944,-14.04994 a 5.62529,5.62529 0 0 1 8.6158,5.47252 q -0.017,0.11351 -0.035,0.227 a 32.92361,32.92361 0 0 0 -3.6918,1.779 q -1.0237,0.57761 -2.004,1.22585 a 4.90115,4.90115 0 0 0 1.976,8.91916 l 0.1,0.0154 c 0.072,0.0103 0.1337,0.0206 0.2056,0.031 a 48.808,48.808 0 0 1 -8.9777,14.05786 50.25439,50.25439 0 0 1 -36.4457,15.99129 h -0.01 a 119.56321,119.56321 0 0 1 -8.0316,23.447 h -28.6917 c -0.1029,-0.3188 -0.1954,-0.64791 -0.288,-0.96671 a 32.59917,32.59917 0 0 0 7.9391,-0.473 c -2.1287,-2.61214 -4.2574,-5.24483 -6.3862,-7.85688 a 1.783,1.783 0 0 1 -0.1337,-0.15425 c -1.0798,-1.33685 -2.1699,-2.66347 -3.2497,-4.00032 l -5e-4,-0.002 a 47.75114,47.75114 0 0 1 1.3991,-12.16411 z"
         transform="translate(-91.08461,-73.86566)"
         fill="#e6e6e6"
         id="path9" /><path
         d="m 668.05484,586.88332 a 3.61324,3.61324 0 0 0 2.61866,-6.26263 c -0.0911,-0.36212 -0.15647,-0.62217 -0.24758,-0.98429 q 0.0489,-0.11823 0.0984,-0.23628 a 9.70311,9.70311 0 0 1 17.89849,0.0665 c 2.92739,7.05051 6.65446,14.11307 7.57216,21.56779 a 28.70521,28.70521 0 0 1 -0.50391,9.87235 115.086,115.086 0 0 0 10.46897,-47.79893 111.07978,111.07978 0 0 0 -0.689,-12.392 q -0.57079,-5.05968 -1.58377,-10.04731 a 116.41946,116.41946 0 0 0 -23.087,-49.34151 30.98262,30.98262 0 0 1 -12.88557,-13.36893 23.63324,23.63324 0 0 1 -2.14932,-6.45821 c 0.62728,0.0823 1.26488,0.13369 1.89217,0.17479 0.19542,0.0102 0.40108,0.0205 0.5965,0.0309 l 0.0737,0.003 a 3.57989,3.57989 0 0 0 2.9401,-5.83225 q -0.40628,-0.5 -0.813,-0.99948 c -0.4114,-0.51422 -0.833,-1.01813 -1.24434,-1.53227 a 1.78213,1.78213 0 0 1 -0.1337,-0.15433 c -0.47312,-0.58618 -0.94608,-1.16206 -1.41921,-1.74824 a 10.35167,10.35167 0 0 1 3.39367,-3.28044 c 4.74083,-2.77662 11.28132,-0.85358 14.70585,3.43476 3.43477,4.28826 4.0826,10.30438 2.88976,15.66218 a 41.48487,41.48487 0 0 1 -5.73841,12.793 c 0.25715,0.32912 0.52454,0.64792 0.78161,0.977 a 117.172,117.172 0 0 1 12.22972,19.37481 48.70925,48.70925 0 0 1 2.908,-22.62446 c 2.78346,-6.71479 8.00064,-12.37 12.595,-18.175 5.51856,-6.9726 16.83488,-3.92959 17.80713,4.90927 q 0.0141,0.12837 0.0276,0.25666 -1.02361,0.57748 -2.004,1.22585 a 4.90111,4.90111 0 0 0 1.976,8.91909 l 0.0999,0.0154 a 48.76572,48.76572 0 0 1 -1.28543,7.29124 50.20985,50.20985 0 0 1 -24.99996,31.46843 c -0.40108,0.20566 -0.79192,0.41132 -1.193,0.60674 a 119.59737,119.59737 0 0 1 6.43766,30.296 113.433,113.433 0 0 1 -0.0823,18.31542 l 0.0309,-0.216 a 29.974,29.974 0 0 1 10.23241,-17.30759 c 7.87437,-6.46853 18.9994,-8.8505 27.49445,-14.04994 a 5.62529,5.62529 0 0 1 8.61572,5.47252 q -0.0171,0.11351 -0.0347,0.227 a 32.92361,32.92361 0 0 0 -3.69183,1.779 q -1.02363,0.57761 -2.004,1.22585 a 4.90115,4.90115 0 0 0 1.976,8.91916 l 0.1,0.0154 c 0.072,0.0103 0.1337,0.0206 0.20558,0.031 a 48.808,48.808 0 0 1 -8.97768,14.05786 50.25439,50.25439 0 0 1 -36.44572,15.99129 h -0.0103 a 119.56321,119.56321 0 0 1 -8.03167,23.447 h -28.69164 c -0.10291,-0.3188 -0.19542,-0.64791 -0.288,-0.96671 a 32.59917,32.59917 0 0 0 7.93915,-0.473 c -2.12877,-2.61214 -4.25747,-5.24483 -6.38625,-7.85688 a 1.783,1.783 0 0 1 -0.13369,-0.15425 c -1.07978,-1.33685 -2.16988,-2.66347 -3.24966,-4.00032 l -5.8e-4,-0.002 a 47.75114,47.75114 0 0 1 1.39916,-12.16411 z"
         transform="translate(-91.08461,-73.86566)"
         fill="#e6e6e6"
         id="path10" /><polygon
         points="398.726,678.395 381.005,683.664 394.662,731.045 406.668,727.475 "
         fill="#ffb6b6"
         id="polygon10" /><path
         d="m 412.11159,785.53847 c 0.73109,0.63694 1.46352,1.26547 2.20411,1.89549 1.47307,1.25857 2.96506,2.5033 4.45969,3.73163 0.7514,0.61492 1.511,1.23113 2.26371,1.83784 l -0.004,0.0244 0.0479,0.016 0.0151,0.0108 1.21319,0.51161 2.57011,-4.50086 1.18552,-2.07282 1.67528,-2.93658 3.06938,-5.37131 16.161,-28.28244 -17.02419,-7.17576 -1.09386,2.60847 -0.008,-10e-4 -0.54084,1.29248 -10.1657,24.12261 -2.07537,4.93212 -0.0656,0.14922 -1.24806,2.94536 -1.07661,2.55233 -1.19968,2.85228 z"
         transform="translate(-91.08461,-73.86566)"
         fill="#ffb6b6"
         id="path11" /><path
         d="m 323.16217,663.13921 c 0.83748,1.98151 1.70087,3.95871 2.575,5.92079 q 2.43509,5.47841 5.06555,10.83654 c -0.001,0.008 0.007,0.01 0.0138,0.019 a 23.43454,23.43454 0 0 0 3.84252,3.8609 c 0.0578,0.0596 0.12637,0.104 0.18548,0.15541 a 16.21909,16.21909 0 0 0 3.424,2.04664 c 0.44092,0.18745 0.89,0.37625 1.331,0.56376 1.59368,0.65579 3.18008,1.25164 4.76482,1.80517 q 4.2305,1.46424 8.44787,2.481 c 0.22568,0.061 0.45261,0.1137 0.67958,0.16647 11.59528,2.71895 23.23481,3.14226 35.51466,2.75941 6.063,-0.18267 12.28385,-0.56718 18.72575,-0.96712 2.10585,-0.13707 4.21861,-0.26463 6.356,-0.3883 0.161,-0.008 0.33143,-0.0232 0.5006,-0.03 3.05391,-0.18018 6.15571,-0.34442 9.33,-0.48876 3.99553,-0.1823 8.11011,-0.32057 12.374,-0.39318 l -1.22095,5.79858 a 44.54245,44.54245 0 0 1 -4.85249,12.70284 c -2.59149,4.90079 -4.6426,8.77785 -3.0348,17.78091 l 0.772,4.35781 a 14.28737,14.28737 0 0 0 -0.52652,12.71573 l 0.2181,0.47992 -16.66239,28.21148 -1.07967,1.82912 6.0913,0.96479 7.49182,1.195 12.699,2.01137 24.14548,-33.8586 1.15509,-1.61548 0.0143,-0.0902 9.29538,-70.94382 c 0.0741,-0.627 0.12487,-1.266 0.14159,-1.90209 a 21.74558,21.74558 0 0 0 -5.88308,-15.75619 20.94161,20.94161 0 0 0 -14.737,-6.65376 l -6.40019,-0.18174 -13.07609,-0.37351 -9.21186,-0.2573 -0.18428,-0.004 -27.1649,-0.773 -0.67662,-8.09084 -0.33174,-0.187 -10.55643,-5.88236 -36.51075,-20.34679 -0.0932,-0.0484 -2.40159,-1.33844 -0.38124,0.44383 c -0.1136,0.13332 -0.22714,0.2666 -0.33247,0.40118 a 76.92672,76.92672 0 0 0 -8.37567,13.24567 225.94645,225.94645 0 0 0 -10.32717,23.55071 q -0.19641,0.52354 -0.35257,0.95263 l -0.0389,0.0863 c -0.0466,0.13546 -0.0773,0.223 -0.0894,0.24635 -1.48315,3.58051 -1.57945,8.22103 -0.65268,12.98153 z"
         transform="translate(-91.08461,-73.86566)"
         fill="#2f2e41"
         id="path12" /><path
         d="m 325.64972,636.84575 c 0.2061,-0.50521 0.44626,-1.01339 0.692,-1.50392 A 113.56544,113.56544 0 0 1 332.704,624.5673 c 2.61,-3.95663 5.65335,-8.15555 9.19913,-12.66145 q 2.57322,-3.27337 5.49519,-6.78553 1.4637,-1.75991 3.02925,-3.57929 a 2.11155,2.11155 0 0 1 0.13514,-0.16345 l 0.30006,-0.35585 37.53833,11.20646 -0.0185,5.14 2.72267,7.28323 -0.1845,0.21422 c 0.008,10e-4 0.01,-0.007 0,0 v -1 l 1,1 9.678,11.95848 0.0669,0.002 21.62732,0.61024 22.288,0.63081 11.97184,0.34151 a 20.929,20.929 0 0 1 14.737,6.65376 21.75651,21.75651 0 0 1 5.883,15.75623 c -0.0171,0.58558 -0.0614,1.18361 -0.129,1.7696 l 6.91367,27.979 a 171.31656,171.31656 0 0 1 4.71428,51.20347 l 4.00648,27.23284 -1.1728,-0.0765 -17.453,-1.12558 -4.60931,-0.293 -7.68918,-16.18518 c -0.876,-1.84475 -1.68675,-3.72955 -2.41723,-5.64369 a 78.91516,78.91516 0 0 1 -3.01127,-9.58676 L 443.845,681.18162 q -2.57688,0.0332 -5.098,0.0329 -11.66724,0.0429 -22.31656,-0.45047 c -23.08564,-1.05968 -42.75971,-3.97414 -59.90628,-8.89176 q -7.22388,-2.06437 -13.86629,-4.61658 -2.43725,-0.92814 -4.79582,-1.92775 c -0.371,-0.15119 -0.73387,-0.30109 -1.09541,-0.45925 a 21.182,21.182 0 0 1 -12.46787,-15.99241 21.61261,21.61261 0 0 1 1.35095,-12.03058 z"
         transform="translate(-91.08461,-73.86566)"
         fill="#2f2e41"
         id="path13" /><path
         d="m 483.38754,796.72844 12.99267,-3.87524 2.03792,-0.61 1.8487,7.90671 20.38231,7.99335 a 5.07342,5.07342 0 0 1 -0.69033,9.66436 l -21.96842,5.15124 -5.61673,-6.932 0.35381,8.16579 -8.27439,1.94172 -4.22376,-28.46058 z"
         transform="translate(-91.08461,-73.86566)"
         fill="#2f2e41"
         id="path14" /><polygon
         points="318.821,701.498 319.592,701.62 319.901,699.669 "
         fill="#2f2e41"
         id="polygon14" /><path
         d="m 414.81639,776.56846 11.959,6.38826 1.87733,1.00044 -4.24968,6.9191 8.8589,20.02129 a 5.07341,5.07341 0 0 1 -7.29057,6.38153 L 406.7366,805.482 l 0.88638,-8.87777 -5.49421,6.05137 -7.24582,-4.44229 17.02414,-23.19531 z"
         transform="translate(-91.08461,-73.86566)"
         fill="#2f2e41"
         id="path15" /><path
         d="m 501.23519,412.40164 a 9.099,9.099 0 0 1 -9.882,9.84933 L 478.05266,451.72349 469.072,437.522 483.07924,411.71164 a 9.14829,9.14829 0 0 1 18.156,0.69 z"
         transform="translate(-91.08461,-73.86566)"
         fill="#ffb6b6"
         id="path16" /><path
         d="m 467.40249,500.07859 -60.93918,46.62719 a 22.96509,22.96509 0 0 1 -32.159,-4.27852 v 0 a 22.94063,22.94063 0 0 1 7.83978,-34.3978 l 60.75267,-30.82227 27.17776,-52.9478 18.24885,5.42336 z"
         transform="translate(-91.08461,-73.86566)"
         fill="#2d7f23"
         id="path17" /><path
         d="m 337.61835,555.47064 -1.23551,45.2439 C 319.38078,629.4389 317.447,643.38708 322.15317,650.824 l 69.91043,-25.53754 1.17818,-2.81333 3.65072,-20.21554 6.61869,-20.8586 c 1.16539,-2.17935 16.98742,-15.56974 2.15557,-40.96966 l -29.838,-40.19607 -23.90797,-1.36826 c -3.94145,10.11617 3.16843,15.63556 -3.9329,17.96823 -16.05826,14.71817 -13.69935,17.11331 -10.36954,38.63741 z"
         transform="translate(-91.08461,-73.86566)"
         fill="#2d7f23"
         id="path18" /><path
         d="m 290.072,682.49005 a 9.099,9.099 0 0 1 6.12468,-12.536 l 2.94888,-32.2 13.12526,10.491 -4.81255,28.96925 a 9.1483,9.1483 0 0 1 -17.38627,5.27571 z"
         transform="translate(-91.08461,-73.86566)"
         fill="#ffb6b6"
         id="path19" /><path
         d="M 293.42418,588.57166 335.8,524.60318 a 22.96508,22.96508 0 0 1 31.79355,-6.45584 v 0 a 22.94063,22.94063 0 0 1 3.82071,35.0724 l -47.35984,48.96882 -8.401,58.91963 -19.01948,0.83209 z"
         transform="translate(-91.08461,-73.86566)"
         fill="#2d7f23"
         id="path20" /><path
         d="m 383.23416,443.97229 c 8.45328,16.66143 2.93119,35.96077 -12.75521,46.10959 -16.96255,10.97445 -38.98606,8.57148 -46.10959,-12.75522 -7.93279,-23.74944 -1.4158,-33.93777 12.75521,-46.10959 16.60685,-14.26407 36.97598,-5.24707 46.10959,12.75522 z"
         transform="translate(-91.08461,-73.86566)"
         fill="#2f2e41"
         id="path21" /><path
         d="m 341.62228,481.08868 a 26.7642,26.7642 0 0 0 42.58752,-32.42822 l -0.23226,-0.305 A 26.7642,26.7642 0 0 0 341.6289,481.0837 Z"
         transform="translate(-91.08461,-73.86566)"
         fill="#ffb6b6"
         id="path22" /><path
         d="m 391.42612,441.27461 a 36.56932,36.56932 0 0 1 -15.4373,8.74719 15.99263,15.99263 0 0 0 -4.06837,-3.37154 17.10944,17.10944 0 0 1 1.493,4.83079 c -2.58049,5.35534 -13.11977,9.20435 -23.19272,13.14162 L 336.879,441.07675 354.53844,431.07044 c 14.18986,-9.81026 30.89456,-5.62321 36.88768,10.20417 z"
         transform="translate(-91.08461,-73.86566)"
         fill="#2f2e41"
         id="path23" /><path
         d="m 326.81509,431.24658 c -2.403,-1.11034 -5.51691,-0.4246 -7.776,1.13553 a 17.3308,17.3308 0 0 0 -5.076,6.174 44.26792,44.26792 0 0 0 -4.60243,12.5437 c -0.76172,3.79783 -0.63278,8.38944 2.77477,10.37136 2.84326,1.65377 6.9087,0.61248 9.52191,-1.59455 2.61324,-2.207 4.08539,-5.3093 5.3603,-8.33807 1.27491,-3.02877 2.481,-6.16909 4.74709,-8.68442 l -2.35425,1.0991 a 20.57481,20.57481 0 0 0 1.02478,-7.00824 6.78736,6.78736 0 0 0 -3.62017,-5.69841 z"
         transform="translate(-91.08461,-73.86566)"
         fill="#2f2e41"
         id="path24" /><path
         d="m 357.35891,434.33256 -18.94574,10.73516 a 22.20182,22.20182 0 0 0 -8.37119,30.26159 v 0 A 34.46139,34.46139 0 0 0 374.1059,489.79 l -17.31232,-15.28291 23.48529,11.966 5.01433,-2.84125 c -25.18747,-4.57973 -30.0462,-24.3373 -27.93429,-49.29928 z"
         transform="translate(-91.08461,-73.86566)"
         fill="#2f2e41"
         id="path25" /></g><g
       id="g2"
       transform="matrix(0.56435235,0,0,0.28880821,0.11134145,-0.83983802)"><path
         d="m 0,142 16.7,-1.7 c 16.6,-1.6 50,-5 83.3,-7.5 33.3,-2.5 66.7,-4.1 100,3.5 33.3,7.7 66.7,24.7 100,33.5 33.3,8.9 66.7,9.5 100,3.7 33.3,-5.8 66.7,-18.2 100,-24 33.3,-5.8 66.7,-5.2 100,-7.7 33.3,-2.5 66.7,-8.1 100,-5.1 33.3,3 66.7,14.6 100,25.5 33.3,10.8 66.7,20.8 83.3,25.8 l 16.7,5 V 0 H 883.3 C 866.7,0 833.3,0 800,0 766.7,0 733.3,0 700,0 666.7,0 633.3,0 600,0 566.7,0 533.3,0 500,0 466.7,0 433.3,0 400,0 366.7,0 333.3,0 300,0 266.7,0 233.3,0 200,0 166.7,0 133.3,0 100,0 66.7,0 33.3,0 16.7,0 H 0 Z"
         fill="#e1e1e1"
         id="path1-6" /><path
         d="m 0,103 16.7,8 c 16.6,8 50,24 83.3,22.7 33.3,-1.4 66.7,-20 100,-18.5 33.3,1.5 66.7,23.1 100,32.8 33.3,9.7 66.7,7.3 100,1.3 33.3,-6 66.7,-15.6 100,-19.3 33.3,-3.7 66.7,-1.3 100,1.3 33.3,2.7 66.7,5.7 100,12.5 33.3,6.9 66.7,17.5 100,13.5 33.3,-4 66.7,-22.6 83.3,-32 L 900,116 V 0 H 883.3 C 866.7,0 833.3,0 800,0 766.7,0 733.3,0 700,0 666.7,0 633.3,0 600,0 566.7,0 533.3,0 500,0 466.7,0 433.3,0 400,0 366.7,0 333.3,0 300,0 266.7,0 233.3,0 200,0 166.7,0 133.3,0 100,0 66.7,0 33.3,0 16.7,0 H 0 Z"
         fill="#cdd6ca"
         id="path2-6" /><path
         d="m 0,167 16.7,-1.2 c 16.6,-1.1 50,-3.5 83.3,-13.6 33.3,-10.2 66.7,-28.2 100,-33.7 33.3,-5.5 66.7,1.5 100,4.5 33.3,3 66.7,2 100,5.7 33.3,3.6 66.7,12 100,19.5 33.3,7.5 66.7,14.1 100,17.5 33.3,3.3 66.7,3.3 100,0 33.3,-3.4 66.7,-10 100,-9.9 33.3,0.2 66.7,7.2 83.3,10.7 L 900,170 V 0 H 883.3 C 866.7,0 833.3,0 800,0 766.7,0 733.3,0 700,0 666.7,0 633.3,0 600,0 566.7,0 533.3,0 500,0 466.7,0 433.3,0 400,0 366.7,0 333.3,0 300,0 266.7,0 233.3,0 200,0 166.7,0 133.3,0 100,0 66.7,0 33.3,0 16.7,0 H 0 Z"
         fill="#bacbb4"
         id="path3-1" /><path
         d="m 0,135 16.7,-5.3 c 16.6,-5.4 50,-16 83.3,-14 33.3,2 66.7,16.6 100,21.3 33.3,4.7 66.7,-0.7 100,-1.8 33.3,-1.2 66.7,1.8 100,-7.2 33.3,-9 66.7,-30 100,-41.7 33.3,-11.6 66.7,-14 100,-6.6 33.3,7.3 66.7,24.3 100,31.6 33.3,7.4 66.7,5 100,3.5 33.3,-1.5 66.7,-2.1 83.3,-2.5 L 900,112 V 0 H 883.3 C 866.7,0 833.3,0 800,0 766.7,0 733.3,0 700,0 666.7,0 633.3,0 600,0 566.7,0 533.3,0 500,0 466.7,0 433.3,0 400,0 366.7,0 333.3,0 300,0 266.7,0 233.3,0 200,0 166.7,0 133.3,0 100,0 66.7,0 33.3,0 16.7,0 H 0 Z"
         fill="#a6c09e"
         id="path4-3" /><path
         d="m 0,131 16.7,0.3 c 16.6,0.4 50,1 83.3,-3.8 33.3,-4.8 66.7,-15.2 100,-18 33.3,-2.8 66.7,1.8 100,-4.5 33.3,-6.3 66.7,-23.7 100,-31.8 33.3,-8.2 66.7,-7.2 100,-6.5 33.3,0.6 66.7,1 100,11.6 33.3,10.7 66.7,31.7 100,30.7 33.3,-1 66.7,-24 100,-27.2 33.3,-3.1 66.7,13.5 83.3,21.9 L 900,112 V 0 H 883.3 C 866.7,0 833.3,0 800,0 766.7,0 733.3,0 700,0 666.7,0 633.3,0 600,0 566.7,0 533.3,0 500,0 466.7,0 433.3,0 400,0 366.7,0 333.3,0 300,0 266.7,0 233.3,0 200,0 166.7,0 133.3,0 100,0 66.7,0 33.3,0 16.7,0 H 0 Z"
         fill="#93b589"
         id="path5-7" /><path
         d="m 0,68 16.7,3.3 c 16.6,3.4 50,10 83.3,17.2 33.3,7.2 66.7,14.8 100,16.7 33.3,1.8 66.7,-2.2 100,-9.9 33.3,-7.6 66.7,-19 100,-23 33.3,-4 66.7,-0.6 100,-0.6 33.3,0 66.7,-3.4 100,2.1 33.3,5.5 66.7,19.9 100,18.7 33.3,-1.2 66.7,-17.8 100,-26.5 33.3,-8.7 66.7,-9.3 83.3,-9.7 L 900,56 V 0 H 883.3 C 866.7,0 833.3,0 800,0 766.7,0 733.3,0 700,0 666.7,0 633.3,0 600,0 566.7,0 533.3,0 500,0 466.7,0 433.3,0 400,0 366.7,0 333.3,0 300,0 266.7,0 233.3,0 200,0 166.7,0 133.3,0 100,0 66.7,0 33.3,0 16.7,0 H 0 Z"
         fill="#7fab73"
         id="path6-3" /><path
         d="m 0,41 16.7,6 c 16.6,6 50,18 83.3,20.2 33.3,2.1 66.7,-5.5 100,-8.2 33.3,-2.7 66.7,-0.3 100,3 33.3,3.3 66.7,7.7 100,5.7 33.3,-2 66.7,-10.4 100,-13.5 33.3,-3.2 66.7,-1.2 100,-2.2 33.3,-1 66.7,-5 100,-2 33.3,3 66.7,13 100,16.2 33.3,3.1 66.7,-0.5 83.3,-2.4 L 900,62 V 0 H 883.3 C 866.7,0 833.3,0 800,0 766.7,0 733.3,0 700,0 666.7,0 633.3,0 600,0 566.7,0 533.3,0 500,0 466.7,0 433.3,0 400,0 366.7,0 333.3,0 300,0 266.7,0 233.3,0 200,0 166.7,0 133.3,0 100,0 66.7,0 33.3,0 16.7,0 H 0 Z"
         fill="#6ba05e"
         id="path7-0" /><path
         d="M 0,46 16.7,45.5 C 33.3,45 66.7,44 100,43.2 c 33.3,-0.9 66.7,-1.5 100,-1.7 33.3,-0.2 66.7,0.2 100,-2 33.3,-2.2 66.7,-6.8 100,-2.5 33.3,4.3 66.7,17.7 100,21.8 C 533.3,63 566.7,58 600,52 633.3,46 666.7,39 700,36.2 733.3,33.3 766.7,34.7 800,33.8 833.3,33 866.7,30 883.3,28.5 L 900,27 V 0 H 883.3 C 866.7,0 833.3,0 800,0 766.7,0 733.3,0 700,0 666.7,0 633.3,0 600,0 566.7,0 533.3,0 500,0 466.7,0 433.3,0 400,0 366.7,0 333.3,0 300,0 266.7,0 233.3,0 200,0 166.7,0 133.3,0 100,0 66.7,0 33.3,0 16.7,0 H 0 Z"
         fill="#569549"
         id="path8-5" /><path
         d="M 0,52 16.7,46.5 C 33.3,41 66.7,30 100,24.5 133.3,19 166.7,19 200,23.2 c 33.3,4.1 66.7,12.5 100,15 33.3,2.5 66.7,-0.9 100,-1.4 33.3,-0.5 66.7,1.9 100,-0.5 33.3,-2.3 66.7,-9.3 100,-11.8 33.3,-2.5 66.7,-0.5 100,3 33.3,3.5 66.7,8.5 100,11.2 33.3,2.6 66.7,3 83.3,3.1 L 900,42 V 0 H 883.3 C 866.7,0 833.3,0 800,0 766.7,0 733.3,0 700,0 666.7,0 633.3,0 600,0 566.7,0 533.3,0 500,0 466.7,0 433.3,0 400,0 366.7,0 333.3,0 300,0 266.7,0 233.3,0 200,0 166.7,0 133.3,0 100,0 66.7,0 33.3,0 16.7,0 H 0 Z"
         fill="#3f8a33"
         id="path9-7" /><path
         d="m 0,11 16.7,3.7 c 16.6,3.6 50,11 83.3,14.3 33.3,3.3 66.7,2.7 100,-0.7 C 233.3,25 266.7,19 300,15.2 333.3,11.3 366.7,9.7 400,9 c 33.3,-0.7 66.7,-0.3 100,1 33.3,1.3 66.7,3.7 100,4.5 33.3,0.8 66.7,0.2 100,1.2 33.3,1 66.7,3.6 100,4.3 33.3,0.7 66.7,-0.7 83.3,-1.3 L 900,18 V 0 H 883.3 C 866.7,0 833.3,0 800,0 766.7,0 733.3,0 700,0 666.7,0 633.3,0 600,0 566.7,0 533.3,0 500,0 466.7,0 433.3,0 400,0 366.7,0 333.3,0 300,0 266.7,0 233.3,0 200,0 166.7,0 133.3,0 100,0 66.7,0 33.3,0 16.7,0 H 0 Z"
         fill="#227f1b"
         id="path10-5" /></g></g></svg>
