<svg width="1475" height="400" viewBox="0 0 1475 400" fill="none" xmlns="http://www.w3.org/2000/svg">
<mask id="path-1-inside-1_1125_224" fill="white">
<path d="M200 0V14.2857H0V0H200Z"/>
</mask>
<path d="M200 0V14.2857H0V0H200Z" fill="black"/>
<path d="M200 14.2857V33.5536H219.268V14.2857H200ZM200 0H219.268V-19.2679H200V0ZM0 0V-19.2679H-19.2679V0H0ZM0 14.2857H-19.2679V33.5536H0V14.2857ZM219.268 14.2857V0H180.732V14.2857H219.268ZM200 -19.2679H0V19.2679H200V-19.2679ZM-19.2679 0V14.2857H19.2679V0H-19.2679ZM0 33.5536H200V-4.98216H0V33.5536Z" fill="black" mask="url(#path-1-inside-1_1125_224)"/>
<mask id="path-3-inside-2_1125_224" fill="white">
<path d="M200 399.999V0H185.714V399.999H200Z"/>
</mask>
<path d="M200 399.999V0H185.714V399.999H200Z" fill="black"/>
<path d="M200 0H219.268V-19.2679H200V0ZM200 399.999V419.267H219.268V399.999H200ZM185.714 399.999H166.446V419.267H185.714V399.999ZM185.714 0V-19.2679H166.446V0H185.714ZM180.732 0V399.999H219.268V0H180.732ZM200 380.731H185.714V419.267H200V380.731ZM204.982 399.999V0H166.446V399.999H204.982ZM185.714 19.2679H200V-19.2679H185.714V19.2679Z" fill="black" mask="url(#path-3-inside-2_1125_224)"/>
<mask id="path-5-inside-3_1125_224" fill="white">
<path d="M400 399.999V0H385.714V399.999H400Z"/>
</mask>
<path d="M400 399.999V0H385.714V399.999H400Z" fill="black"/>
<path d="M400 0H419.268V-19.2679H400V0ZM400 399.999V419.267H419.268V399.999H400ZM385.714 399.999H366.446V419.267H385.714V399.999ZM385.714 0V-19.2679H366.446V0H385.714ZM380.732 0V399.999H419.268V0H380.732ZM400 380.731H385.714V419.267H400V380.731ZM404.982 399.999V0H366.446V399.999H404.982ZM385.714 19.2679H400V-19.2679H385.714V19.2679Z" fill="black" mask="url(#path-5-inside-3_1125_224)"/>
<mask id="path-7-inside-4_1125_224" fill="white">
<path d="M0 399.999L184.364 0H200L15.6357 399.999H0Z"/>
</mask>
<path d="M0 399.999L184.364 0H200L15.6357 399.999H0Z" fill="black"/>
<path d="M184.364 0V-19.2679H172.029L166.866 -8.06531L184.364 0ZM0 399.999L-17.4986 391.934L-30.0968 419.267H0V399.999ZM15.6357 399.999V419.267H27.9709L33.1343 408.065L15.6357 399.999ZM200 0L217.499 8.06531L230.097 -19.2679H200V0ZM166.866 -8.06531L-17.4986 391.934L17.4986 408.065L201.863 8.06531L166.866 -8.06531ZM0 419.267H15.6357V380.731H0V419.267ZM33.1343 408.065L217.499 8.06531L182.501 -8.06531L-1.86289 391.934L33.1343 408.065ZM200 -19.2679H184.364V19.2679H200V-19.2679Z" fill="black" mask="url(#path-7-inside-4_1125_224)"/>
<mask id="path-9-inside-5_1125_224" fill="white">
<path d="M400 399.999L200 0H184.364L384.364 399.999H400Z"/>
</mask>
<path d="M400 399.999L200 0H184.364L384.364 399.999H400Z" fill="black"/>
<path d="M200 0V-19.2679H211.908L217.234 -8.61686L200 0ZM400 399.999L417.234 391.382L431.176 419.267H400V399.999ZM384.364 399.999V419.267H372.456L367.131 408.616L384.364 399.999ZM184.364 0L167.131 8.61686L153.188 -19.2679H184.364V0ZM217.234 -8.61686L417.234 391.382L382.766 408.616L182.766 8.61686L217.234 -8.61686ZM400 419.267H384.364V380.731H400V419.267ZM367.131 408.616L167.131 8.61686L201.598 -8.61686L401.598 391.382L367.131 408.616ZM184.364 -19.2679H200V19.2679H184.364V-19.2679Z" fill="black" mask="url(#path-9-inside-5_1125_224)"/>
<mask id="path-11-inside-6_1125_224" fill="white">
<path d="M185.714 207.141V192.855H99.9998L92.8569 207.141H185.714Z"/>
</mask>
<path d="M185.714 207.141V192.855H99.9998L92.8569 207.141H185.714Z" fill="black"/>
<path d="M185.714 192.855H204.982V173.587H185.714V192.855ZM185.714 207.141V226.409H204.982V207.141H185.714ZM92.8569 207.141L75.6232 198.524L61.6809 226.409H92.8569V207.141ZM99.9998 192.855V173.587H88.0916L82.7661 184.238L99.9998 192.855ZM166.446 192.855V207.141H204.982V192.855H166.446ZM185.714 187.873H92.8569V226.409H185.714V187.873ZM110.091 215.758L117.233 201.472L82.7661 184.238L75.6232 198.524L110.091 215.758ZM99.9998 212.123H185.714V173.587H99.9998V212.123Z" fill="black" mask="url(#path-11-inside-6_1125_224)"/>
<path d="M292.857 192.857C317.484 192.857 341.103 203.769 358.517 223.192C375.931 242.615 385.714 268.959 385.714 296.428C385.714 323.897 375.931 350.24 358.517 369.664C341.103 389.087 317.484 399.999 292.857 399.999V385.713C314.088 385.713 334.448 376.306 349.461 359.562C364.473 342.818 372.906 320.108 372.906 296.428C372.906 272.748 364.473 250.038 349.461 233.293C334.448 216.549 314.088 207.142 292.857 207.142V192.857Z" fill="black"/>
<path d="M200 299.999C200 326.521 189.464 351.956 170.711 370.71C151.957 389.464 126.522 399.999 100 399.999C73.4784 399.999 48.043 389.464 29.2893 370.71C10.5357 351.956 4.00466e-06 326.521 0 299.999H13.7931C13.7931 322.863 22.8756 344.79 39.0425 360.957C55.2095 377.124 77.1365 386.206 100 386.206C122.863 386.206 144.791 377.124 160.957 360.957C177.124 344.79 186.207 322.863 186.207 299.999H200Z" fill="black"/>
<path d="M292.857 207.142C268.23 207.142 244.611 196.231 227.197 176.807C209.783 157.384 200 131.04 200 103.571C200 76.1024 209.783 49.7587 227.197 30.3353C244.611 10.9119 268.23 4.14767e-06 292.857 0V14.2825C271.626 14.2825 251.264 23.6897 236.252 40.4346C221.239 57.1794 212.805 79.8904 212.805 103.571C212.805 127.252 221.239 149.963 236.252 166.708C251.264 183.453 271.626 192.86 292.857 192.86V207.142Z" fill="black"/>
<mask id="path-16-inside-7_1125_224" fill="white">
<path d="M292.857 400V385.714H200V400H292.857Z"/>
</mask>
<path d="M292.857 400V385.714H200V400H292.857Z" fill="black"/>
<path d="M292.857 385.714H312.125V366.446H292.857V385.714ZM292.857 400V419.268H312.125V400H292.857ZM200 400H180.732V419.268H200V400ZM200 385.714V366.446H180.732V385.714H200ZM273.589 385.714V400H312.125V385.714H273.589ZM292.857 380.732H200V419.268H292.857V380.732ZM219.268 400V385.714H180.732V400H219.268ZM200 404.982H292.857V366.446H200V404.982Z" fill="black" mask="url(#path-16-inside-7_1125_224)"/>
<mask id="path-18-inside-8_1125_224" fill="white">
<path d="M385.714 14.2857V0H292.857V14.2857H385.714Z"/>
</mask>
<path d="M385.714 14.2857V0H292.857V14.2857H385.714Z" fill="black"/>
<path d="M385.714 0H404.982V-19.2679H385.714V0ZM385.714 14.2857V33.5536H404.982V14.2857H385.714ZM292.857 14.2857H273.589V33.5536H292.857V14.2857ZM292.857 0V-19.2679H273.589V0H292.857ZM366.446 0V14.2857H404.982V0H366.446ZM385.714 -4.98216H292.857V33.5536H385.714V-4.98216ZM312.125 14.2857V0H273.589V14.2857H312.125ZM292.857 19.2679H385.714V-19.2679H292.857V19.2679Z" fill="black" mask="url(#path-18-inside-8_1125_224)"/>
<path d="M543.128 271.372C541.691 271.372 539.731 271.307 537.248 271.176C534.765 271.045 532.217 270.719 529.604 270.196C526.991 269.673 524.769 268.889 522.94 267.844C521.241 266.668 520.392 265.165 520.392 263.336C520.392 262.552 520.588 260.919 520.98 258.436C521.503 255.823 522.221 253.405 523.136 251.184C524.181 248.963 525.553 247.787 527.252 247.656C528.167 247.656 529.473 247.983 531.172 248.636C533.001 249.159 535.484 249.42 538.62 249.42C545.807 249.42 550.968 247.721 554.104 244.324C557.24 240.796 558.808 235.243 558.808 227.664V138.092C558.808 134.172 562.271 132.212 569.196 132.212H574.292C581.217 132.212 584.68 134.172 584.68 138.092V230.212C584.68 238.444 583.243 245.696 580.368 251.968C577.624 258.109 573.181 262.879 567.04 266.276C561.029 269.673 553.059 271.372 543.128 271.372ZM638.059 271.372C627.867 271.372 620.223 268.759 615.127 263.532C610.031 258.175 607.483 251.184 607.483 242.56C607.483 237.072 608.594 232.107 610.815 227.664C613.037 223.221 616.434 219.432 621.007 216.296C625.711 213.029 631.853 210.612 639.431 209.044C647.01 207.345 656.157 206.431 666.871 206.3V198.852C666.871 194.932 665.499 191.796 662.755 189.444C660.142 187.092 655.699 185.916 649.427 185.916C644.331 185.916 639.889 186.504 636.099 187.68C632.31 188.856 629.239 190.032 626.887 191.208C624.666 192.384 623.163 192.972 622.379 192.972C621.203 192.972 619.897 192.057 618.459 190.228C617.022 188.399 615.781 186.373 614.735 184.152C613.821 181.931 613.363 180.297 613.363 179.252C613.363 177.161 614.997 175.136 618.263 173.176C621.53 171.085 625.973 169.387 631.591 168.08C637.341 166.773 643.678 166.12 650.603 166.12C660.142 166.12 667.917 167.492 673.927 170.236C679.938 172.849 684.381 176.573 687.255 181.408C690.13 186.112 691.567 191.665 691.567 198.068V237.464C691.567 243.736 691.763 248.701 692.155 252.36C692.547 255.888 692.939 258.567 693.331 260.396C693.723 262.095 693.919 263.467 693.919 264.512C693.919 265.557 693.201 266.472 691.763 267.256C690.326 267.909 688.562 268.497 686.471 269.02C684.381 269.412 682.355 269.739 680.395 270C678.435 270.131 676.933 270.196 675.887 270.196C673.927 270.196 672.49 269.477 671.575 268.04C670.661 266.472 670.007 264.643 669.615 262.552C669.223 260.331 668.831 258.371 668.439 256.672C667.263 258.109 665.369 260.004 662.755 262.356C660.142 264.708 656.81 266.799 652.759 268.628C648.709 270.457 643.809 271.372 638.059 271.372ZM644.723 251.576C649.689 251.576 654.001 250.335 657.659 247.852C661.449 245.239 664.519 242.168 666.871 238.64V223.744C662.037 223.744 657.529 224.005 653.347 224.528C649.297 225.051 645.638 225.9 642.371 227.076C639.235 228.252 636.818 229.951 635.119 232.172C633.421 234.263 632.571 236.941 632.571 240.208C632.571 243.736 633.551 246.545 635.511 248.636C637.602 250.596 640.673 251.576 644.723 251.576ZM729.772 270.392C722.847 270.392 719.384 268.497 719.384 264.708V200.42C719.384 194.279 719.188 189.444 718.796 185.916C718.404 182.388 718.012 179.709 717.62 177.88C717.228 176.051 717.032 174.679 717.032 173.764C717.032 172.719 717.751 171.869 719.188 171.216C720.625 170.432 722.389 169.844 724.48 169.452C726.571 168.929 728.596 168.603 730.556 168.472C732.647 168.211 734.149 168.08 735.064 168.08C737.024 168.08 738.461 168.799 739.376 170.236C740.291 171.673 740.944 173.372 741.336 175.332C741.859 177.292 742.316 179.121 742.708 180.82C745.975 176.769 750.156 173.307 755.252 170.432C760.479 167.557 766.163 166.12 772.304 166.12C782.235 166.12 789.683 168.799 794.648 174.156C799.613 179.383 802.096 187.288 802.096 197.872V264.708C802.096 268.497 798.633 270.392 791.708 270.392H787.984C781.059 270.392 777.596 268.497 777.596 264.708V201.204C777.596 196.631 776.42 193.103 774.068 190.62C771.716 188.007 767.992 186.7 762.896 186.7C758.715 186.7 754.991 188.007 751.724 190.62C748.588 193.233 746.04 195.977 744.08 198.852V264.708C744.08 268.497 740.617 270.392 733.692 270.392H729.772ZM838.874 270.392C831.948 270.392 828.486 268.497 828.486 264.708V200.42C828.486 194.279 828.29 189.444 827.898 185.916C827.506 182.388 827.114 179.709 826.722 177.88C826.33 176.051 826.134 174.679 826.134 173.764C826.134 172.719 826.852 171.869 828.29 171.216C829.727 170.432 831.491 169.844 833.582 169.452C835.672 168.929 837.698 168.603 839.658 168.472C841.748 168.211 843.251 168.08 844.166 168.08C846.126 168.08 847.563 168.799 848.478 170.236C849.392 171.673 850.046 173.372 850.438 175.332C850.96 177.292 851.418 179.121 851.81 180.82C855.076 176.769 859.258 173.307 864.354 170.432C869.58 167.557 875.264 166.12 881.406 166.12C891.336 166.12 898.784 168.799 903.75 174.156C908.715 179.383 911.198 187.288 911.198 197.872V264.708C911.198 268.497 907.735 270.392 900.81 270.392H897.086C890.16 270.392 886.698 268.497 886.698 264.708V201.204C886.698 196.631 885.522 193.103 883.17 190.62C880.818 188.007 877.094 186.7 871.998 186.7C867.816 186.7 864.092 188.007 860.826 190.62C857.69 193.233 855.142 195.977 853.182 198.852V264.708C853.182 268.497 849.719 270.392 842.794 270.392H838.874ZM947.975 270.392C941.05 270.392 937.587 268.497 937.587 264.708V172.784C937.587 168.995 941.05 167.1 947.975 167.1H951.895C958.821 167.1 962.283 168.995 962.283 172.784V264.708C962.283 268.497 958.821 270.392 951.895 270.392H947.975ZM949.935 156.124C945.493 156.124 942.291 155.667 940.331 154.752C938.371 153.707 937.391 152.269 937.391 150.44V136.328C937.391 134.499 938.371 133.127 940.331 132.212C942.291 131.297 945.493 130.84 949.935 130.84C954.378 130.84 957.579 131.297 959.539 132.212C961.499 133.127 962.479 134.499 962.479 136.328V150.44C962.479 152.269 961.499 153.707 959.539 154.752C957.579 155.667 954.378 156.124 949.935 156.124ZM1013.96 271.568C1008.86 271.568 1003.83 270.98 998.866 269.804C993.901 268.628 989.85 267.06 986.714 265.1C983.578 263.14 982.01 260.984 982.01 258.632C982.01 257.195 982.533 255.496 983.578 253.536C984.624 251.445 985.865 249.551 987.302 247.852C988.74 246.153 990.046 245.304 991.222 245.304C992.006 245.304 993.313 245.827 995.142 246.872C996.972 247.917 999.258 249.028 1002 250.204C1004.88 251.249 1008.21 251.772 1012 251.772C1021.67 251.772 1026.5 248.244 1026.5 241.188C1026.5 237.529 1024.87 234.785 1021.6 232.956C1018.34 230.996 1014.28 229.036 1009.45 227.076C1005.79 225.639 1002 223.875 998.082 221.784C994.162 219.693 990.896 216.688 988.282 212.768C985.669 208.848 984.362 203.556 984.362 196.892C984.362 190.489 985.8 185.001 988.674 180.428C991.549 175.855 995.6 172.327 1000.83 169.844C1006.05 167.231 1012.06 165.924 1018.86 165.924C1022.91 165.924 1027.09 166.316 1031.4 167.1C1035.84 167.884 1039.57 169.06 1042.57 170.628C1045.58 172.196 1047.08 174.091 1047.08 176.312C1047.08 177.619 1046.62 179.383 1045.71 181.604C1044.93 183.825 1043.95 185.851 1042.77 187.68C1041.72 189.379 1040.61 190.228 1039.44 190.228C1038.52 190.228 1036.63 189.509 1033.75 188.072C1030.88 186.504 1026.89 185.72 1021.8 185.72C1018.01 185.72 1014.94 186.504 1012.59 188.072C1010.23 189.509 1009.06 191.796 1009.06 194.932C1009.06 198.329 1010.36 200.943 1012.98 202.772C1015.72 204.471 1019.71 206.235 1024.93 208.064C1029.12 209.501 1033.17 211.396 1037.09 213.748C1041.14 215.969 1044.47 219.105 1047.08 223.156C1049.83 227.207 1051.2 232.564 1051.2 239.228C1051.2 245.5 1049.63 251.119 1046.49 256.084C1043.49 260.919 1039.24 264.708 1033.75 267.452C1028.27 270.196 1021.67 271.568 1013.96 271.568ZM1183.37 235.308C1180.36 235.308 1178.14 234.197 1176.7 231.976L1148.87 182.78C1147.95 181.473 1147.11 180.167 1146.32 178.86C1145.67 177.553 1145.01 176.181 1144.36 174.744L1143.58 174.94C1143.71 176.639 1143.77 178.337 1143.77 180.036C1143.77 181.604 1143.77 183.237 1143.77 184.936V264.708C1143.77 268.497 1140.31 270.392 1133.39 270.392H1129.07C1122.15 270.392 1118.69 268.497 1118.69 264.708V138.092C1118.69 134.303 1122.15 132.408 1129.07 132.408H1138.29C1141.03 132.408 1143.32 132.8 1145.15 133.584C1147.11 134.237 1148.48 135.413 1149.26 137.112L1183.37 197.284C1183.89 198.199 1184.41 199.244 1184.93 200.42C1185.59 201.465 1186.11 202.576 1186.5 203.752C1186.89 202.576 1187.42 201.4 1188.07 200.224C1188.72 199.048 1189.25 198.003 1189.64 197.088L1223.74 137.112C1224.66 135.413 1226.03 134.237 1227.86 133.584C1229.82 132.8 1232.1 132.408 1234.72 132.408H1243.73C1250.66 132.408 1254.12 134.303 1254.12 138.092V264.708C1254.12 268.497 1250.66 270.392 1243.73 270.392H1239.42C1232.5 270.392 1229.03 268.497 1229.03 264.708V185.328C1229.03 183.629 1229.03 181.996 1229.03 180.428C1229.16 178.729 1229.23 177.031 1229.23 175.332L1228.45 175.136C1227.79 176.573 1227.07 177.945 1226.29 179.252C1225.64 180.559 1224.85 181.865 1223.94 183.172L1196.3 231.976C1194.86 234.197 1192.64 235.308 1189.64 235.308H1183.37ZM1293.08 270.392C1286.16 270.392 1282.69 268.497 1282.69 264.708V172.784C1282.69 168.995 1286.16 167.1 1293.08 167.1H1297C1303.93 167.1 1307.39 168.995 1307.39 172.784V264.708C1307.39 268.497 1303.93 270.392 1297 270.392H1293.08ZM1295.04 156.124C1290.6 156.124 1287.4 155.667 1285.44 154.752C1283.48 153.707 1282.5 152.269 1282.5 150.44V136.328C1282.5 134.499 1283.48 133.127 1285.44 132.212C1287.4 131.297 1290.6 130.84 1295.04 130.84C1299.48 130.84 1302.68 131.297 1304.64 132.212C1306.6 133.127 1307.58 134.499 1307.58 136.328V150.44C1307.58 152.269 1306.6 153.707 1304.64 154.752C1302.68 155.667 1299.48 156.124 1295.04 156.124ZM1362 271.372C1358.08 271.372 1354.43 270.849 1351.03 269.804C1347.76 268.759 1344.89 267.06 1342.4 264.708C1339.92 262.356 1337.96 259.285 1336.52 255.496C1335.22 251.576 1334.56 246.872 1334.56 241.384V127.9C1334.56 124.241 1338.03 122.412 1344.95 122.412H1348.68C1355.6 122.412 1359.06 124.241 1359.06 127.9V240.992C1359.06 244.912 1359.78 247.656 1361.22 249.224C1362.79 250.792 1364.88 251.576 1367.49 251.576C1369.06 251.576 1370.3 251.445 1371.22 251.184C1372.26 250.923 1373.11 250.792 1373.76 250.792C1374.94 250.792 1375.92 251.707 1376.7 253.536C1377.49 255.365 1378.08 257.325 1378.47 259.416C1378.99 261.376 1379.25 262.617 1379.25 263.14C1379.25 265.623 1378.21 267.517 1376.12 268.824C1374.03 270 1371.61 270.719 1368.86 270.98C1366.25 271.241 1363.96 271.372 1362 271.372ZM1390.2 270C1389.55 270 1388.77 269.216 1387.85 267.648C1387.07 266.08 1386.35 264.316 1385.7 262.356C1385.17 260.265 1384.91 258.436 1384.91 256.868C1384.91 255.692 1385.11 254.843 1385.5 254.32L1434.89 187.288H1393.54C1390.14 187.288 1388.44 184.479 1388.44 178.86V175.92C1388.44 170.301 1390.14 167.492 1393.54 167.492H1462.72C1463.51 167.492 1464.29 168.276 1465.08 169.844C1465.86 171.412 1466.51 173.241 1467.04 175.332C1467.56 177.423 1467.82 179.252 1467.82 180.82C1467.82 181.996 1467.69 182.911 1467.43 183.564L1418.23 250.204H1463.31C1466.71 250.204 1468.41 253.013 1468.41 258.632V261.572C1468.41 267.191 1466.71 270 1463.31 270H1390.2Z" fill="black"/>
</svg>
