<svg width="54" height="14" viewBox="0 0 54 14" fill="none" xmlns="http://www.w3.org/2000/svg">
<path d="M1.45215 2.39941V5.20215H2.85352C3.04557 5.20215 3.22624 5.16634 3.39551 5.09473C3.56478 5.01986 3.71289 4.91895 3.83984 4.79199C3.9668 4.66504 4.06608 4.51693 4.1377 4.34766C4.21257 4.17513 4.25 3.99284 4.25 3.80078C4.25 3.60872 4.21257 3.42806 4.1377 3.25879C4.06608 3.08626 3.9668 2.93652 3.83984 2.80957C3.71289 2.68262 3.56478 2.58333 3.39551 2.51172C3.22624 2.43685 3.04557 2.39941 2.85352 2.39941H1.45215ZM1.45215 8H0.0507812V0.998047H2.85352C3.11068 0.998047 3.35807 1.03223 3.5957 1.10059C3.83333 1.16569 4.05469 1.26009 4.25977 1.38379C4.4681 1.50423 4.6569 1.65072 4.82617 1.82324C4.9987 1.99251 5.14518 2.18132 5.26562 2.38965C5.38932 2.59798 5.48372 2.82096 5.54883 3.05859C5.61719 3.29622 5.65137 3.54362 5.65137 3.80078C5.65137 4.1849 5.57812 4.54785 5.43164 4.88965C5.28516 5.22819 5.08496 5.52441 4.83105 5.77832C4.57715 6.03223 4.2793 6.23242 3.9375 6.37891C3.59896 6.52539 3.23763 6.59863 2.85352 6.59863H1.45215V8ZM10.5977 5.20215V3.80078C10.5977 3.60872 10.5602 3.42806 10.4854 3.25879C10.4137 3.08626 10.3145 2.93652 10.1875 2.80957C10.0605 2.68262 9.91081 2.58333 9.73828 2.51172C9.56901 2.43685 9.38835 2.39941 9.19629 2.39941C9.00423 2.39941 8.82194 2.43685 8.64941 2.51172C8.48014 2.58333 8.33203 2.68262 8.20508 2.80957C8.07812 2.93652 7.97721 3.08626 7.90234 3.25879C7.83073 3.42806 7.79492 3.60872 7.79492 3.80078V5.20215H10.5977ZM11.999 8H10.5977V6.59863H7.79492V8H6.39844V3.80078C6.39844 3.41341 6.47168 3.05046 6.61816 2.71191C6.76465 2.37012 6.96322 2.07227 7.21387 1.81836C7.46777 1.56445 7.764 1.36426 8.10254 1.21777C8.44434 1.07129 8.80892 0.998047 9.19629 0.998047C9.58366 0.998047 9.94661 1.07129 10.2852 1.21777C10.627 1.36426 10.9248 1.56445 11.1787 1.81836C11.4326 2.07227 11.6328 2.37012 11.7793 2.71191C11.9258 3.05046 11.999 3.41341 11.999 3.80078V8ZM15.9395 8H14.543V2.39941H12.4385V0.998047H18.0391V2.39941H15.9395V8ZM27.1748 7.28223C26.8493 7.56217 26.4847 7.77702 26.0811 7.92676C25.6774 8.0765 25.2591 8.15137 24.8262 8.15137C24.4941 8.15137 24.1735 8.10742 23.8643 8.01953C23.5583 7.9349 23.2702 7.81445 23 7.6582C22.7331 7.4987 22.4889 7.30827 22.2676 7.08691C22.0462 6.86556 21.8558 6.62142 21.6963 6.35449C21.54 6.08431 21.418 5.79622 21.3301 5.49023C21.2454 5.18099 21.2031 4.86035 21.2031 4.52832C21.2031 4.19629 21.2454 3.87565 21.3301 3.56641C21.418 3.25716 21.54 2.96908 21.6963 2.70215C21.8558 2.43197 22.0462 2.1862 22.2676 1.96484C22.4889 1.74349 22.7331 1.55469 23 1.39844C23.2702 1.23893 23.5583 1.11686 23.8643 1.03223C24.1735 0.944336 24.4941 0.900391 24.8262 0.900391C25.2591 0.900391 25.6774 0.97526 26.0811 1.125C26.4847 1.27148 26.8493 1.48633 27.1748 1.76953L26.4326 2.99023C26.2275 2.76888 25.985 2.59961 25.7051 2.48242C25.4251 2.36198 25.1322 2.30176 24.8262 2.30176C24.5169 2.30176 24.2272 2.36035 23.957 2.47754C23.6868 2.59473 23.4508 2.75423 23.249 2.95605C23.0472 3.15462 22.8877 3.39062 22.7705 3.66406C22.6533 3.93424 22.5947 4.22233 22.5947 4.52832C22.5947 4.83431 22.6533 5.1224 22.7705 5.39258C22.8877 5.65951 23.0472 5.89388 23.249 6.0957C23.4508 6.29753 23.6868 6.45703 23.957 6.57422C24.2272 6.69141 24.5169 6.75 24.8262 6.75C25.1322 6.75 25.4251 6.69141 25.7051 6.57422C25.985 6.45378 26.2275 6.28288 26.4326 6.06152L27.1748 7.28223ZM32.8926 8H27.9902V0.998047H29.3916V6.59863H32.8926V8ZM40.2412 4.52832C40.2412 4.86035 40.1973 5.18099 40.1094 5.49023C40.0247 5.79622 39.9043 6.08431 39.748 6.35449C39.5918 6.62142 39.403 6.86556 39.1816 7.08691C38.9603 7.30827 38.7161 7.4987 38.4492 7.6582C38.1823 7.81445 37.8942 7.9349 37.585 8.01953C37.2757 8.10742 36.9551 8.15137 36.623 8.15137C36.291 8.15137 35.9704 8.10742 35.6611 8.01953C35.3551 7.9349 35.0671 7.81445 34.7969 7.6582C34.5299 7.4987 34.2858 7.30827 34.0645 7.08691C33.8431 6.86556 33.6527 6.62142 33.4932 6.35449C33.3369 6.08431 33.2148 5.79622 33.127 5.49023C33.0423 5.18099 33 4.86035 33 4.52832C33 4.19629 33.0423 3.87565 33.127 3.56641C33.2148 3.25716 33.3369 2.96908 33.4932 2.70215C33.6527 2.43522 33.8431 2.19108 34.0645 1.96973C34.2858 1.74837 34.5299 1.55957 34.7969 1.40332C35.0671 1.24707 35.3551 1.12663 35.6611 1.04199C35.9704 0.954102 36.291 0.910156 36.623 0.910156C36.9551 0.910156 37.2757 0.954102 37.585 1.04199C37.8942 1.12663 38.1823 1.24707 38.4492 1.40332C38.7161 1.55957 38.9603 1.74837 39.1816 1.96973C39.403 2.19108 39.5918 2.43522 39.748 2.70215C39.9043 2.96908 40.0247 3.25716 40.1094 3.56641C40.1973 3.87565 40.2412 4.19629 40.2412 4.52832ZM38.8496 4.52832C38.8496 4.22233 38.791 3.93424 38.6738 3.66406C38.5566 3.39062 38.3971 3.15462 38.1953 2.95605C37.9967 2.75423 37.7607 2.59473 37.4873 2.47754C37.2171 2.36035 36.929 2.30176 36.623 2.30176C36.3138 2.30176 36.0241 2.36035 35.7539 2.47754C35.4837 2.59473 35.2477 2.75423 35.0459 2.95605C34.8441 3.15462 34.6846 3.39062 34.5674 3.66406C34.4502 3.93424 34.3916 4.22233 34.3916 4.52832C34.3916 4.83431 34.4502 5.1224 34.5674 5.39258C34.6846 5.65951 34.8441 5.89388 35.0459 6.0957C35.2477 6.29753 35.4837 6.45703 35.7539 6.57422C36.0241 6.69141 36.3138 6.75 36.623 6.75C36.929 6.75 37.2171 6.69141 37.4873 6.57422C37.7607 6.45703 37.9967 6.29753 38.1953 6.0957C38.3971 5.89388 38.5566 5.65951 38.6738 5.39258C38.791 5.1224 38.8496 4.83431 38.8496 4.52832ZM46.6865 5.20215C46.6865 5.58952 46.6133 5.9541 46.4668 6.2959C46.3203 6.63444 46.1201 6.93066 45.8662 7.18457C45.6123 7.43522 45.3145 7.63379 44.9727 7.78027C44.6341 7.92676 44.2712 8 43.8838 8C43.4964 8 43.1318 7.92676 42.79 7.78027C42.4515 7.63379 42.1553 7.43522 41.9014 7.18457C41.6507 6.93066 41.4521 6.63444 41.3057 6.2959C41.1592 5.9541 41.0859 5.58952 41.0859 5.20215V0.998047H42.4824V5.20215C42.4824 5.39421 42.5182 5.57487 42.5898 5.74414C42.6647 5.91341 42.7656 6.06152 42.8926 6.18848C43.0195 6.31543 43.1676 6.41634 43.3369 6.49121C43.5094 6.56283 43.6917 6.59863 43.8838 6.59863C44.0758 6.59863 44.2565 6.56283 44.4258 6.49121C44.5983 6.41634 44.748 6.31543 44.875 6.18848C45.002 6.06152 45.1012 5.91341 45.1729 5.74414C45.2477 5.57487 45.2852 5.39421 45.2852 5.20215V0.998047H46.6865V5.20215ZM53.5127 4.49902C53.5127 4.82129 53.4704 5.13216 53.3857 5.43164C53.3044 5.72786 53.1872 6.00618 53.0342 6.2666C52.8812 6.52376 52.6989 6.75977 52.4873 6.97461C52.2757 7.1862 52.0397 7.36849 51.7793 7.52148C51.5189 7.67448 51.2389 7.79329 50.9395 7.87793C50.6432 7.95931 50.334 8 50.0117 8H47.9023V0.998047H50.0117C50.334 0.998047 50.6432 1.04036 50.9395 1.125C51.2389 1.20638 51.5189 1.32357 51.7793 1.47656C52.0397 1.62956 52.2757 1.81348 52.4873 2.02832C52.6989 2.23991 52.8812 2.47591 53.0342 2.73633C53.1872 2.99349 53.3044 3.27181 53.3857 3.57129C53.4704 3.86751 53.5127 4.17676 53.5127 4.49902ZM52.1113 4.49902C52.1113 4.20931 52.056 3.9375 51.9453 3.68359C51.8379 3.42969 51.6882 3.20833 51.4961 3.01953C51.3073 2.82747 51.0843 2.67611 50.8271 2.56543C50.5732 2.45475 50.3014 2.39941 50.0117 2.39941H49.3135V6.59863H50.0117C50.3014 6.59863 50.5732 6.54492 50.8271 6.4375C51.0843 6.32682 51.3073 6.17708 51.4961 5.98828C51.6882 5.79622 51.8379 5.57324 51.9453 5.31934C52.056 5.06217 52.1113 4.78874 52.1113 4.49902ZM12.5 11.0391C12.5 10.9232 12.5221 10.8145 12.5664 10.7129C12.6107 10.6113 12.6706 10.5228 12.7461 10.4473C12.8229 10.3704 12.9121 10.3099 13.0137 10.2656C13.1152 10.2214 13.224 10.1992 13.3398 10.1992H14.625V10.7598H13.3398C13.3008 10.7598 13.2643 10.7669 13.2305 10.7812C13.1966 10.7956 13.1667 10.8158 13.1406 10.8418C13.1159 10.8665 13.0964 10.8958 13.082 10.9297C13.0677 10.9635 13.0605 11 13.0605 11.0391C13.0605 11.0781 13.0677 11.1152 13.082 11.1504C13.0964 11.1842 13.1159 11.2142 13.1406 11.2402C13.1667 11.265 13.1966 11.2845 13.2305 11.2988C13.2643 11.3132 13.3008 11.3203 13.3398 11.3203H13.9004C14.0163 11.3203 14.125 11.3424 14.2266 11.3867C14.3294 11.4297 14.4186 11.4896 14.4941 11.5664C14.571 11.6419 14.6309 11.7311 14.6738 11.834C14.7181 11.9355 14.7402 12.0443 14.7402 12.1602C14.7402 12.276 14.7181 12.3848 14.6738 12.4863C14.6309 12.5879 14.571 12.6771 14.4941 12.7539C14.4186 12.8294 14.3294 12.8893 14.2266 12.9336C14.125 12.9779 14.0163 13 13.9004 13H12.6562V12.4395H13.9004C13.9395 12.4395 13.9759 12.4323 14.0098 12.418C14.0436 12.4036 14.0729 12.3841 14.0977 12.3594C14.1237 12.3333 14.1439 12.3034 14.1582 12.2695C14.1725 12.2357 14.1797 12.1992 14.1797 12.1602C14.1797 12.1211 14.1725 12.0846 14.1582 12.0508C14.1439 12.0169 14.1237 11.9876 14.0977 11.9629C14.0729 11.9368 14.0436 11.9167 14.0098 11.9023C13.9759 11.888 13.9395 11.8809 13.9004 11.8809H13.3398C13.224 11.8809 13.1152 11.8587 13.0137 11.8145C12.9121 11.7702 12.8229 11.7103 12.7461 11.6348C12.6706 11.5579 12.6107 11.4688 12.5664 11.3672C12.5221 11.2643 12.5 11.1549 12.5 11.0391ZM18.9746 11.6113C18.9746 11.7441 18.957 11.8724 18.9219 11.9961C18.888 12.1185 18.8398 12.2337 18.7773 12.3418C18.7148 12.4486 18.6393 12.5462 18.5508 12.6348C18.4622 12.7233 18.3646 12.7995 18.2578 12.8633C18.151 12.9258 18.0358 12.974 17.9121 13.0078C17.7884 13.043 17.6602 13.0605 17.5273 13.0605C17.3945 13.0605 17.2663 13.043 17.1426 13.0078C17.0202 12.974 16.9049 12.9258 16.7969 12.8633C16.6901 12.7995 16.5924 12.7233 16.5039 12.6348C16.4154 12.5462 16.3392 12.4486 16.2754 12.3418C16.2129 12.2337 16.1641 12.1185 16.1289 11.9961C16.0951 11.8724 16.0781 11.7441 16.0781 11.6113C16.0781 11.4785 16.0951 11.3503 16.1289 11.2266C16.1641 11.1029 16.2129 10.9876 16.2754 10.8809C16.3392 10.7741 16.4154 10.6764 16.5039 10.5879C16.5924 10.4993 16.6901 10.4238 16.7969 10.3613C16.9049 10.2988 17.0202 10.2507 17.1426 10.2168C17.2663 10.1816 17.3945 10.1641 17.5273 10.1641C17.6602 10.1641 17.7884 10.1816 17.9121 10.2168C18.0358 10.2507 18.151 10.2988 18.2578 10.3613C18.3646 10.4238 18.4622 10.4993 18.5508 10.5879C18.6393 10.6764 18.7148 10.7741 18.7773 10.8809C18.8398 10.9876 18.888 11.1029 18.9219 11.2266C18.957 11.3503 18.9746 11.4785 18.9746 11.6113ZM18.418 11.6113C18.418 11.4889 18.3945 11.3737 18.3477 11.2656C18.3008 11.1562 18.237 11.0618 18.1562 10.9824C18.0768 10.9017 17.9824 10.8379 17.873 10.791C17.765 10.7441 17.6497 10.7207 17.5273 10.7207C17.4036 10.7207 17.2878 10.7441 17.1797 10.791C17.0716 10.8379 16.9772 10.9017 16.8965 10.9824C16.8158 11.0618 16.752 11.1562 16.7051 11.2656C16.6582 11.3737 16.6348 11.4889 16.6348 11.6113C16.6348 11.7337 16.6582 11.849 16.7051 11.957C16.752 12.0638 16.8158 12.1576 16.8965 12.2383C16.9772 12.319 17.0716 12.3828 17.1797 12.4297C17.2878 12.4766 17.4036 12.5 17.5273 12.5C17.6497 12.5 17.765 12.4766 17.873 12.4297C17.9824 12.3828 18.0768 12.319 18.1562 12.2383C18.237 12.1576 18.3008 12.0638 18.3477 11.957C18.3945 11.849 18.418 11.7337 18.418 11.6113ZM22.4258 13H20.4648V10.1992H21.0254V12.4395H22.4258V13ZM26.0488 11.8809C26.0488 12.0358 26.0195 12.1816 25.9609 12.3184C25.9023 12.4538 25.8223 12.5723 25.7207 12.6738C25.6191 12.7741 25.5 12.8535 25.3633 12.9121C25.2279 12.9707 25.0827 13 24.9277 13C24.7728 13 24.627 12.9707 24.4902 12.9121C24.3548 12.8535 24.2363 12.7741 24.1348 12.6738C24.0345 12.5723 23.9551 12.4538 23.8965 12.3184C23.8379 12.1816 23.8086 12.0358 23.8086 11.8809V10.1992H24.3672V11.8809C24.3672 11.9577 24.3815 12.0299 24.4102 12.0977C24.4401 12.1654 24.4805 12.2246 24.5312 12.2754C24.582 12.3262 24.6413 12.3665 24.709 12.3965C24.778 12.4251 24.8509 12.4395 24.9277 12.4395C25.0046 12.4395 25.0768 12.4251 25.1445 12.3965C25.2135 12.3665 25.2734 12.3262 25.3242 12.2754C25.375 12.2246 25.4147 12.1654 25.4434 12.0977C25.4733 12.0299 25.4883 11.9577 25.4883 11.8809V10.1992H26.0488V11.8809ZM28.832 13H28.2734V10.7598H27.4316V10.1992H29.6719V10.7598H28.832V13ZM31.6504 13H31.0898V10.1992H31.6504V13ZM36.0371 11.6113C36.0371 11.7441 36.0195 11.8724 35.9844 11.9961C35.9505 12.1185 35.9023 12.2337 35.8398 12.3418C35.7773 12.4486 35.7018 12.5462 35.6133 12.6348C35.5247 12.7233 35.4271 12.7995 35.3203 12.8633C35.2135 12.9258 35.0983 12.974 34.9746 13.0078C34.8509 13.043 34.7227 13.0605 34.5898 13.0605C34.457 13.0605 34.3288 13.043 34.2051 13.0078C34.0827 12.974 33.9674 12.9258 33.8594 12.8633C33.7526 12.7995 33.6549 12.7233 33.5664 12.6348C33.4779 12.5462 33.4017 12.4486 33.3379 12.3418C33.2754 12.2337 33.2266 12.1185 33.1914 11.9961C33.1576 11.8724 33.1406 11.7441 33.1406 11.6113C33.1406 11.4785 33.1576 11.3503 33.1914 11.2266C33.2266 11.1029 33.2754 10.9876 33.3379 10.8809C33.4017 10.7741 33.4779 10.6764 33.5664 10.5879C33.6549 10.4993 33.7526 10.4238 33.8594 10.3613C33.9674 10.2988 34.0827 10.2507 34.2051 10.2168C34.3288 10.1816 34.457 10.1641 34.5898 10.1641C34.7227 10.1641 34.8509 10.1816 34.9746 10.2168C35.0983 10.2507 35.2135 10.2988 35.3203 10.3613C35.4271 10.4238 35.5247 10.4993 35.6133 10.5879C35.7018 10.6764 35.7773 10.7741 35.8398 10.8809C35.9023 10.9876 35.9505 11.1029 35.9844 11.2266C36.0195 11.3503 36.0371 11.4785 36.0371 11.6113ZM35.4805 11.6113C35.4805 11.4889 35.457 11.3737 35.4102 11.2656C35.3633 11.1562 35.2995 11.0618 35.2188 10.9824C35.1393 10.9017 35.0449 10.8379 34.9355 10.791C34.8275 10.7441 34.7122 10.7207 34.5898 10.7207C34.4661 10.7207 34.3503 10.7441 34.2422 10.791C34.1341 10.8379 34.0397 10.9017 33.959 10.9824C33.8783 11.0618 33.8145 11.1562 33.7676 11.2656C33.7207 11.3737 33.6973 11.4889 33.6973 11.6113C33.6973 11.7337 33.7207 11.849 33.7676 11.957C33.8145 12.0638 33.8783 12.1576 33.959 12.2383C34.0397 12.319 34.1341 12.3828 34.2422 12.4297C34.3503 12.4766 34.4661 12.5 34.5898 12.5C34.7122 12.5 34.8275 12.4766 34.9355 12.4297C35.0449 12.3828 35.1393 12.319 35.2188 12.2383C35.2995 12.1576 35.3633 12.0638 35.4102 11.957C35.457 11.849 35.4805 11.7337 35.4805 11.6113ZM39.7676 13H39.168L38.0879 11.1562V13H37.5273V10.1992H38.127L39.207 12.0449V10.1992H39.7676V13ZM41.2461 11.0391C41.2461 10.9232 41.2682 10.8145 41.3125 10.7129C41.3568 10.6113 41.4167 10.5228 41.4922 10.4473C41.569 10.3704 41.6582 10.3099 41.7598 10.2656C41.8613 10.2214 41.9701 10.1992 42.0859 10.1992H43.3711V10.7598H42.0859C42.0469 10.7598 42.0104 10.7669 41.9766 10.7812C41.9427 10.7956 41.9128 10.8158 41.8867 10.8418C41.862 10.8665 41.8424 10.8958 41.8281 10.9297C41.8138 10.9635 41.8066 11 41.8066 11.0391C41.8066 11.0781 41.8138 11.1152 41.8281 11.1504C41.8424 11.1842 41.862 11.2142 41.8867 11.2402C41.9128 11.265 41.9427 11.2845 41.9766 11.2988C42.0104 11.3132 42.0469 11.3203 42.0859 11.3203H42.6465C42.7624 11.3203 42.8711 11.3424 42.9727 11.3867C43.0755 11.4297 43.1647 11.4896 43.2402 11.5664C43.3171 11.6419 43.377 11.7311 43.4199 11.834C43.4642 11.9355 43.4863 12.0443 43.4863 12.1602C43.4863 12.276 43.4642 12.3848 43.4199 12.4863C43.377 12.5879 43.3171 12.6771 43.2402 12.7539C43.1647 12.8294 43.0755 12.8893 42.9727 12.9336C42.8711 12.9779 42.7624 13 42.6465 13H41.4023V12.4395H42.6465C42.6855 12.4395 42.722 12.4323 42.7559 12.418C42.7897 12.4036 42.819 12.3841 42.8438 12.3594C42.8698 12.3333 42.89 12.3034 42.9043 12.2695C42.9186 12.2357 42.9258 12.1992 42.9258 12.1602C42.9258 12.1211 42.9186 12.0846 42.9043 12.0508C42.89 12.0169 42.8698 11.9876 42.8438 11.9629C42.819 11.9368 42.7897 11.9167 42.7559 11.9023C42.722 11.888 42.6855 11.8809 42.6465 11.8809H42.0859C41.9701 11.8809 41.8613 11.8587 41.7598 11.8145C41.6582 11.7702 41.569 11.7103 41.4922 11.6348C41.4167 11.5579 41.3568 11.4688 41.3125 11.3672C41.2682 11.2643 41.2461 11.1549 41.2461 11.0391Z" fill="#0E0E0E"/>
</svg>
