<svg width="227" height="59" viewBox="0 0 227 59" fill="none" xmlns="http://www.w3.org/2000/svg">
<path d="M27.4386 55.825C23.5886 55.825 19.9886 55.125 16.6386 53.725C13.3386 52.325 10.4386 50.4 7.93857 47.95C5.43857 45.45 3.48857 42.55 2.08857 39.25C0.738574 35.9 0.0635743 32.325 0.0635743 28.525C0.0635743 24.725 0.738574 21.2 2.08857 17.95C3.48857 14.65 5.41357 11.775 7.86357 9.325C10.3636 6.825 13.2636 4.9 16.5636 3.55C19.8636 2.15 23.4386 1.45 27.2886 1.45C31.1386 1.45 34.7136 2.15 38.0136 3.55C41.3136 4.9 44.2136 6.825 46.7136 9.325C49.2136 11.775 51.1386 14.65 52.4886 17.95C53.8886 21.25 54.5886 24.8 54.5886 28.6C54.5886 32.4 53.8886 35.95 52.4886 39.25C51.1386 42.55 49.2136 45.45 46.7136 47.95C44.2636 50.4 41.3886 52.325 38.0886 53.725C34.7886 55.125 31.2386 55.825 27.4386 55.825ZM27.2886 46.3C30.6386 46.3 33.5636 45.55 36.0636 44.05C38.6136 42.55 40.5886 40.475 41.9886 37.825C43.4386 35.175 44.1636 32.075 44.1636 28.525C44.1636 25.925 43.7386 23.55 42.8886 21.4C42.0886 19.25 40.9386 17.4 39.4386 15.85C37.9386 14.25 36.1636 13.025 34.1136 12.175C32.0636 11.325 29.7886 10.9 27.2886 10.9C23.9886 10.9 21.0636 11.65 18.5136 13.15C16.0136 14.6 14.0386 16.65 12.5886 19.3C11.1886 21.95 10.4886 25.025 10.4886 28.525C10.4886 31.175 10.8886 33.6 11.6886 35.8C12.5386 38 13.6886 39.875 15.1386 41.425C16.6386 42.975 18.4136 44.175 20.4636 45.025C22.5636 45.875 24.8386 46.3 27.2886 46.3ZM51.2136 58.9L27.0636 34.75L33.2136 28.525L57.4386 52.75L51.2136 58.9ZM78.612 55.75C75.412 55.75 72.562 55.075 70.062 53.725C67.612 52.375 65.687 50.5 64.287 48.1C62.887 45.7 62.187 42.925 62.187 39.775V18.775H72.087V39.55C72.087 41.05 72.337 42.35 72.837 43.45C73.337 44.5 74.087 45.3 75.087 45.85C76.087 46.4 77.262 46.675 78.612 46.675C80.662 46.675 82.262 46.05 83.412 44.8C84.562 43.55 85.137 41.8 85.137 39.55V18.775H94.962V39.775C94.962 42.975 94.262 45.775 92.862 48.175C91.512 50.575 89.587 52.45 87.087 53.8C84.637 55.1 81.812 55.75 78.612 55.75ZM122.886 55.75C120.286 55.75 117.936 55.2 115.836 54.1C113.736 53 112.061 51.5 110.811 49.6C109.561 47.7 108.886 45.575 108.786 43.225V30.325C108.886 27.975 109.561 25.875 110.811 24.025C112.111 22.125 113.811 20.65 115.911 19.6C118.011 18.55 120.336 18.025 122.886 18.025C126.236 18.025 129.236 18.85 131.886 20.5C134.536 22.15 136.611 24.4 138.111 27.25C139.661 30.1 140.436 33.325 140.436 36.925C140.436 40.475 139.661 43.675 138.111 46.525C136.611 49.375 134.536 51.625 131.886 53.275C129.236 54.925 126.236 55.75 122.886 55.75ZM121.236 46.675C123.036 46.675 124.611 46.275 125.961 45.475C127.361 44.625 128.436 43.475 129.186 42.025C129.986 40.525 130.386 38.8 130.386 36.85C130.386 34.95 129.986 33.275 129.186 31.825C128.436 30.325 127.361 29.175 125.961 28.375C124.561 27.525 122.961 27.1 121.161 27.1C119.361 27.1 117.761 27.525 116.361 28.375C115.011 29.175 113.936 30.325 113.136 31.825C112.386 33.275 112.011 34.95 112.011 36.85C112.011 38.8 112.386 40.525 113.136 42.025C113.936 43.475 115.036 44.625 116.436 45.475C117.836 46.275 119.436 46.675 121.236 46.675ZM102.786 55V0.774996H112.611V27.7L110.961 36.4L112.536 45.25V55H102.786ZM166.978 55.75C164.378 55.75 162.028 55.2 159.928 54.1C157.828 53 156.153 51.5 154.903 49.6C153.653 47.7 152.978 45.575 152.878 43.225V30.325C152.978 27.975 153.653 25.875 154.903 24.025C156.203 22.125 157.903 20.65 160.003 19.6C162.103 18.55 164.428 18.025 166.978 18.025C170.328 18.025 173.328 18.85 175.978 20.5C178.628 22.15 180.703 24.4 182.203 27.25C183.753 30.1 184.528 33.325 184.528 36.925C184.528 40.475 183.753 43.675 182.203 46.525C180.703 49.375 178.628 51.625 175.978 53.275C173.328 54.925 170.328 55.75 166.978 55.75ZM165.328 46.675C167.128 46.675 168.703 46.275 170.053 45.475C171.453 44.625 172.528 43.475 173.278 42.025C174.078 40.525 174.478 38.8 174.478 36.85C174.478 34.95 174.078 33.275 173.278 31.825C172.528 30.325 171.453 29.175 170.053 28.375C168.653 27.525 167.053 27.1 165.253 27.1C163.453 27.1 161.853 27.525 160.453 28.375C159.103 29.175 158.028 30.325 157.228 31.825C156.478 33.275 156.103 34.95 156.103 36.85C156.103 38.8 156.478 40.525 157.228 42.025C158.028 43.475 159.128 44.625 160.528 45.475C161.928 46.275 163.528 46.675 165.328 46.675ZM146.878 55V0.774996H156.703V27.7L155.053 36.4L156.628 45.25V55H146.878ZM206.12 55.75C202.82 55.75 199.845 54.925 197.195 53.275C194.545 51.625 192.47 49.375 190.97 46.525C189.47 43.675 188.72 40.475 188.72 36.925C188.72 33.325 189.47 30.1 190.97 27.25C192.47 24.4 194.545 22.15 197.195 20.5C199.845 18.85 202.82 18.025 206.12 18.025C208.72 18.025 211.045 18.55 213.095 19.6C215.145 20.65 216.77 22.125 217.97 24.025C219.22 25.875 219.895 27.975 219.995 30.325V43.375C219.895 45.775 219.22 47.9 217.97 49.75C216.77 51.6 215.145 53.075 213.095 54.175C211.045 55.225 208.72 55.75 206.12 55.75ZM207.92 46.675C210.67 46.675 212.895 45.775 214.595 43.975C216.295 42.125 217.145 39.75 217.145 36.85C217.145 34.95 216.745 33.275 215.945 31.825C215.195 30.325 214.12 29.175 212.72 28.375C211.37 27.525 209.77 27.1 207.92 27.1C206.12 27.1 204.52 27.525 203.12 28.375C201.77 29.175 200.695 30.325 199.895 31.825C199.145 33.275 198.77 34.95 198.77 36.85C198.77 38.8 199.145 40.525 199.895 42.025C200.695 43.475 201.77 44.625 203.12 45.475C204.52 46.275 206.12 46.675 207.92 46.675ZM216.62 55V45.25L218.195 36.4L216.62 27.7V18.775H226.37V55H216.62Z" fill="url(#paint0_radial_840_2)"/>
<defs>
<radialGradient id="paint0_radial_840_2" cx="0" cy="0" r="1" gradientUnits="userSpaceOnUse" gradientTransform="translate(114 27) rotate(90) scale(204 720)">
<stop stop-color="#D2BA3F"/>
<stop offset="0.276042" stop-color="#FFD66D"/>
<stop offset="1" stop-color="#B79849"/>
</radialGradient>
</defs>
</svg>
