<svg xmlns="http://www.w3.org/2000/svg" width="1536" height="864" fill="green" viewBox="0 0 1920 1080">
  <path fill="#00731e" d="M1021 49C1025.86 28.6755 1042.5 0 1042.5 0H1920V708.319C1920 708.319 1857.57 1094.5 1744 1094.5C1629.44 1094.5 1557 669 1508 562C1451.7 439.051 1324.75 303.953 1220.5 224.5C1117.5 146 1001.53 130.5 1021 49Z" />
  <path fill="#003d10" d="M1618.52 0H1920V116.518C1920 116.518 1893.85 152.384 1868.29 162.293C1816.24 182.475 1792.51 114.023 1736.84 106.531C1690.91 100.35 1657.36 140.607 1618.52 116.518C1591.64 99.8441 1571.25 80.1493 1575.58 49.9363C1579.16 24.988 1618.52 0 1618.52 0Z" />
  <path fill="#00731e" d="M0 721.809C0 721.809 71.5438 686.252 121.759 676.422C175 666 235.971 672.254 261.847 721.809C298.5 792 224.549 898.11 231.735 978.186C238 1048 326 1080 326 1080H0V721.809Z" />
  <path fill="#003d10" d="M209.5 800C240.565 769.21 282.435 800.88 313.5 831.671C344.842 862.736 344.842 913.605 313.5 944.67C282.435 975.461 236.065 1009.29 205 978.5C173.658 947.435 178.158 831.065 209.5 800Z" />
  <path fill="#003d10" d="M0 0H447.2C447.2 0 354.02 29.2615 347.2 60.4C334.402 112.449 406.432 153.318 385.583 202.305C353.328 278.312 247.023 159.961 160 163.6C88.5813 166.828 0 202.305 0 202.305V0Z" />
  <path fill="#003d10" d="M1611.11 657.188C1655.92 631.436 1691.61 628.688 1708.61 728.188C1725.61 827.688 1778.61 972.188 1708.61 1001.19C1638.61 1030.19 1302.11 1007.19 1254.11 1001.19C1206.11 995.188 1192.14 950.194 1243.61 914.688C1308.11 870.188 1522.67 984.142 1584.61 890.188C1624.18 830.156 1548.77 693.014 1611.11 657.188Z" />
</svg>
