<svg xmlns="http://www.w3.org/2000/svg" width="1920" height="1080" fill="green" viewBox="0 0 1920 1080">
<path fill="#00731e" d="M0 728C0 728 52.2574 752.204 72 781C111.839 839.109 16.8378 897.575 49.5 960C94.4305 1045.87 336.661 919.288 293.372 1006C273.05 1046.71 200.5 1083.5 200.5 1083.5L0 1079.5V728Z"/>
<path fill="#003d10" d="M1544 0H1920V436C1920 436 1853.39 431.511 1807.5 415.5C1761.61 399.489 1720.82 386.844 1685 354C1626.39 300.265 1702.56 218.842 1659.5 152C1607.76 71.6859 1378.26 118.327 1439.5 45C1467.98 10.8973 1544 0 1544 0Z"/>
<path fill="#00731e" d="M1774.91 0H1920.41V283.5C1920.41 283.5 1853 283.5 1811.41 271.5C1750.32 253.876 1695.68 235.455 1681.41 173.5C1672.34 134.13 1682.18 107.532 1701.41 72C1720.53 36.6607 1774.91 0 1774.91 0Z"/>
<path fill="#00731e" d="M145.297 329.488C99.1536 363.403 0.321777 351.487 0.321777 351.487V3.05176e-05H671.5C671.5 3.05176e-05 712.001 75.0053 634 123C482.892 215.979 293.558 -5.87422 193.289 140.495C143.086 213.78 216.872 276.88 145.297 329.488Z"/>
<path fill="#003d10" d="M123.803 273.49C77.6596 307.406 0.000732422 220.992 0.000732422 220.992V0.470398H580.726C580.726 0.470398 601.104 53.4816 539 81C422.766 132.504 245.245 -54.8723 144.976 91.4967C94.7729 164.782 195.378 220.882 123.803 273.49Z"/>
</svg>