<svg xmlns="http://www.w3.org/2000/svg" width="1920" height="1080" fill="green" viewBox="0 0 1920 1080">
<path fill="#003d10" d="M1920 1079.96H1465.08C1465.08 1079.96 1463.57 1036.7 1474.58 1012.46C1510.03 934.423 1779.74 1060.21 1833.51 993.463C1879.89 935.894 1785.01 855.751 1851.51 823.469C1875.72 811.719 1920 815.97 1920 815.97V1079.96Z"/>
<path fill="#00731e" d="M1920 1079.96H1688.54C1688.54 1079.96 1503.07 1082.46 1522.07 1031.96C1541.06 981.463 1821.73 1089.71 1875.51 1022.96C1921.89 965.393 1866.01 929.965 1873.01 904.466C1885.05 860.591 1920 871.467 1920 871.467V1079.96Z"/>
<path fill="#00731e" d="M145.297 329.488C99.1536 363.403 0.321777 351.487 0.321777 351.487V3.05176e-05H671.5C671.5 3.05176e-05 712.001 75.0053 634 123C482.892 215.979 293.558 -5.87422 193.289 140.495C143.086 213.78 216.872 276.88 145.297 329.488Z"/>
<path fill="#003d10" d="M123.803 273.49C77.6596 307.406 0.000732422 220.992 0.000732422 220.992V0.470398H580.726C580.726 0.470398 601.104 53.4816 539 81C422.766 132.504 245.245 -54.8723 144.976 91.4967C94.7729 164.782 195.378 220.882 123.803 273.49Z"/>
<path fill="#00731e" d="M1774.91 0H1920.41V283.5C1920.41 283.5 1853 283.5 1811.41 271.5C1750.32 253.876 1695.68 235.455 1681.41 173.5C1672.34 134.13 1682.18 107.532 1701.41 72C1720.53 36.6607 1774.91 0 1774.91 0Z"/>
</svg>